%FSTAX23Y23*%
%MOIN*%
%SFA1B1*%

%IPPOS*%
%ADD70C,0.011940*%
%ADD71C,0.031620*%
%ADD72C,0.028000*%
%ADD73C,0.126110*%
%ADD74C,0.023620*%
%LNheadband-pcb-1*%
%LPD*%
G54D70*
X01715Y0074D03*
X014D03*
G54D71*
X0131Y00372D03*
X0097Y011D03*
X01075Y00805D03*
X0118Y00725D03*
X0068Y00745D03*
X0073Y0096D03*
X0069Y00675D03*
X0021Y00761D03*
X0061Y0098D03*
X00665Y0079D03*
X00926Y01078D03*
X0079Y00761D03*
Y00797D03*
Y00833D03*
X00827Y0087D03*
Y00833D03*
Y00797D03*
Y00761D03*
Y00725D03*
X00865Y0087D03*
Y00833D03*
Y00797D03*
Y00761D03*
Y00725D03*
X00902Y0087D03*
Y00833D03*
Y00797D03*
Y00761D03*
Y00725D03*
X0094Y0087D03*
Y00833D03*
Y00797D03*
Y00761D03*
X0079Y00725D03*
X0094D03*
X0079Y0087D03*
X00845Y00515D03*
X004Y0064D03*
X00625Y0058D03*
X00505Y00805D03*
X00705Y01035D03*
X01Y00655D03*
X0085Y0056D03*
X007Y0062D03*
X01416Y00372D03*
X00705Y01145D03*
G54D72*
X01145Y00855D03*
X00041Y008D03*
X00305Y00645D03*
X00233Y00653D03*
X00045Y0083D03*
X0128Y0074D03*
X00105Y0063D03*
X0194Y0037D03*
X01645Y00375D03*
X00215Y0035D03*
X003D03*
X0039D03*
X00485D03*
X00585D03*
X0065Y00295D03*
X00765D03*
Y0018D03*
Y00045D03*
X0064D03*
Y00175D03*
X00535D03*
Y0005D03*
X0044D03*
Y00175D03*
X00325D03*
Y0005D03*
X00215D03*
X00105Y0017D03*
X00215D03*
Y00285D03*
X00105D03*
Y00395D03*
X00215D03*
Y0052D03*
X00105D03*
X0051Y00895D03*
X00415Y0098D03*
Y00895D03*
X0051Y0098D03*
X01145Y0076D03*
X0135Y00915D03*
Y00815D03*
X01445D03*
Y0071D03*
X0156Y00615D03*
Y0079D03*
X0182Y0086D03*
Y00735D03*
Y00535D03*
X01527Y00372D03*
X00585Y00405D03*
X0054Y0085D03*
X00338Y00813D03*
X0034Y00715D03*
Y0054D03*
X00655Y00845D03*
X00115Y0095D03*
X0034Y00845D03*
X00145Y0098D03*
G54D73*
X0008Y00075D03*
G54D74*
X01155Y00655D03*
Y00605D03*
M02*