%FSTAX23Y23*%
%MOMM*%
%SFA1B1*%

%IPPOS*%
%ADD44C,0.254000*%
%ADD52C,0.199898*%
%ADD59C,0.050800*%
%ADD98C,0.127000*%
%LNheadband-pcb-1*%
%LPD*%
G54D44*
X136609Y108457D02*
D01*
X136575Y10942*
X136474Y110378*
X136307Y111327*
X136074Y112261*
X135776Y113177*
X135415Y11407*
X134993Y114936*
X134512Y11577*
X133973Y116569*
X13338Y117328*
X132735Y118044*
X132043Y118713*
X131305Y119332*
X130525Y119898*
X129709Y120409*
X128858Y120861*
X127978Y121253*
X127073Y121582*
X126147Y121848*
X125205Y122048*
X124251Y122182*
X12329Y122249*
X122327*
X121366Y122182*
X120412Y122048*
X11947Y121848*
X118544Y121582*
X117639Y121253*
X116759Y120861*
X115908Y120409*
X115092Y119898*
X114312Y119332*
X113574Y118713*
X112882Y118044*
X112237Y117328*
X111644Y116569*
X111105Y11577*
X110624Y114936*
X110201Y11407*
X109841Y113177*
X109543Y112261*
X10931Y111327*
X109143Y110378*
X109042Y10942*
X109008Y108457*
X109042Y107495*
X109143Y106537*
X10931Y105588*
X109543Y104654*
X109841Y103738*
X110201Y102844*
X110624Y101979*
X111105Y101145*
X111644Y100346*
X112237Y99587*
X112882Y98871*
X113574Y98202*
X114312Y97583*
X115092Y97017*
X115908Y96506*
X116759Y96054*
X117639Y95662*
X118544Y95333*
X11947Y95067*
X120412Y94867*
X121366Y94733*
X122327Y94666*
X12329*
X124251Y94733*
X125205Y94867*
X126147Y95067*
X127073Y95333*
X127978Y95662*
X128858Y96054*
X129709Y96506*
X130525Y97017*
X131305Y97583*
X132043Y98202*
X132735Y98871*
X13338Y99587*
X133973Y100346*
X134512Y101145*
X134993Y101979*
X135415Y102844*
X135776Y103738*
X136074Y104654*
X136307Y105588*
X136474Y106537*
X136575Y107495*
X136609Y108457*
X121704Y136778D02*
D01*
X121671Y13772*
X121572Y138657*
X121409Y139585*
X121181Y1405*
X120889Y141396*
X120536Y142269*
X120123Y143116*
X119652Y143932*
X119125Y144714*
X118545Y145456*
X117915Y146156*
X117237Y146811*
X116515Y147417*
X115753Y147971*
X114954Y14847*
X114122Y148912*
X113261Y149296*
X112375Y149618*
X111469Y149878*
X110548Y150073*
X109615Y150205*
X108675Y15027*
X107732*
X106792Y150205*
X105859Y150073*
X104938Y149878*
X104032Y149618*
X103146Y149296*
X102285Y148912*
X101453Y14847*
X100654Y147971*
X99892Y147417*
X9917Y146811*
X98492Y146156*
X97862Y145456*
X97282Y144714*
X96755Y143932*
X96284Y143116*
X95871Y142269*
X95518Y141396*
X95226Y1405*
X94998Y139585*
X94835Y138657*
X94736Y13772*
X94703Y136778*
X94736Y135837*
X94835Y1349*
X94998Y133972*
X95226Y133057*
X95518Y132161*
X95871Y131288*
X96284Y130441*
X96755Y129625*
X97282Y128843*
X97862Y128101*
X98492Y127401*
X9917Y126746*
X99892Y12614*
X100654Y125586*
X101453Y125087*
X102285Y124645*
X103146Y124261*
X104032Y123939*
X104938Y123679*
X105859Y123483*
X106792Y123352*
X107732Y123287*
X108675*
X109615Y123352*
X110548Y123483*
X111469Y123679*
X112375Y123939*
X113261Y124261*
X114122Y124645*
X114954Y125087*
X115753Y125586*
X116515Y12614*
X117237Y126746*
X117915Y127401*
X118545Y128101*
X119125Y128843*
X119652Y129625*
X120123Y130441*
X120536Y131288*
X120889Y132161*
X121181Y133057*
X121409Y133972*
X121572Y1349*
X121671Y135837*
X121704Y136778*
X108542Y10833D02*
D01*
X108508Y109293*
X108407Y110251*
X10824Y1112*
X108007Y112134*
X107709Y11305*
X107348Y113943*
X106926Y114809*
X106445Y115643*
X105906Y116442*
X105313Y117201*
X104668Y117917*
X103976Y118586*
X103238Y119205*
X102458Y119771*
X101642Y120282*
X100791Y120734*
X99911Y121126*
X99006Y121455*
X9808Y121721*
X97138Y121921*
X96184Y122055*
X95223Y122122*
X9426*
X93299Y122055*
X92345Y121921*
X91403Y121721*
X90477Y121455*
X89572Y121126*
X88692Y120734*
X87841Y120282*
X87025Y119771*
X86245Y119205*
X85507Y118586*
X84815Y117917*
X8417Y117201*
X83577Y116442*
X83038Y115643*
X82557Y114809*
X82134Y113943*
X81774Y11305*
X81476Y112134*
X81243Y1112*
X81076Y110251*
X80975Y109293*
X80941Y10833*
X80975Y107368*
X81076Y10641*
X81243Y105461*
X81476Y104527*
X81774Y103611*
X82134Y102717*
X82557Y101852*
X83038Y101018*
X83577Y100219*
X8417Y9946*
X84815Y98744*
X85507Y98075*
X86245Y97456*
X87025Y9689*
X87841Y96379*
X88692Y95927*
X89572Y95535*
X90477Y95206*
X91403Y9494*
X92345Y9474*
X93299Y94606*
X9426Y94539*
X95223*
X96184Y94606*
X97138Y9474*
X9808Y9494*
X99006Y95206*
X99911Y95535*
X100791Y95927*
X101642Y96379*
X102458Y9689*
X103238Y97456*
X103976Y98075*
X104668Y98744*
X105313Y9946*
X105906Y100219*
X106445Y101018*
X106926Y101852*
X107348Y102717*
X107709Y103611*
X108007Y104527*
X10824Y105461*
X108407Y10641*
X108508Y107368*
X108542Y10833*
G54D52*
X80517Y94106D02*
X137032D01*
G54D59*
X90068Y71678D02*
Y71373D01*
X90169Y71678D02*
X89966D01*
X8993Y71519D02*
X89799D01*
X89756Y71533*
X89742Y71548*
X89727Y71577*
Y7162*
X89742Y71649*
X89756Y71664*
X89799Y71678*
X8993*
Y71373*
X89456Y71678D02*
X89601Y71373D01*
X89659Y71678D02*
X89456D01*
X85877D02*
Y71373D01*
X85978Y71678D02*
X85775D01*
X85739Y71519D02*
X85608D01*
X85565Y71533*
X85551Y71548*
X85536Y71577*
Y7162*
X85551Y71649*
X85565Y71664*
X85608Y71678*
X85739*
Y71373*
X85293Y71635D02*
X85308Y71664D01*
X85352Y71678*
X85381*
X85424Y71664*
X85453Y7162*
X85468Y71548*
Y71475*
X85453Y71417*
X85424Y71388*
X85381Y71373*
X85366*
X85323Y71388*
X85293Y71417*
X85279Y71461*
Y71475*
X85293Y71519*
X85323Y71548*
X85366Y71562*
X85381*
X85424Y71548*
X85453Y71519*
X85468Y71475*
X9337Y71678D02*
Y71373D01*
X93471Y71678D02*
X93268D01*
X93232Y71519D02*
X93101D01*
X93058Y71533*
X93044Y71548*
X93029Y71577*
Y7162*
X93044Y71649*
X93058Y71664*
X93101Y71678*
X93232*
Y71373*
X92786Y71678D02*
X92932D01*
X92946Y71548*
X92932Y71562*
X92888Y71577*
X92845*
X92801Y71562*
X92772Y71533*
X92758Y7149*
Y71461*
X92772Y71417*
X92801Y71388*
X92845Y71373*
X92888*
X92932Y71388*
X92946Y71402*
X92961Y71431*
X82575Y71678D02*
Y71373D01*
X82676Y71678D02*
X82473D01*
X82437Y71519D02*
X82306D01*
X82263Y71533*
X82249Y71548*
X82234Y71577*
Y7162*
X82249Y71649*
X82263Y71664*
X82306Y71678*
X82437*
Y71373*
X82021Y71678D02*
X82166Y71475D01*
X81948*
X82021Y71678D02*
Y71373D01*
X99593Y86029D02*
Y85724D01*
X99694Y86029D02*
X99491D01*
X99455Y8587D02*
X99324D01*
X99281Y85884*
X99267Y85899*
X99252Y85928*
Y85971*
X99267Y86*
X99281Y86015*
X99324Y86029*
X99455*
Y85724*
X99169Y85957D02*
Y85971D01*
X99155Y86*
X9914Y86015*
X99111Y86029*
X99053*
X99024Y86015*
X99009Y86*
X98995Y85971*
Y85942*
X99009Y85913*
X99039Y8587*
X99184Y85724*
X98981*
X99466Y89204D02*
Y88899D01*
X99567Y89204D02*
X99364D01*
X99328Y89045D02*
X99197D01*
X99154Y89059*
X9914Y89074*
X99125Y89103*
Y89146*
X9914Y89175*
X99154Y8919*
X99197Y89204*
X99328*
Y88899*
X99028Y89204D02*
X98868D01*
X98955Y89088*
X98912*
X98882Y89074*
X98868Y89059*
X98854Y89016*
Y88987*
X98868Y88943*
X98897Y88914*
X98941Y88899*
X98984*
X99028Y88914*
X99042Y88928*
X99057Y88958*
X99466Y92379D02*
Y92074D01*
X99567Y92379D02*
X99364D01*
X99328Y9222D02*
X99197D01*
X99154Y92234*
X9914Y92249*
X99125Y92278*
Y92321*
X9914Y9235*
X99154Y92365*
X99197Y92379*
X99328*
Y92074*
X99057Y92321D02*
X99028Y92336D01*
X98984Y92379*
Y92074*
G54D98*
X92836Y67346D02*
Y67817D01*
X93598*
Y67346*
X93199Y67817D02*
Y67527D01*
X92982Y67219D02*
X92945Y67146D01*
X92836Y67037*
X93598*
X93018Y65518D02*
X92945Y65554D01*
X92873Y65626*
X92836Y65699*
Y65844*
X92873Y65917*
X92945Y65989*
X93018Y66025*
X93127Y66062*
X93308*
X93417Y66025*
X9349Y65989*
X93562Y65917*
X93598Y65844*
Y65699*
X93562Y65626*
X9349Y65554*
X93417Y65518*
X93308*
Y65699D02*
Y65518D01*
X9309Y64908D02*
X93598D01*
X93199D02*
X93127Y64981D01*
X9309Y65053*
Y65162*
X93127Y65235*
X93199Y65307*
X93308Y65343*
X93381*
X9349Y65307*
X93562Y65235*
X93598Y65162*
Y65053*
X93562Y64981*
X9349Y64908*
X92836Y64632D02*
X92873Y64596D01*
X92836Y6456*
X928Y64596*
X92836Y64632*
X9309Y64596D02*
X93598D01*
X9309Y64426D02*
X93598D01*
X93236D02*
X93127Y64317D01*
X9309Y64244*
Y64135*
X93127Y64063*
X93236Y64027*
X93598*
X93308Y63827D02*
Y63392D01*
X93236*
X93163Y63428*
X93127Y63464*
X9309Y63537*
Y63646*
X93127Y63718*
X93199Y63791*
X93308Y63827*
X93381*
X9349Y63791*
X93562Y63718*
X93598Y63646*
Y63537*
X93562Y63464*
X9349Y63392*
X92836Y62793D02*
X93598D01*
X93199D02*
X93127Y62866D01*
X9309Y62938*
Y63047*
X93127Y6312*
X93199Y63192*
X93308Y63228*
X93381*
X9349Y63192*
X93562Y6312*
X93598Y63047*
Y62938*
X93562Y62866*
X9349Y62793*
X89661Y67346D02*
Y67817D01*
X90423*
Y67346*
X90024Y67817D02*
Y67527D01*
X89843Y67182D02*
X89807D01*
X89734Y67146*
X89698Y6711*
X89661Y67037*
Y66892*
X89698Y6682*
X89734Y66783*
X89807Y66747*
X89879*
X89952Y66783*
X90061Y66856*
X90423Y67219*
Y66711*
X89661Y65942D02*
X90423D01*
X89661D02*
Y6547D01*
X90024Y65942D02*
Y65652D01*
X89661Y65311D02*
X89698Y65274D01*
X89661Y65238*
X89625Y65274*
X89661Y65311*
X89915Y65274D02*
X90423D01*
X89661Y65104D02*
X90423D01*
X89661Y64836D02*
X90278D01*
X90387Y64799*
X90423Y64727*
Y64654*
X89915Y64944D02*
Y6469D01*
X90133Y64545D02*
Y6411D01*
X90061*
X89988Y64146*
X89952Y64183*
X89915Y64255*
Y64364*
X89952Y64437*
X90024Y64509*
X90133Y64545*
X90206*
X90315Y64509*
X90387Y64437*
X90423Y64364*
Y64255*
X90387Y64183*
X90315Y6411*
X89915Y63947D02*
X90423D01*
X90133D02*
X90024Y6391D01*
X89952Y63838*
X89915Y63765*
Y63656*
X90133Y63587D02*
Y63152D01*
X90061*
X89988Y63188*
X89952Y63225*
X89915Y63297*
Y63406*
X89952Y63479*
X90024Y63551*
X90133Y63587*
X90206*
X90315Y63551*
X90387Y63479*
X90423Y63406*
Y63297*
X90387Y63225*
X90315Y63152*
X89661Y62554D02*
X90423D01*
X90024D02*
X89952Y62626D01*
X89915Y62699*
Y62808*
X89952Y6288*
X90024Y62953*
X90133Y62989*
X90206*
X90315Y62953*
X90387Y6288*
X90423Y62808*
Y62699*
X90387Y62626*
X90315Y62554*
X85216Y67346D02*
Y67817D01*
X85978*
Y67346*
X85579Y67817D02*
Y67527D01*
X85362Y67219D02*
X85325Y67146D01*
X85216Y67037*
X85978*
X85216Y66062D02*
X85978D01*
X85216D02*
Y6559D01*
X85579Y66062D02*
Y65772D01*
X85216Y6543D02*
X85253Y65394D01*
X85216Y65358*
X8518Y65394*
X85216Y6543*
X8547Y65394D02*
X85978D01*
X85216Y65224D02*
X85978D01*
X85216Y64955D02*
X85833D01*
X85942Y64919*
X85978Y64846*
Y64774*
X8547Y65064D02*
Y6481D01*
X85688Y64665D02*
Y64229D01*
X85616*
X85543Y64266*
X85507Y64302*
X8547Y64375*
Y64483*
X85507Y64556*
X85579Y64629*
X85688Y64665*
X85761*
X8587Y64629*
X85942Y64556*
X85978Y64483*
Y64375*
X85942Y64302*
X8587Y64229*
X8547Y64066D02*
X85978D01*
X85688D02*
X85579Y6403D01*
X85507Y63957*
X8547Y63885*
Y63776*
X85688Y63707D02*
Y63272D01*
X85616*
X85543Y63308*
X85507Y63345*
X8547Y63417*
Y63526*
X85507Y63598*
X85579Y63671*
X85688Y63707*
X85761*
X8587Y63671*
X85942Y63598*
X85978Y63526*
Y63417*
X85942Y63345*
X8587Y63272*
X85216Y62673D02*
X85978D01*
X85579D02*
X85507Y62746D01*
X8547Y62819*
Y62927*
X85507Y63*
X85579Y63072*
X85688Y63109*
X85761*
X8587Y63072*
X85942Y63*
X85978Y62927*
Y62819*
X85942Y62746*
X8587Y62673*
X81787Y67219D02*
Y6769D01*
X82549*
Y67219*
X8215Y6769D02*
Y674D01*
X81933Y67092D02*
X81896Y67019D01*
X81787Y6691*
X82549*
X81969Y65391D02*
X81896Y65427D01*
X81824Y65499*
X81787Y65572*
Y65717*
X81824Y6579*
X81896Y65862*
X81969Y65898*
X82078Y65935*
X82259*
X82368Y65898*
X82441Y65862*
X82513Y6579*
X82549Y65717*
Y65572*
X82513Y65499*
X82441Y65427*
X82368Y65391*
X82259*
Y65572D02*
Y65391D01*
X82041Y64781D02*
X82549D01*
X8215D02*
X82078Y64854D01*
X82041Y64926*
Y65035*
X82078Y65108*
X8215Y6518*
X82259Y65216*
X82332*
X82441Y6518*
X82513Y65108*
X82549Y65035*
Y64926*
X82513Y64854*
X82441Y64781*
X81787Y64505D02*
X81824Y64469D01*
X81787Y64433*
X81751Y64469*
X81787Y64505*
X82041Y64469D02*
X82549D01*
X82041Y64299D02*
X82549D01*
X82187D02*
X82078Y6419D01*
X82041Y64117*
Y64008*
X82078Y63936*
X82187Y639*
X82549*
X82259Y637D02*
Y63265D01*
X82187*
X82114Y63301*
X82078Y63337*
X82041Y6341*
Y63519*
X82078Y63591*
X8215Y63664*
X82259Y637*
X82332*
X82441Y63664*
X82513Y63591*
X82549Y63519*
Y6341*
X82513Y63337*
X82441Y63265*
X81787Y62666D02*
X82549D01*
X8215D02*
X82078Y62739D01*
X82041Y62811*
Y6292*
X82078Y62993*
X8215Y63065*
X82259Y63101*
X82332*
X82441Y63065*
X82513Y62993*
X82549Y6292*
Y62811*
X82513Y62739*
X82441Y62666*
X94397Y86359D02*
X94868D01*
Y85597*
X94397*
X94868Y85997D02*
X94578D01*
X9427Y86359D02*
Y85597D01*
X9411Y85888D02*
X93675D01*
Y8596*
X93711Y86033*
X93748Y86069*
X9382Y86105*
X93929*
X94001Y86069*
X94074Y85997*
X9411Y85888*
Y85815*
X94074Y85706*
X94001Y85634*
X93929Y85597*
X9382*
X93748Y85634*
X93675Y85706*
X93076Y85997D02*
X93149Y86069D01*
X93222Y86105*
X9333*
X93403Y86069*
X93476Y85997*
X93512Y85888*
Y85815*
X93476Y85706*
X93403Y85634*
X9333Y85597*
X93222*
X93149Y85634*
X93076Y85706*
X92804Y86359D02*
Y85743D01*
X92768Y85634*
X92696Y85597*
X92623*
X92913Y86105D02*
X92659D01*
X92514D02*
Y85597D01*
Y85888D02*
X92478Y85997D01*
X92405Y86069*
X92333Y86105*
X92224*
X91973D02*
X92046Y86069D01*
X92119Y85997*
X92155Y85888*
Y85815*
X92119Y85706*
X92046Y85634*
X91973Y85597*
X91865*
X91792Y85634*
X9172Y85706*
X91683Y85815*
Y85888*
X9172Y85997*
X91792Y86069*
X91865Y86105*
X91973*
X91081Y86359D02*
Y85597D01*
Y85997D02*
X91154Y86069D01*
X91226Y86105*
X91335*
X91407Y86069*
X9148Y85997*
X91516Y85888*
Y85815*
X9148Y85706*
X91407Y85634*
X91335Y85597*
X91226*
X91154Y85634*
X91081Y85706*
X90878Y85888D02*
X90443D01*
Y8596*
X90479Y86033*
X90515Y86069*
X90588Y86105*
X90697*
X90769Y86069*
X90842Y85997*
X90878Y85888*
Y85815*
X90842Y85706*
X90769Y85634*
X90697Y85597*
X90588*
X90515Y85634*
X90443Y85706*
X89644Y86178D02*
Y86214D01*
X89608Y86287*
X89572Y86323*
X89499Y86359*
X89354*
X89282Y86323*
X89245Y86287*
X89209Y86214*
Y86142*
X89245Y86069*
X89318Y8596*
X89681Y85597*
X89173*
X94324Y89353D02*
X9436Y89426D01*
X94433Y89498*
X94506Y89534*
X94651*
X94723Y89498*
X94796Y89426*
X94832Y89353*
X94868Y89244*
Y89063*
X94832Y88954*
X94796Y88881*
X94723Y88809*
X94651Y88772*
X94506*
X94433Y88809*
X9436Y88881*
X94324Y88954*
X93929Y8928D02*
X94002Y89244D01*
X94074Y89172*
X9411Y89063*
Y8899*
X94074Y88881*
X94002Y88809*
X93929Y88772*
X9382*
X93748Y88809*
X93675Y88881*
X93639Y8899*
Y89063*
X93675Y89172*
X93748Y89244*
X9382Y8928*
X93929*
X93472D02*
Y88772D01*
Y89135D02*
X93363Y89244D01*
X9329Y8928*
X93182*
X93109Y89244*
X93073Y89135*
Y88772*
Y89135D02*
X92964Y89244D01*
X92891Y8928*
X92782*
X9271Y89244*
X92674Y89135*
Y88772*
X92434Y8928D02*
Y88772D01*
Y89135D02*
X92325Y89244D01*
X92253Y8928*
X92144*
X92071Y89244*
X92035Y89135*
Y88772*
Y89135D02*
X91926Y89244D01*
X91854Y8928*
X91745*
X91672Y89244*
X91636Y89135*
Y88772*
X91215Y8928D02*
X91288Y89244D01*
X91361Y89172*
X91397Y89063*
Y8899*
X91361Y88881*
X91288Y88809*
X91215Y88772*
X91107*
X91034Y88809*
X90961Y88881*
X90925Y8899*
Y89063*
X90961Y89172*
X91034Y89244*
X91107Y8928*
X91215*
X90758D02*
Y88772D01*
Y89135D02*
X90649Y89244D01*
X90577Y8928*
X90468*
X90396Y89244*
X90359Y89135*
Y88772*
X89089Y89534D02*
X89561D01*
Y88772*
X89089*
X89561Y89172D02*
X89271D01*
X88962Y89534D02*
Y88772D01*
X88803Y89063D02*
X88367D01*
Y89135*
X88404Y89208*
X8844Y89244*
X88513Y8928*
X88621*
X88694Y89244*
X88767Y89172*
X88803Y89063*
Y8899*
X88767Y88881*
X88694Y88809*
X88621Y88772*
X88513*
X8844Y88809*
X88367Y88881*
X87769Y89172D02*
X87841Y89244D01*
X87914Y8928*
X88023*
X88095Y89244*
X88168Y89172*
X88204Y89063*
Y8899*
X88168Y88881*
X88095Y88809*
X88023Y88772*
X87914*
X87841Y88809*
X87769Y88881*
X87497Y89534D02*
Y88918D01*
X87461Y88809*
X87388Y88772*
X87315*
X87606Y8928D02*
X87352D01*
X87207D02*
Y88772D01*
Y89063D02*
X8717Y89172D01*
X87098Y89244*
X87025Y8928*
X86916*
X86666D02*
X86739Y89244D01*
X86811Y89172*
X86847Y89063*
Y8899*
X86811Y88881*
X86739Y88809*
X86666Y88772*
X86557*
X86485Y88809*
X86412Y88881*
X86376Y8899*
Y89063*
X86412Y89172*
X86485Y89244*
X86557Y8928*
X86666*
X85774Y89534D02*
Y88772D01*
Y89172D02*
X85846Y89244D01*
X85919Y8928*
X86028*
X861Y89244*
X86173Y89172*
X86209Y89063*
Y8899*
X86173Y88881*
X861Y88809*
X86028Y88772*
X85919*
X85846Y88809*
X85774Y88881*
X85571Y89063D02*
X85135D01*
Y89135*
X85171Y89208*
X85208Y89244*
X8528Y8928*
X85389*
X85462Y89244*
X85534Y89172*
X85571Y89063*
Y8899*
X85534Y88881*
X85462Y88809*
X85389Y88772*
X8528*
X85208Y88809*
X85135Y88881*
X94397Y92709D02*
X94868D01*
Y91947*
X94397*
X94868Y92347D02*
X94578D01*
X9427Y92709D02*
Y91947D01*
X9411Y92238D02*
X93675D01*
Y9231*
X93711Y92383*
X93748Y92419*
X9382Y92455*
X93929*
X94001Y92419*
X94074Y92347*
X9411Y92238*
Y92165*
X94074Y92056*
X94001Y91984*
X93929Y91947*
X9382*
X93748Y91984*
X93675Y92056*
X93076Y92347D02*
X93149Y92419D01*
X93222Y92455*
X9333*
X93403Y92419*
X93476Y92347*
X93512Y92238*
Y92165*
X93476Y92056*
X93403Y91984*
X9333Y91947*
X93222*
X93149Y91984*
X93076Y92056*
X92804Y92709D02*
Y92093D01*
X92768Y91984*
X92696Y91947*
X92623*
X92913Y92455D02*
X92659D01*
X92514D02*
Y91947D01*
Y92238D02*
X92478Y92347D01*
X92405Y92419*
X92333Y92455*
X92224*
X91973D02*
X92046Y92419D01*
X92119Y92347*
X92155Y92238*
Y92165*
X92119Y92056*
X92046Y91984*
X91973Y91947*
X91865*
X91792Y91984*
X9172Y92056*
X91683Y92165*
Y92238*
X9172Y92347*
X91792Y92419*
X91865Y92455*
X91973*
X91081Y92709D02*
Y91947D01*
Y92347D02*
X91154Y92419D01*
X91226Y92455*
X91335*
X91407Y92419*
X9148Y92347*
X91516Y92238*
Y92165*
X9148Y92056*
X91407Y91984*
X91335Y91947*
X91226*
X91154Y91984*
X91081Y92056*
X90878Y92238D02*
X90443D01*
Y9231*
X90479Y92383*
X90515Y92419*
X90588Y92455*
X90697*
X90769Y92419*
X90842Y92347*
X90878Y92238*
Y92165*
X90842Y92056*
X90769Y91984*
X90697Y91947*
X90588*
X90515Y91984*
X90443Y92056*
X89681Y92564D02*
X89608Y92601D01*
X89499Y92709*
Y91947*
M02*