%FSTAX23Y23*%
%MOIN*%
%SFA1B1*%

%IPPOS*%
%ADD37C,0.010000*%
%ADD39C,0.003940*%
%ADD40C,0.023620*%
%ADD41C,0.050000*%
%LNheadband-pcb-1*%
%LPD*%
G36*
X02016Y00355D02*
X00825D01*
Y00013*
X00013*
Y01226*
X02016*
Y00355*
G37*
%LNheadband-pcb-2*%
%LPC*%
G36*
X0016Y0078D02*
X00152Y00778D01*
X00145Y00774*
X00141Y00767*
X00139Y0076*
X00141Y00752*
X00145Y00745*
X00146Y00745*
Y00736*
X0011Y007*
X00109Y007*
X00101Y00699*
X00095Y00694*
X0009Y00688*
X00089Y0068*
X0009Y00672*
X00095Y00666*
X00101Y00661*
X00109Y0066*
X0011Y0066*
X00217Y00553*
Y00383*
X00216Y00383*
X00212Y00376*
X0021Y00368*
X00212Y00361*
X00216Y00354*
X00223Y0035*
X00231Y00348*
X00232Y00348*
X00335Y00245*
X00339Y00242*
X00345Y00241*
X0035*
X0035Y0024*
X00357Y00236*
X00365Y00234*
X00372Y00236*
X00379Y0024*
X00383Y00247*
X00385Y00255*
X00384Y00256*
X0058Y00451*
X0093*
X00935Y00452*
X00939Y00455*
X011Y00616*
X01164*
X01169Y00617*
X01174Y0062*
X01189Y00635*
X01192Y00639*
X01193Y00644*
Y0071*
X01194Y0071*
X01198Y00717*
X012Y00725*
X01198Y00732*
X01194Y00739*
X01187Y00743*
X0118Y00745*
X01172Y00743*
X01165Y00739*
X01161Y00732*
X01159Y00725*
X01161Y00717*
X01165Y0071*
X01166Y0071*
Y0065*
X01159Y00643*
X01094*
X01089Y00642*
X01085Y00639*
X00924Y00478*
X00575*
X00569Y00477*
X00565Y00474*
X00415Y00324*
X00411Y00326*
X00412Y00331*
X0041Y00339*
X00406Y00346*
X00405Y00346*
Y00473*
X00404Y00478*
X00401Y00482*
X00349Y00533*
X0035Y00535*
X00348Y00542*
X00344Y00549*
X00337Y00553*
X0033Y00555*
X00322Y00553*
X00315Y00549*
X00311Y00542*
X00309Y00535*
X00311Y00527*
X00315Y0052*
X00322Y00516*
X0033Y00514*
X00331Y00515*
X00378Y00467*
Y00346*
X00377Y00346*
X00373Y00339*
X00371Y00331*
X00373Y00324*
X00377Y00317*
X00384Y00313*
X00391Y00311*
X00396Y00312*
X00399Y00308*
X00366Y00274*
X00365Y00275*
X00357Y00273*
X0035Y00269*
X00349Y00269*
X00251Y00367*
X00251Y00368*
X00249Y00376*
X00245Y00383*
X00244Y00383*
Y00553*
X00314Y00623*
X00317Y00628*
X00318Y00633*
Y00676*
X00319Y00677*
X00324Y00683*
X00325Y00691*
X00324Y00699*
X00319Y00705*
X00313Y0071*
X00305Y00711*
X00297Y0071*
X00291Y00705*
X00286Y00699*
X00285Y00691*
X00286Y00683*
X00291Y00677*
X00292Y00676*
Y00638*
X00231Y00577*
X00131Y00677*
Y00683*
X00169Y00721*
X00172Y00726*
X00173Y00731*
Y00745*
X00174Y00745*
X00178Y00752*
X0018Y0076*
X00178Y00767*
X00174Y00774*
X00167Y00778*
X0016Y0078*
G37*
G36*
X00705Y01165D02*
X00697Y01163D01*
X0069Y01159*
X00686Y01152*
X00684Y01145*
X00686Y01137*
X0069Y0113*
X00691Y0113*
Y01049*
X0069Y01049*
X00686Y01042*
X00684Y01035*
X00686Y01027*
X0069Y0102*
X00691Y0102*
Y0093*
X00675Y00914*
X00672Y00909*
X00671Y00904*
Y00812*
X00667Y00809*
X00665Y0081*
X00657Y00808*
X0065Y00804*
X00646Y00797*
X00644Y0079*
X00646Y00782*
X0065Y00775*
X0065Y00774*
X00645Y00769*
X00642Y00765*
X00641Y0076*
Y00674*
X00642Y00669*
X00645Y00665*
X0067Y0064*
X00674Y00637*
X00679Y00636*
X00681*
X00684Y00631*
X00681Y00627*
X00679Y0062*
X00681Y00612*
X00685Y00605*
X00692Y00601*
X007Y00599*
X00701Y006*
X0075Y0055*
X00754Y00547*
X0076Y00546*
X00835*
X00835Y00545*
X00842Y00541*
X0085Y00539*
X00857Y00541*
X00864Y00545*
X00868Y00552*
X0087Y0056*
X00868Y00567*
X00864Y00574*
X00857Y00578*
X0085Y0058*
X00842Y00578*
X00835Y00574*
X00835Y00573*
X00765*
X00719Y00618*
X0072Y0062*
X00718Y00627*
X00715Y00631*
X00718Y00636*
X00991*
X00992Y00636*
X01Y00634*
X01007Y00636*
X01014Y0064*
X01018Y00647*
X0102Y00655*
X01019Y00656*
X01084Y0072*
X01087Y00724*
X01088Y0073*
Y0079*
X01089Y0079*
X01093Y00797*
X01095Y00805*
X01093Y00812*
X01089Y00819*
X01082Y00823*
X01075Y00825*
X01067Y00823*
X0106Y00819*
X01056Y00812*
X01054Y00805*
X01056Y00797*
X0106Y0079*
X01061Y0079*
Y00735*
X01001Y00674*
X01Y00675*
X00992Y00673*
X00985Y00669*
X00981Y00663*
X00711*
X00708Y00668*
X0071Y00675*
X00708Y00682*
X00704Y00689*
X00703Y00689*
Y00703*
X00702Y00708*
X00699Y00712*
X00693Y00718*
Y0073*
X00694Y0073*
X00698Y00737*
X00699Y0074*
X00715Y00756*
X00718Y0076*
X00719Y00765*
Y00798*
X00718Y00802*
Y00869*
X00912Y01063*
X00918Y01059*
X00926Y01058*
X00934Y01059*
X0094Y01064*
X00945Y0107*
X00946Y01078*
X00946Y01082*
X00949Y01086*
X00955*
X00955Y01085*
X00962Y01081*
X0097Y01079*
X00971Y0108*
X01099Y00952*
X01103Y00949*
X01108Y00948*
X01236Y00819*
Y0065*
X01004Y00418*
X00624*
X00624Y00419*
X00617Y00423*
X0061Y00425*
X00602Y00423*
X00595Y00419*
X00591Y00412*
X00589Y00405*
X00591Y00397*
X00595Y0039*
X00602Y00386*
X0061Y00384*
X00617Y00386*
X00624Y0039*
X00624Y00391*
X0101*
X01015Y00392*
X01019Y00395*
X01259Y00635*
X01262Y00639*
X01263Y00645*
Y00825*
X01262Y0083*
X01259Y00834*
X01123Y0097*
X01119Y00973*
X01114Y00974*
X00989Y01098*
X0099Y011*
X00988Y01107*
X00984Y01114*
X00977Y01118*
X0097Y0112*
X00962Y01118*
X00955Y01114*
X00954Y01112*
X00946*
X00946Y01112*
X00941Y01115*
X00936Y01116*
X00873*
X00868Y01115*
X00863Y01112*
X00731Y00979*
X0073Y0098*
X00723Y00978*
X00718Y00981*
Y0102*
X00719Y0102*
X00723Y01027*
X00725Y01035*
X00723Y01042*
X00719Y01049*
X00718Y01049*
Y0113*
X00719Y0113*
X00723Y01137*
X00725Y01145*
X00723Y01152*
X00719Y01159*
X00712Y01163*
X00705Y01165*
G37*
G36*
X00145Y00555D02*
X00137Y00553D01*
X0013Y00549*
X00126Y00542*
X00124Y00535*
X00126Y00527*
X0013Y0052*
X00131Y0052*
Y00387*
X0013Y00387*
X00126Y0038*
X00124Y00373*
X00126Y00365*
X0013Y00358*
X00137Y00354*
X00145Y00352*
X00152Y00354*
X00159Y00358*
X00163Y00365*
X00165Y00373*
X00163Y0038*
X00159Y00387*
X00158Y00387*
Y0052*
X00159Y0052*
X00163Y00527*
X00165Y00535*
X00163Y00542*
X00159Y00549*
X00152Y00553*
X00145Y00555*
G37*
G36*
X00575Y00905D02*
X00567Y00903D01*
X0056Y00899*
X0056Y00898*
X00324*
X00324Y00899*
X00317Y00903*
X0031Y00905*
X00302Y00903*
X00295Y00899*
X00291Y00892*
X00289Y00885*
X00291Y00877*
X00295Y0087*
X00302Y00866*
X0031Y00864*
X00317Y00866*
X00324Y0087*
X00324Y00871*
X0056*
X0056Y0087*
X00567Y00866*
X00575Y00864*
X00582Y00866*
X00589Y0087*
X00593Y00877*
X00595Y00885*
X00593Y00892*
X00589Y00899*
X00582Y00903*
X00575Y00905*
G37*
G36*
X00105Y01175D02*
X00097Y01173D01*
X0009Y01169*
X00086Y01162*
X00084Y01155*
X00085Y01153*
X00025Y01094*
X00022Y0109*
X00021Y01085*
Y00819*
X00022Y00814*
X00025Y0081*
X00065Y0077*
X00064Y00769*
X00066Y00761*
X0007Y00755*
X00077Y00751*
X00085Y00749*
X00092Y00751*
X00099Y00755*
X00103Y00761*
X00105Y00769*
X00103Y00777*
X00099Y00783*
X00092Y00788*
X00085Y00789*
X00083Y00789*
X00048Y00825*
Y00986*
X00053Y00989*
X00057Y00986*
X00065Y00984*
X00072Y00986*
X00079Y0099*
X00079Y00991*
X00555*
X00555Y0099*
X00562Y00986*
X0057Y00984*
X00577Y00986*
X00584Y0099*
X00588Y00997*
X0059Y01005*
X00588Y01012*
X00584Y01019*
X00577Y01023*
X0057Y01025*
X00562Y01023*
X00555Y01019*
X00555Y01018*
X00079*
X00079Y01019*
X00078Y01019*
Y01079*
X0009Y01091*
X0017*
X0017Y0109*
X00177Y01086*
X00185Y01084*
X00192Y01086*
X00199Y0109*
X00203Y01097*
X00205Y01105*
X00203Y01112*
X00199Y01119*
X00192Y01123*
X00185Y01125*
X00177Y01123*
X0017Y01119*
X0017Y01118*
X00093*
X00091Y01122*
X00103Y01135*
X00105Y01134*
X00112Y01136*
X00119Y0114*
X00123Y01147*
X00125Y01155*
X00123Y01162*
X00119Y01169*
X00112Y01173*
X00105Y01175*
G37*
G36*
X014Y00765D02*
X01393Y00765D01*
X01387Y00762*
X01381Y00758*
X01377Y00752*
X01374Y00746*
X01374Y0074*
X01374Y00733*
X01377Y00727*
X01381Y00721*
X01387Y00717*
X01393Y00714*
X014Y00714*
X01406Y00714*
X01413Y00717*
X01418Y00721*
X01422Y00727*
X01425Y00733*
X01425Y0074*
X01425Y00746*
X01422Y00752*
X01418Y00758*
X01413Y00762*
X01406Y00765*
X014Y00765*
G37*
G36*
X01715D02*
X01708Y00765D01*
X01702Y00762*
X01696Y00758*
X01692Y00752*
X01689Y00746*
X01689Y0074*
X01689Y00733*
X01692Y00727*
X01696Y00721*
X01702Y00717*
X01708Y00714*
X01715Y00714*
X01721Y00714*
X01727Y00717*
X01733Y00721*
X01737Y00727*
X0174Y00733*
X0174Y0074*
X0174Y00746*
X01737Y00752*
X01733Y00758*
X01727Y00762*
X01721Y00765*
X01715Y00765*
G37*
%LNheadband-pcb-3*%
%LPD*%
G54D37*
X01566Y00784D02*
Y00796D01*
X01635Y00865*
X00109Y0068D02*
X00231Y00558D01*
X00305Y00633D02*
Y00691D01*
X00231Y00558D02*
X00305Y00633D01*
X00065Y01005D02*
X0057D01*
X0031Y00885D02*
X00575D01*
X0016Y00731D02*
Y0076D01*
X00109Y0068D02*
X0016Y00731D01*
X00231Y00368D02*
Y00558D01*
Y00368D02*
X00345Y00255D01*
X00365*
X00575Y00465D02*
X0093D01*
X00365Y00255D02*
X00575Y00465D01*
X0061Y00405D02*
X0101D01*
X00035Y00819D02*
X00085Y00769D01*
X00035Y00819D02*
Y01085D01*
X00105Y01155*
X00085Y01105D02*
X00185D01*
X00065Y01085D02*
X00085Y01105D01*
X00065Y01005D02*
Y01085D01*
X0033Y00535D02*
X00391Y00473D01*
Y00331D02*
Y00473D01*
X00145Y00373D02*
Y00535D01*
X0131Y00372D02*
X01416D01*
X01114Y00961D02*
X0125Y00825D01*
X01108Y00961D02*
X01114D01*
X0097Y011D02*
X01108Y00961D01*
X0125Y00645D02*
Y00825D01*
X0093Y00465D02*
X01094Y00629D01*
X01164*
X0118Y00644*
Y00725*
X0068Y00713D02*
Y00745D01*
X00685*
X00705Y00765*
X0069Y00675D02*
Y00703D01*
X0068Y00713D02*
X0069Y00703D01*
X0101Y00405D02*
X0125Y00645D01*
X00873Y01103D02*
X00936D01*
X0073Y0096D02*
X00873Y01103D01*
X0094Y01099D02*
X00969D01*
X00936Y01103D02*
X0094Y01099D01*
X00684Y00904D02*
X00705Y00925D01*
X00684Y0078D02*
Y00904D01*
X00655Y00674D02*
Y0076D01*
Y00674D02*
X00679Y0065D01*
X00995*
X01Y00655*
X00669Y00774D02*
X00684D01*
X00655Y0076D02*
X00669Y00774D01*
X0128Y0074D02*
Y00845D01*
X0194Y0037D02*
Y00415D01*
X01865Y0049D02*
X0194Y00415D01*
X01645Y00375D02*
X0175D01*
X01865Y0049*
X01145Y0076D02*
Y00855D01*
X0128Y00845D02*
X0135Y00915D01*
Y00815D02*
X01445D01*
Y0071D02*
X0154Y00615D01*
X0156*
X01635Y00865D02*
X01815D01*
X0182Y0086*
Y00535D02*
Y00735D01*
X01416Y00372D02*
X01527D01*
X00705Y00799D02*
Y00875D01*
X00969Y01099D02*
X0097Y011D01*
X0061Y0088D02*
Y0098D01*
X00665Y0079D02*
X00675D01*
X00684Y0078*
X00908Y01078D02*
X00926D01*
X00705Y00875D02*
X00908Y01078D01*
X00625Y0058D02*
X0069Y00515D01*
X00845*
X00705Y00765D02*
Y00798D01*
X00684Y00775D02*
Y0078D01*
X00705Y00799D02*
X00705Y00798D01*
X00684Y00775D02*
X00684Y00774D01*
X00684Y00775D02*
X00684D01*
X00505Y00805D02*
X00535D01*
X0061Y0088*
X01075Y0073D02*
Y00805D01*
X01Y00655D02*
X01075Y0073D01*
X0076Y0056D02*
X0085D01*
X007Y0062D02*
X0076Y0056D01*
X00705Y01035D02*
Y01145D01*
Y00925D02*
Y01035D01*
G54D39*
X01715Y0074D03*
X014D03*
G54D40*
X01566Y00784D03*
X0196Y00908D03*
X01692D03*
X00455Y00946D03*
X0041Y01055D03*
X00505Y01171D03*
X0038Y01175D03*
X00055Y00475D03*
X0006Y0025D03*
X00525Y00505D03*
X00663Y00195D03*
X00305Y00691D03*
X0057Y01005D03*
X00575Y00885D03*
X0031D03*
X0016Y0076D03*
X00109Y0068D03*
X00231Y00368D03*
X00365Y00255D03*
X0061Y00405D03*
X00105Y01155D03*
X00085Y00769D03*
X00185Y01105D03*
X00065Y01005D03*
X0033Y00535D03*
X00145D03*
X00391Y00331D03*
X00145Y00373D03*
X0131Y00372D03*
X01145Y00855D03*
X0097Y011D03*
X01075Y00805D03*
X0118Y00725D03*
X0068Y00745D03*
X01155Y00655D03*
X0073Y0096D03*
X0069Y00675D03*
X0128Y0074D03*
X0194Y0037D03*
X01645Y00375D03*
X01145Y0076D03*
X0135Y00915D03*
Y00815D03*
X01445D03*
Y0071D03*
X0156Y00615D03*
X0182Y0086D03*
Y00735D03*
Y00535D03*
X01527Y00372D03*
X0061Y0098D03*
X00665Y0079D03*
X00926Y01078D03*
X01155Y00605D03*
X0079Y00761D03*
Y00797D03*
Y00833D03*
X00827Y0087D03*
Y00833D03*
Y00797D03*
Y00761D03*
Y00725D03*
X00865Y0087D03*
Y00833D03*
Y00797D03*
Y00761D03*
Y00725D03*
X00902Y0087D03*
Y00833D03*
Y00797D03*
Y00761D03*
Y00725D03*
X0094Y0087D03*
Y00833D03*
Y00797D03*
Y00761D03*
X0079Y00725D03*
X0094D03*
X0079Y0087D03*
X00845Y00515D03*
X004Y0064D03*
X00625Y0058D03*
X00505Y00805D03*
X00705Y01035D03*
X01Y00655D03*
X0085Y0056D03*
X007Y0062D03*
X01416Y00372D03*
X00705Y01145D03*
G54D41*
X01622Y00545D03*
X01415Y0054D03*
M02*