%FSTAX23Y23*%
%MOMM*%
%SFA1B1*%

%IPPOS*%
%AMD29*
4,1,4,0.406400,-0.017780,-0.017780,0.406400,-0.406400,0.017780,0.017780,-0.406400,0.406400,-0.017780,0.0*
%
%AMD30*
4,1,4,0.017780,0.406400,-0.406400,-0.017780,-0.017780,-0.406400,0.406400,0.017780,0.017780,0.406400,0.0*
%
%ADD11R,0.400050X0.500126*%
%ADD12R,0.899922X0.899922*%
%ADD13R,0.800100X0.800100*%
%ADD14R,0.990600X0.990600*%
%ADD15R,1.400048X1.150112*%
%ADD16R,1.800098X0.999998*%
%ADD17R,0.299974X0.949960*%
%ADD18R,0.199898X0.199898*%
%ADD19O,0.279908X0.850138*%
%ADD20R,0.279908X0.850138*%
%ADD21R,0.850138X0.279908*%
%ADD22R,5.150104X5.150104*%
%ADD23R,3.500120X2.500122*%
%ADD24R,0.999998X1.999996*%
%ADD25O,0.599948X2.199894*%
%ADD26R,0.599948X0.549910*%
%ADD27R,0.549910X0.599948*%
%ADD28R,1.100074X1.400048*%
G04~CAMADD=29~9~0.0~0.0~236.2~216.5~0.0~0.0~0~0.0~0.0~0.0~0.0~0~0.0~0.0~0.0~0.0~0~0.0~0.0~0.0~315.0~320.0~319.0*
%ADD29D29*%
G04~CAMADD=30~9~0.0~0.0~236.2~216.5~0.0~0.0~0~0.0~0.0~0.0~0.0~0~0.0~0.0~0.0~0.0~0~0.0~0.0~0.0~45.0~320.0~319.0*
%ADD30D30*%
%ADD31R,2.100072X2.999994*%
%ADD32R,0.800100X1.599946*%
%ADD33R,2.999994X2.100072*%
%ADD34R,1.599946X0.800100*%
%ADD35R,2.400046X0.800100*%
%ADD36R,1.100074X3.500120*%
%ADD37R,1.500124X3.400044*%
%ADD38R,0.949960X0.949960*%
%ADD39R,4.999990X2.999994*%
%ADD40R,2.999994X4.999990*%
%ADD41R,0.949960X0.949960*%
%ADD42R,1.899920X2.700020*%
%LNheadband-pcb-1*%
%LPD*%
G54D11*
X118706Y61671D03*
G54D12*
X117474Y61848D03*
G54D13*
X115442Y61975D03*
G54D14*
X104774Y6388D03*
G54D15*
X96479Y79882D03*
X98678D03*
Y81482D03*
X96479D03*
G54D16*
X112648Y73318D03*
Y75818D03*
G54D17*
X132304Y110248D03*
X132939D03*
X133603D03*
X134253D03*
Y106298D03*
X133603D03*
X132954D03*
X132304D03*
X103758Y110235D03*
X104393D03*
X105058D03*
X105708D03*
Y106286D03*
X105058D03*
X104408D03*
X103758D03*
X123697Y96011D03*
X123062D03*
X122398D03*
X121748D03*
Y99961D03*
X122398D03*
X123048D03*
X123697D03*
X94898Y96265D03*
X94263D03*
X93598D03*
X92949D03*
Y100215D03*
X93598D03*
X94248D03*
X94898D03*
G54D18*
X104101Y74187D03*
Y74587D03*
X104501D03*
X104901D03*
X105302D03*
Y74187D03*
Y73786D03*
X104901D03*
X104501D03*
X104101D03*
G54D19*
X104647Y79374D03*
G54D20*
X105148Y79374D03*
X105647D03*
X106148D03*
X106647D03*
X107147D03*
X107647D03*
X108147D03*
X108647D03*
X109147D03*
X109647D03*
X110147D03*
Y86324D03*
X109647D03*
X109147D03*
X108647D03*
X108147D03*
X107647D03*
X107147D03*
X106647D03*
X106148D03*
X105647D03*
X105148D03*
X104647D03*
G54D21*
X110873Y80099D03*
Y806D03*
Y81099D03*
Y816D03*
Y82099D03*
Y826D03*
Y83099D03*
Y836D03*
Y84099D03*
Y846D03*
Y85099D03*
Y856D03*
X103923D03*
Y85099D03*
Y846D03*
Y84099D03*
Y836D03*
Y83099D03*
Y826D03*
Y82099D03*
Y816D03*
Y81099D03*
Y806D03*
Y80099D03*
G54D22*
X107398Y82849D03*
G54D23*
X130669Y80241D03*
G54D24*
X132968Y7404D03*
X130669D03*
X128369D03*
G54D25*
X8928Y77863D03*
X9055D03*
X9182D03*
X9309D03*
X8928Y82664D03*
X9055D03*
X9182D03*
X9309D03*
X83057Y77863D03*
X84327D03*
X85597D03*
X86867D03*
X83057Y82664D03*
X84327D03*
X85597D03*
X86867D03*
G54D26*
X134619Y112013D03*
X133769D03*
X132333D03*
X131484D03*
X105624Y112267D03*
X104774D03*
X103631D03*
X102782D03*
X112902Y82041D03*
X112052D03*
X10452Y87756D03*
X105371D03*
X101258Y83565D03*
X102107D03*
X90843Y84835D03*
X91693D03*
X84581D03*
X85432D03*
X106132Y77596D03*
X105282D03*
X103289D03*
X104139D03*
X119633Y62483D03*
X118784D03*
X112179Y85089D03*
X113029D03*
X103377Y87756D03*
X102527D03*
X10579Y65023D03*
X104941D03*
X102782D03*
X103631D03*
X102107Y82549D03*
X101258D03*
X112179Y84073D03*
X113029D03*
X102107Y79628D03*
X101258D03*
X101941Y81533D03*
X101091D03*
X91782Y73786D03*
X90931D03*
X85597D03*
X84747D03*
G54D27*
X133222Y102957D03*
Y102107D03*
X118236Y99353D03*
Y100202D03*
X129666Y98591D03*
Y9944D03*
X126999Y97916D03*
Y97067D03*
X103758Y102615D03*
Y101766D03*
X89915Y99607D03*
Y100456D03*
X101853Y99821D03*
Y100671D03*
X9817Y97916D03*
Y97067D03*
X99948Y83692D03*
Y84542D03*
X9182Y75907D03*
Y75056D03*
X85597Y75907D03*
Y75056D03*
X101599Y64134D03*
Y64985D03*
X106806Y89153D03*
Y90003D03*
X127507Y100456D03*
Y99607D03*
X116077Y101726D03*
Y100876D03*
X131571Y101179D03*
Y100329D03*
X99821Y101814D03*
Y100964D03*
X88137Y103339D03*
Y102488D03*
X99821Y9944D03*
Y98591D03*
X106298Y76541D03*
Y75691D03*
X103123Y76541D03*
Y75691D03*
X115061Y73151D03*
Y74002D03*
Y76033D03*
Y75183D03*
X105282Y76541D03*
Y75691D03*
X104266Y76541D03*
Y75691D03*
X98043Y6562D03*
Y64769D03*
X10579Y89153D03*
Y90003D03*
X11214Y80098D03*
Y79247D03*
G54D28*
X11605Y82041D03*
X114299D03*
G54D29*
X107949Y71373D03*
X10855Y70773D03*
X113156Y67182D03*
X113757Y66582D03*
X110997Y69341D03*
X111598Y68741D03*
X101634Y73498D03*
X102234Y72897D03*
X11535Y64989D03*
X11595Y64388D03*
X108838Y72262D03*
X109439Y71662D03*
X102996Y73659D03*
X102396Y7426D03*
X98043Y68071D03*
X97443Y68672D03*
X100202Y7023D03*
X100803Y6963D03*
X99567Y65658D03*
X100168Y65058D03*
X10452Y72262D03*
X10392Y72863D03*
X103724Y71535D03*
X103123Y72135D03*
G54D30*
X106552Y73024D03*
X107153Y73625D03*
X108076Y73024D03*
X108677Y73625D03*
X97281Y67309D03*
X96681Y66709D03*
X9944Y69468D03*
X9884Y68868D03*
X1022Y71339D03*
X101599Y70738D03*
X107187Y72135D03*
X106587Y71535D03*
X113953Y65185D03*
X114553Y65785D03*
X112429Y67979D03*
X113029Y68579D03*
X109473Y69595D03*
X110074Y70196D03*
X101472Y72135D03*
X100872Y71535D03*
G54D31*
X104404Y126005D03*
X111973D03*
X92826Y9091D03*
X82717D03*
G54D32*
X106933Y128904D03*
X109433D03*
X108183D03*
X90257Y8801D03*
X89006D03*
X87756D03*
X85257D03*
X86507D03*
G54D33*
X11214Y104012D03*
Y112852D03*
X84222Y104072D03*
Y112912D03*
G54D34*
X11504Y107802D03*
Y106552D03*
Y109053D03*
Y110303D03*
X87121Y107862D03*
Y106612D03*
Y109113D03*
Y110362D03*
G54D35*
X122554Y842D03*
X11849D03*
X122605Y8547D03*
X11849D03*
X122554Y8674D03*
X11849D03*
X122554Y8801D03*
X11849D03*
X122554Y8928D03*
X11849D03*
G54D36*
X129634Y84736D03*
X131634D03*
G54D37*
X127284Y90296D03*
X133984D03*
G54D38*
X120977Y76834D03*
X122427D03*
X108511Y91312D03*
X10706D03*
G54D39*
X122808Y103458D03*
Y113457D03*
X108203Y131779D03*
Y141778D03*
X94788Y103204D03*
Y113203D03*
G54D40*
X127808Y108457D03*
X117809D03*
X113203Y136778D03*
X103204D03*
X99788Y108203D03*
X89788D03*
G54D41*
X10452Y90731D03*
Y8928D03*
G54D42*
X132968Y70611D03*
X128369D03*
M02*