%FSTAX23Y23*%
%MOIN*%
%SFA1B1*%

%IPPOS*%
%ADD40C,0.023620*%
%ADD50R,0.029650X0.031620*%
%ADD51R,0.045400X0.019810*%
%ADD52R,0.031620X0.029650*%
%ADD53R,0.019810X0.045400*%
%ADD54R,0.067060X0.141860*%
%ADD55R,0.051310X0.145790*%
%ADD56R,0.102490X0.039500*%
%ADD57R,0.039500X0.070990*%
%ADD58R,0.090680X0.126110*%
%ADD59R,0.039500X0.039500*%
%ADD60R,0.043430X0.043430*%
%ADD61R,0.023750X0.027680*%
%ADD62R,0.047370X0.078870*%
%ADD63R,0.051310X0.063120*%
%ADD64R,0.063120X0.055240*%
%ADD65R,0.063120X0.051310*%
%ADD66R,0.053280X0.063120*%
%ADD67O,0.016540X0.038980*%
%ADD68R,0.016540X0.038980*%
%ADD69R,0.038980X0.016540*%
%ADD70R,0.208270X0.208270*%
%ADD71R,0.145790X0.106420*%
%ADD72R,0.047370X0.086740*%
%ADD73R,0.059180X0.069020*%
%ADD74R,0.045400X0.045400*%
%ADD75R,0.045400X0.045400*%
%ADD76R,0.114300X0.082800*%
%ADD77C,0.011940*%
%ADD78C,0.031620*%
%ADD79C,0.058000*%
%LNheadband-pcb-1*%
%LPD*%
G54D40*
X01155Y00655D03*
Y00605D03*
G54D50*
X0022Y00775D03*
Y00808D03*
X0012Y0078D03*
Y00813D03*
X0022Y00885D03*
Y00851D03*
X00275Y00885D03*
Y00851D03*
Y00775D03*
Y00808D03*
X0012Y0086D03*
Y00893D03*
X00065Y0092D03*
Y00886D03*
Y00838D03*
Y00805D03*
X00315Y00265D03*
Y00298D03*
X0036Y00331D03*
Y00298D03*
X00215Y00265D03*
Y00298D03*
X00175Y00331D03*
Y00298D03*
X00805Y00437D03*
Y00403D03*
X00847Y00479D03*
Y00446D03*
Y00363D03*
Y00396D03*
X0123Y00424D03*
Y0039D03*
X01109Y0046D03*
Y00426D03*
X00982Y00423D03*
Y00389D03*
X0082Y00515D03*
Y00548D03*
X00695Y00515D03*
Y00548D03*
X0078Y00515D03*
Y00548D03*
X0074Y00515D03*
Y00548D03*
X008Y01078D03*
Y01045D03*
X0105Y00655D03*
Y00688D03*
G54D51*
X00144Y01078D03*
Y01103D03*
Y0113D03*
Y01155D03*
X003D03*
Y0113D03*
Y01104D03*
Y01078D03*
X0019Y00368D03*
Y00393D03*
Y0042D03*
Y00445D03*
X00345D03*
Y0042D03*
Y00394D03*
Y00368D03*
G54D52*
X0022Y00965D03*
X00253D03*
X00099Y0097D03*
X00066D03*
X00956Y00605D03*
X0099D03*
X00713Y0118D03*
X0068D03*
X00783Y0099D03*
X0075D03*
X00923Y00396D03*
X0089D03*
X01185Y00425D03*
X01151D03*
X01065D03*
X01031D03*
X0078Y0059D03*
X00813D03*
X00735D03*
X00701D03*
X01383Y00347D03*
X01416D03*
X01307Y00424D03*
X01274D03*
X00923Y00446D03*
X0089D03*
X01118Y00885D03*
X01085D03*
X0124Y0063D03*
X01206D03*
X01276D03*
X0131D03*
X00671Y0099D03*
X00705D03*
X0061Y00785D03*
X00643D03*
X0115Y0082D03*
X01116D03*
X00621Y0067D03*
X00655D03*
X0061Y0075D03*
X00643D03*
G54D53*
X00135Y0057D03*
X0011D03*
X00083D03*
X00058D03*
Y00725D03*
X00083D03*
X00109D03*
X00135D03*
X00331Y0057D03*
X00306D03*
X0028D03*
X00254D03*
Y00725D03*
X0028D03*
X00305D03*
X00331D03*
G54D54*
X01623Y0116D03*
X0136D03*
G54D55*
X01531Y00941D03*
X01452D03*
G54D56*
X01073Y01136D03*
X01233D03*
X01073Y01086D03*
X01233D03*
X01073Y01036D03*
X01233D03*
X01073Y00986D03*
X01235D03*
X01073Y00936D03*
X01233D03*
G54D57*
X00167Y002D03*
X00216D03*
X00265D03*
X00364D03*
X00315D03*
G54D58*
X00066Y00085D03*
X00464D03*
G54D59*
X01252Y00347D03*
G54D60*
X01332Y00342D03*
G54D61*
X0138Y00335D03*
G54D62*
X0121Y0057D03*
X01308D03*
G54D63*
X01108Y006D03*
X0104D03*
G54D64*
X01754Y00653D03*
X01675Y00826D03*
X01518D03*
X01439Y00653D03*
G54D65*
X00855Y01045D03*
Y01113D03*
X00615Y01045D03*
Y01113D03*
G54D66*
X00457Y00658D03*
Y00745D03*
X0052D03*
Y00658D03*
G54D67*
X00755Y0066D03*
G54D68*
X00774Y0066D03*
X00794D03*
X00814D03*
X00833D03*
X00853D03*
X00873D03*
X00892D03*
X00912D03*
X00932D03*
X00951D03*
X00971D03*
Y00933D03*
X00951D03*
X00932D03*
X00912D03*
X00892D03*
X00873D03*
X00853D03*
X00833D03*
X00814D03*
X00794D03*
X00774D03*
X00755D03*
G54D69*
X01Y00688D03*
Y00708D03*
Y00727D03*
Y00747D03*
Y00767D03*
Y00786D03*
Y00806D03*
Y00826D03*
Y00846D03*
Y00865D03*
Y00885D03*
Y00905D03*
X00726D03*
Y00885D03*
Y00865D03*
Y00846D03*
Y00826D03*
Y00806D03*
Y00786D03*
Y00767D03*
Y00747D03*
Y00727D03*
Y00708D03*
Y00688D03*
G54D70*
X00863Y00796D03*
G54D71*
X01825Y00935D03*
G54D72*
X01734Y0118D03*
X01825D03*
X01915D03*
G54D73*
X0074Y00051D03*
X00562D03*
Y00364D03*
X0074D03*
G54D74*
X0122Y0069D03*
X01277D03*
X00785Y01175D03*
X00842D03*
G54D75*
X0075Y01107D03*
Y0105D03*
G54D76*
X01945Y0082D03*
Y00638D03*
G54D77*
X01715Y0074D03*
X014D03*
G54D78*
X01566Y00784D03*
X0196Y00908D03*
X01692D03*
X00455Y00946D03*
X0041Y01055D03*
X00505Y01171D03*
X0038Y01175D03*
X00055Y00475D03*
X0006Y0025D03*
X00525Y00505D03*
X00663Y00195D03*
X00305Y00691D03*
X0057Y01005D03*
X00575Y00885D03*
X0031D03*
X0016Y0076D03*
X00109Y0068D03*
X00231Y00368D03*
X00365Y00255D03*
X0061Y00405D03*
X00105Y01155D03*
X00085Y00769D03*
X00185Y01105D03*
X00065Y01005D03*
X0033Y00535D03*
X00145D03*
X00391Y00331D03*
X00145Y00373D03*
X0131Y00372D03*
X01145Y00855D03*
X0097Y011D03*
X01075Y00805D03*
X0118Y00725D03*
X0068Y00745D03*
X0073Y0096D03*
X0069Y00675D03*
X0128Y0074D03*
X0194Y0037D03*
X01645Y00375D03*
X01145Y0076D03*
X0135Y00915D03*
Y00815D03*
X01445D03*
Y0071D03*
X0156Y00615D03*
X0182Y0086D03*
Y00735D03*
Y00535D03*
X01527Y00372D03*
X0061Y0098D03*
X00665Y0079D03*
X00926Y01078D03*
X0079Y00761D03*
Y00797D03*
Y00833D03*
X00827Y0087D03*
Y00833D03*
Y00797D03*
Y00761D03*
Y00725D03*
X00865Y0087D03*
Y00833D03*
Y00797D03*
Y00761D03*
Y00725D03*
X00902Y0087D03*
Y00833D03*
Y00797D03*
Y00761D03*
Y00725D03*
X0094Y0087D03*
Y00833D03*
Y00797D03*
Y00761D03*
X0079Y00725D03*
X0094D03*
X0079Y0087D03*
X00845Y00515D03*
X004Y0064D03*
X00625Y0058D03*
X00505Y00805D03*
X00705Y01035D03*
X01Y00655D03*
X0085Y0056D03*
X007Y0062D03*
X01416Y00372D03*
X00705Y01145D03*
G54D79*
X01622Y00545D03*
X01415Y0054D03*
M02*