%FSTAX23Y23*%
%MOMM*%
%SFA1B1*%

%IPPOS*%
%AMD29*
4,1,4,0.406400,-0.017780,-0.017780,0.406400,-0.406400,0.017780,0.017780,-0.406400,0.406400,-0.017780,0.0*
%
%AMD30*
4,1,4,0.017780,0.406400,-0.406400,-0.017780,-0.017780,-0.406400,0.406400,0.017780,0.017780,0.406400,0.0*
%
%ADD10C,0.203200*%
%ADD11R,0.400050X0.500126*%
%ADD12R,0.899922X0.899922*%
%ADD13R,0.800100X0.800100*%
%ADD14R,0.990600X0.990600*%
%ADD15R,1.400048X1.150112*%
%ADD16R,1.800098X0.999998*%
%ADD17R,0.299974X0.949960*%
%ADD18R,0.199898X0.199898*%
%ADD19O,0.279908X0.850138*%
%ADD20R,0.279908X0.850138*%
%ADD21R,0.850138X0.279908*%
%ADD22R,5.150104X5.150104*%
%ADD23R,3.500120X2.500122*%
%ADD24R,0.999998X1.999996*%
%ADD25O,0.599948X2.199894*%
%ADD26R,0.599948X0.549910*%
%ADD27R,0.549910X0.599948*%
%ADD28R,1.100074X1.400048*%
G04~CAMADD=29~9~0.0~0.0~236.2~216.5~0.0~0.0~0~0.0~0.0~0.0~0.0~0~0.0~0.0~0.0~0.0~0~0.0~0.0~0.0~315.0~320.0~319.0*
%ADD29D29*%
G04~CAMADD=30~9~0.0~0.0~236.2~216.5~0.0~0.0~0~0.0~0.0~0.0~0.0~0~0.0~0.0~0.0~0.0~0~0.0~0.0~0.0~45.0~320.0~319.0*
%ADD30D30*%
%ADD31R,2.100072X2.999994*%
%ADD32R,0.800100X1.599946*%
%ADD33R,2.999994X2.100072*%
%ADD34R,1.599946X0.800100*%
%ADD35R,2.400046X0.800100*%
%ADD36R,1.100074X3.500120*%
%ADD37R,1.500124X3.400044*%
%ADD38R,0.949960X0.949960*%
%ADD39R,4.999990X2.999994*%
%ADD40R,2.999994X4.999990*%
%ADD41R,0.949960X0.949960*%
%ADD42R,1.899920X2.700020*%
%ADD43C,0.508000*%
%ADD44C,0.254000*%
%ADD45C,1.016000*%
%ADD46R,2.500122X2.500122*%
%ADD47R,1.500124X1.500124*%
%ADD48C,1.500124*%
%ADD49C,1.999996*%
%ADD50C,0.500126*%
%ADD51C,0.787400*%
%LNheadband-pcb-1*%
%LPD*%
G36*
X132846Y102635D02*
Y102556D01*
Y102429*
Y101849*
X132066Y101069*
X131948Y101117*
Y101581*
X131195*
Y101299*
X129738Y99842*
X12929*
Y99394*
X129274Y99378*
X128228*
X128138Y9936*
X128063Y99309*
X128011Y99258*
X127884Y9931*
Y99569*
X131039Y102724*
X132756*
X132846Y102635*
G37*
G36*
X103808Y73936D02*
X103876Y73826D01*
X103868Y73786*
Y7338*
X103369Y72881*
X103488Y72762*
X103259Y72533*
X103106Y72686*
X102573Y72153*
X102629Y72098*
X10232Y71788*
X102218Y7189*
X101707Y71379*
X10165Y71322*
X1013Y70972*
X101104*
Y71235*
X101365Y71495*
X101422Y71552*
X101512Y71642*
X102023Y72153*
X101921Y72255*
X102133Y72466*
X102252Y72347*
X102785Y7288*
X102666Y72999*
X102895Y73228*
X103014Y73109*
X103547Y73642*
X103428Y73761*
X10362Y73953*
X103785*
X103808Y73936*
G37*
G36*
X124432Y122172D02*
X125503Y122003D01*
X126557Y12175*
X127589Y121415*
X128591Y121*
X129557Y120507*
X130481Y119941*
X131359Y119303*
X132183Y118599*
X13295Y117832*
X133654Y117008*
X134292Y11613*
X134858Y115206*
X135351Y11424*
X135766Y113238*
X136101Y112206*
X136354Y111152*
X136523Y110081*
X136609Y109*
Y107915*
X136523Y106834*
X136354Y105763*
X136101Y104709*
X135766Y103677*
X135351Y102675*
X134858Y101709*
X134292Y100785*
X133654Y99907*
X13295Y99083*
X132183Y98316*
X131359Y97612*
X130481Y96974*
X12975Y96526*
X129636Y96605*
X129644Y96646*
X129617Y96784*
X129539Y969*
X129423Y96978*
X129285Y97005*
X129261Y97*
X12903Y97231*
X128955Y97282*
X128865Y973*
X127466*
X127376Y97389*
Y97468*
Y97595*
Y97963*
X128324Y98911*
X12929*
Y98544*
X129277Y98531*
X128791*
X128777Y98551*
X128661Y98629*
X128523Y98656*
X128386Y98629*
X12827Y98551*
X128192Y98435*
X128165Y98297*
X128192Y9816*
X12827Y98044*
X128386Y97966*
X128523Y97939*
X128661Y97966*
X128777Y98044*
X128791Y98064*
X129373*
X129463Y98082*
X129538Y98133*
X129595Y98189*
X130043*
Y98471*
X1315Y99928*
X131948*
Y100292*
X133362Y101706*
X133599*
Y102429*
Y102509*
Y102636*
Y103359*
X133187*
Y103818*
X133314Y103856*
X133367Y103776*
X133534Y103665*
X133603Y103651*
Y104139*
X13373*
Y104266*
X134219*
X134214Y104293*
X134418Y104498*
X134469Y104573*
X134487Y104662*
Y10557*
X134658*
Y106171*
X134253*
Y106298*
X134126*
Y107027*
X133849*
X133837Y107149*
Y107853*
X134418Y108435*
X134469Y10851*
X134487Y108599*
Y109672*
X134505*
Y110825*
X134002*
Y109672*
X13402*
Y108696*
X133603Y108279*
X133171Y108711*
Y109672*
X13319*
Y110825*
X132687*
Y109672*
X132705*
Y108614*
X132723Y108525*
X132774Y10845*
X13337Y107853*
Y106875*
X133352*
Y105729*
X133344Y105721*
X133214Y105709*
X133205Y105722*
Y106875*
X132702*
Y105722*
X13272*
Y103226*
X132691Y103191*
X130943*
X130853Y103173*
X130778Y103122*
X128002Y100346*
X127884Y100395*
Y100858*
X127741*
Y101406*
X132056Y105722*
X132555*
Y106875*
X132052*
Y106376*
X127343Y101667*
X127292Y101592*
X127274Y101502*
Y100858*
X127131*
Y10069*
X126872*
X126783Y100672*
X126708Y100621*
X124357Y9827*
X124332Y98275*
X124195Y98248*
X124079Y9817*
X124001Y98054*
X123974Y97916*
X124001Y97779*
X124079Y97663*
X124195Y97585*
X124332Y97558*
X12447Y97585*
X124586Y97663*
X124664Y97779*
X124691Y97916*
X124686Y97941*
X126969Y100223*
X127131*
Y100055*
Y100008*
Y99928*
Y99471*
X127004Y99433*
X126999Y9944*
X126883Y99518*
X126745Y99545*
X126608Y99518*
X126492Y9944*
X126414Y99324*
X126387Y99186*
X126413Y99056*
X124058Y96701*
X123931Y96754*
Y969*
X123913Y9699*
X123862Y97065*
X123354Y97573*
X123279Y97624*
X123189Y97642*
X120277*
X118613Y99306*
Y99754*
Y99881*
Y100604*
X118165*
X117131Y101637*
X117194Y101754*
X11722Y101749*
X117358Y101776*
X117474Y101854*
X117552Y10197*
X117579Y102107*
X117552Y102245*
X117474Y102361*
X117358Y102439*
X11722Y102466*
X117083Y102439*
X116967Y102361*
X116889Y102245*
X116886Y10223*
X116616Y10196*
X116454*
Y102128*
X115701*
Y101431*
X115548*
X115467Y101397*
X115291Y101573*
X115296Y101599*
X114934*
Y101238*
X114961Y101243*
X115493Y100712*
X115548Y100674*
Y100322*
X11595*
Y100876*
X116077*
Y101004*
X116607*
Y101323*
X116734Y101376*
X11786Y100249*
Y99801*
Y99674*
Y98951*
X118308*
X120016Y97244*
X120091Y97193*
X12018Y97175*
X123093*
X123464Y96804*
Y96588*
X123446*
Y9565*
X123319Y95582*
X123314Y95585*
Y96588*
X122811*
Y95435*
X122829*
Y95376*
X122847Y95287*
X122898Y95212*
X123279Y94831*
X123347Y94785*
X123349Y94775*
X123291Y94657*
X122266*
X121185Y94743*
X120114Y94912*
X11906Y95165*
X118028Y955*
X117026Y95915*
X11606Y96408*
X115136Y96974*
X114258Y97612*
X113434Y98316*
X112667Y99083*
X111963Y99907*
X111325Y100785*
X110759Y101709*
X110266Y102675*
X109851Y103677*
X109516Y104709*
X109263Y105763*
X109094Y106834*
X109008Y107915*
Y109*
X109094Y110081*
X109263Y111152*
X109516Y112206*
X109851Y113238*
X110266Y11424*
X110759Y115206*
X111325Y11613*
X111963Y117008*
X112667Y117832*
X113434Y118599*
X114258Y119303*
X115136Y119941*
X11606Y120507*
X117026Y121*
X118028Y121415*
X11906Y12175*
X120114Y122003*
X121185Y122172*
X122266Y122258*
X123351*
X124432Y122172*
G37*
G36*
X102802Y55547D02*
X102845Y55541D01*
X102887Y55532*
X102928Y55518*
X102969Y55501*
X103007Y55481*
X103043Y55457*
X103077Y55431*
X103109Y55401*
X103138Y55369*
X103164Y55334*
X103187Y55298*
X103207Y55259*
X103223Y55219*
X103236Y55177*
X103245Y55135*
X10325Y55092*
Y50088*
Y50087*
X103248Y50044*
X103243Y50001*
X103233Y49959*
X103221Y49918*
X103204Y49878*
X103184Y4984*
X103161Y49803*
X103134Y49769*
X103105Y49737*
X103073Y49708*
X103039Y49682*
X103002Y49659*
X102964Y49639*
X102924Y49622*
X102883Y49609*
X102841Y496*
X102798Y49594*
X102755Y49592*
X102712Y49595*
X102669Y496*
X102626Y4961*
X102585Y49622*
X102545Y49639*
X102507Y49659*
X102471Y49682*
X102436Y49709*
X102405Y49738*
X102375Y4977*
X102349Y49804*
X102326Y49841*
X102306Y49879*
X10229Y49919*
X102277Y4996*
X102267Y50002*
X102262Y50045*
X10226Y50088*
Y55092*
X10226Y55099*
X102267Y55142*
X102276Y55185*
X10229Y55226*
X102306Y55266*
X102327Y55304*
X10235Y55341*
X102377Y55375*
X102406Y55406*
X102438Y55435*
X102473Y55461*
X10251Y55485*
X102548Y55504*
X102589Y55521*
X10263Y55533*
X102672Y55542*
X102716Y55548*
X102759Y55549*
X102802Y55547*
G37*
G36*
X118935Y59588D02*
X118046Y58267D01*
Y57759*
X11703*
Y55956*
X133438*
Y54736*
X107861*
Y60909*
X114846*
Y61671*
X115836*
Y60909*
X11703*
Y61671*
X118046*
Y59639*
X110045*
Y56946*
X115836*
Y57759*
X114846*
Y58978*
X11797*
X118478Y59715*
Y61671*
X118935*
Y59588*
G37*
G36*
X136799Y6134D02*
X119008D01*
Y61857*
X11908Y61954*
X119107*
X119506*
Y62483*
X119633*
Y6261*
X120187*
Y62895*
Y63013*
X120147Y63123*
X120108Y63315*
X119997Y63482*
X11983Y63593*
X11976Y63607*
Y63118*
X119506*
Y63607*
X119437Y63593*
X11927Y63482*
X119159Y63315*
X11912Y63123*
X11908Y63013*
Y6286*
X118737*
X117043Y64553*
X116968Y64604*
X116878Y64622*
X11625*
X11599Y64882*
X115933Y64939*
X115843Y65029*
X115332Y6554*
X11523Y65438*
X114985Y65684*
X115104Y65803*
X114571Y66336*
X114452Y66217*
X114206Y66462*
X114308Y66564*
X113797Y67075*
X11374Y67132*
X11365Y67222*
X113139Y67733*
X11309Y67684*
X113059Y67707*
X11306Y67862*
X113314Y68116*
X11294Y6849*
X112566Y68864*
X112264Y68562*
X112158Y68511*
X112047Y68621*
X112149Y68723*
X111638Y69234*
X111581Y69291*
X111491Y69381*
X11098Y69892*
X110878Y6979*
X11054Y70129*
X110625Y70214*
X110092Y70747*
X109973Y70628*
X109673Y70928*
Y71327*
X10999Y71644*
X109479Y72155*
X109422Y72212*
X109332Y72302*
X108821Y72813*
X108805Y72797*
X108783Y72803*
X108746Y72946*
X108962Y73162*
X108588Y73536*
X108214Y7391*
X107912Y73608*
X107796Y73635*
X10764Y7379*
X107565Y73841*
X107492Y73855*
X107171Y74176*
X107052Y74057*
X106788Y74321*
X106795Y74368*
X106825Y74439*
X106833Y74449*
X106944Y74471*
X10706Y74549*
X107138Y74665*
X107165Y74802*
X107138Y7494*
X10706Y75056*
X106944Y75134*
X106921Y75138*
X106911Y7518*
X106914Y75198*
X107001Y75318*
X10713Y75344*
X107297Y75455*
X107408Y75622*
X107422Y75691*
X106933*
Y75945*
X107422*
X107408Y76015*
X107297Y76182*
X10713Y76293*
X107081Y76432*
X107122Y76488*
X107198Y76503*
X107314Y76581*
X107392Y76697*
X107402Y76751*
X10754Y76793*
X10868Y75654*
X108755Y75603*
X108845Y75585*
X111647*
Y75217*
X11365*
Y75585*
X114532*
Y7531*
X115061*
Y75056*
X114532*
Y7463*
Y74556*
Y74128*
X115061*
Y73874*
X114532*
Y73447*
X114432Y73385*
X11365*
Y7392*
X111647*
Y72717*
X11365*
Y72918*
X114685*
Y7275*
X115438*
Y73114*
X115988Y73665*
X116039Y7374*
X116057Y73829*
Y76326*
X116039Y76416*
X115988Y76491*
X115607Y76872*
X115532Y76923*
X115442Y76941*
X108591*
X107646Y77886*
X107688Y78024*
X107706Y78027*
X107822Y78105*
X1079Y78221*
X107927Y78358*
X1079Y78496*
X107822Y78612*
X107706Y7869*
X107651Y78701*
X107639Y78721*
X107711Y78848*
X107889*
X108016*
X108389*
X108516*
X108889*
X109016*
X109389*
X109516*
X109889*
X110016*
X110389*
Y79214*
X110516Y79227*
X110539Y7911*
X110617Y78994*
X110733Y78916*
X11087Y78889*
X111008Y78916*
X111124Y78994*
X111202Y7911*
X111229Y79247*
X111202Y79385*
X111124Y79501*
X111106Y79513*
Y79858*
X111399*
X111525Y79855*
X111611Y79801*
Y79374*
X11214*
X11267*
Y79801*
X11277Y79864*
X117618*
X120401Y77081*
Y76258*
X121554*
Y77411*
X120731*
X117879Y80262*
X117804Y80313*
X117715Y80331*
X112517*
Y80499*
X111764*
Y80331*
X111515*
X111399Y80358*
Y80468*
Y80841*
Y80968*
Y81341*
Y81468*
Y81808*
X111651*
Y81665*
X112374*
X112454*
X112581*
X113304*
Y81808*
X113648*
Y8124*
X114951*
Y82843*
X113648*
Y82275*
X113304*
Y82418*
X112581*
X112501*
X112374*
X111651*
Y82275*
X111492*
X111399Y82358*
Y82468*
Y82841*
Y82968*
Y83341*
Y83468*
Y83841*
Y83968*
Y84341*
X111516Y84366*
X111557*
X111778Y84145*
Y83697*
X111946*
Y83653*
X111964Y83564*
X112015Y83489*
X112422Y83082*
X112417Y83057*
X112444Y8292*
X112522Y82804*
X112638Y82726*
X112775Y82699*
X112913Y82726*
X113029Y82804*
X113107Y8292*
X113134Y83057*
X113107Y83195*
X113029Y83311*
X112913Y83389*
X112861Y83399*
X11285Y83417*
X112902Y83508*
Y84073*
X113029*
Y842*
X113583*
Y84458*
X113734Y84488*
X113901Y84599*
X114012Y84766*
X114026Y84835*
X113537*
Y85089*
X114026*
X114013Y85155*
X114012Y8516*
X114075Y85293*
X114111Y85298*
X115374Y84036*
X11545Y83985*
X115539Y83967*
X117189*
Y83699*
X119792*
Y84702*
X117189*
Y84434*
X115635*
X114949Y8512*
X114997Y85237*
X117189*
Y84969*
X119792*
Y85972*
X117189*
Y85704*
X114904*
X114118Y86489*
X114043Y8654*
X113954Y86558*
X110389*
Y86851*
X110501Y86888*
X114076*
X114389Y86576*
X114464Y86525*
X114553Y86507*
X117189*
Y86239*
X119792*
Y87242*
X117189*
Y86974*
X11465*
X114337Y87286*
X114262Y87337*
X114172Y87355*
X110089*
X110036Y87482*
X110332Y87777*
X117189*
Y87509*
X119792*
Y88512*
X117189*
Y88244*
X11098*
X110912Y88371*
X110964Y88449*
X110978Y88518*
X110001*
X110015Y88449*
X110093Y88332*
X110122Y88274*
X110076Y88186*
X110065Y8817*
X108983Y87087*
X108932Y87012*
X108923Y86964*
X108909Y86919*
X10881Y86851*
X108779*
X108406*
X108279*
X107906*
X107779*
X107406*
X107279*
X106906*
X106779*
X106597*
X106548Y86968*
X106971Y87392*
X107022Y87467*
X10704Y87557*
Y88752*
X107183*
Y89475*
Y89555*
Y89681*
X107273Y8977*
X107511*
X107723Y89559*
X107718Y89534*
X107745Y89397*
X107823Y89281*
X107939Y89203*
X108076Y89176*
X108214Y89203*
X10833Y89281*
X108408Y89397*
X108435Y89534*
X108408Y89672*
X10833Y89788*
X108214Y89866*
X108076Y89893*
X108052Y89888*
X107772Y90168*
X107697Y90219*
X107608Y90237*
X107183*
Y90405*
X10704*
Y90736*
X107637*
Y91889*
X106484*
Y90736*
X106573*
Y90405*
X106446*
X10643*
X10632Y90445*
Y90558*
X105917*
Y90003*
X105663*
Y90558*
X105261*
X105257Y90604*
X104647*
Y90002*
X105249*
X105261Y89879*
Y89551*
X105134Y89476*
X105097Y89497*
Y89857*
X103944*
Y89514*
X103758*
X103669Y89496*
X103594Y89445*
X103402Y89253*
X103377Y89258*
X10324Y89231*
X103124Y89153*
X103046Y89037*
X103019Y88899*
X103046Y88762*
X103124Y88646*
X10324Y88568*
X103377Y88541*
X103515Y88568*
X103631Y88646*
X103709Y88762*
X103736Y88899*
X103731Y88924*
X103817Y89009*
X103944Y88957*
Y88704*
X105097*
X105137Y88594*
Y88223*
X105048Y88133*
X104969*
X104842*
X104119*
Y8799*
X103779*
Y88133*
X103082*
Y88286*
X102654*
Y87756*
Y87227*
X103082*
Y8738*
X103779*
Y87523*
X104119*
Y8738*
X104287*
Y87376*
X104305Y87287*
X104356Y87211*
X104598Y86968*
X104549Y86851*
X104406*
Y85907*
Y85841*
X10434*
X103396*
Y85358*
Y85231*
Y84858*
Y84731*
Y84358*
Y84246*
X103278Y84197*
X102835Y8464*
X101818Y85658*
X101831Y85724*
X101804Y85862*
X101726Y85978*
X10161Y86056*
X101472Y86083*
X101335Y86056*
X101219Y85978*
X101141Y85862*
X101114Y85724*
X101141Y85587*
X101148Y85577*
X101081Y8545*
X100724*
X10071Y8547*
X100594Y85548*
X100456Y85575*
X100319Y85548*
X100203Y8547*
X100182Y85438*
X100055Y85476*
Y85755*
X10068Y8638*
X101332*
X101346Y8636*
X101462Y86282*
X101599Y86255*
X101737Y86282*
X101853Y8636*
X101931Y86476*
X101958Y86613*
X101931Y86751*
X101853Y86867*
X101737Y86945*
X101599Y86972*
X101462Y86945*
X101346Y86867*
X101332Y86847*
X100583*
X100494Y86829*
X100419Y86778*
X99657Y86016*
X99606Y85941*
X99588Y85851*
Y84944*
X99572*
Y84221*
Y84141*
Y84015*
X99482Y83926*
X97054*
X96965Y83908*
X9689Y83857*
X95509Y82476*
X9445Y81417*
X94399Y81342*
X94381Y81253*
Y78358*
X94399Y78269*
X9445Y78194*
X96465Y76179*
X96452Y7611*
X96418Y76052*
X96235*
X95095Y77191*
X951Y77215*
X95073Y77353*
X94995Y77469*
X94879Y77547*
X94741Y77574*
X94604Y77547*
X94488Y77469*
X9441Y77353*
X94383Y77215*
X9441Y77078*
X94488Y76962*
X94604Y76884*
X94741Y76857*
X94766Y76862*
X9574Y75888*
X95723Y75724*
X95648Y75674*
X95537Y75507*
X95523Y75437*
X965*
X96496Y75458*
X96575Y75585*
X97014*
X97028Y75565*
X97144Y75487*
X97281Y7546*
X97419Y75487*
X97535Y75565*
X97613Y75681*
X9764Y75818*
X97613Y75956*
X9758Y76004*
X97648Y76131*
X101338*
X102334Y75135*
X102378Y75026*
X102094Y74742*
X102485Y7435*
X102306Y74171*
X101914Y74562*
X10163Y74278*
X101616Y74264*
X101332Y7398*
X101723Y73588*
X101634Y73498*
X101723Y73409*
X101349Y73035*
X101565Y72819*
X101528Y72676*
X101506Y7267*
X10149Y72686*
X100979Y72175*
X100922Y72118*
X100832Y72028*
X100321Y71517*
X100638Y712*
Y70996*
X100304Y70662*
X100185Y70781*
X99652Y70248*
X99771Y70129*
X9956Y69917*
X99458Y70019*
X98947Y69508*
X9889Y69451*
X988Y69361*
X98289Y6885*
X98341Y68798*
X98308Y68721*
X98169Y68694*
X97906Y68957*
X97532Y68583*
X97158Y68209*
X97374Y67993*
X97337Y6785*
X97315Y67844*
X97299Y6786*
X96788Y67349*
X96731Y67292*
X96641Y67202*
X96216Y66777*
X96146Y66707*
X96027Y66681*
X96011Y6668*
X95815Y66641*
X95648Y6653*
X95537Y66363*
X95523Y66293*
X96011*
Y66166*
X96138*
Y65678*
X96208Y65692*
X96375Y65803*
X96486Y6597*
X96517Y66124*
X96643Y66178*
X96663Y66158*
X96782Y66277*
X97605Y65455*
X97611Y6545*
X97572Y65323*
X97514*
Y64896*
X98043*
X98573*
Y65323*
X98673Y65386*
X99307*
X99528Y65165*
X99585Y65108*
X99675Y65018*
X100186Y64507*
X100503Y64824*
X101223*
Y64688*
X10107*
Y64261*
X101599*
X102129*
Y64688*
X101976*
Y64824*
X10238*
Y64647*
X103103*
X103183*
X10331*
X104033*
Y6479*
X104516*
Y64477*
X104178*
Y63583*
X104163Y63577*
X104131Y63499*
Y62737*
X80751*
Y94106*
X136799*
Y6134*
G37*
G36*
X99572Y83291D02*
X100325D01*
Y83332*
X100856*
Y83205*
Y83189*
X100816Y83079*
X100703*
Y82676*
X101258*
Y82422*
X100703*
Y82063*
X100538*
Y8166*
X101091*
Y81406*
X100538*
Y81326*
X100411Y81274*
X100037Y81647*
X99962Y81698*
X99873Y81716*
X9948*
Y82159*
X97877*
Y80806*
X97798Y80712*
X97724*
Y80009*
X98678*
Y79755*
X97724*
Y791*
X9733*
X9728Y79206*
Y80526*
Y80559*
X97359Y80653*
X97432*
Y81355*
X95525*
Y80653*
X95598*
X95677Y80559*
Y80526*
Y79418*
X9563Y7938*
X95434Y79341*
X95267Y7923*
X95156Y79063*
X95142Y78993*
X96119*
X96111Y79036*
X96152Y79115*
X96198Y79153*
X96251Y79135*
X96263Y79072*
X96314Y78997*
X96609Y78702*
X96684Y78651*
X96773Y78633*
X99694*
X99784Y78651*
X99859Y78702*
X10024Y79083*
X100291Y79158*
X100309Y79247*
Y79786*
X100576Y80054*
X100703Y80001*
Y79755*
X101258*
Y79628*
X101384*
Y79099*
X101812*
Y79252*
X102509*
Y797*
X102675Y79866*
X102895*
X102986Y79805*
X103123Y79778*
X103261Y79805*
X103279Y79818*
X103396Y79858*
X104337*
X104371Y79815*
X104415Y79731*
X104401Y79659*
Y79458*
X103975Y79031*
X103924Y78956*
X103906Y78866*
Y78063*
X103817Y77973*
X103738*
X103582*
X103563Y77994*
X103504Y78105*
X103582Y78221*
X103609Y78358*
X103582Y78496*
X103504Y78612*
X103388Y7869*
X10325Y78717*
X103113Y7869*
X102997Y78612*
X102919Y78496*
X102892Y78358*
X102919Y78221*
X102997Y78105*
X102938Y77994*
X102919Y77973*
X102888*
Y7722*
X10289*
Y76943*
X102747*
Y76245*
X102594*
Y757*
X102477Y75651*
X101599Y76529*
X101524Y7658*
X101434Y76598*
X98807*
X98794Y76725*
X98875Y76741*
X99042Y76852*
X99153Y77019*
X99167Y77088*
X9819*
X98204Y77019*
X98315Y76852*
X98482Y76741*
X98563Y76725*
X9855Y76598*
X97108*
X97019Y7658*
X96988Y7656*
X96743*
X94848Y78455*
Y81156*
X95407Y81716*
X95525Y81667*
Y81609*
X96352*
Y82312*
X96169*
X9612Y82429*
X97151Y83459*
X97807*
X97875Y83332*
X97823Y83254*
X97809Y83184*
X98786*
X98772Y83254*
X9872Y83332*
X98788Y83459*
X99572*
Y83291*
G37*
G36*
X104628Y73432D02*
X104774D01*
Y73786*
X105028*
Y73432*
X105256*
X105368Y73391*
X105899Y7286*
X105974Y72809*
X106064Y72791*
X106218*
X106356Y72653*
X106388Y72606*
X106577Y72416*
X106604Y723*
X106302Y71998*
X106676Y71624*
X10705Y7125*
X107266Y71466*
X107409Y71429*
X107415Y71407*
X107399Y71391*
X10791Y7088*
X107967Y70823*
X108057Y70733*
X108568Y70222*
X108885Y70539*
X109402*
X109464Y70477*
X109491Y70361*
X109189Y70059*
X109563Y69685*
X109937Y69311*
X110239Y69613*
X110345Y69664*
X110549Y69461*
X110447Y69359*
X110958Y68848*
X111015Y68791*
X111105Y68701*
X111616Y6819*
X111718Y68292*
X111963Y68046*
X111878Y67961*
X112411Y67428*
X112496Y67513*
X112708Y67302*
X112606Y672*
X113117Y66689*
X113174Y66632*
X113264Y66542*
X113775Y66031*
X113827Y66083*
X113904Y6605*
X113931Y65911*
X113668Y65648*
X114042Y65274*
X114416Y649*
X114679Y65163*
X114818Y65136*
X114851Y65059*
X114799Y65007*
X11531Y64496*
X115367Y64439*
X115457Y64349*
X115968Y63838*
X116285Y64155*
X116782*
X118382Y62555*
Y6214*
Y62107*
X118405Y62022*
Y6134*
X118179*
Y61721*
X11677*
Y6134*
X116097*
Y61848*
X114788*
Y6134*
X106425*
Y62737*
X105367*
Y63284*
X105371*
Y64477*
X105491Y64494*
X105663*
Y65023*
Y65553*
X105237*
Y654*
X104539*
Y65257*
X104033*
Y654*
X10331*
X10323*
X103103*
X10238*
Y6529*
X101976*
Y65386*
X101223*
Y6529*
X100468*
X100208Y65551*
X100151Y65608*
X100061Y65698*
X9955Y66209*
X99194Y65853*
X9842*
Y66021*
X97698*
X97176Y66543*
X97201Y66697*
X97231Y66726*
X97321Y66816*
X97832Y67327*
X9773Y67429*
X97942Y6764*
X98061Y67521*
X98594Y68054*
X98475Y68173*
X9872Y68419*
X98822Y68317*
X99333Y68828*
X9939Y68885*
X9948Y68975*
X99991Y69486*
X99975Y69502*
X99981Y69524*
X100124Y69561*
X10034Y69345*
X100714Y69719*
X101088Y70093*
X1008Y70382*
X100827Y70505*
X101265*
X101582Y70188*
X102093Y70699*
X10215Y70756*
X10224Y70846*
X102751Y71357*
X102649Y71459*
X102958Y71768*
X103067Y7166*
X102959Y71552*
X103261Y7125*
X103635Y71624*
X103724Y71535*
X103814Y71624*
X104206Y71233*
X10449Y71517*
X104538Y71497*
X104823Y71781*
X104431Y72173*
X10452Y72262*
X104431Y72352*
X104805Y72726*
X104503Y73028*
X10445Y72976*
X104333Y73038*
X104335Y73046*
Y73432*
X104374*
Y73786*
X104628*
Y73432*
G37*
G36*
X126572Y97644D02*
X126623Y97594D01*
Y97515*
Y97388*
Y96665*
X127376*
Y96833*
X128769*
X128932Y96671*
X128927Y96646*
X128954Y96509*
X129032Y96393*
X129125Y96331*
X129137Y96242*
X129129Y9619*
X128591Y95915*
X127589Y955*
X126557Y95165*
X125503Y94912*
X124432Y94743*
X12432Y94734*
X124311Y94745*
X12427Y94857*
X12564Y96228*
X125691Y96303*
X125709Y96392*
Y96931*
X126422Y97644*
X126572*
G37*
G36*
X96365Y122045D02*
X97436Y121876D01*
X9849Y121623*
X99522Y121288*
X100524Y120873*
X10149Y12038*
X102414Y119814*
X103292Y119176*
X104116Y118472*
X104883Y117705*
X105587Y116881*
X106225Y116003*
X106791Y115079*
X107284Y114113*
X107699Y113111*
X108034Y112079*
X108287Y111025*
X108456Y109954*
X108542Y108873*
Y107788*
X108456Y106707*
X108287Y105636*
X108034Y104582*
X107699Y10355*
X107284Y102548*
X106791Y101582*
X106225Y100658*
X105587Y9978*
X104883Y98956*
X104116Y98189*
X103292Y97485*
X102414Y96847*
X10149Y96281*
X100524Y95788*
X99522Y95373*
X9849Y95038*
X97436Y94785*
X96365Y94616*
X95284Y9453*
X94199*
X93118Y94616*
X92047Y94785*
X90993Y95038*
X89961Y95373*
X88959Y95788*
X87993Y96281*
X87069Y96847*
X86191Y97485*
X85367Y98189*
X846Y98956*
X83896Y9978*
X83258Y100658*
X82692Y101582*
X82199Y102548*
X81784Y10355*
X81449Y104582*
X81196Y105636*
X81027Y106707*
X80941Y107788*
Y108873*
X81027Y109954*
X81196Y111025*
X81449Y112079*
X81784Y113111*
X82199Y114113*
X82692Y115079*
X83258Y116003*
X83896Y116881*
X846Y117705*
X85367Y118472*
X86191Y119176*
X87069Y119814*
X87993Y12038*
X88959Y120873*
X89961Y121288*
X90993Y121623*
X92047Y121876*
X93118Y122045*
X94199Y122131*
X95284*
X96365Y122045*
G37*
G36*
X105257Y50088D02*
X105255Y50044D01*
X105249Y5*
X10524Y49957*
X105226Y49915*
X10521Y49874*
X105189Y49834*
X105165Y49797*
X105138Y49762*
X105108Y49729*
X105076Y49699*
X10504Y49672*
X105003Y49648*
X104964Y49628*
X104923Y49611*
X104881Y49598*
X104837Y49588*
X104793Y49582*
X104749Y4958*
X104705Y49582*
X104661Y49588*
X104618Y49598*
X104575Y49611*
X104534Y49628*
X104495Y49648*
X104458Y49672*
X104422Y49699*
X10439Y49729*
X10436Y49762*
X104333Y49797*
X104309Y49834*
X104289Y49874*
X104272Y49915*
X104258Y49957*
X104249Y5*
X104243Y50044*
X104241Y50088*
Y63499*
X105257*
Y50088*
G37*
G36*
X94801Y55547D02*
X94844Y55541D01*
X94886Y55532*
X94927Y55518*
X94968Y55501*
X95006Y55481*
X95042Y55457*
X95076Y55431*
X95108Y55401*
X95137Y55369*
X95163Y55334*
X95186Y55298*
X95206Y55259*
X95222Y55219*
X95235Y55177*
X95244Y55135*
X95249Y55092*
Y50088*
Y50087*
X95247Y50044*
X95242Y50001*
X95232Y49959*
X9522Y49918*
X95203Y49878*
X95183Y4984*
X9516Y49803*
X95133Y49769*
X95104Y49737*
X95072Y49708*
X95038Y49682*
X95001Y49659*
X94963Y49639*
X94923Y49622*
X94882Y49609*
X9484Y496*
X94797Y49594*
X94754Y49592*
X94711Y49594*
X94668Y496*
X94625Y4961*
X94584Y49622*
X94544Y49639*
X94506Y49659*
X9447Y49682*
X94435Y49709*
X94404Y49738*
X94374Y4977*
X94348Y49804*
X94325Y49841*
X94305Y49879*
X94289Y49919*
X94276Y4996*
X94266Y50002*
X94261Y50045*
X94259Y50088*
Y55092*
X94259Y55099*
X94266Y55142*
X94275Y55185*
X94289Y55226*
X94305Y55266*
X94326Y55304*
X94349Y55341*
X94376Y55375*
X94405Y55406*
X94437Y55435*
X94472Y55461*
X94509Y55485*
X94547Y55504*
X94588Y55521*
X94629Y55533*
X94671Y55542*
X94715Y55548*
X94758Y55549*
X94801Y55547*
G37*
G36*
X88791Y55598D02*
X88835Y55592D01*
X88879Y55583*
X88921Y55569*
X88962Y55553*
X89001Y55532*
X89038Y55508*
X89074Y55481*
X89106Y55451*
X89136Y55419*
X89163Y55383*
X89187Y55346*
X89208Y55307*
X89224Y55266*
X89238Y55224*
X89247Y5518*
X89253Y55136*
X89255Y55092*
Y50088*
X89253Y50044*
X89247Y5*
X89238Y49957*
X89224Y49915*
X89208Y49874*
X89187Y49834*
X89163Y49797*
X89136Y49762*
X89106Y49729*
X89074Y49699*
X89038Y49672*
X89001Y49648*
X88962Y49628*
X88921Y49611*
X88879Y49598*
X88835Y49588*
X88791Y49582*
X88747Y4958*
X88703Y49582*
X88659Y49588*
X88616Y49598*
X88573Y49611*
X88532Y49628*
X88493Y49648*
X88456Y49672*
X8842Y49699*
X88388Y49729*
X88358Y49762*
X88331Y49797*
X88307Y49834*
X88287Y49874*
X8827Y49915*
X88256Y49957*
X88247Y5*
X88241Y50044*
X88239Y50088*
Y55092*
X88241Y55136*
X88247Y5518*
X88256Y55224*
X8827Y55266*
X88287Y55307*
X88307Y55346*
X88331Y55383*
X88358Y55419*
X88388Y55451*
X8842Y55481*
X88456Y55508*
X88493Y55532*
X88532Y55553*
X88573Y55569*
X88616Y55583*
X88659Y55592*
X88703Y55598*
X88747Y556*
X88791Y55598*
G37*
G36*
X96792D02*
X96836Y55592D01*
X9688Y55583*
X96922Y55569*
X96963Y55553*
X97002Y55532*
X97039Y55508*
X97075Y55481*
X97107Y55451*
X97137Y55419*
X97164Y55383*
X97188Y55346*
X97209Y55307*
X97225Y55266*
X97239Y55224*
X97248Y5518*
X97254Y55136*
X97256Y55092*
Y50088*
X97254Y50044*
X97248Y5*
X97239Y49957*
X97225Y49915*
X97209Y49874*
X97188Y49834*
X97164Y49797*
X97137Y49762*
X97107Y49729*
X97075Y49699*
X97039Y49672*
X97002Y49648*
X96963Y49628*
X96922Y49611*
X9688Y49598*
X96836Y49588*
X96792Y49582*
X96748Y4958*
X96704Y49582*
X9666Y49588*
X96617Y49598*
X96574Y49611*
X96533Y49628*
X96494Y49648*
X96457Y49672*
X96421Y49699*
X96389Y49729*
X96359Y49762*
X96332Y49797*
X96308Y49834*
X96288Y49874*
X96271Y49915*
X96257Y49957*
X96248Y5*
X96242Y50044*
X9624Y50088*
Y55092*
X96242Y55136*
X96248Y5518*
X96257Y55224*
X96271Y55266*
X96288Y55307*
X96308Y55346*
X96332Y55383*
X96359Y55419*
X96389Y55451*
X96421Y55481*
X96457Y55508*
X96494Y55532*
X96533Y55553*
X96574Y55569*
X96617Y55583*
X9666Y55592*
X96704Y55598*
X96748Y556*
X96792Y55598*
G37*
G36*
X90788Y55547D02*
X90831Y55541D01*
X90873Y55532*
X90914Y55518*
X90954Y55501*
X90993Y55481*
X91029Y55457*
X91063Y55431*
X91095Y55401*
X91124Y55369*
X9115Y55334*
X91173Y55298*
X91193Y55259*
X91209Y55219*
X91222Y55177*
X91231Y55135*
X91236Y55092*
Y50088*
Y50087*
X91234Y50044*
X91229Y50001*
X91219Y49959*
X91206Y49918*
X9119Y49878*
X9117Y4984*
X91146Y49803*
X9112Y49769*
X91091Y49737*
X91059Y49708*
X91025Y49682*
X90988Y49659*
X9095Y49639*
X9091Y49622*
X90869Y49609*
X90826Y496*
X90784Y49594*
X9074Y49592*
X90697Y49594*
X90654Y496*
X90612Y4961*
X90571Y49622*
X90531Y49639*
X90493Y49659*
X90457Y49682*
X90422Y49709*
X9039Y49738*
X90361Y4977*
X90335Y49804*
X90312Y49841*
X90292Y49879*
X90275Y49919*
X90262Y4996*
X90253Y50002*
X90247Y50045*
X90246Y50088*
Y55092*
X90246Y55099*
X90252Y55142*
X90262Y55185*
X90275Y55226*
X90292Y55266*
X90313Y55304*
X90336Y55341*
X90363Y55375*
X90392Y55406*
X90424Y55435*
X90459Y55461*
X90496Y55485*
X90534Y55504*
X90574Y55521*
X90616Y55533*
X90658Y55542*
X90701Y55548*
X90745Y55549*
X90788Y55547*
G37*
G36*
X92795D02*
X92838Y55541D01*
X9288Y55532*
X92921Y55518*
X92961Y55501*
X92999Y55481*
X93036Y55457*
X9307Y55431*
X93101Y55401*
X93131Y55369*
X93157Y55334*
X9318Y55298*
X93199Y55259*
X93216Y55219*
X93228Y55177*
X93238Y55135*
X93243Y55092*
Y50088*
Y50087*
X93241Y50044*
X93235Y50001*
X93226Y49959*
X93213Y49918*
X93196Y49878*
X93176Y4984*
X93153Y49803*
X93127Y49769*
X93097Y49737*
X93066Y49708*
X93031Y49682*
X92995Y49659*
X92956Y49639*
X92917Y49622*
X92875Y49609*
X92833Y496*
X9279Y49594*
X92747Y49592*
X92704Y49594*
X92661Y496*
X92619Y4961*
X92578Y49622*
X92538Y49639*
X92499Y49659*
X92463Y49682*
X92429Y49709*
X92397Y49738*
X92368Y4977*
X92341Y49804*
X92318Y49841*
X92299Y49879*
X92282Y49919*
X92269Y4996*
X9226Y50002*
X92254Y50045*
X92252Y50088*
Y55092*
X92253Y55099*
X92259Y55142*
X92269Y55185*
X92282Y55226*
X92299Y55266*
X92319Y55304*
X92343Y55341*
X92369Y55375*
X92399Y55406*
X92431Y55435*
X92466Y55461*
X92502Y55485*
X92541Y55504*
X92581Y55521*
X92622Y55533*
X92665Y55542*
X92708Y55548*
X92751Y55549*
X92795Y55547*
G37*
G36*
X868D02*
X86843Y55541D01*
X86885Y55532*
X86926Y55518*
X86967Y55501*
X87005Y55481*
X87041Y55457*
X87075Y55431*
X87107Y55401*
X87136Y55369*
X87162Y55334*
X87185Y55298*
X87205Y55259*
X87221Y55219*
X87234Y55177*
X87243Y55135*
X87248Y55092*
Y50088*
Y50087*
X87246Y50044*
X87241Y50001*
X87231Y49959*
X87219Y49918*
X87202Y49878*
X87182Y4984*
X87159Y49803*
X87132Y49769*
X87103Y49737*
X87071Y49708*
X87037Y49682*
X87Y49659*
X86962Y49639*
X86922Y49622*
X86881Y49609*
X86839Y496*
X86796Y49594*
X86753Y49592*
X8671Y49594*
X86667Y496*
X86624Y4961*
X86583Y49622*
X86543Y49639*
X86505Y49659*
X86469Y49682*
X86434Y49709*
X86403Y49738*
X86373Y4977*
X86347Y49804*
X86324Y49841*
X86304Y49879*
X86288Y49919*
X86275Y4996*
X86265Y50002*
X8626Y50045*
X86258Y50088*
Y55092*
X86258Y55099*
X86265Y55142*
X86274Y55185*
X86288Y55226*
X86304Y55266*
X86325Y55304*
X86348Y55341*
X86375Y55375*
X86404Y55406*
X86436Y55435*
X86471Y55461*
X86508Y55485*
X86546Y55504*
X86587Y55521*
X86628Y55533*
X8667Y55542*
X86714Y55548*
X86757Y55549*
X868Y55547*
G37*
G36*
X84794D02*
X84837Y55541D01*
X84879Y55532*
X8492Y55518*
X8496Y55501*
X84998Y55481*
X85035Y55457*
X85069Y55431*
X851Y55401*
X8513Y55369*
X85156Y55334*
X85179Y55298*
X85198Y55259*
X85215Y55219*
X85227Y55177*
X85237Y55135*
X85242Y55092*
Y50088*
Y50087*
X8524Y50044*
X85234Y50001*
X85225Y49959*
X85212Y49918*
X85195Y49878*
X85175Y4984*
X85152Y49803*
X85126Y49769*
X85096Y49737*
X85065Y49708*
X8503Y49682*
X84994Y49659*
X84955Y49639*
X84916Y49622*
X84874Y49609*
X84832Y496*
X84789Y49594*
X84746Y49592*
X84703Y49594*
X8466Y496*
X84618Y4961*
X84577Y49622*
X84537Y49639*
X84498Y49659*
X84462Y49682*
X84428Y49709*
X84396Y49738*
X84367Y4977*
X8434Y49804*
X84317Y49841*
X84298Y49879*
X84281Y49919*
X84268Y4996*
X84259Y50002*
X84253Y50045*
X84251Y50088*
Y55092*
X84252Y55099*
X84258Y55142*
X84268Y55185*
X84281Y55226*
X84298Y55266*
X84318Y55304*
X84342Y55341*
X84368Y55375*
X84398Y55406*
X8443Y55435*
X84465Y55461*
X84501Y55485*
X8454Y55504*
X8458Y55521*
X84621Y55533*
X84664Y55542*
X84707Y55548*
X8475Y55549*
X84794Y55547*
G37*
G36*
X100796D02*
X100839Y55541D01*
X100881Y55532*
X100922Y55518*
X100962Y55501*
X101Y55481*
X101037Y55457*
X101071Y55431*
X101102Y55401*
X101132Y55369*
X101158Y55334*
X101181Y55298*
X1012Y55259*
X101217Y55219*
X101229Y55177*
X101239Y55135*
X101244Y55092*
Y50088*
Y50087*
X101242Y50044*
X101236Y50001*
X101227Y49959*
X101214Y49918*
X101197Y49878*
X101177Y4984*
X101154Y49803*
X101128Y49769*
X101099Y49737*
X101067Y49708*
X101032Y49682*
X100996Y49659*
X100957Y49639*
X100918Y49622*
X100876Y49609*
X100834Y496*
X100791Y49594*
X100748Y49592*
X100705Y49595*
X100662Y496*
X10062Y4961*
X100579Y49622*
X100539Y49639*
X1005Y49659*
X100464Y49682*
X10043Y49709*
X100398Y49738*
X100369Y4977*
X100343Y49804*
X100319Y49841*
X1003Y49879*
X100283Y49919*
X10027Y4996*
X100261Y50002*
X100255Y50045*
X100253Y50088*
Y55092*
X100254Y55099*
X10026Y55142*
X10027Y55185*
X100283Y55226*
X1003Y55266*
X10032Y55304*
X100344Y55341*
X10037Y55375*
X1004Y55406*
X100432Y55435*
X100467Y55461*
X100503Y55485*
X100542Y55504*
X100582Y55521*
X100624Y55533*
X100666Y55542*
X100709Y55548*
X100752Y55549*
X100796Y55547*
G37*
G36*
X98789D02*
X98832Y55541D01*
X98874Y55532*
X98915Y55518*
X98955Y55501*
X98993Y55481*
X9903Y55457*
X99064Y55431*
X99096Y55401*
X99125Y55369*
X99151Y55334*
X99174Y55298*
X99194Y55259*
X9921Y55219*
X99223Y55177*
X99232Y55135*
X99237Y55092*
Y50088*
Y50087*
X99235Y50044*
X9923Y50001*
X9922Y49959*
X99207Y49918*
X99191Y49878*
X99171Y4984*
X99147Y49803*
X99121Y49769*
X99092Y49737*
X9906Y49708*
X99026Y49682*
X98989Y49659*
X98951Y49639*
X98911Y49622*
X9887Y49609*
X98827Y496*
X98785Y49594*
X98741Y49592*
X98698Y49594*
X98655Y496*
X98613Y4961*
X98572Y49622*
X98532Y49639*
X98494Y49659*
X98458Y49682*
X98423Y49709*
X98391Y49738*
X98362Y4977*
X98336Y49804*
X98313Y49841*
X98293Y49879*
X98276Y49919*
X98263Y4996*
X98254Y50002*
X98248Y50045*
X98247Y50088*
Y55092*
X98247Y55099*
X98253Y55142*
X98263Y55185*
X98276Y55226*
X98293Y55266*
X98314Y55304*
X98337Y55341*
X98364Y55375*
X98393Y55406*
X98426Y55435*
X9846Y55461*
X98497Y55485*
X98535Y55504*
X98575Y55521*
X98617Y55533*
X98659Y55542*
X98702Y55548*
X98746Y55549*
X98789Y55547*
G37*
%LNheadband-pcb-2*%
%LPC*%
G36*
X11468Y101599D02*
X114319D01*
X114333Y10153*
X114444Y101363*
X114611Y101252*
X11468Y101238*
Y101599*
G37*
G36*
X114934Y102215D02*
Y101853D01*
X115296*
X115282Y101923*
X115171Y10209*
X115004Y102201*
X114934Y102215*
G37*
G36*
X11468D02*
X114611Y102201D01*
X114444Y10209*
X114333Y101923*
X114319Y101853*
X11468*
Y102215*
G37*
G36*
X125094Y10031D02*
Y99948D01*
X125456*
X125442Y100018*
X125331Y100185*
X125164Y100296*
X125094Y10031*
G37*
G36*
X12541Y115059D02*
X120207D01*
Y11237*
X118896Y111059*
X116207*
Y110992*
X116095Y110957*
X11608*
X115167*
Y110303*
X11504*
Y110176*
X113987*
Y109649*
X11406*
X114139Y109554*
Y109522*
Y109303*
X114063Y109288*
X113988Y109237*
X112484Y107733*
X112433Y107658*
X112415Y107568*
Y107074*
X112395Y10706*
X112317Y106944*
X11229Y106806*
X112317Y106669*
X112395Y106553*
X112511Y106475*
X112648Y106448*
X112786Y106475*
X112796Y106482*
X112923Y106415*
Y105804*
X112903Y10579*
X112825Y105674*
X112798Y105536*
X112825Y105399*
X112898Y105291*
X112888Y105248*
X112852Y105164*
X110539*
Y102861*
X113742*
Y104788*
X113862Y104828*
X113939Y104756*
Y104647*
X113957Y104558*
X114008Y104483*
X115532Y102959*
X115607Y102908*
X115696Y10289*
X117124*
X118961Y101054*
X119036Y101003*
X119125Y100985*
X121569*
X121747Y100808*
X121698Y10069*
X121343*
Y100195*
X120027*
X12002Y100202*
X119981Y100399*
X11987Y100566*
X119703Y100677*
X119633Y100691*
Y100202*
Y99714*
X119703Y99728*
X119714Y99735*
X119748Y99729*
X121343*
Y99232*
X121514*
Y99104*
X121532Y99015*
X121583Y9894*
X122136Y98387*
X122211Y98336*
X1223Y98318*
X123316*
X123406Y98336*
X123481Y98387*
X123862Y98768*
X123913Y98843*
X123931Y98932*
Y99232*
X124101*
Y99588*
X124517*
X124604Y99458*
X124771Y99347*
X12484Y99333*
Y99821*
Y10031*
X124771Y100296*
X124604Y100185*
X124517Y100055*
X124101*
Y10069*
X123824*
Y99961*
X12357*
Y10069*
X123293*
X123281Y100812*
Y101856*
X12541*
Y103957*
X127309Y105856*
X12941*
Y111059*
X126674*
X12541Y112323*
Y115059*
G37*
G36*
X119379Y100691D02*
X11931Y100677D01*
X119143Y100566*
X119032Y100399*
X119018Y100329*
X119379*
Y100691*
G37*
G36*
X117093D02*
Y100329D01*
X117455*
X117441Y100399*
X11733Y100566*
X117163Y100677*
X117093Y100691*
G37*
G36*
X134219Y104012D02*
X133857D01*
Y103651*
X133927Y103665*
X134094Y103776*
X134205Y103943*
X134219Y104012*
G37*
G36*
X113742Y114003D02*
X110539D01*
Y1117*
X113742*
Y114003*
G37*
G36*
X135173Y112543D02*
X134746D01*
Y11214*
X135173*
Y112543*
G37*
G36*
X134492D02*
X134066D01*
Y11239*
X133368*
Y112247*
X132735*
Y11239*
X132012*
X131932*
X131805*
X131082*
Y112247*
X130823*
X130809Y112267*
X130693Y112345*
X130555Y112372*
X130418Y112345*
X130302Y112267*
X130224Y112151*
X130197Y112013*
X130224Y111876*
X130302Y11176*
X130418Y111682*
X130555Y111655*
X130693Y111682*
X130809Y11176*
X130823Y11178*
X131082*
Y111637*
X13125*
Y111069*
X131268Y110979*
X131319Y110904*
X132052Y11017*
Y109672*
X132555*
Y110825*
X132056*
X131717Y111165*
Y111547*
X131806Y111637*
X131885*
X132012*
X132735*
Y11178*
X133368*
Y111637*
X13337*
Y110825*
X133352*
Y109672*
X133855*
Y110825*
X133837*
Y111637*
X134066*
Y111484*
X134492*
Y112013*
Y112543*
G37*
G36*
X114913Y110957D02*
X113987D01*
Y11043*
X114913*
Y110957*
G37*
G36*
X135173Y111886D02*
X134746D01*
Y111484*
X134819*
X134894Y111409*
Y107269*
X134653Y107027*
X13438*
Y106425*
X13471*
X135292Y107008*
X135343Y107083*
X135361Y107173*
Y111505*
X135343Y111595*
X135292Y11167*
X135173Y111789*
Y111886*
G37*
G36*
X119379Y100075D02*
X119018D01*
X119032Y100006*
X119143Y99839*
X11931Y99728*
X119379Y99714*
Y100075*
G37*
G36*
X113791Y101069D02*
X113654Y101042D01*
X113538Y100964*
X11346Y100848*
X113433Y10071*
X11346Y100573*
X113538Y100457*
X113654Y100379*
X113791Y100352*
X113929Y100379*
X114045Y100457*
X114059Y100477*
X114457*
X119088Y95847*
X119163Y95796*
X119252Y95778*
X12039*
X120428Y95651*
X120396Y9563*
X120318Y95514*
X120291Y95376*
X120318Y95239*
X120396Y95123*
X120512Y95045*
X120649Y95018*
X120787Y95045*
X120788Y95047*
X122398*
X122487Y95064*
X122562Y95115*
X122613Y9519*
X12263Y95279*
Y95435*
X122649*
Y96588*
X122146*
Y95513*
X121999*
Y96588*
X121496*
Y96245*
X119349*
X114718Y100875*
X114643Y100926*
X114553Y100944*
X114059*
X114045Y100964*
X113929Y101042*
X113791Y101069*
G37*
G36*
X125456Y99694D02*
X125094D01*
Y99333*
X125164Y99347*
X125331Y99458*
X125442Y99625*
X125456Y99694*
G37*
G36*
X117455Y100075D02*
X117093D01*
Y99714*
X117163Y99728*
X11733Y99839*
X117441Y100006*
X117455Y100075*
G37*
G36*
X116607Y10075D02*
X116204D01*
Y100322*
X116302*
X11646Y100164*
X116492Y100006*
X116603Y99839*
X11677Y99728*
X116839Y99714*
Y100202*
Y100691*
X11677Y100677*
X11672Y100644*
X116607Y100721*
Y10075*
G37*
G36*
X96138Y70338D02*
Y69976D01*
X965*
X96486Y70046*
X96375Y70213*
X96208Y70324*
X96138Y70338*
G37*
G36*
X95884D02*
X95815Y70324D01*
X95648Y70213*
X95537Y70046*
X95523Y69976*
X95884*
Y70338*
G37*
G36*
X121519Y70103D02*
X121157D01*
Y69742*
X121227Y69756*
X121394Y69867*
X121505Y70034*
X121519Y70103*
G37*
G36*
X123951Y69722D02*
X12359D01*
X123604Y69653*
X123715Y69486*
X123882Y69375*
X123951Y69361*
Y69722*
G37*
G36*
X119506Y70084D02*
X119437Y7007D01*
X11927Y69959*
X119159Y69792*
X119145Y69722*
X119506*
Y70084*
G37*
G36*
X124567Y69722D02*
X124205D01*
Y69361*
X124275Y69375*
X124442Y69486*
X124553Y69653*
X124567Y69722*
G37*
G36*
X120903Y70103D02*
X120542D01*
X120556Y70034*
X120667Y69867*
X120834Y69756*
X120903Y69742*
Y70103*
G37*
G36*
X11976Y70084D02*
Y69722D01*
X120122*
X120108Y69792*
X119997Y69959*
X11983Y7007*
X11976Y70084*
G37*
G36*
X129573Y72216D02*
X128496D01*
Y70738*
X129573*
Y72216*
G37*
G36*
X128242D02*
X127165D01*
Y70738*
X128242*
Y72216*
G37*
G36*
X123951Y70338D02*
X123882Y70324D01*
X123715Y70213*
X123604Y70046*
X12359Y69976*
X123951*
Y70338*
G37*
G36*
X121157Y70719D02*
Y70357D01*
X121519*
X121505Y70427*
X121394Y70594*
X121227Y70705*
X121157Y70719*
G37*
G36*
X120903D02*
X120834Y70705D01*
X120667Y70594*
X120556Y70427*
X120542Y70357*
X120903*
Y70719*
G37*
G36*
X124205Y70338D02*
Y69976D01*
X124567*
X124553Y70046*
X124442Y70213*
X124275Y70324*
X124205Y70338*
G37*
G36*
X113047Y69345D02*
X112745Y69043D01*
X113029Y68759*
X113332Y69061*
X113047Y69345*
G37*
G36*
X116839Y69068D02*
Y68706D01*
X117201*
X117187Y68776*
X117076Y68943*
X116909Y69054*
X116839Y69068*
G37*
G36*
X97425Y69438D02*
X97141Y69154D01*
X97443Y68852*
X97727Y69137*
X97425Y69438*
G37*
G36*
X116585Y69068D02*
X116516Y69054D01*
X116349Y68943*
X116238Y68776*
X116224Y68706*
X116585*
Y69068*
G37*
G36*
X113511Y68882D02*
X113209Y68579D01*
X113493Y68295*
X113795Y68597*
X113511Y68882*
G37*
G36*
X85758Y88912D02*
X84755D01*
Y87839*
X81623Y84706*
X81572Y84631*
X81554Y84541*
Y73405*
X81572Y73316*
X81623Y73241*
X82893Y71971*
X82968Y7192*
X83057Y71902*
X91566*
X91656Y7192*
X91731Y71971*
X93255Y73495*
X93306Y7357*
X93324Y73659*
Y75437*
Y76736*
X9338Y76774*
X93469Y76907*
X935Y77064*
Y78664*
X93469Y7882*
X9338Y78953*
X93247Y79042*
X9309Y79073*
X92934Y79042*
X92801Y78953*
X92712Y7882*
X92681Y78664*
Y77064*
X92712Y76907*
X92801Y76774*
X92857Y76736*
Y75829*
X9273Y75762*
X9272Y75769*
X92582Y75796*
X92445Y75769*
X92329Y75691*
X92324Y75684*
X92197Y75722*
Y76308*
X92054*
Y76736*
X9211Y76774*
X92199Y76907*
X9223Y77064*
Y78664*
X92199Y7882*
X9211Y78953*
X92125Y79096*
X92552Y79522*
X92994*
X93746Y7877*
Y70947*
X91866*
Y68244*
X94569*
Y70947*
X94213*
Y78866*
X94195Y78956*
X94144Y79031*
X93255Y7992*
X9318Y79971*
X9309Y79989*
X92455*
X92366Y79971*
X92291Y7992*
X91656Y79285*
X91605Y7921*
X91587Y7912*
Y78991*
X91531Y78953*
X91442Y7882*
X91411Y78664*
Y77064*
X91442Y76907*
X91531Y76774*
X91587Y76736*
Y76308*
X91444*
Y75585*
Y75505*
Y75378*
Y74655*
X91587*
Y74376*
X91485Y74316*
X91058*
Y73786*
Y73257*
X91485*
Y7341*
X92183*
Y73553*
X92328*
X92396Y73567*
X92455Y73555*
X92482Y7356*
X92545Y73443*
X9147Y72369*
X8658*
X86531Y72486*
X87032Y72987*
X87083Y73062*
X87101Y73151*
Y76736*
X87157Y76774*
X87246Y76907*
X87277Y77064*
Y78664*
X87246Y7882*
X87157Y78953*
X87024Y79042*
X86867Y79073*
X86711Y79042*
X86578Y78953*
X86489Y7882*
X86458Y78664*
Y77064*
X86489Y76907*
X86578Y76774*
X86634Y76736*
Y74178*
X86507Y74111*
X86497Y74118*
X86359Y74145*
X86222Y74118*
X86126Y74053*
X8605Y74076*
X85999Y74109*
Y74163*
X85831*
Y74655*
X85974*
Y75378*
Y75458*
Y75585*
Y76308*
X85831*
Y76736*
X85887Y76774*
X85976Y76907*
X86007Y77064*
Y78664*
X85976Y7882*
X85887Y78953*
X85754Y79042*
X85597Y79073*
X85441Y79042*
X85308Y78953*
X85219Y7882*
X85188Y78664*
Y77064*
X85219Y76907*
X85308Y76774*
X85364Y76736*
Y76308*
X85221*
Y76277*
X852Y76258*
X85089Y76199*
X84973Y76277*
X84835Y76304*
X84698Y76277*
X84582Y76199*
X84504Y76083*
X84477Y75945*
X84504Y75808*
X84582Y75692*
X84698Y75614*
X84835Y75587*
X84973Y75614*
X85089Y75692*
X852Y75633*
X85221Y75614*
Y75505*
Y75378*
Y74655*
X85364*
Y74416*
X85302Y74316*
X84875*
Y73786*
X84747*
Y73659*
X84193*
Y73257*
X84716*
X84776Y73145*
X84742Y73094*
X84728Y73024*
X85216*
Y7277*
X84728*
X84742Y72701*
X84853Y72534*
X84911Y72496*
X84872Y72369*
X83154*
X82021Y73502*
Y84445*
X84642Y87066*
X84755Y87109*
X85758*
Y88912*
G37*
G36*
X135508Y68706D02*
X135147D01*
X135161Y68637*
X135272Y6847*
X135439Y68359*
X135508Y68345*
Y68706*
G37*
G36*
X96961Y68974D02*
X96677Y6869D01*
X96978Y68388*
X97263Y68672*
X96961Y68974*
G37*
G36*
X136124Y68706D02*
X135762D01*
Y68345*
X135832Y68359*
X135999Y6847*
X13611Y68637*
X136124Y68706*
G37*
G36*
X135508Y69322D02*
X135439Y69308D01*
X135272Y69197*
X135161Y6903*
X135147Y6896*
X135508*
Y69322*
G37*
G36*
X95884Y69722D02*
X95523D01*
X95537Y69653*
X95648Y69486*
X95815Y69375*
X95884Y69361*
Y69722*
G37*
G36*
X965D02*
X96138D01*
Y69361*
X96208Y69375*
X96375Y69486*
X96486Y69653*
X965Y69722*
G37*
G36*
X132286Y86588D02*
X130983D01*
Y82885*
X132286*
Y83589*
X132403Y83638*
X132735Y83306*
Y75142*
X132367*
Y72939*
X132735*
Y72063*
X131917*
Y6916*
X13402*
Y72063*
X133202*
Y72939*
X13357*
Y75142*
X133202*
Y83402*
X133184Y83492*
X133133Y83567*
X132286Y84415*
Y86588*
G37*
G36*
X128242Y70484D02*
X127165D01*
Y69007*
X128242*
Y70484*
G37*
G36*
X135762Y69322D02*
Y6896D01*
X136124*
X13611Y6903*
X135999Y69197*
X135832Y69308*
X135762Y69322*
G37*
G36*
X129573Y70484D02*
X128496D01*
Y69007*
X129573*
Y70484*
G37*
G36*
X120122Y69468D02*
X11976D01*
Y69107*
X11983Y69121*
X119997Y69232*
X120108Y69399*
X120122Y69468*
G37*
G36*
X119506D02*
X119145D01*
X119159Y69399*
X11927Y69232*
X119437Y69121*
X119506Y69107*
Y69468*
G37*
G36*
X95611Y73151D02*
X95249D01*
Y7279*
X95319Y72804*
X95486Y72915*
X95597Y73082*
X95611Y73151*
G37*
G36*
X94995D02*
X94634D01*
X94648Y73082*
X94759Y72915*
X94926Y72804*
X94995Y7279*
Y73151*
G37*
G36*
X117855Y73405D02*
X117494D01*
X117508Y73336*
X117619Y73169*
X117786Y73058*
X117855Y73044*
Y73405*
G37*
G36*
X97916Y73532D02*
X97555D01*
X97569Y73463*
X9768Y73296*
X97847Y73185*
X97916Y73171*
Y73532*
G37*
G36*
X118471Y73405D02*
X118109D01*
Y73044*
X118179Y73058*
X118346Y73169*
X118457Y73336*
X118471Y73405*
G37*
G36*
X129122Y73913D02*
X128496D01*
Y72787*
X129122*
Y73913*
G37*
G36*
X98932Y72624D02*
Y72262D01*
X99294*
X9928Y72332*
X99169Y72499*
X99002Y7261*
X98932Y72624*
G37*
G36*
X98678D02*
X98609Y7261D01*
X98442Y72499*
X98331Y72332*
X98317Y72262*
X98678*
Y72624*
G37*
G36*
X121665Y73132D02*
X121596Y73118D01*
X121429Y73007*
X121318Y7284*
X121304Y7277*
X121665*
Y73132*
G37*
G36*
X128242Y73913D02*
X127614D01*
Y72787*
X128242*
Y73913*
G37*
G36*
X121919Y73132D02*
Y7277D01*
X122281*
X122267Y7284*
X122156Y73007*
X121989Y73118*
X121919Y73132*
G37*
G36*
X98532Y73532D02*
X9817D01*
Y73171*
X9824Y73185*
X98407Y73296*
X98518Y73463*
X98532Y73532*
G37*
G36*
X118109Y74021D02*
Y73659D01*
X118471*
X118457Y73729*
X118346Y73896*
X118179Y74007*
X118109Y74021*
G37*
G36*
X117855D02*
X117786Y74007D01*
X117619Y73896*
X117508Y73729*
X117494Y73659*
X117855*
Y74021*
G37*
G36*
X97916Y74148D02*
X97847Y74134D01*
X9768Y74023*
X97569Y73856*
X97555Y73786*
X97916*
Y74148*
G37*
G36*
X108695Y74391D02*
X108393Y74089D01*
X108677Y73805*
X108979Y74107*
X108695Y74391*
G37*
G36*
X9817Y74148D02*
Y73786D01*
X98532*
X98518Y73856*
X98407Y74023*
X9824Y74134*
X9817Y74148*
G37*
G36*
X124059Y85343D02*
X122605D01*
X121151*
Y84816*
X121223*
X121253Y84702*
Y84689*
Y83699*
X122321*
Y78993*
X122339Y78904*
X12239Y78829*
X123533Y77686*
X123608Y77635*
X123697Y77617*
X124253*
X124296Y7749*
X124233Y77442*
X124097Y77264*
X124015Y77068*
X123004*
Y77411*
X121851*
Y76258*
X123004*
Y76601*
X124015*
X124097Y76405*
X124233Y76227*
X124411Y76091*
X124618Y76005*
X12484Y75975*
X125063Y76005*
X12527Y76091*
X125448Y76227*
X125584Y76405*
X12567Y76612*
X1257Y76834*
X12567Y77057*
X125584Y77264*
X125448Y77442*
X125385Y7749*
X125428Y77617*
X12576*
X126004Y77373*
Y75788*
X125362Y75146*
X123989*
Y73443*
X125692*
Y74816*
X126402Y75527*
X126453Y75602*
X126471Y75691*
Y77469*
X126453Y77559*
X126402Y77634*
X126021Y78015*
X125946Y78066*
X125856Y78084*
X123794*
X122788Y7909*
Y83699*
X123856*
Y84689*
Y84702*
X123886Y84816*
X124059*
Y85343*
G37*
G36*
X89788Y73659D02*
X89427D01*
X89441Y7359*
X89552Y73423*
X89719Y73312*
X89788Y73298*
Y73659*
G37*
G36*
X101152Y738D02*
X100868Y73516D01*
X101169Y73214*
X101454Y73498*
X101152Y738*
G37*
G36*
X109159Y73927D02*
X108857Y73625D01*
X109142Y73341*
X109443Y73643*
X109159Y73927*
G37*
G36*
X95249Y73767D02*
Y73405D01*
X95611*
X95597Y73475*
X95486Y73642*
X95319Y73753*
X95249Y73767*
G37*
G36*
X94995D02*
X94926Y73753D01*
X94759Y73642*
X94648Y73475*
X94634Y73405*
X94995*
Y73767*
G37*
G36*
X125094Y71754D02*
X124733D01*
X124747Y71685*
X124858Y71518*
X125025Y71407*
X125094Y71393*
Y71754*
G37*
G36*
X96881D02*
X96519D01*
Y71393*
X96589Y71407*
X96756Y71518*
X96867Y71685*
X96881Y71754*
G37*
G36*
X12571D02*
X125348D01*
Y71393*
X125418Y71407*
X125585Y71518*
X125696Y71685*
X12571Y71754*
G37*
G36*
X116585Y71989D02*
X116516Y71975D01*
X116349Y71864*
X116238Y71697*
X116224Y71627*
X116585*
Y71989*
G37*
G36*
X96265Y71754D02*
X95904D01*
X95918Y71685*
X96029Y71518*
X96196Y71407*
X96265Y71393*
Y71754*
G37*
G36*
X117201Y71373D02*
X116839D01*
Y71012*
X116909Y71026*
X117076Y71137*
X117187Y71304*
X117201Y71373*
G37*
G36*
X116585D02*
X116224D01*
X116238Y71304*
X116349Y71137*
X116516Y71026*
X116585Y71012*
Y71373*
G37*
G36*
X113664Y715D02*
X113303D01*
X113317Y71431*
X113428Y71264*
X113595Y71153*
X113664Y71139*
Y715*
G37*
G36*
X11428D02*
X113918D01*
Y71139*
X113988Y71153*
X114155Y71264*
X114266Y71431*
X11428Y715*
G37*
G36*
X116839Y71989D02*
Y71627D01*
X117201*
X117187Y71697*
X117076Y71864*
X116909Y71975*
X116839Y71989*
G37*
G36*
X125094Y7237D02*
X125025Y72356D01*
X124858Y72245*
X124747Y72078*
X124733Y72008*
X125094*
Y7237*
G37*
G36*
X96519D02*
Y72008D01*
X96881*
X96867Y72078*
X96756Y72245*
X96589Y72356*
X96519Y7237*
G37*
G36*
X125348D02*
Y72008D01*
X12571*
X125696Y72078*
X125585Y72245*
X125418Y72356*
X125348Y7237*
G37*
G36*
X122281Y72516D02*
X121919D01*
Y72155*
X121989Y72169*
X122156Y7228*
X122267Y72447*
X122281Y72516*
G37*
G36*
X121665D02*
X121304D01*
X121318Y72447*
X121429Y7228*
X121596Y72169*
X121665Y72155*
Y72516*
G37*
G36*
X96265Y7237D02*
X96196Y72356D01*
X96029Y72245*
X95918Y72078*
X95904Y72008*
X96265*
Y7237*
G37*
G36*
X99294Y72008D02*
X98932D01*
Y71647*
X99002Y71661*
X99169Y71772*
X9928Y71939*
X99294Y72008*
G37*
G36*
X98678D02*
X98317D01*
X98331Y71939*
X98442Y71772*
X98609Y71661*
X98678Y71647*
Y72008*
G37*
G36*
X113664Y72116D02*
X113595Y72102D01*
X113428Y71991*
X113317Y71824*
X113303Y71754*
X113664*
Y72116*
G37*
G36*
X113918D02*
Y71754D01*
X11428*
X114266Y71824*
X114155Y71991*
X113988Y72102*
X113918Y72116*
G37*
G36*
X92201Y64115D02*
X92132Y64101D01*
X91965Y6399*
X91854Y63823*
X9184Y63753*
X92201*
Y64115*
G37*
G36*
X102129Y64007D02*
X101726D01*
Y63581*
X102129*
Y64007*
G37*
G36*
X92455Y64115D02*
Y63753D01*
X92817*
X92803Y63823*
X92692Y6399*
X92525Y64101*
X92455Y64115*
G37*
G36*
X101472Y64007D02*
X10107D01*
Y63581*
X101472*
Y64007*
G37*
G36*
X94487Y65004D02*
Y64515D01*
Y64026*
X94575Y64013*
X94623Y63934*
X94648Y63811*
X94759Y63644*
X94926Y63533*
X94995Y63519*
Y64007*
Y64497*
X94908Y6451*
X9486Y64589*
X94835Y64712*
X94724Y64879*
X94557Y6499*
X94487Y65004*
G37*
G36*
X89515Y6388D02*
X89153D01*
Y63519*
X89223Y63533*
X8939Y63644*
X89501Y63811*
X89515Y6388*
G37*
G36*
X95611D02*
X95249D01*
Y63519*
X95319Y63533*
X95486Y63644*
X95597Y63811*
X95611Y6388*
G37*
G36*
X97262D02*
X969D01*
Y63519*
X9697Y63533*
X97137Y63644*
X97248Y63811*
X97262Y6388*
G37*
G36*
X96646D02*
X96285D01*
X96299Y63811*
X9641Y63644*
X96577Y63533*
X96646Y63519*
Y6388*
G37*
G36*
X94233Y64388D02*
X93872D01*
X93886Y64319*
X93997Y64152*
X94164Y64041*
X94233Y64027*
Y64388*
G37*
G36*
X842Y64769D02*
X83839D01*
X83853Y647*
X83964Y64533*
X84131Y64422*
X842Y64408*
Y64769*
G37*
G36*
X98573Y64642D02*
X9817D01*
Y64216*
X98573*
Y64642*
G37*
G36*
X84816Y64769D02*
X84454D01*
Y64408*
X84524Y64422*
X84691Y64533*
X84802Y647*
X84816Y64769*
G37*
G36*
X97916Y64642D02*
X97514D01*
Y64216*
X97916*
Y64642*
G37*
G36*
X89153Y64496D02*
Y64134D01*
X89515*
X89501Y64204*
X8939Y64371*
X89223Y64482*
X89153Y64496*
G37*
G36*
X88899D02*
X8883Y64482D01*
X88663Y64371*
X88552Y64204*
X88538Y64134*
X88899*
Y64496*
G37*
G36*
X95249D02*
Y64134D01*
X95611*
X95597Y64204*
X95486Y64371*
X95319Y64482*
X95249Y64496*
G37*
G36*
X969D02*
Y64134D01*
X97262*
X97248Y64204*
X97137Y64371*
X9697Y64482*
X969Y64496*
G37*
G36*
X96646D02*
X96577Y64482D01*
X9641Y64371*
X96299Y64204*
X96285Y64134*
X96646*
Y64496*
G37*
G36*
X13587Y62737D02*
X135508D01*
Y62376*
X135578Y6239*
X135745Y62501*
X135856Y62668*
X13587Y62737*
G37*
G36*
X135254D02*
X134893D01*
X134907Y62668*
X135018Y62501*
X135185Y6239*
X135254Y62376*
Y62737*
G37*
G36*
X120187Y62356D02*
X11976D01*
Y61954*
X120187*
Y62356*
G37*
G36*
X88899Y6388D02*
X88538D01*
X88552Y63811*
X88663Y63644*
X8883Y63533*
X88899Y63519*
Y6388*
G37*
G36*
X92817Y63499D02*
X92455D01*
Y63138*
X92525Y63152*
X92692Y63263*
X92803Y6343*
X92817Y63499*
G37*
G36*
X135254Y63353D02*
X135185Y63339D01*
X135018Y63228*
X134907Y63061*
X134893Y62991*
X135254*
Y63353*
G37*
G36*
X92201Y63499D02*
X9184D01*
X91854Y6343*
X91965Y63263*
X92132Y63152*
X92201Y63138*
Y63499*
G37*
G36*
X135508Y63353D02*
Y62991D01*
X13587*
X135856Y63061*
X135745Y63228*
X135578Y63339*
X135508Y63353*
G37*
G36*
X94233Y65004D02*
X94164Y6499D01*
X93997Y64879*
X93886Y64712*
X93872Y64642*
X94233*
Y65004*
G37*
G36*
X117093Y67798D02*
X117024Y67784D01*
X116857Y67673*
X116746Y67506*
X116732Y67436*
X117093*
Y67798*
G37*
G36*
X117347D02*
Y67436D01*
X117709*
X117695Y67506*
X117584Y67673*
X117417Y67784*
X117347Y67798*
G37*
G36*
X83946Y67417D02*
Y67055D01*
X84308*
X84294Y67125*
X84183Y67292*
X84016Y67403*
X83946Y67417*
G37*
G36*
X83692D02*
X83623Y67403D01*
X83456Y67292*
X83345Y67125*
X83331Y67055*
X83692*
Y67417*
G37*
G36*
X83647Y70947D02*
X80944D01*
Y68244*
X83647*
Y70947*
G37*
G36*
X91267D02*
X88564D01*
Y68244*
X91267*
Y70947*
G37*
G36*
X86949D02*
X84246D01*
Y68244*
X86949*
Y70947*
G37*
G36*
X117201Y68452D02*
X116839D01*
Y68091*
X116909Y68105*
X117076Y68216*
X117187Y68383*
X117201Y68452*
G37*
G36*
X116585D02*
X116224D01*
X116238Y68383*
X116349Y68216*
X116516Y68105*
X116585Y68091*
Y68452*
G37*
G36*
X88626Y65785D02*
X88264D01*
Y65424*
X88334Y65438*
X88501Y65549*
X88612Y65716*
X88626Y65785*
G37*
G36*
X8801D02*
X87649D01*
X87663Y65716*
X87774Y65549*
X87941Y65438*
X8801Y65424*
Y65785*
G37*
G36*
X91185Y65912D02*
X90824D01*
X90838Y65843*
X90949Y65676*
X91116Y65565*
X91185Y65551*
Y65912*
G37*
G36*
X95884Y66039D02*
X95523D01*
X95537Y6597*
X95648Y65803*
X95815Y65692*
X95884Y65678*
Y66039*
G37*
G36*
X91801Y65912D02*
X91439D01*
Y65551*
X91509Y65565*
X91676Y65676*
X91787Y65843*
X91801Y65912*
G37*
G36*
X842Y65385D02*
X84131Y65371D01*
X83964Y6526*
X83853Y65093*
X83839Y65023*
X842*
Y65385*
G37*
G36*
X84454D02*
Y65023D01*
X84816*
X84802Y65093*
X84691Y6526*
X84524Y65371*
X84454Y65385*
G37*
G36*
X84308Y66801D02*
X83946D01*
Y6644*
X84016Y66454*
X84183Y66565*
X84294Y66732*
X84308Y66801*
G37*
G36*
X117709Y67182D02*
X117347D01*
Y66821*
X117417Y66835*
X117584Y66946*
X117695Y67113*
X117709Y67182*
G37*
G36*
X117093D02*
X116732D01*
X116746Y67113*
X116857Y66946*
X117024Y66835*
X117093Y66821*
Y67182*
G37*
G36*
X83692Y66801D02*
X83331D01*
X83345Y66732*
X83456Y66565*
X83623Y66454*
X83692Y6644*
Y66801*
G37*
G36*
X8801Y66401D02*
X87941Y66387D01*
X87774Y66276*
X87663Y66109*
X87649Y66039*
X8801*
Y66401*
G37*
G36*
X88264D02*
Y66039D01*
X88626*
X88612Y66109*
X88501Y66276*
X88334Y66387*
X88264Y66401*
G37*
G36*
X91439Y66528D02*
Y66166D01*
X91801*
X91787Y66236*
X91676Y66403*
X91509Y66514*
X91439Y66528*
G37*
G36*
X91185D02*
X91116Y66514D01*
X90949Y66403*
X90838Y66236*
X90824Y66166*
X91185*
Y66528*
G37*
G36*
X84621Y74316D02*
X84193D01*
Y73913*
X84621*
Y74316*
G37*
G36*
X100075Y89769D02*
X100006Y89755D01*
X99839Y89644*
X99728Y89477*
X99714Y89407*
X100075*
Y89769*
G37*
G36*
X83868Y92512D02*
X81565D01*
Y89309*
X83868*
Y92512*
G37*
G36*
X100329Y89769D02*
Y89407D01*
X100691*
X100677Y89477*
X100566Y89644*
X100399Y89755*
X100329Y89769*
G37*
G36*
X12484Y90423D02*
X124479D01*
X124493Y90354*
X124604Y90187*
X124771Y90076*
X12484Y90062*
Y90423*
G37*
G36*
X104393Y90604D02*
X103792D01*
Y90002*
X104393*
Y90604*
G37*
G36*
X116077Y89388D02*
Y89026D01*
X116439*
X116425Y89096*
X116314Y89263*
X116147Y89374*
X116077Y89388*
G37*
G36*
X123856Y89782D02*
X121253D01*
Y88779*
X123856*
Y89782*
G37*
G36*
X119792D02*
X117189D01*
Y88779*
X119792*
Y89782*
G37*
G36*
X100075Y89153D02*
X99714D01*
X99728Y89084*
X99839Y88917*
X100006Y88806*
X100075Y88792*
Y89153*
G37*
G36*
X115823Y89388D02*
X115754Y89374D01*
X115587Y89263*
X115476Y89096*
X115462Y89026*
X115823*
Y89388*
G37*
G36*
X100691Y89153D02*
X100329D01*
Y88792*
X100399Y88806*
X100566Y88917*
X100677Y89084*
X100691Y89153*
G37*
G36*
X125456Y90423D02*
X125094D01*
Y90062*
X125164Y90076*
X125331Y90187*
X125442Y90354*
X125456Y90423*
G37*
G36*
X105249Y9146D02*
X104647D01*
Y90858*
X105249*
Y9146*
G37*
G36*
X104393D02*
X103792D01*
Y90858*
X104393*
Y9146*
G37*
G36*
X113791Y91293D02*
X113722Y91279D01*
X113555Y91168*
X113444Y91001*
X11343Y90931*
X113791*
Y91293*
G37*
G36*
X110743Y91312D02*
X110382D01*
X110396Y91243*
X110507Y91076*
X110674Y90965*
X110743Y90951*
Y91312*
G37*
G36*
X114045Y91293D02*
Y90931D01*
X114407*
X114393Y91001*
X114282Y91168*
X114115Y91279*
X114045Y91293*
G37*
G36*
X125094Y91039D02*
Y90677D01*
X125456*
X125442Y90747*
X125331Y90914*
X125164Y91025*
X125094Y91039*
G37*
G36*
X114407Y90677D02*
X114045D01*
Y90316*
X114115Y9033*
X114282Y90441*
X114393Y90608*
X114407Y90677*
G37*
G36*
X113791D02*
X11343D01*
X113444Y90608*
X113555Y90441*
X113722Y9033*
X113791Y90316*
Y90677*
G37*
G36*
X108384Y91185D02*
X107782D01*
Y90584*
X108384*
Y91185*
G37*
G36*
X12484Y91039D02*
X124771Y91025D01*
X124604Y90914*
X124493Y90747*
X124479Y90677*
X12484*
Y91039*
G37*
G36*
X10924Y91185D02*
X108638D01*
Y90584*
X10924*
Y91185*
G37*
G36*
X110616Y89134D02*
Y88772D01*
X110978*
X110964Y88842*
X110853Y89009*
X110686Y8912*
X110616Y89134*
G37*
G36*
X123856Y88512D02*
X121253D01*
Y87522*
Y87509*
X121223Y87395*
X121101*
Y86867*
X122554*
X124008*
Y87395*
X123886*
X123856Y87509*
Y87522*
Y88512*
G37*
G36*
X82911Y8674D02*
X82549D01*
Y86379*
X82619Y86393*
X82786Y86504*
X82897Y86671*
X82911Y8674*
G37*
G36*
X9091Y87883D02*
X90383D01*
Y86956*
X9091*
Y87883*
G37*
G36*
X82549Y87356D02*
Y86994D01*
X82911*
X82897Y87064*
X82786Y87231*
X82619Y87342*
X82549Y87356*
G37*
G36*
X82295D02*
X82226Y87342D01*
X82059Y87231*
X81948Y87064*
X81934Y86994*
X82295*
Y87356*
G37*
G36*
Y8674D02*
X81934D01*
X81948Y86671*
X82059Y86504*
X82226Y86393*
X82295Y86379*
Y8674*
G37*
G36*
X93217Y85197D02*
Y84835D01*
X93579*
X93565Y84905*
X93454Y85072*
X93287Y85183*
X93217Y85197*
G37*
G36*
X92963D02*
X92894Y85183D01*
X92727Y85072*
X92616Y84905*
X92602Y84835*
X92963*
Y85197*
G37*
G36*
X129507Y8674D02*
X128831D01*
Y84863*
X129507*
Y8674*
G37*
G36*
X124008Y86613D02*
X122554D01*
X121101*
Y86086*
X121151*
Y85597*
X122605*
X124059*
Y86125*
X124008*
Y86613*
G37*
G36*
X130438Y8674D02*
X129761D01*
Y84863*
X130438*
Y8674*
G37*
G36*
X100837Y87375D02*
X100476D01*
X10049Y87306*
X100601Y87139*
X100768Y87028*
X100837Y87014*
Y87375*
G37*
G36*
X116439Y88772D02*
X116077D01*
Y88411*
X116147Y88425*
X116314Y88536*
X116425Y88703*
X116439Y88772*
G37*
G36*
X115823D02*
X115462D01*
X115476Y88703*
X115587Y88536*
X115754Y88425*
X115823Y88411*
Y88772*
G37*
G36*
X128136Y92098D02*
X126433D01*
Y88495*
X128136*
Y92098*
G37*
G36*
X110362Y89134D02*
X110293Y8912D01*
X110126Y89009*
X110015Y88842*
X110001Y88772*
X110362*
Y89134*
G37*
G36*
X134836Y92098D02*
X133133D01*
Y88495*
X134836*
Y92098*
G37*
G36*
X102401Y88286D02*
X101973D01*
Y87883*
X102401*
Y88286*
G37*
G36*
Y87629D02*
X101973D01*
Y87227*
X102401*
Y87629*
G37*
G36*
X101453Y87375D02*
X101091D01*
Y87014*
X101161Y87028*
X101328Y87139*
X101439Y87306*
X101453Y87375*
G37*
G36*
X100837Y87991D02*
X100768Y87977D01*
X100601Y87866*
X10049Y87699*
X100476Y87629*
X100837*
Y87991*
G37*
G36*
X93977Y92512D02*
X91674D01*
Y89399*
Y89309*
X91562Y89272*
X87756*
X87667Y89254*
X87592Y89204*
X87541Y89128*
X87523Y89039*
Y88912*
X87255*
Y87109*
X87523*
Y85567*
X86703Y84746*
X86652Y84671*
X86634Y84581*
Y83791*
X86578Y83753*
X86489Y8362*
X86458Y83463*
Y81863*
X86489Y81707*
X86578Y81574*
X86634Y81536*
Y81025*
X86652Y80936*
X86703Y80861*
X87211Y80353*
X87286Y80302*
X87375Y80284*
X92455*
X92545Y80302*
X9262Y80353*
X93255Y80988*
X93306Y81063*
X93324Y81152*
Y81536*
X9338Y81574*
X93469Y81707*
X935Y81863*
Y83463*
X93469Y8362*
X9338Y83753*
X93247Y83842*
X9309Y83873*
X92934Y83842*
X92801Y83753*
X92712Y8362*
X92681Y83463*
Y81863*
X92712Y81707*
X92801Y81574*
X92857Y81536*
Y81249*
X92359Y80751*
X87472*
X87101Y81122*
Y81536*
X87157Y81574*
X87246Y81707*
X87277Y81863*
Y83463*
X87246Y8362*
X87157Y83753*
X87101Y83791*
Y84485*
X87921Y85306*
X87972Y85381*
X8799Y8547*
Y87109*
X88258*
Y88806*
X88505*
Y87109*
X89047*
Y85978*
Y83791*
X88991Y83753*
X88902Y8362*
X88871Y83463*
Y81863*
X88902Y81707*
X88991Y81574*
X89124Y81485*
X8928Y81454*
X89437Y81485*
X8957Y81574*
X89659Y81707*
X8969Y81863*
Y83463*
X89659Y8362*
X8957Y83753*
X89514Y83791*
Y85745*
X95803*
Y84627*
X98506*
Y8733*
X95803*
Y86212*
X89514*
Y86866*
X89603Y86956*
X90129*
Y8801*
X90257*
Y88137*
X9091*
Y88806*
X95803*
Y87802*
X98506*
Y90505*
X95803*
Y89272*
X94089*
X93977Y89309*
Y89399*
Y92512*
G37*
G36*
X101091Y87991D02*
Y87629D01*
X101453*
X101439Y87699*
X101328Y87866*
X101161Y87977*
X101091Y87991*
G37*
G36*
X116566Y92074D02*
X116204D01*
Y91713*
X116274Y91727*
X116441Y91838*
X116552Y92005*
X116566Y92074*
G37*
G36*
X11595D02*
X115589D01*
X115603Y92005*
X115714Y91838*
X115881Y91727*
X11595Y91713*
Y92074*
G37*
G36*
X101345Y92328D02*
X100984D01*
X100998Y92259*
X101109Y92092*
X101276Y91981*
X101345Y91967*
Y92328*
G37*
G36*
X11595Y9269D02*
X115881Y92676D01*
X115714Y92565*
X115603Y92398*
X115589Y92328*
X11595*
Y9269*
G37*
G36*
X101961Y92328D02*
X101599D01*
Y91967*
X101669Y91981*
X101836Y92092*
X101947Y92259*
X101961Y92328*
G37*
G36*
X110997Y91928D02*
Y91566D01*
X111359*
X111345Y91636*
X111234Y91803*
X111067Y91914*
X110997Y91928*
G37*
G36*
X98506Y9368D02*
X95803D01*
Y93324*
X89407*
X89318Y93306*
X89243Y93255*
X86342Y90354*
X86291Y90279*
X86273Y9019*
Y88912*
X86005*
Y87109*
X86273*
Y86095*
X86009Y85831*
X842*
X84111Y85813*
X84036Y85762*
X82893Y84619*
X82842Y84544*
X82824Y84454*
Y83791*
X82768Y83753*
X82679Y8362*
X82648Y83463*
Y81863*
X82679Y81707*
X82768Y81574*
X82901Y81485*
X83057Y81454*
X83214Y81485*
X83347Y81574*
X83436Y81707*
X83467Y81863*
Y83463*
X83436Y8362*
X83347Y83753*
X83291Y83791*
Y84358*
X84053Y8512*
X8418Y85068*
Y84764*
X84163Y84746*
X84112Y84671*
X84094Y84581*
Y83791*
X84038Y83753*
X83949Y8362*
X83918Y83463*
Y81863*
X83949Y81707*
X84038Y81574*
X84171Y81485*
X84327Y81454*
X84484Y81485*
X84617Y81574*
X84706Y81707*
X84737Y81863*
Y83463*
X84706Y8362*
X84617Y83753*
X84561Y83791*
Y84369*
X8465Y84459*
X84983*
X8511*
X85364*
Y83791*
X85308Y83753*
X85219Y8362*
X85188Y83463*
Y81863*
X85219Y81707*
X85308Y81574*
X85441Y81485*
X85597Y81454*
X85754Y81485*
X85887Y81574*
X85976Y81707*
X86007Y81863*
Y83463*
X85976Y8362*
X85887Y83753*
X85831Y83791*
Y84459*
X85833*
Y85212*
X8511*
X8503*
X84903*
X8445*
X84382Y85339*
X84399Y85364*
X86105*
X86195Y85382*
X8627Y85433*
X86671Y85834*
X86722Y85909*
X86739Y85999*
Y87109*
X87008*
Y88912*
X86739*
Y90093*
X89504Y92857*
X95803*
Y90977*
X98506*
Y9368*
G37*
G36*
X111359Y91312D02*
X110997D01*
Y90951*
X111067Y90965*
X111234Y91076*
X111345Y91243*
X111359Y91312*
G37*
G36*
X108384Y92041D02*
X107782D01*
Y91439*
X108384*
Y92041*
G37*
G36*
X110743Y91928D02*
X110674Y91914D01*
X110507Y91803*
X110396Y91636*
X110382Y91566*
X110743*
Y91928*
G37*
G36*
X10924Y92041D02*
X108638D01*
Y91439*
X10924*
Y92041*
G37*
G36*
X116204Y9269D02*
Y92328D01*
X116566*
X116552Y92398*
X116441Y92565*
X116274Y92676*
X116204Y9269*
G37*
G36*
X105028Y93325D02*
Y92963D01*
X10539*
X105376Y93033*
X105265Y932*
X105098Y93311*
X105028Y93325*
G37*
G36*
X10539Y92709D02*
X105028D01*
Y92348*
X105098Y92362*
X105265Y92473*
X105376Y9264*
X10539Y92709*
G37*
G36*
X104774D02*
X104413D01*
X104427Y9264*
X104538Y92473*
X104705Y92362*
X104774Y92348*
Y92709*
G37*
G36*
X101345Y92944D02*
X101276Y9293D01*
X101109Y92819*
X100998Y92652*
X100984Y92582*
X101345*
Y92944*
G37*
G36*
X104774Y93325D02*
X104705Y93311D01*
X104538Y932*
X104427Y93033*
X104413Y92963*
X104774*
Y93325*
G37*
G36*
X101599Y92944D02*
Y92582D01*
X101961*
X101947Y92652*
X101836Y92819*
X101669Y9293*
X101599Y92944*
G37*
G36*
X93579Y84581D02*
X93217D01*
Y8422*
X93287Y84234*
X93454Y84345*
X93565Y84512*
X93579Y84581*
G37*
G36*
X89845Y77736D02*
X89407D01*
Y76524*
X89497Y76542*
X8968Y76664*
X89802Y76847*
X89845Y77064*
Y77736*
G37*
G36*
X89153D02*
X88716D01*
Y77064*
X88759Y76847*
X88881Y76664*
X89064Y76542*
X89153Y76524*
Y77736*
G37*
G36*
X90423D02*
X89986D01*
Y77064*
X90029Y76847*
X90151Y76664*
X90334Y76542*
X90423Y76524*
Y77736*
G37*
G36*
X117855Y76961D02*
X117494D01*
X117508Y76892*
X117619Y76725*
X117786Y76614*
X117855Y766*
Y76961*
G37*
G36*
X91115Y77736D02*
X90677D01*
Y76524*
X90767Y76542*
X9095Y76664*
X91072Y76847*
X91115Y77064*
Y77736*
G37*
G36*
X84892D02*
X84454D01*
Y76524*
X84544Y76542*
X84727Y76664*
X84849Y76847*
X84892Y77064*
Y77736*
G37*
G36*
X101472Y75672D02*
Y7531D01*
X101834*
X10182Y7538*
X101709Y75547*
X101542Y75658*
X101472Y75672*
G37*
G36*
X101218D02*
X101149Y75658D01*
X100982Y75547*
X100871Y7538*
X100857Y7531*
X101218*
Y75672*
G37*
G36*
X8293Y77736D02*
X82493D01*
Y77064*
X82536Y76847*
X82658Y76664*
X82841Y76542*
X8293Y76524*
Y77736*
G37*
G36*
X842D02*
X83763D01*
Y77064*
X83806Y76847*
X83928Y76664*
X84111Y76542*
X842Y76524*
Y77736*
G37*
G36*
X83622D02*
X83184D01*
Y76524*
X83274Y76542*
X83457Y76664*
X83579Y76847*
X83622Y77064*
Y77736*
G37*
G36*
X118471Y76961D02*
X118109D01*
Y766*
X118179Y76614*
X118346Y76725*
X118457Y76892*
X118471Y76961*
G37*
G36*
X113156Y78104D02*
X112795D01*
X112809Y78035*
X11292Y77868*
X113087Y77757*
X113156Y77743*
Y78104*
G37*
G36*
X110216Y77596D02*
X109854D01*
Y77235*
X109924Y77249*
X110091Y7736*
X110202Y77527*
X110216Y77596*
G37*
G36*
X117855Y77577D02*
X117786Y77563D01*
X117619Y77452*
X117508Y77285*
X117494Y77215*
X117855*
Y77577*
G37*
G36*
X1096Y77596D02*
X109239D01*
X109253Y77527*
X109364Y7736*
X109531Y77249*
X1096Y77235*
Y77596*
G37*
G36*
X118109Y77577D02*
Y77215D01*
X118471*
X118457Y77285*
X118346Y77452*
X118179Y77563*
X118109Y77577*
G37*
G36*
X88899Y75672D02*
Y7531D01*
X89261*
X89247Y7538*
X89136Y75547*
X88969Y75658*
X88899Y75672*
G37*
G36*
X83292Y74802D02*
X8293D01*
Y74441*
X83Y74455*
X83167Y74566*
X83278Y74733*
X83292Y74802*
G37*
G36*
X82676D02*
X82315D01*
X82329Y74733*
X8244Y74566*
X82607Y74455*
X82676Y74441*
Y74802*
G37*
G36*
X135635D02*
X135274D01*
X135288Y74733*
X135399Y74566*
X135566Y74455*
X135635Y74441*
Y74802*
G37*
G36*
X88645Y75056D02*
X88284D01*
X88298Y74987*
X88409Y7482*
X88576Y74709*
X88645Y74695*
Y75056*
G37*
G36*
X136251Y74802D02*
X135889D01*
Y74441*
X135959Y74455*
X136126Y74566*
X136237Y74733*
X136251Y74802*
G37*
G36*
X9904Y74675D02*
X98678D01*
Y74314*
X98748Y74328*
X98915Y74439*
X99026Y74606*
X9904Y74675*
G37*
G36*
X128242Y75294D02*
X127614D01*
Y74167*
X128242*
Y75294*
G37*
G36*
X89788Y74275D02*
X89719Y74261D01*
X89552Y7415*
X89441Y73983*
X89427Y73913*
X89788*
Y74275*
G37*
G36*
X129122Y75294D02*
X128496D01*
Y74167*
X129122*
Y75294*
G37*
G36*
X98424Y74675D02*
X98063D01*
X98077Y74606*
X98188Y74439*
X98355Y74328*
X98424Y74314*
Y74675*
G37*
G36*
X90804Y74316D02*
X90378D01*
Y74213*
X90251Y74169*
X90112Y74261*
X90042Y74275*
Y73786*
Y73298*
X90112Y73312*
X90251Y73404*
X90378Y7336*
Y73257*
X90804*
Y73786*
Y74316*
G37*
G36*
X89261Y75056D02*
X88899D01*
Y74695*
X88969Y74709*
X89136Y7482*
X89247Y74987*
X89261Y75056*
G37*
G36*
X8293Y75418D02*
Y75056D01*
X83292*
X83278Y75126*
X83167Y75293*
X83Y75404*
X8293Y75418*
G37*
G36*
X82676D02*
X82607Y75404D01*
X8244Y75293*
X82329Y75126*
X82315Y75056*
X82676*
Y75418*
G37*
G36*
X135635D02*
X135566Y75404D01*
X135399Y75293*
X135288Y75126*
X135274Y75056*
X135635*
Y75418*
G37*
G36*
X88645Y75672D02*
X88576Y75658D01*
X88409Y75547*
X88298Y7538*
X88284Y7531*
X88645*
Y75672*
G37*
G36*
X135889Y75418D02*
Y75056D01*
X136251*
X136237Y75126*
X136126Y75293*
X135959Y75404*
X135889Y75418*
G37*
G36*
X98678Y75291D02*
Y74929D01*
X9904*
X99026Y74999*
X98915Y75166*
X98748Y75277*
X98678Y75291*
G37*
G36*
X101834Y75056D02*
X101472D01*
Y74695*
X101542Y74709*
X101709Y7482*
X10182Y74987*
X101834Y75056*
G37*
G36*
X101218D02*
X100857D01*
X100871Y74987*
X100982Y7482*
X101149Y74709*
X101218Y74695*
Y75056*
G37*
G36*
X95884Y75183D02*
X95523D01*
X95537Y75114*
X95648Y74947*
X95815Y74836*
X95884Y74822*
Y75183*
G37*
G36*
X98424Y75291D02*
X98355Y75277D01*
X98188Y75166*
X98077Y74999*
X98063Y74929*
X98424*
Y75291*
G37*
G36*
X965Y75183D02*
X96138D01*
Y74822*
X96208Y74836*
X96375Y74947*
X96486Y75114*
X965Y75183*
G37*
G36*
X115923Y82996D02*
X115245D01*
Y82168*
X115923*
Y82996*
G37*
G36*
X134873Y82022D02*
Y8166D01*
X135235*
X135221Y8173*
X13511Y81897*
X134943Y82008*
X134873Y82022*
G37*
G36*
X116853Y82996D02*
X116177D01*
Y82168*
X116853*
Y82996*
G37*
G36*
X134619Y82022D02*
X13455Y82008D01*
X134383Y81897*
X134272Y8173*
X134258Y8166*
X134619*
Y82022*
G37*
G36*
X115923Y81914D02*
X115245D01*
Y81087*
X115923*
Y81914*
G37*
G36*
X135235Y81406D02*
X134873D01*
Y81045*
X134943Y81059*
X13511Y8117*
X135221Y81337*
X135235Y81406*
G37*
G36*
X116853Y81914D02*
X116177D01*
Y81087*
X116853*
Y81914*
G37*
G36*
X91292Y85212D02*
X91165D01*
X90442*
Y84764*
X90386Y84707*
X90335Y84632*
X90317Y84542*
Y83791*
X90261Y83753*
X90172Y8362*
X90141Y83463*
Y81863*
X90172Y81707*
X90261Y81574*
X90394Y81485*
X9055Y81454*
X90707Y81485*
X9084Y81574*
X90929Y81707*
X9096Y81863*
Y83463*
X90929Y8362*
X9084Y83753*
X90784Y83791*
Y84337*
X90905Y84459*
X91245*
X91371*
X9146Y84369*
Y83648*
X91442Y8362*
X91411Y83463*
Y81863*
X91442Y81707*
X91531Y81574*
X91664Y81485*
X9182Y81454*
X91977Y81485*
X9211Y81574*
X92199Y81707*
X9223Y81863*
Y83463*
X92199Y8362*
X9211Y83753*
X91977Y83842*
X91927Y83852*
Y84459*
X92095*
Y85212*
X91292*
G37*
G36*
X129507Y84609D02*
X128831D01*
Y82733*
X129507*
Y84609*
G37*
G36*
X95376Y84054D02*
Y83692D01*
X95738*
X95724Y83762*
X95613Y83929*
X95446Y8404*
X95376Y84054*
G37*
G36*
X95122D02*
X95053Y8404D01*
X94886Y83929*
X94775Y83762*
X94761Y83692*
X95122*
Y84054*
G37*
G36*
X125856Y84308D02*
X125787Y84294D01*
X12562Y84183*
X125509Y84016*
X125495Y83946*
X125856*
Y84308*
G37*
G36*
X92963Y84581D02*
X92602D01*
X92616Y84512*
X92727Y84345*
X92894Y84234*
X92963Y8422*
Y84581*
G37*
G36*
X12611Y84308D02*
Y83946D01*
X126472*
X126458Y84016*
X126347Y84183*
X12618Y84294*
X12611Y84308*
G37*
G36*
X113583Y83946D02*
X113156D01*
Y83544*
X113583*
Y83946*
G37*
G36*
X95122Y83438D02*
X94761D01*
X94775Y83369*
X94886Y83202*
X95053Y83091*
X95122Y83077*
Y83438*
G37*
G36*
X130438Y84609D02*
X129761D01*
Y82733*
X130438*
Y84609*
G37*
G36*
X95738Y83438D02*
X95376D01*
Y83077*
X95446Y83091*
X95613Y83202*
X95724Y83369*
X95738Y83438*
G37*
G36*
X126472Y83692D02*
X12611D01*
Y83331*
X12618Y83345*
X126347Y83456*
X126458Y83623*
X126472Y83692*
G37*
G36*
X125856D02*
X125495D01*
X125509Y83623*
X12562Y83456*
X125787Y83345*
X125856Y83331*
Y83692*
G37*
G36*
X134619Y81406D02*
X134258D01*
X134272Y81337*
X134383Y8117*
X13455Y81059*
X134619Y81045*
Y81406*
G37*
G36*
X89407Y79203D02*
Y7799D01*
X89845*
Y78664*
X89802Y7888*
X8968Y79063*
X89497Y79185*
X89407Y79203*
G37*
G36*
X89153D02*
X89064Y79185D01*
X88881Y79063*
X88759Y7888*
X88716Y78664*
Y7799*
X89153*
Y79203*
G37*
G36*
X84454D02*
Y7799D01*
X84892*
Y78664*
X84849Y7888*
X84727Y79063*
X84544Y79185*
X84454Y79203*
G37*
G36*
X113156Y7872D02*
X113087Y78706D01*
X11292Y78595*
X112809Y78428*
X112795Y78358*
X113156*
Y7872*
G37*
G36*
X90677Y79203D02*
Y7799D01*
X91115*
Y78664*
X91072Y7888*
X9095Y79063*
X90767Y79185*
X90677Y79203*
G37*
G36*
X90423D02*
X90334Y79185D01*
X90151Y79063*
X90029Y7888*
X89986Y78664*
Y7799*
X90423*
Y79203*
G37*
G36*
X109854Y78212D02*
Y7785D01*
X110216*
X110202Y7792*
X110091Y78087*
X109924Y78198*
X109854Y78212*
G37*
G36*
X1096D02*
X109531Y78198D01*
X109364Y78087*
X109253Y7792*
X109239Y7785*
X1096*
Y78212*
G37*
G36*
X113772Y78104D02*
X11341D01*
Y77743*
X11348Y77757*
X113647Y77868*
X113758Y78035*
X113772Y78104*
G37*
G36*
X842Y79203D02*
X84111Y79185D01*
X83928Y79063*
X83806Y7888*
X83763Y78664*
Y7799*
X842*
Y79203*
G37*
G36*
X83184D02*
Y7799D01*
X83622*
Y78664*
X83579Y7888*
X83457Y79063*
X83274Y79185*
X83184Y79203*
G37*
G36*
X8293D02*
X82841Y79185D01*
X82658Y79063*
X82536Y7888*
X82493Y78664*
Y7799*
X8293*
Y79203*
G37*
G36*
X11267Y7912D02*
X112267D01*
Y78694*
X11267*
Y7912*
G37*
G36*
X115823Y78993D02*
X115462D01*
X115476Y78924*
X115587Y78757*
X115754Y78646*
X115823Y78632*
Y78993*
G37*
G36*
X116439D02*
X116077D01*
Y78632*
X116147Y78646*
X116314Y78757*
X116425Y78924*
X116439Y78993*
G37*
G36*
X112013Y7912D02*
X111611D01*
Y78694*
X112013*
Y7912*
G37*
G36*
X13252Y81592D02*
X128817D01*
Y80474*
X125706*
X125617Y80456*
X125542Y80405*
X125259Y80123*
X125063Y80204*
X12484Y80234*
X124618Y80204*
X124411Y80118*
X124233Y79982*
X124097Y79804*
X124011Y79597*
X123981Y79374*
X124011Y79152*
X124097Y78945*
X124233Y78767*
X124411Y78631*
X124618Y78545*
X12484Y78515*
X125063Y78545*
X12527Y78631*
X125448Y78767*
X125584Y78945*
X12567Y79152*
X1257Y79374*
X12567Y79597*
X125589Y79793*
X125803Y80007*
X128817*
Y78889*
X130435*
Y75142*
X130067*
Y72939*
X13127*
Y75142*
X130902*
Y78889*
X13252*
Y81592*
G37*
G36*
X11341Y7872D02*
Y78358D01*
X113772*
X113758Y78428*
X113647Y78595*
X11348Y78706*
X11341Y7872*
G37*
G36*
X116077Y79609D02*
Y79247D01*
X116439*
X116425Y79317*
X116314Y79484*
X116147Y79595*
X116077Y79609*
G37*
G36*
X115823D02*
X115754Y79595D01*
X115587Y79484*
X115476Y79317*
X115462Y79247*
X115823*
Y79609*
G37*
G36*
X98805Y77704D02*
Y77342D01*
X99167*
X99153Y77412*
X99042Y77579*
X98875Y7769*
X98805Y77704*
G37*
G36*
X98551D02*
X98482Y7769D01*
X98315Y77579*
X98204Y77412*
X9819Y77342*
X98551*
Y77704*
G37*
G36*
X101218Y77831D02*
X101149Y77817D01*
X100982Y77706*
X100871Y77539*
X100857Y77469*
X101218*
Y77831*
G37*
G36*
X101472D02*
Y77469D01*
X101834*
X10182Y77539*
X101709Y77706*
X101542Y77817*
X101472Y77831*
G37*
G36*
X101834Y77215D02*
X101472D01*
Y76854*
X101542Y76868*
X101709Y76979*
X10182Y77146*
X101834Y77215*
G37*
G36*
X101218D02*
X100857D01*
X100871Y77146*
X100982Y76979*
X101149Y76868*
X101218Y76854*
Y77215*
G37*
G36*
X98786Y8293D02*
X98424D01*
Y82569*
X98494Y82583*
X98661Y82694*
X98772Y82861*
X98786Y8293*
G37*
G36*
X9817D02*
X97809D01*
X97823Y82861*
X97934Y82694*
X98101Y82583*
X9817Y82569*
Y8293*
G37*
G36*
X97432Y82312D02*
X96606D01*
Y81609*
X97432*
Y82312*
G37*
G36*
X96119Y78739D02*
X95757D01*
Y78378*
X95827Y78392*
X95994Y78503*
X96105Y7867*
X96119Y78739*
G37*
G36*
X10113Y79501D02*
X100703D01*
Y79099*
X10113*
Y79501*
G37*
G36*
X95503Y78739D02*
X95142D01*
X95156Y7867*
X95267Y78503*
X95434Y78392*
X95503Y78378*
Y78739*
G37*
G36*
X106279Y69722D02*
X105917D01*
Y69361*
X105987Y69375*
X106154Y69486*
X106265Y69653*
X106279Y69722*
G37*
G36*
X105155Y71119D02*
X104794D01*
X104808Y7105*
X104919Y70883*
X105086Y70772*
X105155Y70758*
Y71119*
G37*
G36*
X106587Y71355D02*
X106285Y71053D01*
X106569Y70769*
X106871Y7107*
X106587Y71355*
G37*
G36*
X103724D02*
X10344Y7107D01*
X103742Y70769*
X104026Y71053*
X103724Y71355*
G37*
G36*
X105771Y71119D02*
X105409D01*
Y70758*
X105479Y70772*
X105646Y70883*
X105757Y7105*
X105771Y71119*
G37*
G36*
X105917Y70338D02*
Y69976D01*
X106279*
X106265Y70046*
X106154Y70213*
X105987Y70324*
X105917Y70338*
G37*
G36*
X105663D02*
X105594Y70324D01*
X105427Y70213*
X105316Y70046*
X105302Y69976*
X105663*
Y70338*
G37*
G36*
X109473Y69416D02*
X109171Y69114D01*
X109456Y6883*
X109758Y69132*
X109473Y69416*
G37*
G36*
X100803Y6945D02*
X100519Y69165D01*
X100821Y68864*
X101105Y69148*
X100803Y6945*
G37*
G36*
X101267Y69914D02*
X100983Y6963D01*
X101285Y69328*
X101569Y69612*
X101267Y69914*
G37*
G36*
X10901Y6988D02*
X108708Y69578D01*
X108992Y69293*
X109294Y69595*
X10901Y6988*
G37*
G36*
X105663Y69722D02*
X105302D01*
X105316Y69653*
X105427Y69486*
X105594Y69375*
X105663Y69361*
Y69722*
G37*
G36*
X106122Y71819D02*
X105882Y71578D01*
X105845Y71541*
X10577Y71535*
X105658Y71591*
X105646Y7161*
X105479Y71721*
X105409Y71735*
Y71373*
X1058*
X105807Y71411*
X105885Y71452*
X1059Y71437*
X106105Y71233*
X106407Y71535*
X106122Y71819*
G37*
G36*
X105155Y71735D02*
X105086Y71721D01*
X104919Y7161*
X104808Y71443*
X104794Y71373*
X105155*
Y71735*
G37*
G36*
X104984Y72547D02*
X1047Y72262D01*
X105002Y7196*
X105286Y72245*
X104984Y72547*
G37*
G36*
X108203Y64369D02*
Y64007D01*
X108565*
X108551Y64077*
X10844Y64244*
X108273Y64355*
X108203Y64369*
G37*
G36*
X107949D02*
X10788Y64355D01*
X107713Y64244*
X107602Y64077*
X107588Y64007*
X107949*
Y64369*
G37*
G36*
X106344Y64896D02*
X105917D01*
Y64494*
X106344*
Y64896*
G37*
G36*
X113953Y65005D02*
X113651Y64703D01*
X113935Y64419*
X114237Y6472*
X113953Y65005*
G37*
G36*
X109346Y62972D02*
X109277Y62958D01*
X10911Y62847*
X108999Y6268*
X108985Y6261*
X109346*
Y62972*
G37*
G36*
X112521Y63245D02*
X11216D01*
X112174Y63176*
X112285Y63009*
X112452Y62898*
X112521Y62884*
Y63245*
G37*
G36*
X1096Y62972D02*
Y6261D01*
X109962*
X109948Y6268*
X109837Y62847*
X10967Y62958*
X1096Y62972*
G37*
G36*
X116097Y6263D02*
X115569D01*
Y62102*
X116097*
Y6263*
G37*
G36*
X117455Y62737D02*
X116478D01*
X116492Y62668*
X116603Y62501*
X11677Y6239*
X11677Y6239*
Y61975*
X118179*
Y62553*
X117499*
X117449Y62647*
X117444Y6268*
X117455Y62737*
G37*
G36*
X109346Y62356D02*
X108985D01*
X108999Y62287*
X10911Y6212*
X109277Y62009*
X109346Y61995*
Y62356*
G37*
G36*
X115315Y6263D02*
X114788D01*
Y62102*
X115315*
Y6263*
G37*
G36*
X109962Y62356D02*
X1096D01*
Y61995*
X10967Y62009*
X109837Y6212*
X109948Y62287*
X109962Y62356*
G37*
G36*
X113137Y63245D02*
X112775D01*
Y62884*
X112845Y62898*
X113012Y63009*
X113123Y63176*
X113137Y63245*
G37*
G36*
X108565Y63753D02*
X108203D01*
Y63392*
X108273Y63406*
X10844Y63517*
X108551Y63684*
X108565Y63753*
G37*
G36*
X107949D02*
X107588D01*
X107602Y63684*
X107713Y63517*
X10788Y63406*
X107949Y63392*
Y63753*
G37*
G36*
X112521Y63861D02*
X112452Y63847D01*
X112285Y63736*
X112174Y63569*
X11216Y63499*
X112521*
Y63861*
G37*
G36*
X112775D02*
Y63499D01*
X113137*
X113123Y63569*
X113012Y63736*
X112845Y63847*
X112775Y63861*
G37*
G36*
X117093Y63353D02*
Y62991D01*
X117455*
X117441Y63061*
X11733Y63228*
X117163Y63339*
X117093Y63353*
G37*
G36*
X116839D02*
X11677Y63339D01*
X116603Y63228*
X116492Y63061*
X116478Y62991*
X116839*
Y63353*
G37*
G36*
X108584Y67671D02*
Y67309D01*
X108946*
X108932Y67379*
X108821Y67546*
X108654Y67657*
X108584Y67671*
G37*
G36*
X10833D02*
X108261Y67657D01*
X108094Y67546*
X107983Y67379*
X107969Y67309*
X10833*
Y67671*
G37*
G36*
X103377Y67944D02*
X103016D01*
X10303Y67875*
X103141Y67708*
X103308Y67597*
X103377Y67583*
Y67944*
G37*
G36*
X10666Y67436D02*
X106298D01*
Y67075*
X106368Y67089*
X106535Y672*
X106646Y67367*
X10666Y67436*
G37*
G36*
X10071D02*
X100349D01*
X100363Y67367*
X100474Y672*
X100641Y67089*
X10071Y67075*
Y67436*
G37*
G36*
X106044D02*
X105683D01*
X105697Y67367*
X105808Y672*
X105975Y67089*
X106044Y67075*
Y67436*
G37*
G36*
X101326D02*
X100964D01*
Y67075*
X101034Y67089*
X101201Y672*
X101312Y67367*
X101326Y67436*
G37*
G36*
X103993Y67944D02*
X103631D01*
Y67583*
X103701Y67597*
X103868Y67708*
X103979Y67875*
X103993Y67944*
G37*
G36*
X103631Y6856D02*
Y68198D01*
X103993*
X103979Y68268*
X103868Y68435*
X103701Y68546*
X103631Y6856*
G37*
G36*
X103377D02*
X103308Y68546D01*
X103141Y68435*
X10303Y68268*
X103016Y68198*
X103377*
Y6856*
G37*
G36*
X100964Y68052D02*
Y6769D01*
X101326*
X101312Y6776*
X101201Y67927*
X101034Y68038*
X100964Y68052*
G37*
G36*
X10071D02*
X100641Y68038D01*
X100474Y67927*
X100363Y6776*
X100349Y6769*
X10071*
Y68052*
G37*
G36*
X106044D02*
X105975Y68038D01*
X105808Y67927*
X105697Y6776*
X105683Y6769*
X106044*
Y68052*
G37*
G36*
X106298D02*
Y6769D01*
X10666*
X106646Y6776*
X106535Y67927*
X106368Y68038*
X106298Y68052*
G37*
G36*
X110978Y65531D02*
X110616D01*
Y6517*
X110686Y65184*
X110853Y65295*
X110964Y65462*
X110978Y65531*
G37*
G36*
X113488Y65469D02*
X113187Y65167D01*
X113471Y64883*
X113773Y65185*
X113488Y65469*
G37*
G36*
X110362Y65531D02*
X110001D01*
X110015Y65462*
X110126Y65295*
X110293Y65184*
X110362Y6517*
Y65531*
G37*
G36*
X106344Y65553D02*
X105917D01*
Y6515*
X106344*
Y65553*
G37*
G36*
X110362Y66147D02*
X110293Y66133D01*
X110126Y66022*
X110015Y65855*
X110001Y65785*
X110362*
Y66147*
G37*
G36*
X10833Y67055D02*
X107969D01*
X107983Y66986*
X108094Y66819*
X108261Y66708*
X10833Y66694*
Y67055*
G37*
G36*
X108946D02*
X108584D01*
Y66694*
X108654Y66708*
X108821Y66819*
X108932Y66986*
X108946Y67055*
G37*
G36*
X110616Y66147D02*
Y65785D01*
X110978*
X110964Y65855*
X110853Y66022*
X110686Y66133*
X110616Y66147*
G37*
G36*
X88372Y101218D02*
X8801D01*
Y100857*
X8808Y100871*
X88247Y100982*
X88358Y101149*
X88372Y101218*
G37*
G36*
X87756D02*
X87395D01*
X87409Y101149*
X8752Y100982*
X87687Y100871*
X87756Y100857*
Y101218*
G37*
G36*
X90804Y101072D02*
X90735Y101058D01*
X90568Y100947*
X90457Y10078*
X90443Y10071*
X90804*
Y101072*
G37*
G36*
Y100456D02*
X90443D01*
X90457Y100387*
X90568Y10022*
X90735Y100109*
X90804Y100095*
Y100456*
G37*
G36*
X85823Y114063D02*
X8262D01*
Y11176*
X85823*
Y114063*
G37*
G36*
X106179Y112797D02*
X105752D01*
Y112394*
X106179*
Y112797*
G37*
G36*
Y11214D02*
X105752D01*
Y111738*
X105824*
X106192Y11137*
Y107106*
X1061Y107015*
X105835*
Y106413*
X106165*
X10659Y106838*
X106641Y106913*
X106659Y107003*
Y111466*
X106641Y111556*
X10659Y111631*
X106179Y112043*
Y11214*
G37*
G36*
X106113Y106159D02*
X105835D01*
Y105557*
X106113*
Y106159*
G37*
G36*
X9739Y114805D02*
X92187D01*
Y112497*
X90495Y110805*
X88187*
X88176Y110927*
Y111017*
X87248*
Y110362*
X86994*
Y111017*
X86067*
Y110449*
X84983*
X84893Y110431*
X84818Y11038*
X83909Y109471*
X83858Y109396*
X8384Y109306*
Y108273*
X8371Y108186*
X83599Y108019*
X83585Y107949*
X84073*
Y107822*
X842*
Y107334*
X84221Y107338*
X84348Y107259*
Y106044*
X84366Y105955*
X84417Y10588*
X84609Y105688*
X84604Y105663*
X84631Y105526*
X84709Y10541*
X84797Y105351*
X84768Y105224*
X8262*
Y102921*
X85823*
Y105105*
Y105183*
X85942Y105243*
X8765Y103535*
Y103339*
X87668Y103249*
X87719Y103174*
X87725Y103169*
X87686Y103042*
X87608*
Y102615*
X88137*
Y102361*
X87608*
Y101935*
X8765*
Y101796*
X8752Y101709*
X87409Y101542*
X87395Y101472*
X88372*
X88358Y101542*
X88247Y101709*
X88117Y101796*
Y101935*
X88667*
Y102362*
X88784Y102411*
X89682Y101512*
Y100858*
X89539*
Y100135*
Y100055*
Y99928*
Y99205*
X89987*
X91314Y97879*
X91389Y97828*
X91479Y9781*
X93207*
X93274Y97683*
X93267Y97673*
X9324Y97535*
X93267Y97398*
X93345Y97282*
X93365Y97268*
Y96842*
X93347*
Y95689*
X9385*
Y96842*
X93832*
Y97268*
X93852Y97282*
X9393Y97398*
X93939Y97447*
X94077Y97489*
X94612Y96955*
X94647Y96842*
X94647*
X94647*
Y95868*
X9452Y95796*
X94515Y95799*
Y96842*
X94012*
Y95689*
X9403*
Y95601*
X94048Y95511*
X94099Y95436*
X94323Y95212*
X94398Y95161*
X94487Y95143*
X95249*
X95339Y95161*
X95414Y95212*
X96176Y95974*
X96227Y96049*
X96245Y96138*
Y96677*
X97251Y97683*
X97704*
X97794Y97594*
Y97515*
Y97389*
X97704Y973*
X97447*
X97358Y97282*
X97283Y97231*
X97179Y97127*
X97154Y97132*
X97017Y97105*
X96901Y97027*
X96823Y96911*
X96796Y96773*
X96823Y96636*
X96901Y9652*
X97017Y96442*
X97154Y96415*
X97292Y96442*
X97408Y9652*
X97486Y96636*
X97513Y96773*
X97625Y96833*
X97794*
Y96665*
X98547*
Y96833*
X100368*
X100458Y96851*
X100533Y96902*
X105223Y101592*
X105274Y101667*
X105292Y101756*
Y105435*
X105305Y105557*
X105581*
Y106286*
Y107015*
X105305*
X105292Y107136*
Y108782*
X10532Y108801*
X105873Y109354*
X105924Y109429*
X105942Y109518*
Y109659*
X10596*
Y110812*
X105457*
Y109659*
X105411Y109551*
X10514Y109279*
X105058Y109296*
X104969Y109278*
X104894Y109227*
X104875Y109199*
X104627*
Y109659*
X104645*
Y110812*
X104142*
Y109659*
X10416*
Y109092*
X104178Y109003*
X104229Y108928*
X104356Y108801*
X104431Y10875*
X10452Y108732*
X104826*
Y106862*
X104807*
Y105709*
X104826*
Y101853*
X102332Y9936*
X10223Y99437*
Y99588*
X102234*
X102324Y99606*
X102399Y99657*
X103923Y101181*
X103974Y101256*
X103992Y101345*
Y101364*
X104135*
Y102087*
Y102167*
Y102294*
Y102662*
X104573Y103101*
X104624Y103176*
X104642Y103265*
Y105709*
X10466*
Y106862*
X104157*
Y105709*
X104175*
Y103362*
X10383Y103017*
X103382*
Y102849*
X101557*
X101467Y102831*
X101392Y10278*
X100316Y101704*
X100198Y101752*
Y102216*
X100146Y102343*
X103512Y105709*
X10401*
Y106862*
X103507*
Y106364*
X99657Y102513*
X99606Y102438*
X99588Y102349*
Y102216*
X99445*
Y102048*
X99402*
X99312Y10203*
X99237Y101979*
X95655Y98397*
X9563Y98402*
X95493Y98375*
X95377Y98297*
X95299Y98181*
X95272Y98043*
X95299Y97906*
X95377Y9779*
X95493Y97712*
X9563Y97685*
X95768Y97712*
X95884Y9779*
X95962Y97906*
X95989Y98043*
X95984Y98068*
X99343Y101426*
X99445Y101349*
Y100563*
X100198*
Y100927*
X101653Y102382*
X103292*
X103382Y102293*
Y102214*
Y102087*
Y101364*
Y101364*
X103337Y101254*
X102357Y100274*
X10223Y100326*
Y101073*
X101477*
Y100709*
X100325Y99557*
X100198Y99609*
Y99842*
X99445*
Y99491*
X99439Y9949*
X99364Y99439*
X98242Y98318*
X97794*
Y9815*
X97292*
X97239Y98277*
X98045Y99082*
X98181Y99109*
X98297Y99187*
X98375Y99303*
X98402Y9944*
X98375Y99578*
X98297Y99694*
X98181Y99772*
X98043Y99799*
X97906Y99772*
X9779Y99694*
X97712Y99578*
X97685Y9944*
X97695Y99391*
X95259Y96955*
X95155Y9699*
X9513Y97006*
X95114Y97087*
X95063Y97162*
X94017Y98208*
X93942Y98259*
X93852Y98277*
X91575*
X90292Y9956*
Y100008*
Y100135*
Y100858*
X90149*
Y101609*
X90131Y101698*
X9008Y101773*
X88514Y10334*
Y103667*
X88641Y103702*
X88671Y103657*
X91148Y101181*
X91091Y101066*
X91058Y101072*
Y100583*
Y100095*
X91085Y1001*
X91135Y100051*
X9121Y1*
X913Y99983*
X92544*
Y99486*
X92715*
Y99328*
X92733Y99239*
X92784Y99164*
X93434Y98514*
X93509Y98463*
X93598Y98445*
X9436*
X9445Y98463*
X94525Y98514*
X95063Y99052*
X95114Y99127*
X95132Y99216*
Y99486*
X95303*
Y99983*
X96532*
X96622Y1*
X96697Y100051*
X102399Y105753*
X10245Y105828*
X102468Y105917*
Y10959*
X102595Y109657*
X102605Y10965*
X102742Y109623*
X10288Y10965*
X102996Y109728*
X103074Y109844*
X10308Y109875*
X103507*
Y109659*
X10401*
Y110812*
X103512*
X103015Y111309*
Y111891*
X103183*
X10323*
X104033*
Y112034*
X104373*
Y111891*
X104541*
Y111505*
X104559Y111416*
X10461Y111341*
X104826Y111125*
Y110812*
X104807*
Y109659*
X10531*
Y110812*
X105292*
Y111222*
X105274Y111311*
X105223Y111386*
X105008Y111602*
Y111638*
X10507Y111738*
X105497*
Y112267*
Y112808*
X104858Y113448*
X104782Y113499*
X104693Y113517*
X102475*
X102385Y113499*
X10231Y113448*
X102063Y113201*
X102012Y113126*
X101994Y113037*
Y111887*
X102001Y111852*
Y106014*
X96436Y100449*
X95303*
Y100944*
X95025*
Y100215*
X94771*
Y100944*
X94495*
X94482Y101066*
Y101602*
X9739*
Y103877*
X99115Y105602*
X10139*
Y110805*
X99115*
X9739Y11253*
Y114805*
G37*
G36*
X83946Y107695D02*
X83585D01*
X83599Y107626*
X8371Y107459*
X83877Y107348*
X83946Y107334*
Y107695*
G37*
G36*
X85851Y101323D02*
X85714Y101296D01*
X85598Y101218*
X8552Y101102*
X85493Y100964*
X8552Y100827*
X85598Y100711*
X85714Y100633*
X85851Y100606*
X85876Y100611*
X90386Y96101*
X90461Y9605*
X9055Y96032*
X92697*
Y95689*
X932*
Y96842*
X92697*
Y96499*
X90647*
X86205Y10094*
X8621Y100964*
X86183Y101102*
X86105Y101218*
X85989Y101296*
X85851Y101323*
G37*
%LNheadband-pcb-3*%
%LPD*%
G36*
X126207Y109768D02*
Y106512D01*
X124754Y105059*
X121371*
X11941Y10702*
Y109815*
X121451Y111856*
X124119*
X126207Y109768*
G37*
G36*
X11608Y109649D02*
X116095D01*
X116207Y109613*
Y105856*
X118816*
X120207Y104465*
Y101856*
X122814*
Y100538*
X122796*
Y99385*
X123293*
Y99232*
X123464*
Y99029*
X12322Y98785*
X122397*
X122076Y99105*
X122129Y99232*
X122151*
Y99385*
X122649*
Y100538*
X12262*
X122613Y100576*
X122562Y100651*
X122518Y100696*
X12253Y100822*
X122554Y100838*
X122632Y100954*
X122659Y101091*
X122632Y101229*
X122554Y101345*
X122438Y101423*
X1223Y10145*
X122241Y101438*
X122173Y101452*
X119222*
X117385Y103288*
X11731Y103339*
X11722Y103357*
X115793*
X114845Y104304*
X114908Y104421*
X114934Y104416*
X115072Y104443*
X115188Y104521*
X115266Y104637*
X115293Y104774*
X115266Y104912*
X115188Y105028*
X115168Y105042*
Y106051*
X115942*
Y107054*
X114139*
Y106051*
X114619*
X114701Y105968*
Y105098*
X114654Y10506*
X114515Y105111*
X114504Y105166*
X114426Y105282*
X11431Y10536*
X114172Y105387*
X114035Y10536*
X113919Y105282*
X113858Y105191*
X113743Y105164*
X113721Y105164*
X113711*
X113461*
X113425Y105248*
X113415Y105291*
X113488Y105399*
X113515Y105536*
X113488Y105674*
X11341Y10579*
X11339Y105804*
Y107218*
X113634Y107462*
X114139*
Y107301*
X115942*
Y108304*
X114139*
Y107929*
X113537*
X113513Y107924*
X11345Y108041*
X114022Y108612*
X114139Y108563*
Y108551*
X115942*
Y109522*
Y109554*
X116021Y109649*
X11608*
G37*
G36*
X88185Y10961D02*
X88187Y109586D01*
Y106149*
X88068Y106079*
X88023Y106111*
Y107114*
X8622*
Y106111*
X86511*
X87176Y105447*
X8719Y105376*
X8724Y105301*
X87269Y105271*
Y105042*
X87249Y105028*
X87171Y104912*
X87162Y104863*
X87024Y104821*
X85469Y106375*
Y107482*
X8622*
Y107361*
X88023*
Y108364*
X8622*
Y107948*
X85584*
X85536Y108066*
X86121Y108652*
X8622Y108611*
X88023*
Y109527*
X88147Y109621*
X88185Y10961*
G37*
G36*
X98187Y109975D02*
Y106432D01*
X9656Y104805*
X93177*
X9139Y106592*
Y109942*
X9305Y111602*
X9656*
X98187Y109975*
G37*
G36*
X92187Y104037D02*
Y101658D01*
X92129Y101644*
X92094Y101668*
X92031Y10175*
X92052Y101853*
X92025Y101991*
X91947Y102107*
X91831Y102185*
X91693Y102212*
X91556Y102185*
X9144Y102107*
X91362Y101991*
X91335Y101853*
X9134Y101827*
X91223Y101764*
X89069Y103919*
Y104711*
X89051Y1048*
X89001Y104876*
X88392Y105485*
X88441Y105602*
X90622*
X92187Y104037*
G37*
G36*
X86067Y109708D02*
X86141D01*
X8622Y109614*
Y109388*
X86155Y109344*
X84703Y107893*
X84565Y107934*
X84548Y108019*
X84437Y108186*
X84307Y108273*
Y10921*
X85079Y109983*
X86067*
Y109708*
G37*
%LNheadband-pcb-4*%
%LPC*%
G36*
X122808Y111072D02*
X122298Y111021D01*
X121808Y110873*
X121356Y110631*
X12096Y110306*
X120635Y10991*
X120393Y109458*
X120245Y108968*
X120194Y108457*
X120245Y107947*
X120393Y107457*
X120635Y107005*
X12096Y106609*
X121356Y106284*
X121808Y106042*
X122298Y105894*
X122808Y105843*
X123319Y105894*
X123809Y106042*
X124261Y106284*
X124657Y106609*
X124982Y107005*
X125224Y107457*
X125372Y107947*
X125423Y108457*
X125372Y108968*
X125224Y109458*
X124982Y10991*
X124657Y110306*
X124261Y110631*
X123809Y110873*
X123319Y111021*
X122808Y111072*
G37*
G36*
X94788Y110818D02*
X94278Y110767D01*
X93788Y110619*
X93336Y110377*
X9294Y110052*
X92615Y109656*
X92373Y109204*
X92225Y108714*
X92174Y108203*
X92225Y107693*
X92373Y107203*
X92615Y106751*
X9294Y106355*
X93336Y10603*
X93788Y105788*
X94278Y10564*
X94788Y105589*
X95299Y10564*
X95789Y105788*
X96241Y10603*
X96637Y106355*
X96962Y106751*
X97204Y107203*
X97352Y107693*
X97403Y108203*
X97352Y108714*
X97204Y109204*
X96962Y109656*
X96637Y110052*
X96241Y110377*
X95789Y110619*
X95299Y110767*
X94788Y110818*
G37*
%LNheadband-pcb-5*%
%LPD*%
G54D10*
X133284Y105088D02*
D01*
X133307Y105067*
X133331Y105047*
X133357Y105029*
X133385Y105013*
X133413Y104998*
X133442Y104986*
X133472Y104976*
X133502Y104968*
X133533Y104962*
X133565Y104958*
X133596Y104956*
X133628Y104957*
X13366Y10496*
X133691Y104965*
X133722Y104972*
X133752Y104981*
X133781Y104993*
X13381Y105006*
X133838Y105022*
X133864Y105039*
X133889Y105058*
X133913Y105079*
X133923Y105088*
X133717Y104592D02*
D01*
X133685Y10459*
X133654Y104586*
X133623Y10458*
X133592Y104571*
X133562Y10456*
X133534Y104548*
X133506Y104533*
X133479Y104516*
X133453Y104498*
X133429Y104477*
X133406Y104456*
X133385Y104432*
X133365Y104407*
X133347Y104381*
X133331Y104354*
X133317Y104325*
X133305Y104296*
X133295Y104266*
X133288Y104235*
X133284Y104215*
X126922Y98769D02*
D01*
X126951Y98782*
X126978Y98798*
X127005Y98815*
X12703Y98834*
X127054Y98855*
X127076Y98877*
X127097Y98901*
X127116Y98926*
X127134Y98953*
X127149Y9898*
X127162Y99009*
X127174Y99038*
X127183Y99069*
X12719Y99099*
X127191Y99103*
X121038Y9561D02*
D01*
X121021Y95636*
X121002Y95661*
X120985Y95681*
X133923Y104799D02*
Y105088D01*
X133717Y104592D02*
X133923Y104799D01*
X133284Y104215D02*
Y105088D01*
X130145Y99452D02*
X131093Y1004D01*
Y100318D02*
Y1004D01*
X130145Y9937D02*
X131093Y100318D01*
X130145Y9937D02*
Y99452D01*
X127036Y9842D02*
X127719Y99103D01*
X127191D02*
X127719D01*
X126573Y9842D02*
X127036D01*
X126573D02*
X126922Y98769D01*
X126521Y98247D02*
Y98368D01*
X1264Y98247D02*
X126521D01*
X1264D02*
X126521Y98368D01*
X125145Y96529D02*
Y96992D01*
X124051Y95898D02*
X125145Y96992D01*
X120985Y95681D02*
X121394D01*
X116105Y109853D02*
Y110751D01*
X116044Y109856D02*
Y110749D01*
X114316Y109656D02*
X115766D01*
X114288Y109699D02*
X115794D01*
X124051Y95435D02*
Y95898D01*
Y95435D02*
X125145Y96529D01*
X123949Y95333D02*
X124051Y95435D01*
X123573Y95333D02*
X123949D01*
X121038Y9561D02*
X121394D01*
X12358Y95326D02*
X123942D01*
G54D11*
X118706Y61671D03*
G54D12*
X117474Y61848D03*
G54D13*
X115442Y61975D03*
G54D14*
X104774Y6388D03*
G54D15*
X96479Y79882D03*
X98678D03*
Y81482D03*
X96479D03*
G54D16*
X112648Y73318D03*
Y75818D03*
G54D17*
X132304Y110248D03*
X132939D03*
X133603D03*
X134253D03*
Y106298D03*
X133603D03*
X132954D03*
X132304D03*
X103758Y110235D03*
X104393D03*
X105058D03*
X105708D03*
Y106286D03*
X105058D03*
X104408D03*
X103758D03*
X123697Y96011D03*
X123062D03*
X122398D03*
X121748D03*
Y99961D03*
X122398D03*
X123048D03*
X123697D03*
X94898Y96265D03*
X94263D03*
X93598D03*
X92949D03*
Y100215D03*
X93598D03*
X94248D03*
X94898D03*
G54D18*
X104101Y74187D03*
Y74587D03*
X104501D03*
X104901D03*
X105302D03*
Y74187D03*
Y73786D03*
X104901D03*
X104501D03*
X104101D03*
G54D19*
X104647Y79374D03*
G54D20*
X105148Y79374D03*
X105647D03*
X106148D03*
X106647D03*
X107147D03*
X107647D03*
X108147D03*
X108647D03*
X109147D03*
X109647D03*
X110147D03*
Y86324D03*
X109647D03*
X109147D03*
X108647D03*
X108147D03*
X107647D03*
X107147D03*
X106647D03*
X106148D03*
X105647D03*
X105148D03*
X104647D03*
G54D21*
X110873Y80099D03*
Y806D03*
Y81099D03*
Y816D03*
Y82099D03*
Y826D03*
Y83099D03*
Y836D03*
Y84099D03*
Y846D03*
Y85099D03*
Y856D03*
X103923D03*
Y85099D03*
Y846D03*
Y84099D03*
Y836D03*
Y83099D03*
Y826D03*
Y82099D03*
Y816D03*
Y81099D03*
Y806D03*
Y80099D03*
G54D22*
X107398Y82849D03*
G54D23*
X130669Y80241D03*
G54D24*
X132968Y7404D03*
X130669D03*
X128369D03*
G54D25*
X8928Y77863D03*
X9055D03*
X9182D03*
X9309D03*
X8928Y82664D03*
X9055D03*
X9182D03*
X9309D03*
X83057Y77863D03*
X84327D03*
X85597D03*
X86867D03*
X83057Y82664D03*
X84327D03*
X85597D03*
X86867D03*
G54D26*
X134619Y112013D03*
X133769D03*
X132333D03*
X131484D03*
X105624Y112267D03*
X104774D03*
X103631D03*
X102782D03*
X112902Y82041D03*
X112052D03*
X10452Y87756D03*
X105371D03*
X101258Y83565D03*
X102107D03*
X90843Y84835D03*
X91693D03*
X84581D03*
X85432D03*
X106132Y77596D03*
X105282D03*
X103289D03*
X104139D03*
X119633Y62483D03*
X118784D03*
X112179Y85089D03*
X113029D03*
X103377Y87756D03*
X102527D03*
X10579Y65023D03*
X104941D03*
X102782D03*
X103631D03*
X102107Y82549D03*
X101258D03*
X112179Y84073D03*
X113029D03*
X102107Y79628D03*
X101258D03*
X101941Y81533D03*
X101091D03*
X91782Y73786D03*
X90931D03*
X85597D03*
X84747D03*
G54D27*
X133222Y102957D03*
Y102107D03*
X118236Y99353D03*
Y100202D03*
X129666Y98591D03*
Y9944D03*
X126999Y97916D03*
Y97067D03*
X103758Y102615D03*
Y101766D03*
X89915Y99607D03*
Y100456D03*
X101853Y99821D03*
Y100671D03*
X9817Y97916D03*
Y97067D03*
X99948Y83692D03*
Y84542D03*
X9182Y75907D03*
Y75056D03*
X85597Y75907D03*
Y75056D03*
X101599Y64134D03*
Y64985D03*
X106806Y89153D03*
Y90003D03*
X127507Y100456D03*
Y99607D03*
X116077Y101726D03*
Y100876D03*
X131571Y101179D03*
Y100329D03*
X99821Y101814D03*
Y100964D03*
X88137Y103339D03*
Y102488D03*
X99821Y9944D03*
Y98591D03*
X106298Y76541D03*
Y75691D03*
X103123Y76541D03*
Y75691D03*
X115061Y73151D03*
Y74002D03*
Y76033D03*
Y75183D03*
X105282Y76541D03*
Y75691D03*
X104266Y76541D03*
Y75691D03*
X98043Y6562D03*
Y64769D03*
X10579Y89153D03*
Y90003D03*
X11214Y80098D03*
Y79247D03*
G54D28*
X11605Y82041D03*
X114299D03*
G54D29*
X107949Y71373D03*
X10855Y70773D03*
X113156Y67182D03*
X113757Y66582D03*
X110997Y69341D03*
X111598Y68741D03*
X101634Y73498D03*
X102234Y72897D03*
X11535Y64989D03*
X11595Y64388D03*
X108838Y72262D03*
X109439Y71662D03*
X102996Y73659D03*
X102396Y7426D03*
X98043Y68071D03*
X97443Y68672D03*
X100202Y7023D03*
X100803Y6963D03*
X99567Y65658D03*
X100168Y65058D03*
X10452Y72262D03*
X10392Y72863D03*
X103724Y71535D03*
X103123Y72135D03*
G54D30*
X106552Y73024D03*
X107153Y73625D03*
X108076Y73024D03*
X108677Y73625D03*
X97281Y67309D03*
X96681Y66709D03*
X9944Y69468D03*
X9884Y68868D03*
X1022Y71339D03*
X101599Y70738D03*
X107187Y72135D03*
X106587Y71535D03*
X113953Y65185D03*
X114553Y65785D03*
X112429Y67979D03*
X113029Y68579D03*
X109473Y69595D03*
X110074Y70196D03*
X101472Y72135D03*
X100872Y71535D03*
G54D31*
X104404Y126005D03*
X111973D03*
X92826Y9091D03*
X82717D03*
G54D32*
X106933Y128904D03*
X109433D03*
X108183D03*
X90257Y8801D03*
X89006D03*
X87756D03*
X85257D03*
X86507D03*
G54D33*
X11214Y104012D03*
Y112852D03*
X84222Y104072D03*
Y112912D03*
G54D34*
X11504Y107802D03*
Y106552D03*
Y109053D03*
Y110303D03*
X87121Y107862D03*
Y106612D03*
Y109113D03*
Y110362D03*
G54D35*
X122554Y842D03*
X11849D03*
X122605Y8547D03*
X11849D03*
X122554Y8674D03*
X11849D03*
X122554Y8801D03*
X11849D03*
X122554Y8928D03*
X11849D03*
G54D36*
X129634Y84736D03*
X131634D03*
G54D37*
X127284Y90296D03*
X133984D03*
G54D38*
X120977Y76834D03*
X122427D03*
X108511Y91312D03*
X10706D03*
G54D39*
X122808Y103458D03*
Y113457D03*
X108203Y131779D03*
Y141778D03*
X94788Y103204D03*
Y113203D03*
G54D40*
X127808Y108457D03*
X117809D03*
X113203Y136778D03*
X103204D03*
X99788Y108203D03*
X89788D03*
G54D41*
X10452Y90731D03*
Y8928D03*
G54D42*
X132968Y70611D03*
X128369D03*
G54D43*
X108183Y131758D02*
X108203Y131779D01*
X108183Y128904D02*
Y131758D01*
Y128904D02*
X109433D01*
X106933D02*
X108183D01*
X103204Y136778D02*
X108203Y141778D01*
X113203Y136778*
X108203Y131779D02*
X113203Y136778D01*
X103204D02*
X108203Y131779D01*
G54D44*
X114553Y110196D02*
X11553D01*
X101345Y77385D02*
X103039Y75691D01*
X101258Y81533D02*
Y82549D01*
X90257Y87502D02*
X100964D01*
X87883Y101345D02*
Y102488D01*
X100351Y81004D02*
X102513D01*
X99873Y81482D02*
X100351Y81004D01*
X98678Y81482D02*
X99873D01*
X102174Y816D02*
X103923D01*
X102578Y80099D02*
X103923D01*
X99528Y99274D02*
X100372D01*
X99821Y98424D02*
X100456D01*
X99821Y97662D02*
Y98424D01*
X9817Y97067D02*
X100368D01*
X105058Y101756*
X102671Y81055D02*
X103878D01*
X103923Y81099*
X102627D02*
X102671Y81055D01*
X102608Y81099D02*
X102627D01*
X103337Y806D02*
X103923D01*
X103322Y80615D02*
X103337Y806D01*
X102925Y80615D02*
X103322D01*
X10291Y806D02*
X102925Y80615D01*
X100793Y806D02*
X10291D01*
X100075Y79882D02*
X100793Y806D01*
X94741Y77215D02*
X96138Y75818D01*
X97281*
X96646Y76326D02*
X9707D01*
X94614Y78358D02*
X96646Y76326D01*
X94614Y78358D02*
Y81253D01*
X102558Y82099D02*
X102934D01*
X114553Y108945D02*
X115336D01*
X121665Y101218D02*
X122398Y100486D01*
X114553Y106446D02*
X114934Y106065D01*
X101421Y85724D02*
X102671Y84476D01*
X86486Y106466D02*
X87405Y105547D01*
X118871Y70611D02*
X128369D01*
X88137Y103339D02*
X88186D01*
X87883D02*
X88137D01*
X87883D02*
Y103631D01*
X89915Y100456D02*
Y101609D01*
X88186Y103339D02*
X89915Y101609D01*
X115696Y103123D02*
X11722D01*
X119125Y101218*
X116712Y101726D02*
X117093Y102107D01*
X11722*
X113156Y105536D02*
Y107314D01*
X113537Y107695*
X114172Y104647D02*
Y105028D01*
Y104647D02*
X115696Y103123D01*
X114934Y104774D02*
Y106065D01*
X113537Y107695D02*
X114553D01*
X114152Y109072D02*
X11468D01*
X119125Y101218D02*
X121665D01*
X112648Y106806D02*
Y107568D01*
X114152Y109072*
X87405Y105465D02*
Y105547D01*
Y105465D02*
X87502Y105368D01*
Y104774D02*
Y105368D01*
X87883Y105663D02*
X88836Y104711D01*
X94614Y103204D02*
X94741Y103331D01*
X88836Y103822D02*
X91312Y101345D01*
X88836Y103822D02*
Y104711D01*
X84581Y106044D02*
X84962Y105663D01*
X84581Y106044D02*
Y107441D01*
X8632Y10918*
X86867*
X85237Y106278D02*
X87883Y103631D01*
X85237Y106278D02*
Y107589D01*
X9309Y75437D02*
Y77863D01*
Y73659D02*
Y75437D01*
X92582D02*
X9309D01*
X93979Y70357D02*
Y78866D01*
X9563Y77977D02*
Y78866D01*
X101434Y76365D02*
X103212Y74587D01*
X97108Y76365D02*
X101434D01*
X9707Y76326D02*
X97108Y76365D01*
X123048Y102474D02*
X124032Y103458D01*
X110873Y85619D02*
X114121D01*
X87756Y89039D02*
X97548D01*
X97281Y9309D02*
X97916Y92455D01*
X89407Y9309D02*
X97281D01*
X111598Y68741D02*
X113156Y67182D01*
X100168Y65058D02*
X102748D01*
X8928Y85978D02*
X97154D01*
X85558Y75945D02*
X85597Y75907D01*
X84835Y75945D02*
X85558D01*
X9182Y77863D02*
Y7912D01*
X92455Y79755*
X9309*
X93979Y78866*
X93217Y69595D02*
X93979Y70357D01*
X86507Y9019D02*
X89407Y9309D01*
X86507Y8801D02*
Y9019D01*
X97548Y89039D02*
X97916Y89407D01*
X87756Y8801D02*
Y89039D01*
X8928Y85978D02*
Y87736D01*
Y82664D02*
Y85978D01*
X106552Y74802D02*
X106806D01*
X9055Y74167D02*
Y77863D01*
Y74167D02*
X90931Y73786D01*
X8928Y77863D02*
X9055D01*
X104139Y78866D02*
X104647Y79374D01*
X104139Y77596D02*
Y78866D01*
X103123Y77431D02*
X103289Y77596D01*
X103123Y76541D02*
Y77431D01*
X106132Y77596D02*
X106298Y77431D01*
Y76541D02*
Y77431D01*
X105148Y77731D02*
X105282Y77596D01*
X105148Y77731D02*
Y79374D01*
X104139Y76669D02*
X104266Y76541D01*
X104139Y76669D02*
Y77596D01*
X105282Y76541D02*
Y77596D01*
X104266Y75691D02*
X104501Y75457D01*
Y74587D02*
Y75457D01*
X104901Y74587D02*
Y7531D01*
X105282Y75691*
X104101Y73046D02*
Y73786D01*
X10392Y72863D02*
X104101Y73046D01*
X103524Y74187D02*
X104101D01*
X102996Y73659D02*
X103524Y74187D01*
X101634Y73498D02*
X102396Y7426D01*
X102234Y72897D02*
X102996Y73659D01*
X101472Y72135D02*
X102234Y72897D01*
X103123Y72135D02*
X103191D01*
X10392Y72863*
X1022Y71339D02*
X102996Y72135D01*
X103123*
X101599Y70738D02*
Y70806D01*
X100872Y709D02*
Y71535D01*
X10071Y70738D02*
X101599D01*
X100202Y7023D02*
X10071Y70738D01*
X100872Y709*
X9944Y69468D02*
X100202Y7023D01*
X97281Y67309D02*
X98043Y68071D01*
X9884Y68868*
X96681Y66709D02*
X97769Y6562D01*
X98043*
X99528*
X99567Y65658*
X102748Y65058D02*
X102782Y65023D01*
X104749Y64832D02*
X104941Y65023D01*
X104749Y64007D02*
Y64832D01*
X103631Y65023D02*
X104941D01*
X98678Y64134D02*
X101599D01*
X98043Y64769D02*
X98678Y64134D01*
X96011Y64769D02*
X98043D01*
X94614Y66166D02*
X96011Y64769D01*
X94614Y66166D02*
X9712Y68672D01*
X97443*
Y69307*
X101634Y73498*
X100803Y6963D02*
X101819D01*
X103724Y71535*
X104453Y72262D02*
X10452D01*
X103724Y71535D02*
X104453Y72262D01*
X107153Y73625D02*
X107476D01*
X108076Y73024*
X108838Y72262*
X106552Y7277D02*
Y73024D01*
Y7277D02*
X107187Y72135D01*
X107949Y71373*
X109439Y70831D02*
Y71662D01*
X10855Y70773D02*
X109499D01*
X109439Y70831D02*
X109499Y70773D01*
X110074Y70196*
X110143*
X110997Y69341*
X113757Y66582D02*
X114553Y65785D01*
X11535Y64989*
X118706Y62406D02*
X118784Y62483D01*
X118706Y61925D02*
Y62406D01*
X108525Y69595D02*
X109473D01*
X106587Y71535D02*
X108525Y69595D01*
X113029Y68579D02*
Y69274D01*
X108677Y73625D02*
X113029Y69274D01*
X113953Y63465D02*
Y65185D01*
Y63465D02*
X115442Y61975D01*
X117347D02*
X117474Y61848D01*
X115442Y61975D02*
X117347D01*
X113884Y65185D02*
X113953D01*
X109473Y69595D02*
X113884Y65185D01*
X105647Y78166D02*
Y79374D01*
Y78166D02*
X106132Y77681D01*
Y77596D02*
Y77681D01*
X108845Y75818D02*
X112648D01*
X106148Y78358D02*
X10638Y78126D01*
X106148Y78358D02*
Y79374D01*
X10638Y78126D02*
X106538D01*
X106647Y78555D02*
Y79374D01*
X105302Y74587D02*
X106337D01*
X106552Y74802*
X105302Y74187D02*
X106593D01*
X107153Y73625*
X106647Y78555D02*
X108495Y76707D01*
X106538Y78126D02*
X108845Y75818D01*
X107147Y78779D02*
X107568Y78358D01*
X107147Y78779D02*
Y79374D01*
X114846Y75818D02*
X115061Y76033D01*
X112648Y75818D02*
X114846D01*
X115061Y74002D02*
Y75183D01*
X112816Y73151D02*
X115061D01*
X112648Y73318D02*
X112816Y73151D01*
X115061D02*
X115146D01*
X115823Y73829*
Y76326*
X115442Y76707D02*
X115823Y76326D01*
X108495Y76707D02*
X115442D01*
X122427Y76834D02*
X12484D01*
X117715Y80098D02*
X120977Y76834D01*
X11214Y80098D02*
X117715D01*
X110875D02*
X11214D01*
X110873Y80099D02*
X110875Y80098D01*
X12484Y79374D02*
X125706Y80241D01*
X130669*
Y7404D02*
Y80241D01*
X12484Y74294D02*
X126237Y75691D01*
Y77469*
X122554Y78993D02*
Y842D01*
X1289Y8547D02*
X129634Y84736D01*
X122605Y8547D02*
X1289D01*
X122605D02*
Y8669D01*
X122554Y8674D02*
X122605Y8669D01*
X131634Y84736D02*
X132968Y83402D01*
Y7404D02*
Y83402D01*
Y70611D02*
Y7404D01*
X128369Y70611D02*
Y7404D01*
X109647Y86324D02*
Y86787D01*
X109981Y87121*
X114172*
X114553Y8674*
X11849*
X109147Y86324D02*
Y86922D01*
X110235Y8801*
X11849*
X110873Y856D02*
Y85619D01*
X115539Y842D02*
X11849D01*
X110873Y85099D02*
X110882Y85089D01*
X113029Y84073D02*
Y85089D01*
Y84073D02*
X114018D01*
X11605Y82041*
X11093D02*
X112052D01*
X110873Y82099D02*
X11093Y82041D01*
X112902D02*
X114299D01*
X85597Y75907D02*
Y77863D01*
Y73786D02*
Y75056D01*
X84327Y74207D02*
X84747Y73786D01*
X83057Y77863D02*
X84327D01*
X9182Y75907D02*
Y77863D01*
Y73825D02*
Y75056D01*
X91782Y73786D02*
X9182Y73825D01*
X85432Y84835D02*
X85597Y8467D01*
Y82664D02*
Y8467D01*
X84327Y84581D02*
X84581Y84835D01*
X84327Y82664D02*
Y84581D01*
X83057Y82664D02*
Y84454D01*
X842Y85597*
X86105*
X86507Y85999*
Y8801*
X9055Y84542D02*
X90843Y84835D01*
X9055Y82664D02*
Y84542D01*
X91693Y82791D02*
Y84835D01*
Y82791D02*
X9182Y82664D01*
X89006Y8801D02*
X8928Y87736D01*
X87756Y8547D02*
Y8801D01*
X86867Y84581D02*
X87756Y8547D01*
X86867Y82664D02*
Y84581D01*
Y81025D02*
X87375Y80517D01*
X92455*
X9309Y81152*
Y82664*
X102107Y79628D02*
X102578Y80099D01*
X102107Y81533D02*
X102174Y816D01*
X102107Y82549D02*
X102558Y82099D01*
X102107Y83565D02*
X103073Y826D01*
X103923*
X102513Y84095D02*
X102661Y83946D01*
X103498Y836D02*
X103923D01*
X102661Y83897D02*
X10346Y83099D01*
X102661Y83897D02*
Y83946D01*
X10346Y83099D02*
X103923D01*
X103243Y83854D02*
X103498Y836D01*
X103243Y83854D02*
Y83903D01*
X102662Y84476D02*
X102671D01*
X102615Y84523D02*
X102662Y84476D01*
X99948Y83692D02*
X100075Y83565D01*
X102671Y84476D02*
X103243Y83903D01*
X102505Y84095D02*
X102513D01*
X101383Y85216D02*
X102505Y84095D01*
X100456Y85216D02*
X101383D01*
X105148Y86324D02*
Y86749D01*
X10452Y87376D02*
X105148Y86749D01*
X10452Y87376D02*
Y87756D01*
X105647Y86324D02*
Y87479D01*
X105371Y87756D02*
X105647Y87479D01*
X106806Y87557D02*
Y89153D01*
Y90003D02*
Y91058D01*
X10706Y91312*
X105371Y88733D02*
X10579Y89153D01*
X105371Y87756D02*
Y88733D01*
X104647Y89153D02*
X10579D01*
X10452Y8928D02*
X104647Y89153D01*
X105064Y90731D02*
X10579Y90003D01*
X10452Y90731D02*
X105064D01*
X108511Y91312D02*
Y92001D01*
X108469Y92041D02*
X108511Y92001D01*
X104868Y92041D02*
X108469D01*
X10452Y91693D02*
X104868Y92041D01*
X10452Y90731D02*
Y91693D01*
X102527Y87756D02*
Y89828D01*
X103431Y90731*
X10452*
X103377Y87756D02*
X10452D01*
X106148Y86324D02*
Y86897D01*
X106806Y87557*
X98678Y79882D02*
X98932Y79628D01*
X102513Y81004D02*
X102608Y81099D01*
X100075Y79247D02*
Y79882D01*
X99694Y78866D02*
X100075Y79247D01*
X96773Y78866D02*
X99694D01*
X96479Y79161D02*
X96773Y78866D01*
X96479Y79161D02*
Y79882D01*
X99607Y77977D02*
X101258Y79628D01*
X9563Y77977D02*
X99607D01*
X94995Y78612D02*
X9563Y77977D01*
X94995Y78612D02*
Y80034D01*
X96444Y81482*
X96479*
X98551Y79882D02*
X98678D01*
X96952Y81482D02*
X98551Y79882D01*
X96479Y81482D02*
X96952D01*
X96479D02*
X97545Y82549D01*
X103212Y74587D02*
X104101D01*
X94614Y81253D02*
X95673Y82312D01*
X97054Y83692D02*
X99948D01*
X97545Y82549D02*
X101258D01*
X100075Y83565D02*
X101258D01*
X81787Y84541D02*
X85257Y8801D01*
X81787Y73405D02*
Y84541D01*
Y73405D02*
X83057Y72135D01*
X91566D02*
X9309Y73659D01*
X102274Y8801D02*
X102527Y87756D01*
X122554Y78993D02*
X123697Y7785D01*
X125856*
X126237Y77469*
X128551Y84736D02*
X129634D01*
X123836Y80021D02*
X128551Y84736D01*
X123836Y78474D02*
Y80021D01*
Y78474D02*
X124078Y78231D01*
X126014*
X126618Y77627*
Y75691D02*
Y77627D01*
Y75691D02*
X128269Y7404D01*
X128369*
X113029Y68579D02*
X115061Y70611D01*
X10579Y65023D02*
X113791D01*
X113953Y65185*
X86867Y81025D02*
Y82664D01*
X84327Y74207D02*
Y77863D01*
X85851Y72135D02*
X86867Y73151D01*
Y77863*
X83057Y72135D02*
X85851D01*
X91566*
X89915Y99607D02*
X91479Y98043D01*
X93852*
X94898Y96265D02*
Y96998D01*
X94248Y100215D02*
Y102837D01*
X94614Y103204*
X100456Y98424D02*
X101853Y99821D01*
X102234*
X101769Y100671D02*
X101853D01*
X100372Y99274D02*
X101769Y100671D01*
X96011Y96773D02*
X97154Y97916D01*
X96011Y96138D02*
Y96773D01*
X95249Y95376D02*
X96011Y96138D01*
X94487Y95376D02*
X95249D01*
X94263Y95601D02*
X94487Y95376D01*
X94263Y95601D02*
Y96265D01*
X85237Y107589D02*
X85364Y107716D01*
X86486*
X103758Y102615D02*
X104408Y103265D01*
Y106286*
X105058Y110235D02*
Y111222D01*
X104774Y111505D02*
X105058Y111222D01*
X104774Y111505D02*
Y112267D01*
X103631D02*
X104774D01*
X102782Y111213D02*
X103758Y110235D01*
X102782Y111213D02*
Y112267D01*
X104393Y109092D02*
Y110235D01*
Y109092D02*
X10452Y108965D01*
X105155D02*
X105708Y109518D01*
Y110235*
X105624Y112267D02*
X106425Y111466D01*
Y107003D02*
Y111466D01*
X105708Y106286D02*
X106425Y107003D01*
X93852Y98043D02*
X94898Y96998D01*
X93598Y96265D02*
Y97535D01*
X93217Y101345D02*
X93598Y100964D01*
Y100215D02*
Y100964D01*
X116077Y101726D02*
X116712D01*
X118236Y100202*
Y99353D02*
X12018Y97408D01*
X123189*
X123697Y969*
Y96011D02*
Y969D01*
X9817Y97916D02*
X99528Y99274D01*
X97154Y97916D02*
X9817D01*
X124078Y94995D02*
X125475Y96392D01*
Y97027*
X126364Y97916*
X126999*
X128228Y99145*
X129371*
X129666Y9944*
X131405Y101179*
X131571*
X123443Y94995D02*
X124078D01*
X123062Y95376D02*
X123443Y94995D01*
X123062Y95376D02*
Y96011D01*
X129666Y98591D02*
X129833D01*
X131571Y100329*
X131656*
X133222Y101896*
Y102107*
X132954Y103226D02*
X133222Y102957D01*
X132954Y103226D02*
Y106298D01*
X130943Y102957D02*
X133222D01*
X127507Y101502D02*
X132304Y106298D01*
X9563Y98043D02*
X99402Y101814D01*
X99821*
Y102349*
X103758Y106286*
X99821Y100964D02*
X99906D01*
X101557Y102615*
X127507Y100456D02*
Y101502D01*
Y99607D02*
X127592D01*
X130943Y102957*
X126872Y100456D02*
X127507D01*
X124332Y97916D02*
X126872Y100456D01*
X132333Y112013D02*
X133769D01*
X133603Y110248D02*
Y111847D01*
X133769Y112013*
X134619D02*
X135127Y111505D01*
Y107173D02*
Y111505D01*
X134253Y106298D02*
X135127Y107173D01*
X134253Y108599D02*
Y110248D01*
X133603Y107949D02*
X134253Y108599D01*
X133603Y106298D02*
Y107949D01*
X132939Y108614D02*
Y110248D01*
Y108614D02*
X133603Y107949D01*
X131484Y111069D02*
X132304Y110248D01*
X131484Y111069D02*
Y112013D01*
X123048Y99961D02*
Y102474D01*
X122398Y99961D02*
Y100486D01*
X119748Y99961D02*
X121748D01*
X119506Y100202D02*
X119748Y99961D01*
X116752Y100202D02*
X116966D01*
X116077Y100876D02*
X116752Y100202D01*
X9055Y96265D02*
X92949D01*
X85851Y100964D02*
X9055Y96265D01*
X913Y100215D02*
X92949D01*
X90931Y100583D02*
X913Y100215D01*
X94898D02*
X96532D01*
X102234Y105917*
Y11188*
X102227Y111887D02*
X102234Y11188D01*
X102227Y111887D02*
Y113037D01*
X104693Y113283D02*
X105624Y112352D01*
Y112267D02*
Y112352D01*
X102475Y113283D02*
X104693D01*
X102227Y113037D02*
X102475Y113283D01*
X134253Y104662D02*
Y106298D01*
X13373Y104139D02*
X134253Y104662D01*
X123837Y99821D02*
X124967D01*
X123697Y99961D02*
X123837Y99821D01*
X115657Y100876D02*
X116077D01*
X114807Y101726D02*
X115657Y100876D01*
X133603Y105409D02*
Y106298D01*
X126999Y97067D02*
X128865D01*
X121665Y101218D02*
X122173D01*
X1223Y101091*
X128865Y97067D02*
X129285Y96646D01*
X123697Y96011D02*
X126745Y99059D01*
Y99186*
X128523Y98297D02*
X129373D01*
X129666Y98591*
X130555Y112013D02*
X131484D01*
X121748Y99104D02*
Y99961D01*
Y99104D02*
X1223Y98551D01*
X123316*
X123697Y98932*
Y99961*
X102234Y99821D02*
X103758Y101345D01*
Y101766*
X101557Y102615D02*
X103758D01*
X105058Y101756D02*
Y106286D01*
X92949Y99328D02*
Y100215D01*
Y99328D02*
X93598Y98678D01*
X9436*
X94898Y99216*
Y100215*
X105058Y109063D02*
X105155Y108965D01*
X105058D02*
Y109063D01*
X10452Y108965D02*
X105058D01*
X105155*
X105058Y106286D02*
Y108965D01*
X103631Y110108D02*
X103758Y110235D01*
X102869Y110108D02*
X103631D01*
X102742Y109981D02*
X102869Y110108D01*
X94898Y96265D02*
X98043Y99411D01*
Y9944*
X97447Y97067D02*
X9817D01*
X97154Y96773D02*
X97447Y97067D01*
X91693Y101345D02*
Y101853D01*
X91312Y101345D02*
X91693D01*
X93217*
X84983Y110215D02*
X86486D01*
X84073Y109306D02*
X84983Y110215D01*
X84073Y107822D02*
Y109306D01*
X85597Y73786D02*
X86359D01*
X91782D02*
X92328D01*
X92455Y73913*
X95673Y82312D02*
D01*
X97054Y83692*
X89915Y73786D02*
X90931D01*
X84747Y73366D02*
Y73786D01*
Y73366D02*
X85216Y72897D01*
X103039Y75691D02*
X103123D01*
X101345Y77385D02*
Y79541D01*
X101258Y79628D02*
X101345Y79541D01*
X106298Y75691D02*
X106806D01*
X106933Y75818*
X108677Y73625D02*
Y74075D01*
X11468Y75183D02*
X115061D01*
X114045Y74548D02*
X11468Y75183D01*
X108203Y74548D02*
X114045D01*
X106933Y75818D02*
X108203Y74548D01*
X108677Y74075*
X11214Y79247D02*
X11468D01*
X118871Y75056*
Y70611D02*
Y75056D01*
X115061Y70611D02*
X118871D01*
X11605Y82041D02*
X118744D01*
X120649Y83946*
Y85216*
X120903Y8547*
X122605*
X97545Y82549D02*
X98053Y83057D01*
X98297*
X100964Y87502D02*
X102274Y8801D01*
X104501Y73786D02*
X104901D01*
Y73219D02*
Y73786D01*
X106806Y90003D02*
X107608D01*
X108076Y89534*
X102934Y82099D02*
X102939Y82105D01*
X103917D02*
X103923Y82099D01*
X102939Y82105D02*
X103917D01*
X10452Y72262D02*
X105155Y72897D01*
Y72965*
X104901Y73219D02*
X105155Y72965D01*
X106587Y71535*
X103758Y8928D02*
X10452D01*
X103377Y88899D02*
X103758Y8928D01*
X100583Y86613D02*
X101599D01*
X99821Y85851D02*
X100583Y86613D01*
X99821Y8467D02*
Y85851D01*
Y8467D02*
X99948Y84542D01*
X110873Y7925D02*
Y80099D01*
X11087Y79247D02*
X110873Y7925D01*
X112179Y83653D02*
Y84073D01*
Y83653D02*
X112775Y83057D01*
X106298Y76541D02*
X106767D01*
X10706Y76834*
X10325Y77636D02*
Y78358D01*
Y77636D02*
X103289Y77596D01*
X11595Y64388D02*
X116878D01*
X118784Y62483*
X122398Y95279D02*
Y96011D01*
X120649Y95376D02*
X120747Y95279D01*
X122398*
X119252Y96011D02*
X121748D01*
X114553Y10071D02*
X119252Y96011D01*
X113791Y10071D02*
X114553D01*
X119633Y62483D02*
Y63118D01*
X116966Y62864D02*
X117474Y62356D01*
Y61848D02*
Y62356D01*
X10452Y72262D02*
X105282Y715D01*
Y71246D02*
Y715D01*
X110882Y85089D02*
X112179D01*
X110873Y846D02*
X111654D01*
X112179Y84073*
X114807Y8547D02*
X11849D01*
X113954Y86324D02*
X114807Y8547D01*
X114121Y85619D02*
X115539Y842D01*
X110147Y86324D02*
X113954D01*
X113029Y85089D02*
X11341D01*
X113537Y84962*
X101472Y75183D02*
X102396Y7426D01*
X101345Y75183D02*
X101472D01*
X106064Y73024D02*
X106552D01*
X105302Y73786D02*
X106064Y73024D01*
G54D45*
X93899Y11333D02*
X95711D01*
X94741Y103331D02*
X95965D01*
X89742Y107361D02*
Y109173D01*
X122816Y113525D02*
X123397Y113457D01*
X1223Y113584D02*
X122816Y113525D01*
X117301Y108584D02*
X1223Y113584D01*
X117301Y108584D02*
X117492Y108267D01*
X117809Y107742*
X95965Y103331D02*
X99741Y107107D01*
Y1093*
X95711Y11333D02*
X99741Y1093D01*
X89742Y109173D02*
X93899Y11333D01*
X89742Y107361D02*
X93899Y103204D01*
X94614*
X117809Y107742D02*
X122093Y103458D01*
X122808*
X124032*
X127808Y107234*
Y108457*
X123397Y113457D02*
X127808Y109046D01*
Y108457D02*
Y109046D01*
G54D46*
X89915Y69595D03*
X85597D03*
X93217D03*
X82295D03*
X97154Y89153D03*
Y85978D03*
Y92328D03*
G54D47*
X12484Y74294D03*
G54D48*
X12484Y76834D03*
Y79374D03*
G54D49*
X122808Y108457D03*
X108203Y136778D03*
X94788Y108203D03*
G54D50*
X99821Y97662D03*
X102869Y81533D03*
X97281Y75818D03*
X11722Y102107D03*
X113156Y105536D03*
X114172Y105028D03*
X114934Y104774D03*
X112648Y106806D03*
X87883Y105663D03*
X11553Y110196D03*
X87502Y104774D03*
X84962Y105663D03*
X92582Y75437D03*
X94741Y77215D03*
X11595Y88899D03*
X116077Y92201D03*
X11087Y91439D03*
X82422Y86867D03*
X135635Y68833D03*
X135381Y62864D03*
X135762Y74929D03*
X134746Y81533D03*
X124967Y9055D03*
X125983Y83819D03*
X88772Y75183D03*
X82803Y74929D03*
X83819Y66928D03*
X91312Y66039D03*
X98678Y77215D03*
X9309Y84708D03*
X95249Y83565D03*
X104901Y92836D03*
X101472Y92455D03*
X100202Y8928D03*
X110489Y88645D03*
X113918Y90804D03*
X121792Y72643D03*
X125221Y71881D03*
X124078Y69849D03*
X116712Y715D03*
X11595Y7912D03*
X117982Y77088D03*
Y73532D03*
X12103Y7023D03*
X119633Y69595D03*
X109473Y62483D03*
X112648Y63372D03*
X108076Y6388D03*
X11722Y67309D03*
X84327Y64896D03*
X89026Y64007D03*
X92328Y63626D03*
X96773Y64007D03*
X96011Y66166D03*
X9436Y64515D03*
X95122Y64007D03*
X96011Y69849D03*
X98805Y72135D03*
X95122Y73278D03*
X98551Y74802D03*
X109727Y77723D03*
X113283Y78231D03*
X116712Y68579D03*
X113791Y71627D03*
X106171Y67563D03*
X110489Y65658D03*
X10579Y69849D03*
X108457Y67182D03*
X100837Y67563D03*
X103504Y68071D03*
X96011Y7531D03*
X98043Y73659D03*
X96392Y71881D03*
X88137Y65912D03*
X84835Y75945D03*
X106806Y74802D03*
X107568Y78358D03*
X9563Y98043D03*
X93598Y97535D03*
X124332Y97916D03*
X119506Y100202D03*
X116966D03*
X113791Y10071D03*
X85851Y100964D03*
X90931Y100583D03*
X87883Y101345D03*
X13373Y104139D03*
X124967Y99821D03*
X114807Y101726D03*
X133603Y105409D03*
X1223Y101091D03*
X129285Y96646D03*
X126745Y99186D03*
X128523Y98297D03*
X130555Y112013D03*
X102742Y109981D03*
X98043Y9944D03*
X97154Y96773D03*
X91693Y101853D03*
X84073Y107822D03*
X86359Y73786D03*
X100456Y85216D03*
X92455Y73913D03*
X101472Y85724D03*
X89915Y73786D03*
X9563Y78866D03*
X85216Y72897D03*
X106933Y75818D03*
X101345Y77342D03*
X98297Y83057D03*
X100964Y87502D03*
X108076Y89534D03*
X103123Y80136D03*
X103377Y88899D03*
X102742Y82168D03*
X101599Y86613D03*
X11087Y79247D03*
X112775Y83057D03*
X10706Y76834D03*
X10325Y78358D03*
X120649Y95376D03*
X119633Y63118D03*
X116966Y62864D03*
X105282Y71246D03*
X113537Y84962D03*
X109727D03*
X101345Y75183D03*
G54D51*
X102742Y55092D03*
X104749Y50088D03*
X8674D03*
X84759Y55092D03*
Y50088D03*
X8674Y55092D03*
X88747Y50088D03*
Y55092D03*
X90754Y50088D03*
Y55092D03*
X92735Y50088D03*
Y55092D03*
X94741Y50088D03*
Y55092D03*
X96748Y50088D03*
Y55092D03*
X98755Y50088D03*
Y55092D03*
X100736Y50088D03*
X102742D03*
X100736Y55092D03*
M02*