%FSTAX23Y23*%
%MOIN*%
%SFA1B1*%

%IPPOS*%
%ADD18R,0.059060X0.133860*%
%ADD19R,0.043310X0.137800*%
%ADD20R,0.094490X0.031500*%
%ADD21R,0.031500X0.062990*%
%ADD22R,0.082680X0.118110*%
%ADD23R,0.031500X0.031500*%
%ADD24R,0.035430X0.035430*%
%ADD25R,0.015750X0.019680*%
%ADD26R,0.021650X0.023620*%
%ADD27R,0.023620X0.021650*%
%ADD28R,0.039370X0.070870*%
%ADD29R,0.043310X0.055120*%
%ADD30R,0.037400X0.011810*%
%ADD31R,0.055120X0.047240*%
%ADD32R,0.055120X0.043310*%
%ADD33R,0.045280X0.055120*%
%ADD34O,0.011020X0.033470*%
%ADD35R,0.011020X0.033470*%
%ADD36R,0.033470X0.011020*%
%ADD37R,0.202760X0.202760*%
%ADD38R,0.137800X0.098430*%
%ADD39R,0.039370X0.078740*%
%ADD40R,0.061020X0.051180*%
%ADD41R,0.037400X0.037400*%
%ADD42R,0.037400X0.037400*%
%ADD43R,0.106300X0.074800*%
%LNheadband-pcb-1*%
%LPD*%
G54D18*
X01623Y0116D03*
X0136D03*
G54D19*
X01531Y00941D03*
X01452D03*
G54D20*
X01073Y01136D03*
X01233D03*
X01073Y01086D03*
X01233D03*
X01073Y01036D03*
X01233D03*
X01073Y00986D03*
X01235D03*
X01073Y00936D03*
X01233D03*
G54D21*
X00365Y01045D03*
X00315D03*
X00266D03*
X00168D03*
X00217D03*
G54D22*
X00466Y01159D03*
X00068D03*
G54D23*
X01255Y0033D03*
G54D24*
X01335Y00325D03*
G54D25*
X01383Y00318D03*
G54D26*
X00305Y00813D03*
Y0078D03*
X0026Y00653D03*
Y0062D03*
X00305Y0074D03*
Y00706D03*
X00185Y00913D03*
Y0088D03*
Y00985D03*
Y00951D03*
X0006Y0077D03*
Y00736D03*
X00345Y0088D03*
Y00913D03*
Y00955D03*
Y00988D03*
X00805Y00437D03*
Y00403D03*
X00847Y00479D03*
Y00446D03*
X00075Y0085D03*
Y00883D03*
X00847Y00363D03*
Y00396D03*
X0123Y00424D03*
Y0039D03*
X01109Y0046D03*
Y00426D03*
X00982Y00423D03*
Y00389D03*
X0082Y00515D03*
Y00548D03*
X00695Y00515D03*
Y00548D03*
X0078Y00515D03*
Y00548D03*
X0074Y00515D03*
Y00548D03*
X008Y01078D03*
Y01045D03*
X0105Y00655D03*
Y00688D03*
G54D27*
X0034Y00675D03*
X00306D03*
X0008Y0092D03*
X00113D03*
X00106Y0081D03*
X00073D03*
X00266Y00845D03*
X003D03*
X00305Y00615D03*
X00338D03*
X00115Y0088D03*
X00148D03*
X00956Y00605D03*
X0099D03*
X00713Y0118D03*
X0068D03*
X00783Y0099D03*
X0075D03*
X00923Y00396D03*
X0089D03*
X01185Y00425D03*
X01151D03*
X01065D03*
X01031D03*
X0078Y0059D03*
X00813D03*
X00735D03*
X00701D03*
X00231Y00985D03*
X00265D03*
X00305Y0058D03*
X00338D03*
X01383Y00347D03*
X01416D03*
X01307Y00424D03*
X01274D03*
X00923Y00446D03*
X0089D03*
X01118Y00885D03*
X01085D03*
X0124Y0063D03*
X01206D03*
X01276D03*
X0131D03*
X00671Y0099D03*
X00705D03*
X0061Y00785D03*
X00643D03*
X0115Y0082D03*
X01116D03*
X00621Y0067D03*
X00655D03*
X0061Y0075D03*
X00643D03*
X00266Y0095D03*
X003D03*
X00266Y0088D03*
X003D03*
X00265Y00915D03*
X00231D03*
G54D28*
X0121Y0057D03*
X01308D03*
G54D29*
X01108Y006D03*
X0104D03*
G54D30*
X00105Y00761D03*
Y00735D03*
Y0071D03*
Y00684D03*
X0026D03*
Y0071D03*
Y00736D03*
Y00761D03*
G54D31*
X01754Y00653D03*
X01675Y00826D03*
X01518D03*
X01439Y00653D03*
G54D32*
X00855Y01045D03*
Y01113D03*
X00615Y01045D03*
Y01113D03*
G54D33*
X00457Y00658D03*
Y00745D03*
X0052D03*
Y00658D03*
G54D34*
X00755Y0066D03*
G54D35*
X00774Y0066D03*
X00794D03*
X00814D03*
X00833D03*
X00853D03*
X00873D03*
X00892D03*
X00912D03*
X00932D03*
X00951D03*
X00971D03*
Y00933D03*
X00951D03*
X00932D03*
X00912D03*
X00892D03*
X00873D03*
X00853D03*
X00833D03*
X00814D03*
X00794D03*
X00774D03*
X00755D03*
G54D36*
X01Y00688D03*
Y00708D03*
Y00727D03*
Y00747D03*
Y00767D03*
Y00786D03*
Y00806D03*
Y00826D03*
Y00846D03*
Y00865D03*
Y00885D03*
Y00905D03*
X00726D03*
Y00885D03*
Y00865D03*
Y00846D03*
Y00826D03*
Y00806D03*
Y00786D03*
Y00767D03*
Y00747D03*
Y00727D03*
Y00708D03*
Y00688D03*
G54D37*
X00863Y00796D03*
G54D38*
X01825Y00935D03*
G54D39*
X01734Y0118D03*
X01825D03*
X01915D03*
G54D40*
X00272Y0027D03*
Y00447D03*
X00585D03*
Y0027D03*
G54D41*
X0122Y0069D03*
X01277D03*
X00785Y01175D03*
X00842D03*
G54D42*
X0075Y01107D03*
Y0105D03*
G54D43*
X01945Y0082D03*
Y00638D03*
M02*