%FSTAX23Y23*%
%MOIN*%
%SFA1B1*%

%IPPOS*%
%ADD44R,0.067060X0.141860*%
%ADD45R,0.051310X0.145800*%
%ADD46R,0.102490X0.039500*%
%ADD47R,0.039500X0.070990*%
%ADD48R,0.090680X0.126110*%
%ADD49R,0.039500X0.039500*%
%ADD50R,0.043430X0.043430*%
%ADD51R,0.023750X0.027690*%
%ADD52R,0.029650X0.031620*%
%ADD53R,0.031620X0.029650*%
%ADD54R,0.047370X0.078870*%
%ADD55R,0.051310X0.063120*%
%ADD56R,0.045400X0.019810*%
%ADD57R,0.063120X0.055240*%
%ADD58R,0.063120X0.051310*%
%ADD59R,0.053280X0.063120*%
%ADD60O,0.016540X0.038980*%
%ADD61R,0.016540X0.038980*%
%ADD62R,0.038980X0.016540*%
%ADD63R,0.208270X0.208270*%
%ADD64R,0.145800X0.106420*%
%ADD65R,0.047370X0.086740*%
%ADD66R,0.069020X0.059180*%
%ADD67R,0.045400X0.045400*%
%ADD68R,0.045400X0.045400*%
%ADD69R,0.114300X0.082800*%
%ADD70C,0.011940*%
%ADD71C,0.031620*%
%ADD72C,0.028000*%
%ADD73C,0.126110*%
%ADD74C,0.023620*%
%LNheadband-pcb-1*%
%LPD*%
G54D44*
X01623Y0116D03*
X0136D03*
G54D45*
X01531Y00941D03*
X01452D03*
G54D46*
X01073Y01136D03*
X01233D03*
X01073Y01086D03*
X01233D03*
X01073Y01036D03*
X01233D03*
X01073Y00986D03*
X01235D03*
X01073Y00936D03*
X01233D03*
G54D47*
X00365Y01045D03*
X00315D03*
X00266D03*
X00168D03*
X00217D03*
G54D48*
X00466Y01159D03*
X00068D03*
G54D49*
X01255Y0033D03*
G54D50*
X01335Y00325D03*
G54D51*
X01383Y00318D03*
G54D52*
X00305Y00813D03*
Y0078D03*
X0026Y00653D03*
Y0062D03*
X00305Y0074D03*
Y00706D03*
X00185Y00913D03*
Y0088D03*
Y00985D03*
Y00951D03*
X0006Y0077D03*
Y00736D03*
X00345Y0088D03*
Y00913D03*
Y00955D03*
Y00988D03*
X00805Y00437D03*
Y00403D03*
X00847Y00479D03*
Y00446D03*
X00075Y0085D03*
Y00883D03*
X00847Y00363D03*
Y00396D03*
X0123Y00424D03*
Y0039D03*
X01109Y0046D03*
Y00426D03*
X00982Y00423D03*
Y00389D03*
X0082Y00515D03*
Y00548D03*
X00695Y00515D03*
Y00548D03*
X0078Y00515D03*
Y00548D03*
X0074Y00515D03*
Y00548D03*
X008Y01078D03*
Y01045D03*
X0105Y00655D03*
Y00688D03*
G54D53*
X0034Y00675D03*
X00306D03*
X0008Y0092D03*
X00113D03*
X00106Y0081D03*
X00073D03*
X00266Y00845D03*
X003D03*
X00305Y00615D03*
X00338D03*
X00115Y0088D03*
X00148D03*
X00956Y00605D03*
X0099D03*
X00713Y0118D03*
X0068D03*
X00783Y0099D03*
X0075D03*
X00923Y00396D03*
X0089D03*
X01185Y00425D03*
X01151D03*
X01065D03*
X01031D03*
X0078Y0059D03*
X00813D03*
X00735D03*
X00701D03*
X00231Y00985D03*
X00265D03*
X00305Y0058D03*
X00338D03*
X01383Y00347D03*
X01416D03*
X01307Y00424D03*
X01274D03*
X00923Y00446D03*
X0089D03*
X01118Y00885D03*
X01085D03*
X0124Y0063D03*
X01206D03*
X01276D03*
X0131D03*
X00671Y0099D03*
X00705D03*
X0061Y00785D03*
X00643D03*
X0115Y0082D03*
X01116D03*
X00621Y0067D03*
X00655D03*
X0061Y0075D03*
X00643D03*
X00266Y0095D03*
X003D03*
X00266Y0088D03*
X003D03*
X00265Y00915D03*
X00231D03*
G54D54*
X0121Y0057D03*
X01308D03*
G54D55*
X01108Y006D03*
X0104D03*
G54D56*
X00105Y00761D03*
Y00735D03*
Y0071D03*
Y00684D03*
X0026D03*
Y0071D03*
Y00736D03*
Y00761D03*
G54D57*
X01754Y00653D03*
X01675Y00826D03*
X01518D03*
X01439Y00653D03*
G54D58*
X00855Y01045D03*
Y01113D03*
X00615Y01045D03*
Y01113D03*
G54D59*
X00457Y00658D03*
Y00745D03*
X0052D03*
Y00658D03*
G54D60*
X00755Y0066D03*
G54D61*
X00774Y0066D03*
X00794D03*
X00814D03*
X00833D03*
X00853D03*
X00873D03*
X00892D03*
X00912D03*
X00932D03*
X00951D03*
X00971D03*
Y00933D03*
X00951D03*
X00932D03*
X00912D03*
X00892D03*
X00873D03*
X00853D03*
X00833D03*
X00814D03*
X00794D03*
X00774D03*
X00755D03*
G54D62*
X01Y00688D03*
Y00708D03*
Y00727D03*
Y00747D03*
Y00767D03*
Y00786D03*
Y00806D03*
Y00826D03*
Y00846D03*
Y00865D03*
Y00885D03*
Y00905D03*
X00726D03*
Y00885D03*
Y00865D03*
Y00846D03*
Y00826D03*
Y00806D03*
Y00786D03*
Y00767D03*
Y00747D03*
Y00727D03*
Y00708D03*
Y00688D03*
G54D63*
X00863Y00796D03*
G54D64*
X01825Y00935D03*
G54D65*
X01734Y0118D03*
X01825D03*
X01915D03*
G54D66*
X00272Y0027D03*
Y00447D03*
X00585D03*
Y0027D03*
G54D67*
X0122Y0069D03*
X01277D03*
X00785Y01175D03*
X00842D03*
G54D68*
X0075Y01107D03*
Y0105D03*
G54D69*
X01945Y0082D03*
Y00638D03*
G54D70*
X01715Y0074D03*
X014D03*
G54D71*
X0131Y00372D03*
X0097Y011D03*
X01075Y00805D03*
X0118Y00725D03*
X0068Y00745D03*
X0073Y0096D03*
X0069Y00675D03*
X0021Y00761D03*
X0061Y0098D03*
X00665Y0079D03*
X00926Y01078D03*
X0079Y00761D03*
Y00797D03*
Y00833D03*
X00827Y0087D03*
Y00833D03*
Y00797D03*
Y00761D03*
Y00725D03*
X00865Y0087D03*
Y00833D03*
Y00797D03*
Y00761D03*
Y00725D03*
X00902Y0087D03*
Y00833D03*
Y00797D03*
Y00761D03*
Y00725D03*
X0094Y0087D03*
Y00833D03*
Y00797D03*
Y00761D03*
X0079Y00725D03*
X0094D03*
X0079Y0087D03*
X00845Y00515D03*
X004Y0064D03*
X00625Y0058D03*
X00505Y00805D03*
X00705Y01035D03*
X01Y00655D03*
X0085Y0056D03*
X007Y0062D03*
X01416Y00372D03*
X00705Y01145D03*
G54D72*
X01145Y00855D03*
X00041Y008D03*
X00305Y00645D03*
X00233Y00653D03*
X00045Y0083D03*
X0128Y0074D03*
X00105Y0063D03*
X0194Y0037D03*
X01645Y00375D03*
X00215Y0035D03*
X003D03*
X0039D03*
X00485D03*
X00585D03*
X0065Y00295D03*
X00765D03*
Y0018D03*
Y00045D03*
X0064D03*
Y00175D03*
X00535D03*
Y0005D03*
X0044D03*
Y00175D03*
X00325D03*
Y0005D03*
X00215D03*
X00105Y0017D03*
X00215D03*
Y00285D03*
X00105D03*
Y00395D03*
X00215D03*
Y0052D03*
X00105D03*
X0051Y00895D03*
X00415Y0098D03*
Y00895D03*
X0051Y0098D03*
X01145Y0076D03*
X0135Y00915D03*
Y00815D03*
X01445D03*
Y0071D03*
X0156Y00615D03*
Y0079D03*
X0182Y0086D03*
Y00735D03*
Y00535D03*
X01527Y00372D03*
X00585Y00405D03*
X0054Y0085D03*
X00338Y00813D03*
X0034Y00715D03*
Y0054D03*
X00655Y00845D03*
X00115Y0095D03*
X0034Y00845D03*
X00145Y0098D03*
G54D73*
X0008Y00075D03*
G54D74*
X01155Y00655D03*
Y00605D03*
M02*