%FSTAX23Y23*%
%MOIN*%
%SFA1B1*%

%IPPOS*%
%ADD50C,0.019690*%
%ADD92C,0.086740*%
%ADD93C,0.067060*%
%ADD94R,0.067060X0.067060*%
%ADD95R,0.106420X0.106420*%
%ADD96C,0.027690*%
%ADD97C,0.039000*%
%LNheadband-pcb-1*%
%LPD*%
G54D50*
X0032Y00695D03*
X00645Y0093D03*
X0071Y01D03*
X0063Y01065D03*
X00925Y0078D03*
X0082Y0076D03*
X0112Y00745D03*
X01015Y0085D03*
X012Y00685D03*
X0103Y0076D03*
X0133Y0092D03*
X01445Y008D03*
X0131Y0118D03*
X0117Y0116D03*
X0073Y01045D03*
X00595Y00985D03*
X0074Y0094D03*
X0063Y0085D03*
X00595Y0062D03*
X00565Y0064D03*
X0063Y00705D03*
X0066Y0062D03*
X00485Y00605D03*
X00355Y0062D03*
X0017Y00655D03*
X01465Y0075D03*
X01105Y00615D03*
X01285Y00595D03*
X0116Y0056D03*
X0156Y0084D03*
X01615Y00865D03*
X01495Y00995D03*
Y01135D03*
X01415Y01215D03*
X01445Y00915D03*
X01735Y0085D03*
X0178Y0093D03*
X01645Y0096D03*
X01335Y01675D03*
X012Y0159D03*
X00795Y01615D03*
X00845Y0174D03*
X0098Y01755D03*
X006Y0139D03*
X00515Y01435D03*
X00735Y0114D03*
X00445Y007D03*
X0015Y00735D03*
X0011Y0105D03*
X00345Y0106D03*
X0181Y014D03*
X0177Y01665D03*
X02155Y0131D03*
X02195Y0105D03*
X0218Y00575D03*
X0219Y0081D03*
X00095Y0152D03*
X01215Y017D03*
X0142Y0173D03*
X01415Y016D03*
G54D92*
X00581Y0236D03*
X0111Y03485D03*
X01685Y0237D03*
G54D93*
X01765Y01225D03*
Y01125D03*
G54D94*
X01765Y01025D03*
G54D95*
X00675Y01735D03*
Y01485D03*
Y0161D03*
X0009Y0084D03*
X0052D03*
X0022D03*
X0039D03*
G54D96*
X0084Y0106D03*
X0117Y01445D03*
X0132D03*
X00995Y00905D03*
X01455Y00575D03*
X0156Y00585D03*
X016Y01855D03*
X00915Y01185D03*
X01065Y01125D03*
X0129Y0137D03*
X01215Y0122D03*
X0085Y0151D03*
X00895Y01335D03*
X0092Y016D03*
X0091Y01255D03*
X01105Y01625D03*
X00825Y01545D03*
X0072Y0137D03*
X0084Y01145D03*
X0106Y01085D03*
X00205Y0097D03*
X00615Y01205D03*
X0039Y01005D03*
X00845Y01475D03*
X0049Y0101D03*
X00805Y01455D03*
X0025Y01005D03*
X0016Y02345D03*
X0046Y0211D03*
X00675Y0191D03*
X0071Y02015D03*
X00895Y0243D03*
X0199Y0251D03*
X0191Y0197D03*
X0184Y02005D03*
X0194Y01905D03*
X01665Y0208D03*
X0211Y0225D03*
X0137Y02105D03*
X0177Y0203D03*
X02115Y022D03*
X0031Y0209D03*
X0043Y0206D03*
X0023Y02075D03*
X0133Y02065D03*
X01455Y02045D03*
X01555D03*
X01745Y01955D03*
X00535Y0194D03*
X00615Y0196D03*
X01085Y01185D03*
X01055Y01045D03*
X0019Y0109D03*
X0058Y0114D03*
X00495Y0107D03*
X00195Y0226D03*
X00295Y02225D03*
X01398Y02438D03*
X0031Y0226D03*
X01285Y02305D03*
X01375Y02225D03*
X01345Y02235D03*
X01305Y02255D03*
X01465Y0212D03*
X0068Y01085D03*
X009Y0131D03*
X0078Y01945D03*
G54D97*
X00816Y00269D03*
X00895Y00072D03*
X00816D03*
X00738Y00269D03*
Y00072D03*
X00659Y00269D03*
Y00072D03*
X0058Y00269D03*
Y00072D03*
X00501Y00269D03*
Y00072D03*
X00423Y00269D03*
Y00072D03*
X00344Y00269D03*
Y00072D03*
X00265Y00269D03*
X00187Y00072D03*
Y00269D03*
X00265Y00072D03*
X00974D03*
X00895Y00269D03*
M02*