%FSTAX23Y23*%
%MOIN*%
%SFA1B1*%

%IPPOS*%
%AMD16*
4,1,4,-0.016000,0.000700,0.000700,-0.016000,0.016000,-0.000700,-0.000700,0.016000,-0.016000,0.000700,0.0*
%
%AMD17*
4,1,4,-0.000700,-0.016000,0.016000,0.000700,0.000700,0.016000,-0.016000,-0.000700,-0.000700,-0.016000,0.0*
%
%ADD11R,0.023620X0.021650*%
%ADD12R,0.074800X0.106300*%
%ADD13R,0.037400X0.037400*%
%ADD14R,0.021650X0.023620*%
%ADD15R,0.037400X0.037400*%
G04~CAMADD=16~9~0.0~0.0~236.2~216.5~0.0~0.0~0~0.0~0.0~0.0~0.0~0~0.0~0.0~0.0~0.0~0~0.0~0.0~0.0~135.0~320.0~319.0*
%ADD16D16*%
G04~CAMADD=17~9~0.0~0.0~236.2~216.5~0.0~0.0~0~0.0~0.0~0.0~0.0~0~0.0~0.0~0.0~0.0~0~0.0~0.0~0.0~225.0~320.0~319.0*
%ADD17D17*%
%ADD18R,0.118110X0.196850*%
%ADD19R,0.196850X0.118110*%
%ADD20R,0.082680X0.118110*%
%ADD21R,0.031500X0.062990*%
%ADD22R,0.059060X0.133860*%
%ADD23R,0.043310X0.137800*%
%ADD24R,0.094490X0.031500*%
%ADD25R,0.118110X0.082680*%
%ADD26R,0.062990X0.031500*%
%ADD27R,0.043310X0.055120*%
%ADD28O,0.023620X0.086610*%
%ADD29R,0.039370X0.078740*%
%ADD30R,0.137800X0.098430*%
%ADD31R,0.202760X0.202760*%
%ADD32R,0.033470X0.011020*%
%ADD33R,0.011020X0.033470*%
%ADD34O,0.011020X0.033470*%
%ADD35R,0.007870X0.007870*%
%ADD36R,0.011810X0.037400*%
%ADD37R,0.070870X0.039370*%
%ADD38R,0.055120X0.045280*%
%ADD39R,0.039000X0.039000*%
%ADD40R,0.031500X0.031500*%
%ADD41R,0.035430X0.035430*%
%ADD42R,0.015750X0.019690*%
%LNheadband-pcb-1*%
%LPD*%
G54D11*
X00186Y01005D03*
X0022D03*
X0043D03*
X00463D03*
X0083Y0131D03*
X00863D03*
X00836Y01235D03*
X0087D03*
X013Y0141D03*
X01266D03*
X00836Y0135D03*
X0087D03*
X0093Y0066D03*
X00896D03*
X00981D03*
X01015D03*
X00886Y01555D03*
X0092D03*
X013Y0145D03*
X01266D03*
X01526Y0056D03*
X0156D03*
X0095Y01155D03*
X00916D03*
X00995D03*
X01028D03*
X00213Y0144D03*
X0018D03*
X0046D03*
X00426D03*
X0087Y0139D03*
X00836D03*
X00998Y01555D03*
X00965D03*
X01261Y0133D03*
X01295D03*
X00896Y0252D03*
X0093D03*
X00975D03*
X01008D03*
X02026Y0251D03*
X0206D03*
X02116D03*
X0215D03*
G54D12*
X01903Y0088D03*
X02085D03*
G54D13*
X01065Y01695D03*
X01122D03*
X0167Y01125D03*
X01612D03*
G54D14*
X01265Y0122D03*
Y01253D03*
X01015Y01643D03*
Y0161D03*
X0071Y0065D03*
Y00683D03*
X00955Y0108D03*
Y01113D03*
X00995Y0108D03*
Y01113D03*
X0138Y0106D03*
Y01093D03*
Y01013D03*
Y0098D03*
X0091Y0108D03*
Y01113D03*
X01035Y0108D03*
Y01113D03*
X0078Y01981D03*
Y02015D03*
X0032Y02135D03*
Y02168D03*
X0078Y02075D03*
Y02108D03*
X0203Y0205D03*
Y02083D03*
X0142Y02071D03*
Y02105D03*
X0187Y02021D03*
Y02055D03*
X01055Y01643D03*
Y0161D03*
X0085Y00658D03*
Y00625D03*
X0022Y01055D03*
Y01088D03*
X00465Y01055D03*
Y01088D03*
X00785Y01428D03*
Y01395D03*
X00715Y01921D03*
Y01955D03*
X0086Y02063D03*
Y0203D03*
X0039Y02055D03*
Y02021D03*
X00935Y02106D03*
Y0214D03*
X0185Y01921D03*
Y01955D03*
X01955Y02015D03*
Y01981D03*
X01505Y02045D03*
Y02011D03*
X02095Y0212D03*
Y02153D03*
G54D15*
X00965Y01615D03*
Y01672D03*
G54D16*
X0091Y0094D03*
X00933Y00916D03*
X00941Y00968D03*
X00965Y00945D03*
X00793Y00661D03*
X0077Y00685D03*
X00818Y00841D03*
X00795Y00865D03*
X00686Y00803D03*
X0071Y0078D03*
X00881Y01023D03*
X00905Y01D03*
X01158Y00921D03*
X01135Y00945D03*
X01415Y00635D03*
X01391Y00658D03*
X00875Y0097D03*
X00851Y00993D03*
X01243Y00806D03*
X0122Y0083D03*
X01328Y00721D03*
X01305Y00745D03*
X01123Y00886D03*
X011Y0091D03*
G54D17*
X00821Y00916D03*
X00845Y0094D03*
X01183Y00863D03*
X0116Y0084D03*
X013Y008D03*
X01276Y00776D03*
X0136Y0069D03*
X01336Y00666D03*
X01046Y00916D03*
X0107Y0094D03*
X0085Y00885D03*
X00873Y00908D03*
X00741Y00811D03*
X00765Y00835D03*
X00656Y00726D03*
X0068Y0075D03*
X01128Y00998D03*
X01105Y00975D03*
X01068Y00998D03*
X01045Y00975D03*
G54D18*
X00385Y0236D03*
X00778D03*
X00913Y03485D03*
X01306D03*
X01488Y0237D03*
X01881D03*
G54D19*
X00581Y02556D03*
Y02163D03*
X0111Y03681D03*
Y03288D03*
X01685Y02566D03*
Y02173D03*
G54D20*
X00106Y01679D03*
X00504D03*
X01258Y0306D03*
X0096D03*
G54D21*
X00255Y01565D03*
X00206D03*
X00305D03*
X00354D03*
X00403D03*
X01109Y03175D03*
X01158D03*
X0106D03*
G54D22*
X02125Y01655D03*
X01861D03*
G54D23*
X02032Y01436D03*
X01953D03*
G54D24*
X01515Y01615D03*
X01675D03*
X01515Y01565D03*
X01675D03*
X01515Y01515D03*
X01675D03*
X01515Y01465D03*
X01677D03*
X01515Y01415D03*
X01675D03*
G54D25*
X00165Y02545D03*
Y02197D03*
X01265Y02543D03*
Y02195D03*
G54D26*
X0028Y02445D03*
Y02395D03*
Y02297D03*
Y02346D03*
X01379Y02442D03*
Y02393D03*
Y02295D03*
Y02344D03*
G54D27*
X0135Y0133D03*
X01418D03*
G54D28*
X0027Y01354D03*
X0022D03*
X0017D03*
X0012D03*
X0027Y01165D03*
X0022D03*
X0017D03*
X0012D03*
X00515Y01354D03*
X00465D03*
X00415D03*
X00365D03*
X00515Y01165D03*
X00465D03*
X00415D03*
X00365D03*
G54D29*
X01903Y01015D03*
X01994D03*
X02085D03*
G54D30*
X01994Y01259D03*
G54D31*
X01078Y01361D03*
G54D32*
X00941Y01253D03*
Y01273D03*
Y01292D03*
Y01312D03*
Y01332D03*
Y01351D03*
Y01371D03*
Y01391D03*
Y01411D03*
Y0143D03*
Y0145D03*
Y0147D03*
X01215D03*
Y0145D03*
Y0143D03*
Y01411D03*
Y01391D03*
Y01371D03*
Y01351D03*
Y01332D03*
Y01312D03*
Y01292D03*
Y01273D03*
Y01253D03*
G54D33*
X0097Y01498D03*
X00989D03*
X01009D03*
X01029D03*
X01048D03*
X01068D03*
X01088D03*
X01107D03*
X01127D03*
X01147D03*
X01166D03*
X01186D03*
Y01225D03*
X01166D03*
X01147D03*
X01127D03*
X01107D03*
X01088D03*
X01068D03*
X01048D03*
X01029D03*
X01009D03*
X00989D03*
G54D34*
X0097Y01225D03*
G54D35*
X00948Y01005D03*
X00964D03*
X0098D03*
X00995D03*
Y0102D03*
Y01036D03*
X0098D03*
X00964D03*
X00948D03*
Y0102D03*
G54D36*
X00586Y02045D03*
X0056D03*
X00535D03*
X00509D03*
Y0189D03*
X00535D03*
X00561D03*
X00586D03*
X0172Y02035D03*
X01694D03*
X01668D03*
X01643D03*
Y0188D03*
X01668D03*
X01695D03*
X0172D03*
X00935Y02284D03*
X0096D03*
X00986D03*
X01011D03*
Y0244D03*
X00986D03*
X0096D03*
X00935D03*
X02058Y02285D03*
X02084D03*
X0211D03*
X02135D03*
Y0244D03*
X0211D03*
X02083D03*
X02058D03*
G54D37*
X01285Y01085D03*
Y00986D03*
G54D38*
X00648Y01307D03*
X00735D03*
Y01245D03*
X00648D03*
G54D39*
X00975Y00615D03*
G54D40*
X01395Y0054D03*
G54D41*
X01475Y00535D03*
G54D42*
X01523Y00528D03*
M02*