%FSTAX23Y23*%
%MOIN*%
%SFA1B1*%

%IPPOS*%
%ADD43C,0.010000*%
%ADD46C,0.078740*%
%ADD47C,0.059060*%
%ADD48R,0.059060X0.059060*%
%ADD49R,0.098430X0.098430*%
%ADD50C,0.019690*%
%ADD51C,0.031000*%
%LNheadband-pcb-1*%
%LPD*%
G36*
X00424Y00288D02*
X00426Y00288D01*
X00428Y00288*
X00429Y00287*
X00431Y00286*
X00432Y00286*
X00434Y00285*
X00435Y00284*
X00437Y00283*
X00476Y00244*
X00477Y00242*
X00478Y00241*
X00478Y00239*
X00479Y00238*
X0048Y00236*
X0048Y00234*
X0048Y00233*
X00481Y00231*
X00481Y0023*
Y0012*
X00515Y00086*
X00516Y00084*
X00517Y00083*
X00518Y00082*
X00518Y0008*
X00519Y00078*
X0052Y00077*
X0052Y00075*
X0052Y00074*
X0052Y00072*
X0052Y0007*
X0052Y00068*
X0052Y00067*
X00519Y00065*
X00519Y00064*
X00518Y00062*
X00517Y00061*
X00516Y00059*
X00515Y00058*
X00514Y00057*
X00512Y00056*
X00511Y00055*
X0051Y00054*
X00508Y00053*
X00506Y00053*
X00505Y00052*
X00503Y00052*
X00501Y00052*
X005Y00052*
X00498Y00052*
X00496Y00053*
X00495Y00053*
X00493Y00054*
X00492Y00054*
X0049Y00055*
X00489Y00056*
X00488Y00057*
X00488Y00058*
X00448Y00098*
X00446Y00099*
X00445Y001*
X00444Y00101*
X00444Y00103*
X00443Y00105*
X00442Y00106*
X00442Y00108*
X00442Y0011*
X00442Y00111*
Y00112*
Y00222*
X00409Y00255*
X00407Y00256*
X00406Y00257*
X00405Y00259*
X00405Y0026*
X00404Y00262*
X00403Y00263*
X00403Y00265*
X00403Y00267*
X00403Y00269*
X00403Y0027*
X00403Y00272*
X00403Y00274*
X00404Y00275*
X00405Y00277*
X00405Y00278*
X00406Y0028*
X00407Y00281*
X00409Y00283*
X0041Y00284*
X00411Y00285*
X00413Y00286*
X00414Y00286*
X00416Y00287*
X00417Y00288*
X00419Y00288*
X00421Y00288*
X00423Y00288*
X00424Y00288*
G37*
G36*
X00896D02*
X00898Y00288D01*
X009Y00288*
X00901Y00287*
X00903Y00286*
X00904Y00286*
X00906Y00285*
X00907Y00284*
X00909Y00283*
X00948Y00244*
X00949Y00242*
X0095Y00241*
X00951Y00239*
X00952Y00238*
X00952Y00236*
X00953Y00235*
X00953Y00233*
X00953Y00231*
X00954Y0023*
Y0023*
Y0012*
X00988Y00086*
X00989Y00084*
X0099Y00083*
X00991Y00081*
X00991Y0008*
X00992Y00078*
X00993Y00077*
X00993Y00075*
X00993Y00073*
X00993Y00072*
X00993Y0007*
X00993Y00068*
X00993Y00066*
X00992Y00065*
X00991Y00063*
X00991Y00062*
X0099Y0006*
X00989Y00059*
X00988Y00058*
X00986Y00056*
X00985Y00055*
X00983Y00054*
X00982Y00054*
X0098Y00053*
X00979Y00052*
X00977Y00052*
X00975Y00052*
X00974Y00052*
X00972Y00052*
X0097Y00052*
X00968Y00052*
X00967Y00053*
X00965Y00054*
X00964Y00054*
X00962Y00055*
X00961Y00056*
X0096Y00058*
X0092Y00098*
X00918Y00099*
X00917Y001*
X00916Y00102*
X00915Y00103*
X00915Y00105*
X00914Y00106*
X00914Y00108*
X00914Y0011*
X00914Y00111*
Y00112*
Y00222*
X00881Y00255*
X00879Y00256*
X00878Y00257*
X00877Y00259*
X00877Y0026*
X00876Y00262*
X00875Y00263*
X00875Y00265*
X00875Y00267*
X00875Y00269*
X00875Y0027*
X00875Y00272*
X00875Y00274*
X00876Y00275*
X00877Y00277*
X00877Y00278*
X00878Y0028*
X00879Y00281*
X00881Y00283*
X00882Y00284*
X00883Y00285*
X00885Y00286*
X00886Y00286*
X00888Y00287*
X00889Y00288*
X00891Y00288*
X00893Y00288*
X00895Y00288*
X00896Y00288*
G37*
G36*
X01748Y02909D02*
X01791Y02903D01*
X01832Y02893*
X01873Y0288*
X01912Y02863*
X0195Y02844*
X01987Y02822*
X02021Y02797*
X02054Y02769*
X02084Y02739*
X02112Y02706*
X02137Y02672*
X02159Y02635*
X02178Y02597*
X02195Y02558*
X02208Y02517*
X02218Y02476*
X02224Y02433*
X02228Y02391*
Y02348*
X02224Y02306*
X02218Y02263*
X02208Y02222*
X02195Y02181*
X02178Y02142*
X02159Y02104*
X02154Y02095*
X02149Y02097*
Y02201*
X02148Y02205*
X02146Y02208*
X02119Y02234*
X02119Y0224*
X02123Y02244*
X02124Y0225*
X02123Y02255*
X02119Y02259*
X02115Y02263*
X0211Y02264*
X02104Y02263*
X021Y02259*
X02096Y02255*
X02095Y0225*
X02096Y02244*
X021Y0224*
X021Y02239*
Y02231*
X02101Y02228*
X02103Y02225*
X02105Y02223*
X02104Y02216*
X021Y02214*
X02096Y02207*
X02095Y02205*
X02115*
Y022*
X0212*
Y0218*
X02122Y02181*
X02125Y02183*
X0213Y0218*
Y02098*
X01948Y01916*
X01945Y01918*
X0194Y01919*
X01934Y01918*
X0193Y01914*
X01929Y01914*
X01843*
X01678Y02079*
X01679Y0208*
X01678Y02085*
X01674Y02089*
X0167Y02093*
X01665Y02094*
X01659Y02093*
X01655Y02089*
X01651Y02085*
X0165Y0208*
X01651Y02074*
X01655Y0207*
X01659Y02066*
X01665Y02065*
X01665Y02066*
X01833Y01898*
X01836Y01896*
X0184Y01895*
X01929*
X0193Y01895*
X01933Y01892*
X01934Y01889*
X01933Y01887*
X01912Y01876*
X01873Y01859*
X01832Y01846*
X01791Y01836*
X01748Y0183*
X01706Y01826*
X01663*
X01621Y0183*
X01578Y01836*
X01537Y01846*
X01496Y01859*
X01457Y01876*
X01419Y01895*
X01382Y01917*
X01348Y01943*
X01315Y0197*
X01285Y02*
X01258Y02033*
X01232Y02067*
X0121Y02104*
X01191Y02142*
X01174Y02181*
X01161Y02222*
X01151Y02263*
X01145Y02306*
X01141Y02348*
Y02391*
X01145Y02433*
X01151Y02476*
X01161Y02517*
X01174Y02558*
X01191Y02597*
X0121Y02635*
X01232Y02672*
X01258Y02706*
X01285Y02739*
X01315Y02769*
X01348Y02797*
X01382Y02822*
X01419Y02844*
X01457Y02863*
X01496Y0288*
X01537Y02893*
X01578Y02903*
X01621Y02909*
X01663Y02913*
X01706*
X01748Y02909*
G37*
G36*
X00739Y00288D02*
X00741Y00288D01*
X00743Y00288*
X00744Y00287*
X00746Y00286*
X00747Y00286*
X00749Y00285*
X0075Y00284*
X00752Y00283*
X00791Y00244*
X00792Y00242*
X00793Y00241*
X00793Y00239*
X00794Y00238*
X00795Y00236*
X00795Y00234*
X00795Y00233*
X00796Y00231*
X00796Y0023*
Y0012*
X0083Y00086*
X00831Y00084*
X00832Y00083*
X00833Y00082*
X00833Y0008*
X00834Y00078*
X00835Y00077*
X00835Y00075*
X00835Y00074*
X00835Y00072*
X00835Y0007*
X00835Y00068*
X00835Y00067*
X00834Y00065*
X00834Y00064*
X00833Y00062*
X00832Y00061*
X00831Y00059*
X0083Y00058*
X00829Y00057*
X00827Y00056*
X00826Y00055*
X00825Y00054*
X00823Y00053*
X00821Y00053*
X0082Y00052*
X00818Y00052*
X00816Y00052*
X00815Y00052*
X00813Y00052*
X00811Y00053*
X0081Y00053*
X00808Y00054*
X00807Y00054*
X00805Y00055*
X00804Y00056*
X00803Y00057*
X00803Y00058*
X00763Y00098*
X00761Y00099*
X0076Y001*
X00759Y00101*
X00759Y00103*
X00758Y00105*
X00757Y00106*
X00757Y00108*
X00757Y0011*
X00757Y00111*
Y00112*
Y00222*
X00724Y00255*
X00722Y00256*
X00721Y00257*
X0072Y00259*
X0072Y0026*
X00719Y00262*
X00718Y00263*
X00718Y00265*
X00718Y00267*
X00718Y00269*
X00718Y0027*
X00718Y00272*
X00718Y00274*
X00719Y00275*
X0072Y00277*
X0072Y00278*
X00721Y0028*
X00722Y00281*
X00724Y00283*
X00725Y00284*
X00726Y00285*
X00728Y00286*
X00729Y00286*
X00731Y00287*
X00732Y00288*
X00734Y00288*
X00736Y00288*
X00738Y00288*
X00739Y00288*
G37*
G36*
X02143Y02078D02*
X02137Y02067D01*
X02112Y02033*
X02084Y02*
X02054Y0197*
X02021Y01943*
X01987Y01917*
X01976Y01911*
X01973Y01915*
X02139Y02081*
X02143Y02078*
G37*
G36*
X00643Y02904D02*
X00686Y02898D01*
X00727Y02888*
X00768Y02875*
X00807Y02858*
X00845Y02839*
X00882Y02817*
X00916Y02792*
X00949Y02764*
X00979Y02734*
X01007Y02701*
X01032Y02667*
X01054Y0263*
X01073Y02592*
X0109Y02553*
X01103Y02512*
X01113Y02471*
X01119Y02428*
X01123Y02386*
Y02343*
X01119Y02301*
X01113Y02258*
X01103Y02217*
X0109Y02176*
X01073Y02137*
X01054Y02099*
X01032Y02062*
X01007Y02028*
X00979Y01995*
X00949Y01965*
X00916Y01938*
X00882Y01912*
X00845Y0189*
X00807Y01871*
X00768Y01854*
X00727Y01841*
X00686Y01831*
X00643Y01825*
X00601Y01821*
X00558*
X00516Y01825*
X00473Y01831*
X00432Y01841*
X00391Y01854*
X00352Y01871*
X00314Y0189*
X00277Y01912*
X00243Y01938*
X0021Y01965*
X0018Y01995*
X00153Y02028*
X00127Y02062*
X00105Y02099*
X00086Y02137*
X00069Y02176*
X00056Y02217*
X00046Y02258*
X0004Y02301*
X00036Y02343*
Y02386*
X0004Y02428*
X00046Y02471*
X00056Y02512*
X00069Y02553*
X00086Y02592*
X00105Y0263*
X00127Y02667*
X00153Y02701*
X0018Y02734*
X0021Y02764*
X00243Y02792*
X00277Y02817*
X00314Y02839*
X00352Y02858*
X00391Y02875*
X00432Y02888*
X00473Y02898*
X00516Y02904*
X00558Y02908*
X00601*
X00643Y02904*
G37*
G36*
X02235Y00515D02*
X0104D01*
Y0057*
X00029*
Y01805*
X02235*
Y00515*
G37*
G36*
X00345Y00288D02*
X00347Y00288D01*
X00349Y00288*
X0035Y00287*
X00352Y00286*
X00353Y00286*
X00355Y00285*
X00356Y00284*
X00358Y00283*
X00397Y00244*
X00398Y00242*
X00399Y00241*
X004Y00239*
X00401Y00238*
X00401Y00236*
X00402Y00235*
X00402Y00233*
X00402Y00231*
X00403Y0023*
Y0012*
X00437Y00086*
X00438Y00084*
X00439Y00083*
X0044Y00081*
X0044Y0008*
X00441Y00078*
X00442Y00077*
X00442Y00075*
X00442Y00073*
X00442Y00072*
X00442Y0007*
X00442Y00068*
X00442Y00066*
X00441Y00065*
X0044Y00063*
X0044Y00062*
X00439Y0006*
X00438Y00059*
X00437Y00058*
X00435Y00056*
X00434Y00055*
X00432Y00054*
X00431Y00054*
X00429Y00053*
X00428Y00052*
X00426Y00052*
X00424Y00052*
X00423Y00052*
X00421Y00052*
X00419Y00052*
X00417Y00052*
X00416Y00053*
X00414Y00054*
X00413Y00054*
X00411Y00055*
X0041Y00056*
X00409Y00058*
X00369Y00098*
X00367Y00099*
X00366Y001*
X00365Y00102*
X00364Y00103*
X00364Y00105*
X00363Y00106*
X00363Y00108*
X00363Y0011*
X00363Y00111*
Y00112*
Y00222*
X0033Y00255*
X00328Y00256*
X00327Y00257*
X00326Y00259*
X00326Y0026*
X00325Y00262*
X00324Y00263*
X00324Y00265*
X00324Y00267*
X00324Y00269*
X00324Y0027*
X00324Y00272*
X00324Y00274*
X00325Y00275*
X00326Y00277*
X00326Y00278*
X00327Y0028*
X00328Y00281*
X0033Y00283*
X00331Y00284*
X00332Y00285*
X00334Y00286*
X00335Y00286*
X00337Y00287*
X00338Y00288*
X0034Y00288*
X00342Y00288*
X00344Y00288*
X00345Y00288*
G37*
G36*
X00188Y00288D02*
X00189Y00288D01*
X00191Y00287*
X00193Y00287*
X00194Y00286*
X00196Y00285*
X00197Y00284*
X00199Y00283*
X002Y00283*
X00239Y00244*
X0024Y00242*
X00241Y00241*
X00242Y00239*
X00243Y00238*
X00243Y00236*
X00244Y00235*
X00244Y00233*
X00244Y00231*
X00245Y0023*
Y0023*
Y0012*
X00279Y00086*
X0028Y00084*
X00281Y00083*
X00282Y00081*
X00282Y0008*
X00283Y00078*
X00284Y00077*
X00284Y00075*
X00284Y00073*
X00284Y00072*
X00284Y0007*
X00284Y00068*
X00284Y00066*
X00283Y00065*
X00282Y00063*
X00282Y00062*
X00281Y0006*
X0028Y00059*
X00279Y00058*
X00277Y00056*
X00276Y00055*
X00274Y00054*
X00273Y00054*
X00271Y00053*
X0027Y00052*
X00268Y00052*
X00266Y00052*
X00265Y00052*
X00263Y00052*
X00261Y00052*
X00259Y00052*
X00258Y00053*
X00256Y00054*
X00255Y00054*
X00253Y00055*
X00252Y00056*
X00251Y00058*
X00211Y00098*
X00209Y00099*
X00208Y001*
X00208Y00102*
X00207Y00103*
X00206Y00105*
X00206Y00107*
X00206Y00108*
X00205Y0011*
X00206Y00112*
Y00222*
X00173Y00255*
X00171Y00256*
X0017Y00257*
X00169Y00259*
X00169Y0026*
X00168Y00262*
X00167Y00263*
X00167Y00265*
X00167Y00267*
X00167Y00268*
X00167Y0027*
X00167Y00272*
X00167Y00273*
X00168Y00275*
X00168Y00276*
X00169Y00278*
X0017Y00279*
X00171Y00281*
X00172Y00282*
X00174Y00283*
X00175Y00284*
X00176Y00285*
X00178Y00286*
X00179Y00287*
X00181Y00287*
X00183Y00288*
X00184Y00288*
X00186Y00288*
X00188Y00288*
G37*
G36*
X00266Y00288D02*
X00268Y00288D01*
X0027Y00288*
X00271Y00287*
X00273Y00286*
X00274Y00286*
X00276Y00285*
X00277Y00284*
X00279Y00283*
X00318Y00244*
X00319Y00242*
X0032Y00241*
X00321Y00239*
X00322Y00238*
X00322Y00236*
X00323Y00235*
X00323Y00233*
X00323Y00231*
X00324Y0023*
Y0023*
Y0012*
X00358Y00086*
X00359Y00084*
X0036Y00083*
X00361Y00081*
X00361Y0008*
X00362Y00078*
X00363Y00077*
X00363Y00075*
X00363Y00073*
X00363Y00072*
X00363Y0007*
X00363Y00068*
X00363Y00066*
X00362Y00065*
X00361Y00063*
X00361Y00062*
X0036Y0006*
X00359Y00059*
X00358Y00058*
X00356Y00056*
X00355Y00055*
X00353Y00054*
X00352Y00054*
X0035Y00053*
X00349Y00052*
X00347Y00052*
X00345Y00052*
X00344Y00052*
X00342Y00052*
X0034Y00052*
X00338Y00052*
X00337Y00053*
X00335Y00054*
X00334Y00054*
X00332Y00055*
X00331Y00056*
X0033Y00058*
X0029Y00098*
X00288Y00099*
X00287Y001*
X00286Y00102*
X00285Y00103*
X00285Y00105*
X00284Y00106*
X00284Y00108*
X00284Y0011*
X00284Y00111*
Y00112*
Y00222*
X00251Y00255*
X00249Y00256*
X00248Y00257*
X00247Y00259*
X00247Y0026*
X00246Y00262*
X00245Y00263*
X00245Y00265*
X00245Y00267*
X00245Y00269*
X00245Y0027*
X00245Y00272*
X00245Y00274*
X00246Y00275*
X00247Y00277*
X00247Y00278*
X00248Y0028*
X00249Y00281*
X00251Y00283*
X00252Y00284*
X00253Y00285*
X00255Y00286*
X00256Y00286*
X00258Y00287*
X00259Y00288*
X00261Y00288*
X00263Y00288*
X00265Y00288*
X00266Y00288*
G37*
G36*
X00503D02*
X00505Y00288D01*
X00507Y00288*
X00508Y00287*
X0051Y00286*
X00511Y00286*
X00513Y00285*
X00514Y00284*
X00516Y00283*
X00554Y00244*
X00555Y00242*
X00556Y00241*
X00557Y0024*
X00558Y00238*
X00558Y00236*
X00559Y00235*
X00559Y00233*
X00559Y00231*
X0056Y0023*
Y0023*
Y0012*
X00594Y00086*
X00595Y00084*
X00596Y00083*
X00597Y00081*
X00597Y0008*
X00598Y00078*
X00599Y00077*
X00599Y00075*
X00599Y00073*
X00599Y00072*
X00599Y0007*
X00599Y00068*
X00599Y00066*
X00598Y00065*
X00597Y00063*
X00597Y00062*
X00596Y0006*
X00595Y00059*
X00594Y00058*
X00592Y00056*
X00591Y00055*
X00589Y00054*
X00588Y00054*
X00586Y00053*
X00585Y00052*
X00583Y00052*
X00581Y00052*
X0058Y00052*
X00578Y00052*
X00576Y00052*
X00574Y00052*
X00573Y00053*
X00571Y00054*
X0057Y00054*
X00568Y00055*
X00567Y00056*
X00566Y00058*
X00526Y00098*
X00524Y00099*
X00523Y001*
X00523Y00102*
X00522Y00103*
X00521Y00105*
X00521Y00107*
X00521Y00108*
X0052Y0011*
X00521Y00112*
Y00222*
X00488Y00255*
X00486Y00256*
X00485Y00257*
X00484Y00259*
X00484Y0026*
X00483Y00262*
X00482Y00263*
X00482Y00265*
X00482Y00267*
X00482Y00269*
X00482Y0027*
X00482Y00272*
X00482Y00274*
X00483Y00275*
X00484Y00277*
X00484Y00278*
X00485Y0028*
X00486Y00281*
X00488Y00283*
X00489Y00284*
X0049Y00285*
X00492Y00286*
X00493Y00286*
X00495Y00287*
X00496Y00288*
X00498Y00288*
X005Y00288*
X00502Y00288*
X00503Y00288*
G37*
G36*
X0066D02*
X00662Y00288D01*
X00664Y00288*
X00665Y00287*
X00667Y00286*
X00668Y00286*
X0067Y00285*
X00671Y00284*
X00673Y00283*
X00712Y00244*
X00713Y00242*
X00714Y00241*
X00714Y00239*
X00715Y00238*
X00716Y00236*
X00716Y00234*
X00716Y00233*
X00717Y00231*
X00717Y0023*
Y0012*
X00752Y00086*
X00753Y00084*
X00754Y00083*
X00755Y00081*
X00755Y0008*
X00756Y00078*
X00757Y00077*
X00757Y00075*
X00757Y00073*
X00757Y00072*
X00757Y0007*
X00757Y00068*
X00757Y00066*
X00756Y00065*
X00755Y00063*
X00755Y00062*
X00754Y0006*
X00753Y00059*
X00752Y00058*
X0075Y00056*
X00749Y00055*
X00747Y00054*
X00746Y00054*
X00744Y00053*
X00743Y00052*
X00741Y00052*
X00739Y00052*
X00738Y00052*
X00736Y00052*
X00734Y00052*
X00732Y00052*
X00731Y00053*
X00729Y00054*
X00728Y00054*
X00726Y00055*
X00725Y00056*
X00724Y00058*
X00684Y00098*
X00682Y00099*
X00681Y001*
X0068Y00102*
X00679Y00103*
X00679Y00105*
X00678Y00106*
X00678Y00108*
X00678Y0011*
X00678Y00111*
Y00112*
Y00222*
X00645Y00255*
X00643Y00256*
X00642Y00257*
X00641Y00259*
X00641Y0026*
X0064Y00262*
X00639Y00263*
X00639Y00265*
X00639Y00267*
X00639Y00269*
X00639Y0027*
X00639Y00272*
X00639Y00274*
X0064Y00275*
X00641Y00277*
X00641Y00278*
X00642Y0028*
X00643Y00281*
X00645Y00283*
X00646Y00284*
X00647Y00285*
X00649Y00286*
X0065Y00286*
X00652Y00287*
X00653Y00288*
X00655Y00288*
X00657Y00288*
X00659Y00288*
X0066Y00288*
G37*
G36*
X00818Y00288D02*
X00819Y00288D01*
X00821Y00287*
X00823Y00287*
X00824Y00286*
X00826Y00285*
X00827Y00284*
X00828Y00283*
X0083Y00283*
X00869Y00244*
X0087Y00242*
X00871Y00241*
X00872Y00239*
X00873Y00238*
X00873Y00236*
X00874Y00235*
X00874Y00233*
X00874Y00231*
X00875Y0023*
Y0023*
Y0012*
X00909Y00086*
X0091Y00084*
X00911Y00083*
X00912Y00081*
X00912Y0008*
X00913Y00078*
X00914Y00077*
X00914Y00075*
X00914Y00073*
X00914Y00072*
X00914Y0007*
X00914Y00068*
X00914Y00066*
X00913Y00065*
X00912Y00063*
X00912Y00062*
X00911Y0006*
X0091Y00059*
X00909Y00058*
X00907Y00056*
X00906Y00055*
X00904Y00054*
X00903Y00054*
X00901Y00053*
X009Y00052*
X00898Y00052*
X00896Y00052*
X00895Y00052*
X00893Y00052*
X00891Y00052*
X00889Y00052*
X00888Y00053*
X00886Y00054*
X00885Y00054*
X00883Y00055*
X00882Y00056*
X00881Y00058*
X00841Y00098*
X00839Y00099*
X00838Y001*
X00838Y00102*
X00837Y00103*
X00836Y00105*
X00836Y00107*
X00836Y00108*
X00835Y0011*
X00836Y00112*
Y00222*
X00803Y00255*
X00801Y00256*
X008Y00257*
X00799Y00258*
X00799Y0026*
X00798Y00262*
X00797Y00263*
X00797Y00265*
X00797Y00266*
X00797Y00268*
X00797Y0027*
X00797Y00272*
X00797Y00273*
X00798Y00275*
X00798Y00276*
X00799Y00278*
X008Y00279*
X00801Y00281*
X00802Y00282*
X00803Y00283*
X00805Y00284*
X00806Y00285*
X00808Y00286*
X00809Y00287*
X00811Y00287*
X00813Y00288*
X00814Y00288*
X00816Y00288*
X00818Y00288*
G37*
G36*
X00581Y00288D02*
X00583Y00288D01*
X00585Y00288*
X00586Y00287*
X00588Y00286*
X00589Y00286*
X00591Y00285*
X00592Y00284*
X00594Y00283*
X00633Y00244*
X00634Y00242*
X00635Y00241*
X00636Y00239*
X00637Y00238*
X00637Y00236*
X00638Y00235*
X00638Y00233*
X00638Y00231*
X00639Y0023*
Y0023*
Y0012*
X00673Y00086*
X00674Y00084*
X00675Y00083*
X00676Y00081*
X00676Y0008*
X00677Y00078*
X00678Y00077*
X00678Y00075*
X00678Y00073*
X00678Y00072*
X00678Y0007*
X00678Y00068*
X00678Y00066*
X00677Y00065*
X00676Y00063*
X00676Y00062*
X00675Y0006*
X00674Y00059*
X00673Y00058*
X00671Y00056*
X0067Y00055*
X00668Y00054*
X00667Y00054*
X00665Y00053*
X00664Y00052*
X00662Y00052*
X0066Y00052*
X00659Y00052*
X00657Y00052*
X00655Y00052*
X00653Y00052*
X00652Y00053*
X0065Y00054*
X00649Y00054*
X00647Y00055*
X00646Y00056*
X00645Y00058*
X00605Y00098*
X00603Y00099*
X00602Y001*
X00601Y00102*
X006Y00103*
X006Y00105*
X00599Y00106*
X00599Y00108*
X00599Y0011*
X00599Y00111*
Y00112*
Y00222*
X00566Y00255*
X00564Y00256*
X00563Y00257*
X00562Y00259*
X00562Y0026*
X00561Y00262*
X0056Y00263*
X0056Y00265*
X0056Y00267*
X0056Y00269*
X0056Y0027*
X0056Y00272*
X0056Y00274*
X00561Y00275*
X00562Y00277*
X00562Y00278*
X00563Y0028*
X00564Y00281*
X00566Y00283*
X00567Y00284*
X00568Y00285*
X0057Y00286*
X00571Y00286*
X00573Y00287*
X00574Y00288*
X00576Y00288*
X00578Y00288*
X0058Y00288*
X00581Y00288*
G37*
%LNheadband-pcb-2*%
%LPC*%
G36*
X01365Y021D02*
X0135D01*
X01351Y02097*
X01355Y0209*
X01362Y02086*
X01365Y02085*
Y021*
G37*
G36*
X0155Y02064D02*
X01547Y02063D01*
X0154Y02059*
X01537Y02054*
X01472*
X01469Y02059*
X01462Y02063*
X0146Y02064*
Y02045*
Y02025*
X01462Y02026*
X01469Y0203*
X01472Y02035*
X01537*
X0154Y0203*
X01547Y02026*
X0155Y02025*
Y02045*
Y02064*
G37*
G36*
X01765Y02049D02*
X01762Y02048D01*
X01755Y02044*
X01751Y02037*
X0175Y02035*
X01765*
Y02049*
G37*
G36*
X0156Y02064D02*
Y0205D01*
X01574*
X01573Y02052*
X01569Y02059*
X01562Y02063*
X0156Y02064*
G37*
G36*
X0145D02*
X01447Y02063D01*
X0144Y02059*
X01436Y02052*
X01435Y0205*
X0145*
Y02064*
G37*
G36*
X0199Y02524D02*
X01984Y02523D01*
X0198Y02519*
X01979Y02519*
X0144*
X01436Y02518*
X01433Y02516*
X01363Y02446*
X01361Y02443*
X0136Y0244*
Y02249*
X01355Y02246*
X01353Y02247*
X01353Y02248*
X01351Y02251*
X01298Y02304*
X01299Y02305*
X01298Y0231*
X01294Y02314*
X0129Y02318*
X01285Y02319*
X01279Y02318*
X01275Y02314*
X01271Y0231*
X0127Y02305*
X01271Y02299*
X01275Y02295*
X01279Y02291*
X01285Y0229*
X01285Y02291*
X01303Y02273*
X01301Y02268*
X01299Y02268*
X01295Y02264*
X01291Y0226*
X0129Y02255*
X01291Y02249*
X01295Y02245*
X01295Y02244*
Y02045*
X01296Y02041*
X01298Y02038*
X01313Y02023*
X01316Y02021*
X0132Y0202*
X01375*
X01378Y02021*
X01381Y02023*
X01464Y02106*
X01465Y02105*
X0147Y02106*
X01474Y0211*
X01478Y02114*
X01479Y0212*
X01478Y02125*
X01474Y02129*
X0147Y02133*
X01465Y02134*
X01459Y02133*
X01455Y02129*
X01451Y02125*
X0145Y0212*
X01451Y02119*
X01371Y02039*
X01323*
X01314Y02048*
Y02054*
X01319Y02056*
X0132Y02055*
X01324Y02051*
X0133Y0205*
X01335Y02051*
X01339Y02055*
X01343Y02059*
X01344Y02065*
X01343Y0207*
X01339Y02074*
X01339Y02075*
Y02176*
X01374Y02211*
X01375Y0221*
X0138Y02211*
X01384Y02215*
X01385Y02216*
X0139Y02214*
Y02163*
X01363Y02136*
X01361Y02133*
X0136Y0213*
Y02122*
X01355Y02119*
X01351Y02112*
X0135Y0211*
X01389*
X01388Y02112*
X01384Y02119*
X0138Y02121*
X0138Y02127*
X01406Y02153*
X01408Y02156*
X01409Y0216*
Y02421*
X01412Y02424*
X01417Y0243*
X01417Y02433*
X01398*
Y02443*
X01417*
X01417Y02446*
X01412Y02452*
X01406Y02456*
X01405Y0246*
X01404Y02461*
X01443Y025*
X01979*
X0198Y025*
X01984Y02496*
X0199Y02495*
X01995Y02496*
X01999Y025*
X02003Y02504*
X02004Y0251*
X02003Y02515*
X01999Y02519*
X01995Y02523*
X0199Y02524*
G37*
G36*
X01685Y02472D02*
X01664Y0247D01*
X01645Y02465*
X01627Y02455*
X01612Y02442*
X01599Y02427*
X01589Y02409*
X01584Y0239*
X01582Y0237*
X01584Y02349*
X01589Y0233*
X01599Y02312*
X01612Y02297*
X01627Y02284*
X01645Y02274*
X01664Y02269*
X01685Y02267*
X01705Y02269*
X01724Y02274*
X01742Y02284*
X01757Y02297*
X0177Y02312*
X0178Y0233*
X01785Y02349*
X01787Y0237*
X01785Y0239*
X0178Y02409*
X0177Y02427*
X01757Y02442*
X01742Y02455*
X01724Y02465*
X01705Y0247*
X01685Y02472*
G37*
G36*
X01389Y021D02*
X01375D01*
Y02085*
X01377Y02086*
X01384Y0209*
X01388Y02097*
X01389Y021*
G37*
G36*
X0211Y02195D02*
X02095D01*
X02095Y02193*
X01941Y02039*
X01787*
X01784Y02044*
X01777Y02048*
X01775Y02049*
Y0203*
Y0201*
X01777Y02011*
X01784Y02015*
X01787Y0202*
X01829*
X01831Y02015*
X0183Y02014*
X01826Y0201*
X01825Y02005*
X01826Y01999*
X0183Y01995*
X01834Y01991*
X0184Y0199*
X01845Y01991*
X01849Y01995*
X0185Y01995*
X01871*
X01896Y0197*
X01895Y0197*
X01896Y01964*
X019Y0196*
X01904Y01956*
X0191Y01955*
X01915Y01956*
X01919Y0196*
X01923Y01964*
X01924Y0197*
X01923Y01975*
X01919Y01979*
X01915Y01983*
X0191Y01984*
X01909Y01983*
X01881Y02011*
X01878Y02013*
X01875Y02014*
X01853*
X01852Y02015*
X01854Y0202*
X01945*
X01948Y02021*
X01951Y02023*
X02108Y0218*
X0211Y0218*
Y02195*
G37*
G36*
X01574Y0204D02*
X0156D01*
Y02025*
X01562Y02026*
X01569Y0203*
X01573Y02037*
X01574Y0204*
G37*
G36*
X0145D02*
X01435D01*
X01436Y02037*
X0144Y0203*
X01447Y02026*
X0145Y02025*
Y0204*
G37*
G36*
X01765Y02025D02*
X0175D01*
X01751Y02022*
X01755Y02015*
X01762Y02011*
X01765Y0201*
Y02025*
G37*
G36*
X01745Y01969D02*
X01739Y01968D01*
X01735Y01964*
X01731Y0196*
X0173Y01955*
X01731Y01949*
X01735Y01945*
X01735Y01944*
Y01913*
X01686Y01864*
X0161*
X01609Y01864*
X01605Y01868*
X016Y01869*
X01594Y01868*
X0159Y01864*
X01586Y0186*
X01585Y01855*
X01586Y01849*
X0159Y01845*
X01594Y01841*
X016Y0184*
X01605Y01841*
X01609Y01845*
X0161Y01845*
X0169*
X01693Y01846*
X01696Y01848*
X01751Y01903*
X01753Y01906*
X01754Y0191*
Y01944*
X01754Y01945*
X01758Y01949*
X01759Y01955*
X01758Y0196*
X01754Y01964*
X0175Y01968*
X01745Y01969*
G37*
G36*
X00179Y0234D02*
X0014D01*
X00141Y02337*
X00145Y0233*
X0015Y02327*
Y02085*
X00151Y02081*
X00153Y02078*
X00203Y02028*
X00206Y02026*
X0021Y02025*
X0025*
X00253Y02026*
X00256Y02028*
X003Y02072*
X00302Y02071*
X00305Y0207*
Y02085*
X00287*
X00246Y02044*
X00213*
X00169Y02088*
Y02327*
X00174Y0233*
X00178Y02337*
X00179Y0234*
G37*
G36*
X00315Y02109D02*
Y0209D01*
Y0207*
X00317Y02071*
X00324Y02075*
X00327Y0208*
X00396*
X0041Y02066*
X0041Y02065*
X00425*
Y02079*
X00423Y02079*
X00406Y02096*
X00403Y02098*
X004Y02099*
X00327*
X00324Y02104*
X00317Y02108*
X00315Y02109*
G37*
G36*
X0046Y02124D02*
X00454Y02123D01*
X0045Y02119*
X00446Y02115*
X00445Y0211*
X00446Y02109*
X00443Y02106*
X00441Y02103*
X0044Y021*
Y02082*
X00435Y02079*
X00435Y02079*
Y0206*
Y0204*
X00435Y0204*
X0044Y02037*
Y0198*
X00441Y01976*
X00443Y01973*
X00513Y01903*
X00516Y01901*
X0052Y019*
X00664*
X00665Y019*
X00669Y01896*
X00675Y01895*
X0068Y01896*
X00684Y019*
X00688Y01904*
X00689Y0191*
X00688Y01915*
X00684Y01919*
X0068Y01923*
X00675Y01924*
X00669Y01923*
X00665Y01919*
X00664Y01919*
X00523*
X00459Y01983*
Y02095*
X0046Y02095*
X00465Y02096*
X00469Y021*
X00473Y02104*
X00474Y0211*
X00473Y02115*
X00469Y02119*
X00465Y02123*
X0046Y02124*
G37*
G36*
X00425Y02055D02*
X0041D01*
X00411Y02052*
X00415Y02045*
X00422Y02041*
X00425Y0204*
Y02055*
G37*
G36*
X00165Y02364D02*
Y0235D01*
X00179*
X00178Y02352*
X00174Y02359*
X00167Y02363*
X00165Y02364*
G37*
G36*
X00155D02*
X00152Y02363D01*
X00145Y02359*
X00141Y02352*
X0014Y0235*
X00155*
Y02364*
G37*
G36*
X00895Y02444D02*
X00889Y02443D01*
X00885Y02439*
X00881Y02435*
X0088Y0243*
X00881Y02429*
X00701Y02249*
X00325*
X00322Y02254*
X00323Y02254*
X00324Y0226*
X00323Y02265*
X00319Y02269*
X00315Y02273*
X0031Y02274*
X00304Y02273*
X003Y02269*
X00299Y02269*
X00205*
X00204Y02269*
X002Y02273*
X00195Y02274*
X00189Y02273*
X00185Y02269*
X00181Y02265*
X0018Y0226*
X00181Y02254*
X00185Y0225*
X00189Y02246*
X00195Y02245*
X002Y02246*
X00204Y0225*
X00205Y0225*
X00294*
X00295Y02248*
X00295Y02245*
X00288Y02238*
X00287Y02236*
X00285Y02234*
X00281Y0223*
X0028Y02225*
X00281Y02219*
X00285Y02215*
X00285Y02214*
Y0215*
X00286Y02146*
X00287Y02145*
X0023Y02088*
X0023Y02089*
X00224Y02088*
X0022Y02084*
X00216Y0208*
X00215Y02075*
X00216Y02069*
X0022Y02065*
X00224Y02061*
X0023Y0206*
X00235Y02061*
X00239Y02065*
X00243Y02069*
X00244Y02075*
X00243Y02075*
X00306Y02138*
X00308Y02141*
X00309Y02145*
X00308Y02148*
X00306Y02151*
X00304Y02153*
Y02214*
X00304Y02215*
X00308Y02219*
X00309Y02225*
X00308Y02225*
X00313Y0223*
X00705*
X00708Y02231*
X00711Y02233*
X00894Y02416*
X00895Y02415*
X009Y02416*
X00904Y0242*
X00908Y02424*
X00909Y0243*
X00908Y02435*
X00904Y02439*
X009Y02443*
X00895Y02444*
G37*
G36*
X00305Y02109D02*
X00302Y02108D01*
X00295Y02104*
X00291Y02097*
X0029Y02095*
X00305*
Y02109*
G37*
G36*
X00581Y02462D02*
X00561Y0246D01*
X00542Y02455*
X00524Y02445*
X00509Y02432*
X00496Y02417*
X00486Y02399*
X0048Y0238*
X00478Y0236*
X0048Y02339*
X00486Y0232*
X00496Y02302*
X00509Y02287*
X00524Y02274*
X00542Y02264*
X00561Y02259*
X00581Y02257*
X00601Y02259*
X00621Y02264*
X00639Y02274*
X00654Y02287*
X00667Y02302*
X00676Y0232*
X00682Y02339*
X00684Y0236*
X00682Y0238*
X00676Y02399*
X00667Y02417*
X00654Y02432*
X00639Y02445*
X00621Y02455*
X00601Y0246*
X00581Y02462*
G37*
G36*
X00615Y01974D02*
X00609Y01973D01*
X00605Y01969*
X00601Y01965*
X006Y0196*
X00601Y01959*
X00591Y01949*
X00545*
X00544Y01949*
X0054Y01953*
X00535Y01954*
X00529Y01953*
X00525Y01949*
X00521Y01945*
X0052Y0194*
X00521Y01934*
X00525Y0193*
X00529Y01926*
X00535Y01925*
X0054Y01926*
X00544Y0193*
X00545Y0193*
X00595*
X00598Y01931*
X00601Y01933*
X00614Y01946*
X00615Y01945*
X0062Y01946*
X00624Y0195*
X00628Y01954*
X00629Y0196*
X00628Y01965*
X00624Y01969*
X0062Y01973*
X00615Y01974*
G37*
G36*
X0071Y02029D02*
X00704Y02028D01*
X007Y02024*
X00696Y0202*
X00695Y02015*
X00696Y02009*
X007Y02005*
X00704Y02001*
X0071Y02*
X0071Y02001*
X00766Y01945*
X00765Y01945*
X00766Y01939*
X0077Y01935*
X00774Y01931*
X0078Y0193*
X00785Y01931*
X00789Y01935*
X00793Y01939*
X00794Y01945*
X00793Y0195*
X00789Y01954*
X00785Y01958*
X0078Y01959*
X00779Y01958*
X00723Y02014*
X00724Y02015*
X00723Y0202*
X00719Y02024*
X00715Y02028*
X0071Y02029*
G37*
G36*
X02195Y00829D02*
Y00815D01*
X02209*
X02208Y00817*
X02204Y00824*
X02197Y00828*
X02195Y00829*
G37*
G36*
X01579Y00835D02*
X01565D01*
Y0082*
X01567Y00821*
X01574Y00825*
X01578Y00832*
X01579Y00835*
G37*
G36*
X01555D02*
X0154D01*
X01541Y00832*
X01545Y00825*
X01552Y00821*
X01555Y0082*
Y00835*
G37*
G36*
X0144Y00819D02*
X01437Y00818D01*
X0143Y00814*
X01426Y00807*
X01425Y00805*
X0144*
Y00819*
G37*
G36*
X02209Y00805D02*
X02195D01*
Y0079*
X02197Y00791*
X02204Y00795*
X02208Y00802*
X02209Y00805*
G37*
G36*
X02185Y00829D02*
X02182Y00828D01*
X02175Y00824*
X02171Y00817*
X0217Y00815*
X02185*
Y00829*
G37*
G36*
X0145Y00819D02*
Y00805D01*
X01464*
X01463Y00807*
X01459Y00814*
X01452Y00818*
X0145Y00819*
G37*
G36*
X00625Y00845D02*
X0061D01*
X00611Y00842*
X00615Y00835*
X00622Y00831*
X00625Y0083*
Y00845*
G37*
G36*
X01565Y00859D02*
Y00845D01*
X01579*
X01578Y00847*
X01574Y00854*
X01567Y00858*
X01565Y00859*
G37*
G36*
X01555D02*
X01552Y00858D01*
X01545Y00854*
X01541Y00847*
X0154Y00845*
X01555*
Y00859*
G37*
G36*
X01634Y0086D02*
X0162D01*
Y00845*
X01622Y00846*
X01629Y0085*
X01633Y00857*
X01634Y0086*
G37*
G36*
X0161D02*
X01595D01*
X01596Y00857*
X016Y0085*
X01607Y00846*
X0161Y00845*
Y0086*
G37*
G36*
X01754Y00845D02*
X0174D01*
Y0083*
X01742Y00831*
X01749Y00835*
X01753Y00842*
X01754Y00845*
G37*
G36*
X0101D02*
X00995D01*
X00996Y00842*
X01Y00835*
X01007Y00831*
X0101Y0083*
Y00845*
G37*
G36*
X00649D02*
X00635D01*
Y0083*
X00637Y00831*
X00644Y00835*
X00648Y00842*
X00649Y00845*
G37*
G36*
X0173D02*
X01715D01*
X01716Y00842*
X0172Y00835*
X01727Y00831*
X0173Y0083*
Y00845*
G37*
G36*
X01034D02*
X0102D01*
Y0083*
X01022Y00831*
X01029Y00835*
X01033Y00842*
X01034Y00845*
G37*
G36*
X0092Y00775D02*
X00905D01*
X00906Y00772*
X0091Y00765*
X00917Y00761*
X0092Y0076*
Y00775*
G37*
G36*
X0147Y00769D02*
Y00755D01*
X01484*
X01483Y00757*
X01479Y00764*
X01472Y00768*
X0147Y00769*
G37*
G36*
X00815Y00779D02*
X00812Y00778D01*
X00805Y00774*
X00801Y00767*
X008Y00765*
X00815*
Y00779*
G37*
G36*
X00944Y00775D02*
X0093D01*
Y0076*
X00932Y00761*
X00939Y00765*
X00943Y00772*
X00944Y00775*
G37*
G36*
X01115Y00764D02*
X01112Y00763D01*
X01105Y00759*
X01101Y00752*
X011Y0075*
X01115*
Y00764*
G37*
G36*
X01049Y00755D02*
X01035D01*
Y0074*
X01037Y00741*
X01044Y00745*
X01048Y00752*
X01049Y00755*
G37*
G36*
X0146Y00769D02*
X01457Y00768D01*
X0145Y00764*
X01446Y00757*
X01445Y00755*
X0146*
Y00769*
G37*
G36*
X01125Y00764D02*
Y0075D01*
X01139*
X01138Y00752*
X01134Y00759*
X01127Y00763*
X01125Y00764*
G37*
G36*
X00825Y00779D02*
Y00765D01*
X00839*
X00838Y00767*
X00834Y00774*
X00827Y00778*
X00825Y00779*
G37*
G36*
X0093Y00799D02*
Y00785D01*
X00944*
X00943Y00787*
X00939Y00794*
X00932Y00798*
X0093Y00799*
G37*
G36*
X0092D02*
X00917Y00798D01*
X0091Y00794*
X00906Y00787*
X00905Y00785*
X0092*
Y00799*
G37*
G36*
X02185Y00805D02*
X0217D01*
X02171Y00802*
X02175Y00795*
X02182Y00791*
X02185Y0079*
Y00805*
G37*
G36*
X00573Y00893D02*
X00466D01*
Y00786*
X00573*
Y00893*
G37*
G36*
X01035Y00779D02*
Y00765D01*
X01049*
X01048Y00767*
X01044Y00774*
X01037Y00778*
X01035Y00779*
G37*
G36*
X01025D02*
X01022Y00778D01*
X01015Y00774*
X01011Y00767*
X0101Y00765*
X01025*
Y00779*
G37*
G36*
X01464Y00795D02*
X0145D01*
Y0078*
X01452Y00781*
X01459Y00785*
X01463Y00792*
X01464Y00795*
G37*
G36*
X0144D02*
X01425D01*
X01426Y00792*
X0143Y00785*
X01437Y00781*
X0144Y0078*
Y00795*
G37*
G36*
X00625Y00869D02*
X00622Y00868D01*
X00615Y00864*
X00611Y00857*
X0061Y00855*
X00625*
Y00869*
G37*
G36*
X0065Y00949D02*
Y00935D01*
X00664*
X00663Y00937*
X00659Y00944*
X00652Y00948*
X0065Y00949*
G37*
G36*
X0064D02*
X00637Y00948D01*
X0063Y00944*
X00626Y00937*
X00625Y00935*
X0064*
Y00949*
G37*
G36*
X01785D02*
Y00935D01*
X01799*
X01798Y00937*
X01794Y00944*
X01787Y00948*
X01785Y00949*
G37*
G36*
X01775D02*
X01772Y00948D01*
X01765Y00944*
X01761Y00937*
X0176Y00935*
X01775*
Y00949*
G37*
G36*
X00759Y00935D02*
X00745D01*
Y0092*
X00747Y00921*
X00754Y00925*
X00758Y00932*
X00759Y00935*
G37*
G36*
X00735D02*
X0072D01*
X00721Y00932*
X00725Y00925*
X00732Y00921*
X00735Y0092*
Y00935*
G37*
G36*
X01335Y00939D02*
Y00925D01*
X01349*
X01348Y00927*
X01344Y00934*
X01337Y00938*
X01335Y00939*
G37*
G36*
X01325D02*
X01322Y00938D01*
X01315Y00934*
X01311Y00927*
X0131Y00925*
X01325*
Y00939*
G37*
G36*
X0164Y00955D02*
X01625D01*
X01626Y00952*
X0163Y00945*
X01637Y00941*
X0164Y0094*
Y00955*
G37*
G36*
X0165Y00979D02*
Y00965D01*
X01664*
X01663Y00967*
X01659Y00974*
X01652Y00978*
X0165Y00979*
G37*
G36*
X0164D02*
X01637Y00978D01*
X0163Y00974*
X01626Y00967*
X01625Y00965*
X0164*
Y00979*
G37*
G36*
X00614Y0098D02*
X006D01*
Y00965*
X00602Y00966*
X00609Y0097*
X00613Y00977*
X00614Y0098*
G37*
G36*
X0059D02*
X00575D01*
X00576Y00977*
X0058Y0097*
X00587Y00966*
X0059Y00965*
Y0098*
G37*
G36*
X00735Y00959D02*
X00732Y00958D01*
X00725Y00954*
X00721Y00947*
X0072Y00945*
X00735*
Y00959*
G37*
G36*
X01664Y00955D02*
X0165D01*
Y0094*
X01652Y00941*
X01659Y00945*
X01663Y00952*
X01664Y00955*
G37*
G36*
X002Y00965D02*
X00185D01*
X00186Y00962*
X0019Y00955*
X00197Y00951*
X002Y0095*
Y00965*
G37*
G36*
X00745Y00959D02*
Y00945D01*
X00759*
X00758Y00947*
X00754Y00954*
X00747Y00958*
X00745Y00959*
G37*
G36*
X0144Y0091D02*
X01425D01*
X01426Y00907*
X0143Y009*
X01437Y00896*
X0144Y00895*
Y0091*
G37*
G36*
X0162Y00884D02*
Y0087D01*
X01634*
X01633Y00872*
X01629Y00879*
X01622Y00883*
X0162Y00884*
G37*
G36*
X01325Y00915D02*
X0131D01*
X01311Y00912*
X01315Y00905*
X01322Y00901*
X01325Y009*
Y00915*
G37*
G36*
X01464Y0091D02*
X0145D01*
Y00895*
X01452Y00896*
X01459Y009*
X01463Y00907*
X01464Y0091*
G37*
G36*
X0173Y00869D02*
X01727Y00868D01*
X0172Y00864*
X01716Y00857*
X01715Y00855*
X0173*
Y00869*
G37*
G36*
X00635D02*
Y00855D01*
X00649*
X00648Y00857*
X00644Y00864*
X00637Y00868*
X00635Y00869*
G37*
G36*
X0161Y00884D02*
X01607Y00883D01*
X016Y00879*
X01596Y00872*
X01595Y0087*
X0161*
Y00884*
G37*
G36*
X0174Y00869D02*
Y00855D01*
X01754*
X01753Y00857*
X01749Y00864*
X01742Y00868*
X0174Y00869*
G37*
G36*
X01349Y00915D02*
X01335D01*
Y009*
X01337Y00901*
X01344Y00905*
X01348Y00912*
X01349Y00915*
G37*
G36*
X01799Y00925D02*
X01785D01*
Y0091*
X01787Y00911*
X01794Y00915*
X01798Y00922*
X01799Y00925*
G37*
G36*
X01775D02*
X0176D01*
X01761Y00922*
X01765Y00915*
X01772Y00911*
X01775Y0091*
Y00925*
G37*
G36*
X0145Y00934D02*
Y0092D01*
X01464*
X01463Y00922*
X01459Y00929*
X01452Y00933*
X0145Y00934*
G37*
G36*
X0144D02*
X01437Y00933D01*
X0143Y00929*
X01426Y00922*
X01425Y0092*
X0144*
Y00934*
G37*
G36*
X00859Y01055D02*
X00845D01*
Y0104*
X00846Y0104*
X00975Y00911*
X00975Y0091*
X0099*
Y00924*
X00988Y00924*
X00859Y01053*
X00859Y01055*
G37*
G36*
X01765Y01158D02*
X01756Y01157D01*
X01748Y01154*
X01741Y01148*
X01735Y01141*
X01732Y01133*
X01731Y01125*
X01732Y01116*
X01735Y01108*
X01671Y01044*
X01165*
X01161Y01043*
X01158Y01041*
X01019Y00902*
X01016Y00904*
X01015Y00905*
X01013Y00912*
X01009Y00919*
X01002Y00923*
X01Y00924*
Y00905*
X00995*
Y009*
X00975*
X00976Y00897*
X00978Y00894*
X00975Y00889*
X00958*
X00756Y01091*
X00753Y01093*
X0075Y01094*
X0069*
X00689Y01094*
X00685Y01098*
X0068Y01099*
X00674Y01098*
X0067Y01094*
X00666Y0109*
X00665Y01085*
X00666Y01079*
X0067Y01075*
X00674Y01071*
X0068Y0107*
X00685Y01071*
X00689Y01075*
X0069Y01075*
X00746*
X00948Y00873*
X00951Y00871*
X00955Y0087*
X01001*
X01002Y00865*
X01Y00864*
X00996Y00857*
X00995Y00855*
X01034*
X01033Y00857*
X01029Y00864*
X01022Y00868*
X01019Y00869*
X01018Y0087*
X01017Y00874*
X01168Y01025*
X01675*
X01678Y01026*
X01681Y01028*
X01748Y01095*
X01756Y01092*
X01765Y01091*
X01773Y01092*
X01781Y01095*
X01788Y01101*
X01794Y01108*
X01797Y01116*
X01798Y01125*
X01797Y01133*
X01794Y01141*
X01788Y01148*
X01781Y01154*
X01773Y01157*
X01765Y01158*
G37*
G36*
X00664Y00925D02*
X0065D01*
Y0091*
X00652Y00911*
X00659Y00915*
X00663Y00922*
X00664Y00925*
G37*
G36*
X0064D02*
X00625D01*
X00626Y00922*
X0063Y00915*
X00637Y00911*
X0064Y0091*
Y00925*
G37*
G36*
X00374Y00615D02*
X0036D01*
Y006*
X00362Y00601*
X00369Y00605*
X00373Y00612*
X00374Y00615*
G37*
G36*
X0035D02*
X00335D01*
X00336Y00612*
X0034Y00605*
X00347Y00601*
X0035Y006*
Y00615*
G37*
G36*
X00614D02*
X006D01*
Y006*
X00602Y00601*
X00609Y00605*
X00613Y00612*
X00614Y00615*
G37*
G36*
X0057Y00659D02*
Y0064D01*
Y0062*
X00573Y0062*
X00575Y00617*
X00576Y00612*
X0058Y00605*
X00587Y00601*
X0059Y006*
Y0062*
Y00639*
X00586Y00639*
X00584Y00642*
X00583Y00647*
X00579Y00654*
X00572Y00658*
X0057Y00659*
G37*
G36*
X01124Y0061D02*
X0111D01*
Y00595*
X01112Y00596*
X01119Y006*
X01123Y00607*
X01124Y0061*
G37*
G36*
X011D02*
X01085D01*
X01086Y00607*
X0109Y006*
X01097Y00596*
X011Y00595*
Y0061*
G37*
G36*
X0129Y00614D02*
Y006D01*
X01304*
X01303Y00602*
X01299Y00609*
X01292Y00613*
X0129Y00614*
G37*
G36*
X0128D02*
X01277Y00613D01*
X0127Y00609*
X01266Y00602*
X01265Y006*
X0128*
Y00614*
G37*
G36*
X00655Y00615D02*
X0064D01*
X00641Y00612*
X00645Y00605*
X00652Y00601*
X00655Y006*
Y00615*
G37*
G36*
X0056Y00635D02*
X00545D01*
X00546Y00632*
X0055Y00625*
X00557Y00621*
X0056Y0062*
Y00635*
G37*
G36*
X0111Y00634D02*
Y0062D01*
X01124*
X01123Y00622*
X01119Y00629*
X01112Y00633*
X0111Y00634*
G37*
G36*
X0036Y00639D02*
Y00625D01*
X00374*
X00373Y00627*
X00369Y00634*
X00362Y00638*
X0036Y00639*
G37*
G36*
X0035D02*
X00347Y00638D01*
X0034Y00634*
X00336Y00627*
X00335Y00625*
X0035*
Y00639*
G37*
G36*
X0048Y00624D02*
X00477Y00623D01*
X0047Y00619*
X00466Y00612*
X00465Y0061*
X0048*
Y00624*
G37*
G36*
X00679Y00615D02*
X00665D01*
Y006*
X00667Y00601*
X00674Y00605*
X00678Y00612*
X00679Y00615*
G37*
G36*
X011Y00634D02*
X01097Y00633D01*
X0109Y00629*
X01086Y00622*
X01085Y0062*
X011*
Y00634*
G37*
G36*
X0049Y00624D02*
Y0061D01*
X00504*
X00503Y00612*
X00499Y00619*
X00492Y00623*
X0049Y00624*
G37*
G36*
X01155Y00579D02*
X01152Y00578D01*
X01145Y00574*
X01141Y00567*
X0114Y00565*
X01155*
Y00579*
G37*
G36*
X02199Y0057D02*
X02185D01*
Y00555*
X02187Y00556*
X02194Y0056*
X02198Y00567*
X02199Y0057*
G37*
G36*
X01579Y0058D02*
X01565D01*
Y00565*
X01567Y00566*
X01574Y0057*
X01578Y00577*
X01579Y0058*
G37*
G36*
X01165Y00579D02*
Y00565D01*
X01179*
X01178Y00567*
X01174Y00574*
X01167Y00578*
X01165Y00579*
G37*
G36*
X01179Y00555D02*
X01165D01*
Y0054*
X01167Y00541*
X01174Y00545*
X01178Y00552*
X01179Y00555*
G37*
G36*
X01155D02*
X0114D01*
X01141Y00552*
X01145Y00545*
X01152Y00541*
X01155Y0054*
Y00555*
G37*
G36*
X02175Y0057D02*
X0216D01*
X02161Y00567*
X02165Y0056*
X02172Y00556*
X02175Y00555*
Y0057*
G37*
G36*
X0145D02*
X01435D01*
X01436Y00567*
X0144Y0056*
X01447Y00556*
X0145Y00555*
Y0057*
G37*
G36*
X0128Y0059D02*
X01265D01*
X01266Y00587*
X0127Y0058*
X01277Y00576*
X0128Y00575*
Y0059*
G37*
G36*
X00504Y006D02*
X0049D01*
Y00585*
X00492Y00586*
X00499Y0059*
X00503Y00597*
X00504Y006*
G37*
G36*
X0048D02*
X00465D01*
X00466Y00597*
X0047Y0059*
X00477Y00586*
X0048Y00585*
Y006*
G37*
G36*
X01555Y00604D02*
X01552Y00603D01*
X01545Y00599*
X01542Y00594*
X01465*
X01462Y00593*
X0146Y00594*
Y00575*
Y00555*
X01462Y00556*
X01469Y0056*
X01473Y00567*
X01475Y00575*
X01475Y00575*
X01542*
X01545Y0057*
X01552Y00566*
X01555Y00565*
Y00585*
Y00604*
G37*
G36*
X01565D02*
Y0059D01*
X01579*
X01578Y00592*
X01574Y00599*
X01567Y00603*
X01565Y00604*
G37*
G36*
X0145Y00594D02*
X01447Y00593D01*
X0144Y00589*
X01436Y00582*
X01435Y0058*
X0145*
Y00594*
G37*
G36*
X01304Y0059D02*
X0129D01*
Y00575*
X01292Y00576*
X01299Y0058*
X01303Y00587*
X01304Y0059*
G37*
G36*
X02185Y00594D02*
Y0058D01*
X02199*
X02198Y00582*
X02194Y00589*
X02187Y00593*
X02185Y00594*
G37*
G36*
X02175D02*
X02172Y00593D01*
X02165Y00589*
X02161Y00582*
X0216Y0058*
X02175*
Y00594*
G37*
G36*
X006Y00639D02*
Y00625D01*
X00614*
X00613Y00627*
X00609Y00634*
X00602Y00638*
X006Y00639*
G37*
G36*
X00635Y00724D02*
Y0071D01*
X00649*
X00648Y00712*
X00644Y00719*
X00637Y00723*
X00635Y00724*
G37*
G36*
X00625D02*
X00622Y00723D01*
X00615Y00719*
X00611Y00712*
X0061Y0071*
X00625*
Y00724*
G37*
G36*
X00169Y0073D02*
X00155D01*
Y00715*
X00157Y00716*
X00164Y0072*
X00168Y00727*
X00169Y0073*
G37*
G36*
X00145D02*
X0013D01*
X00131Y00727*
X00135Y0072*
X00142Y00716*
X00145Y00715*
Y0073*
G37*
G36*
X00325Y00714D02*
Y007D01*
X00339*
X00338Y00702*
X00334Y00709*
X00327Y00713*
X00325Y00714*
G37*
G36*
X00315D02*
X00312Y00713D01*
X00305Y00709*
X00301Y00702*
X003Y007*
X00315*
Y00714*
G37*
G36*
X0045Y00719D02*
Y00705D01*
X00464*
X00463Y00707*
X00459Y00714*
X00452Y00718*
X0045Y00719*
G37*
G36*
X0044D02*
X00437Y00718D01*
X0043Y00714*
X00426Y00707*
X00425Y00705*
X0044*
Y00719*
G37*
G36*
X01115Y0074D02*
X011D01*
X01101Y00737*
X01105Y0073*
X01112Y00726*
X01115Y00725*
Y0074*
G37*
G36*
X00815Y00755D02*
X008D01*
X00801Y00752*
X00805Y00745*
X00812Y00741*
X00815Y0074*
Y00755*
G37*
G36*
X00155Y00754D02*
Y0074D01*
X00169*
X00168Y00742*
X00164Y00749*
X00157Y00753*
X00155Y00754*
G37*
G36*
X01025Y00755D02*
X0101D01*
X01011Y00752*
X01015Y00745*
X01022Y00741*
X01025Y0074*
Y00755*
G37*
G36*
X00839D02*
X00825D01*
Y0074*
X00827Y00741*
X00834Y00745*
X00838Y00752*
X00839Y00755*
G37*
G36*
X0146Y00745D02*
X01445D01*
X01446Y00742*
X0145Y00735*
X01457Y00731*
X0146Y0073*
Y00745*
G37*
G36*
X01139Y0074D02*
X01125D01*
Y00725*
X01127Y00726*
X01134Y0073*
X01138Y00737*
X01139Y0074*
G37*
G36*
X00145Y00754D02*
X00142Y00753D01*
X00135Y00749*
X00131Y00742*
X0013Y0074*
X00145*
Y00754*
G37*
G36*
X01484Y00745D02*
X0147D01*
Y0073*
X01472Y00731*
X01479Y00735*
X01483Y00742*
X01484Y00745*
G37*
G36*
X00165Y00674D02*
X00162Y00673D01*
X00155Y00669*
X00151Y00662*
X0015Y0066*
X00165*
Y00674*
G37*
G36*
X0056Y00659D02*
X00557Y00658D01*
X0055Y00654*
X00546Y00647*
X00545Y00645*
X0056*
Y00659*
G37*
G36*
X01195Y0068D02*
X0118D01*
X01181Y00677*
X01185Y0067*
X01192Y00666*
X01195Y00665*
Y0068*
G37*
G36*
X00175Y00674D02*
Y0066D01*
X00189*
X00188Y00662*
X00184Y00669*
X00177Y00673*
X00175Y00674*
G37*
G36*
X00665Y00639D02*
Y00625D01*
X00679*
X00678Y00627*
X00674Y00634*
X00667Y00638*
X00665Y00639*
G37*
G36*
X00655D02*
X00652Y00638D01*
X00645Y00634*
X00641Y00627*
X0064Y00625*
X00655*
Y00639*
G37*
G36*
X00189Y0065D02*
X00175D01*
Y00635*
X00177Y00636*
X00184Y0064*
X00188Y00647*
X00189Y0065*
G37*
G36*
X00165D02*
X0015D01*
X00151Y00647*
X00155Y0064*
X00162Y00636*
X00165Y00635*
Y0065*
G37*
G36*
X01219Y0068D02*
X01205D01*
Y00665*
X01207Y00666*
X01214Y0067*
X01218Y00677*
X01219Y0068*
G37*
G36*
X00649Y007D02*
X00635D01*
Y00685*
X00637Y00686*
X00644Y0069*
X00648Y00697*
X00649Y007*
G37*
G36*
X00625D02*
X0061D01*
X00611Y00697*
X00615Y0069*
X00622Y00686*
X00625Y00685*
Y007*
G37*
G36*
X01205Y00704D02*
Y0069D01*
X01219*
X01218Y00692*
X01214Y00699*
X01207Y00703*
X01205Y00704*
G37*
G36*
X01195D02*
X01192Y00703D01*
X01185Y00699*
X01181Y00692*
X0118Y0069*
X01195*
Y00704*
G37*
G36*
X00339Y0069D02*
X00325D01*
Y00675*
X00327Y00676*
X00334Y0068*
X00338Y00687*
X00339Y0069*
G37*
G36*
X00315D02*
X003D01*
X00301Y00687*
X00305Y0068*
X00312Y00676*
X00315Y00675*
Y0069*
G37*
G36*
X00464Y00695D02*
X0045D01*
Y0068*
X00452Y00681*
X00459Y00685*
X00463Y00692*
X00464Y00695*
G37*
G36*
X0044D02*
X00425D01*
X00426Y00692*
X0043Y00685*
X00437Y00681*
X0044Y0068*
Y00695*
G37*
G36*
X01765Y0166D02*
X0175D01*
X01751Y01657*
X01755Y0165*
X01762Y01646*
X01765Y01645*
Y0166*
G37*
G36*
X008Y01634D02*
Y0162D01*
X00814*
X00813Y01622*
X00809Y01629*
X00802Y01633*
X008Y01634*
G37*
G36*
X0133Y0167D02*
X01315D01*
X01316Y01667*
X0132Y0166*
X01327Y01656*
X0133Y01655*
Y0167*
G37*
G36*
X01789Y0166D02*
X01775D01*
Y01645*
X01777Y01646*
X01784Y0165*
X01788Y01657*
X01789Y0166*
G37*
G36*
X0079Y01634D02*
X00787Y01633D01*
X0078Y01629*
X00776Y01622*
X00775Y0162*
X0079*
Y01634*
G37*
G36*
X00814Y0161D02*
X008D01*
Y01595*
X00802Y01596*
X00809Y016*
X00813Y01607*
X00814Y0161*
G37*
G36*
X0079D02*
X00775D01*
X00776Y01607*
X0078Y016*
X00787Y01596*
X0079Y01595*
Y0161*
G37*
G36*
X0142Y01619D02*
Y01605D01*
X01434*
X01433Y01607*
X01429Y01614*
X01422Y01618*
X0142Y01619*
G37*
G36*
X0141D02*
X01407Y01618D01*
X014Y01614*
X01396Y01607*
X01395Y01605*
X0141*
Y01619*
G37*
G36*
X01234Y01695D02*
X0122D01*
Y0168*
X01222Y01681*
X01229Y01685*
X01233Y01692*
X01234Y01695*
G37*
G36*
X0121D02*
X01195D01*
X01196Y01692*
X012Y01685*
X01207Y01681*
X0121Y0168*
Y01695*
G37*
G36*
Y01719D02*
X01207Y01718D01*
X012Y01714*
X01196Y01707*
X01195Y01705*
X0121*
Y01719*
G37*
G36*
X00728Y01788D02*
X00621D01*
Y01681*
X00728*
Y01788*
G37*
G36*
X0134Y01694D02*
Y0168D01*
X01354*
X01353Y01682*
X01349Y01689*
X01342Y01693*
X0134Y01694*
G37*
G36*
X01765Y01684D02*
X01762Y01683D01*
X01755Y01679*
X01751Y01672*
X0175Y0167*
X01765*
Y01684*
G37*
G36*
X01354Y0167D02*
X0134D01*
Y01655*
X01342Y01656*
X01349Y0166*
X01353Y01667*
X01354Y0167*
G37*
G36*
X0133Y01694D02*
X01327Y01693D01*
X0132Y01689*
X01316Y01682*
X01315Y0168*
X0133*
Y01694*
G37*
G36*
X01775Y01684D02*
Y0167D01*
X01789*
X01788Y01672*
X01784Y01679*
X01777Y01683*
X01775Y01684*
G37*
G36*
X01205Y01609D02*
Y01595D01*
X01219*
X01218Y01597*
X01214Y01604*
X01207Y01608*
X01205Y01609*
G37*
G36*
X0009Y01515D02*
X00075D01*
X00076Y01512*
X0008Y01505*
X00087Y01501*
X0009Y015*
Y01515*
G37*
G36*
X01105Y01639D02*
X01099Y01638D01*
X01095Y01634*
X01091Y0163*
X0109Y01625*
X01091Y01624*
X00933Y01466*
X00929Y01468*
Y0153*
Y01589*
X00929Y0159*
X00933Y01594*
X00934Y016*
X00933Y01605*
X00929Y01609*
X00925Y01613*
X0092Y01614*
X00914Y01613*
X0091Y01609*
X00906Y01605*
X00905Y016*
X00906Y01594*
X0091Y0159*
X0091Y01589*
Y01539*
X0087*
X00867Y01539*
X00864Y01537*
X0085Y01523*
X0085Y01524*
X00844Y01523*
X0084Y01519*
X00839Y01518*
X00834Y0152*
Y01527*
X00839Y0153*
X00843Y01537*
X00844Y0154*
X00805*
X00806Y01537*
X0081Y0153*
X00815Y01527*
Y0147*
X0081Y01467*
X0081Y01468*
X00805Y01469*
X00799Y01468*
X00795Y01464*
X00794Y01464*
X0077*
X00766Y01463*
X00763Y01461*
X00732Y0143*
X00728Y01433*
Y01436*
Y01538*
X00621*
Y01431*
X00723*
X00726*
X00729Y01427*
X00368Y01066*
X00366Y01066*
X00363Y01068*
X00359Y01074*
X00352Y01078*
X0035Y01079*
Y0106*
X00345*
Y01055*
X00325*
X00326Y01052*
X0033Y01045*
X00336Y01041*
X00337Y0104*
X00338Y01036*
X00316Y01014*
X0026*
X00259Y01014*
X00255Y01018*
X0025Y01019*
X00244Y01018*
X0024Y01014*
X00239Y01014*
X0019*
X00186Y01013*
X00183Y01011*
X00153Y00981*
X00151Y00978*
X0015Y00975*
Y009*
X00151Y00896*
X00153Y00893*
X00166Y0088*
Y00786*
X00273*
Y00893*
X00179*
X00169Y00903*
Y00971*
X00193Y00995*
X00239*
X0024Y00995*
X00244Y00991*
X0025Y0099*
X00255Y00991*
X00259Y00995*
X0026Y00995*
X0032*
X00323Y00996*
X00326Y00998*
X00372Y01044*
X00373Y01045*
X00695Y01367*
X007Y01365*
X00701Y01362*
X00705Y01355*
X00712Y01351*
X00715Y0135*
Y0137*
X00725*
Y0135*
X00727Y01351*
X00734Y01355*
X00737Y0136*
X0075*
X00753Y01361*
X00756Y01363*
X0083Y01437*
X00833Y01437*
X00835Y01436*
Y01368*
X0049Y01023*
X0049Y01024*
X00484Y01023*
X0048Y01019*
X00476Y01015*
X00475Y0101*
X00476Y01009*
X00383Y00916*
X00381Y00913*
X0038Y0091*
Y00893*
X00336*
Y00786*
X00443*
Y00893*
X00399*
Y00906*
X00489Y00996*
X0049Y00995*
X00495Y00996*
X00499Y01*
X00503Y01004*
X00504Y0101*
X00503Y0101*
X00851Y01358*
X00853Y01361*
X00854Y01365*
Y01464*
X00854Y01465*
X00858Y01469*
X00859Y01475*
X00858Y0148*
X00854Y01484*
X0085Y01488*
X00845Y01489*
X00839Y01488*
X00839Y01487*
X00834Y0149*
Y01499*
X00839Y01501*
X0084Y015*
X00844Y01496*
X0085Y01495*
X00855Y01496*
X00859Y015*
X00863Y01504*
X00864Y0151*
X00863Y0151*
X00874Y01521*
X0091*
Y01465*
X00888Y01442*
X00886Y01439*
X00885Y01436*
Y01345*
X00885Y01344*
X00881Y0134*
X0088Y01335*
X00881Y01334*
X00868Y01321*
X00866Y01318*
X00865Y01315*
Y0124*
X00866Y01236*
X00868Y01233*
X00888Y01213*
X00891Y01211*
X00895Y0121*
X01204*
X01205Y0121*
X01209Y01206*
X01215Y01205*
X0122Y01206*
X01224Y0121*
X01228Y01214*
X01229Y0122*
X01228Y0122*
X01296Y01288*
X01298Y01291*
X01299Y01295*
Y01359*
X01299Y0136*
X01303Y01364*
X01304Y0137*
X01303Y01375*
X01299Y01379*
X01295Y01383*
X0129Y01384*
X01284Y01383*
X0128Y01379*
X01276Y01375*
X01275Y0137*
X01276Y01364*
X0128Y0136*
X0128Y01359*
Y01298*
X01215Y01233*
X01215Y01234*
X01209Y01233*
X01205Y01229*
X01204Y01229*
X00898*
X00884Y01243*
Y01295*
X00889Y01297*
X0089Y01296*
Y01265*
X00891Y01261*
X00893Y01258*
X00896Y01255*
X00895Y01255*
X00896Y01249*
X009Y01245*
X00904Y01241*
X0091Y0124*
X00915Y01241*
X00919Y01245*
X00923Y01249*
X00924Y01255*
X00923Y0126*
X00919Y01264*
X00915Y01268*
X0091Y01269*
X00909Y01269*
Y01299*
X00909Y013*
X00913Y01304*
X00914Y0131*
X00913Y0131*
X00926Y01323*
X00928Y01326*
X00929Y0133*
Y01436*
X01104Y01611*
X01105Y0161*
X0111Y01611*
X01114Y01615*
X01118Y01619*
X01119Y01625*
X01118Y0163*
X01114Y01634*
X0111Y01638*
X01105Y01639*
G37*
G36*
X0009Y01539D02*
X00087Y01538D01*
X0008Y01534*
X00076Y01527*
X00075Y01525*
X0009*
Y01539*
G37*
G36*
X00114Y01515D02*
X001D01*
Y015*
X00102Y01501*
X00109Y01505*
X00113Y01512*
X00114Y01515*
G37*
G36*
X01315Y01464D02*
X01312Y01463D01*
X01305Y01459*
X01302Y01454*
X01187*
X01184Y01459*
X01177Y01463*
X01175Y01464*
Y01445*
Y01425*
X01177Y01426*
X01184Y0143*
X01187Y01435*
X01302*
X01305Y0143*
X01312Y01426*
X01315Y01425*
Y01445*
Y01464*
G37*
G36*
X0052Y01454D02*
Y0144D01*
X00534*
X00533Y01442*
X00529Y01449*
X00522Y01453*
X0052Y01454*
G37*
G36*
X0051D02*
X00507Y01453D01*
X005Y01449*
X00496Y01442*
X00495Y0144*
X0051*
Y01454*
G37*
G36*
X01325Y01464D02*
Y0145D01*
X01339*
X01338Y01452*
X01334Y01459*
X01327Y01463*
X01325Y01464*
G37*
G36*
X01165D02*
X01162Y01463D01*
X01155Y01459*
X01151Y01452*
X0115Y0145*
X01165*
Y01464*
G37*
G36*
X0141Y01595D02*
X01395D01*
X01396Y01592*
X014Y01585*
X01407Y01581*
X0141Y0158*
Y01595*
G37*
G36*
X01219Y01585D02*
X01205D01*
Y0157*
X01207Y01571*
X01214Y01575*
X01218Y01582*
X01219Y01585*
G37*
G36*
X01195Y01609D02*
X01192Y01608D01*
X01185Y01604*
X01181Y01597*
X0118Y01595*
X01195*
Y01609*
G37*
G36*
X01434Y01595D02*
X0142D01*
Y0158*
X01422Y01581*
X01429Y01585*
X01433Y01592*
X01434Y01595*
G37*
G36*
X01195Y01585D02*
X0118D01*
X01181Y01582*
X01185Y01575*
X01192Y01571*
X01195Y0157*
Y01585*
G37*
G36*
X0082Y01564D02*
X00817Y01563D01*
X0081Y01559*
X00806Y01552*
X00805Y0155*
X0082*
Y01564*
G37*
G36*
X001Y01539D02*
Y01525D01*
X00114*
X00113Y01527*
X00109Y01534*
X00102Y01538*
X001Y01539*
G37*
G36*
X00728Y01663D02*
X00621D01*
Y01556*
X00728*
Y01663*
G37*
G36*
X0083Y01564D02*
Y0155D01*
X00844*
X00843Y01552*
X00839Y01559*
X00832Y01563*
X0083Y01564*
G37*
G36*
X01425Y01749D02*
Y01735D01*
X01439*
X01438Y01737*
X01434Y01744*
X01427Y01748*
X01425Y01749*
G37*
G36*
X01415D02*
X01412Y01748D01*
X01405Y01744*
X01401Y01737*
X014Y01735*
X01415*
Y01749*
G37*
G36*
X00999Y0175D02*
X00985D01*
Y01735*
X00987Y01736*
X00994Y0174*
X00998Y01747*
X00999Y0175*
G37*
G36*
X00975D02*
X0096D01*
X00961Y01747*
X00965Y0174*
X00972Y01736*
X00975Y01735*
Y0175*
G37*
G36*
X00864Y01735D02*
X0085D01*
Y0172*
X00852Y01721*
X00859Y01725*
X00863Y01732*
X00864Y01735*
G37*
G36*
X01415Y01725D02*
X014D01*
X01401Y01722*
X01405Y01715*
X01412Y01711*
X01415Y0171*
Y01725*
G37*
G36*
X0122Y01719D02*
Y01705D01*
X01234*
X01233Y01707*
X01229Y01714*
X01222Y01718*
X0122Y01719*
G37*
G36*
X0084Y01735D02*
X00825D01*
X00826Y01732*
X0083Y01725*
X00837Y01721*
X0084Y0172*
Y01735*
G37*
G36*
X01439Y01725D02*
X01425D01*
Y0171*
X01427Y01711*
X01434Y01715*
X01438Y01722*
X01439Y01725*
G37*
G36*
X0085Y01759D02*
Y01745D01*
X00864*
X00863Y01747*
X00859Y01754*
X00852Y01758*
X0085Y01759*
G37*
G36*
X0084D02*
X00837Y01758D01*
X0083Y01754*
X00826Y01747*
X00825Y01745*
X0084*
Y01759*
G37*
G36*
X00985Y01774D02*
Y0176D01*
X00999*
X00998Y01762*
X00994Y01769*
X00987Y01773*
X00985Y01774*
G37*
G36*
X00975D02*
X00972Y01773D01*
X00965Y01769*
X00961Y01762*
X0096Y0176*
X00975*
Y01774*
G37*
G36*
X01339Y0144D02*
X01325D01*
Y01425*
X01327Y01426*
X01334Y0143*
X01338Y01437*
X01339Y0144*
G37*
G36*
X0219Y01069D02*
X02187Y01068D01*
X0218Y01064*
X02176Y01057*
X02175Y01055*
X0219*
Y01069*
G37*
G36*
X00105D02*
X00102Y01068D01*
X00095Y01064*
X00091Y01057*
X0009Y01055*
X00105*
Y01069*
G37*
G36*
X0034Y01079D02*
X00337Y01078D01*
X0033Y01074*
X00326Y01067*
X00325Y01065*
X0034*
Y01079*
G37*
G36*
X022Y01069D02*
Y01055D01*
X02214*
X02213Y01057*
X02209Y01064*
X02202Y01068*
X022Y01069*
G37*
G36*
X00735Y01064D02*
Y0105D01*
X00749*
X00748Y01052*
X00744Y01059*
X00737Y01063*
X00735Y01064*
G37*
G36*
X00625Y0106D02*
X0061D01*
X00611Y01057*
X00615Y0105*
X00622Y01046*
X00625Y01045*
Y0106*
G37*
G36*
X00835Y01055D02*
X0082D01*
X00821Y01052*
X00825Y01045*
X00832Y01041*
X00835Y0104*
Y01055*
G37*
G36*
X00725Y01064D02*
X00722Y01063D01*
X00715Y01059*
X00711Y01052*
X0071Y0105*
X00725*
Y01064*
G37*
G36*
X00649Y0106D02*
X00635D01*
Y01045*
X00637Y01046*
X00644Y0105*
X00648Y01057*
X00649Y0106*
G37*
G36*
X00754Y01135D02*
X0074D01*
Y0112*
X00742Y01121*
X00749Y01125*
X00753Y01132*
X00754Y01135*
G37*
G36*
X0073D02*
X00715D01*
X00716Y01132*
X0072Y01125*
X00727Y01121*
X0073Y0112*
Y01135*
G37*
G36*
X01085Y01199D02*
X01079Y01198D01*
X01075Y01194*
X01071Y0119*
X0107Y01185*
X01071Y01179*
X01075Y01175*
X01075Y01174*
Y0114*
X0107Y01137*
X0107Y01138*
X01065Y01139*
X01059Y01138*
X01055Y01134*
X01054Y01134*
X00978*
X00928Y01184*
X00929Y01185*
X00928Y0119*
X00924Y01194*
X0092Y01198*
X00915Y01199*
X00909Y01198*
X00905Y01194*
X00901Y0119*
X009Y01185*
X00901Y01179*
X00905Y01175*
X00909Y01171*
X00915Y0117*
X00915Y01171*
X00968Y01118*
X00971Y01116*
X00975Y01115*
X01054*
X01055Y01115*
X01059Y01111*
X01065Y0111*
X0107Y01111*
X0107Y01112*
X01075Y01109*
Y01104*
X0107Y01101*
X01067Y01103*
X01065Y01104*
Y01085*
X01055*
Y01104*
X01052Y01103*
X01045Y01099*
X01042Y01094*
X00903*
X00859Y01138*
X00859Y0114*
X0082*
X00821Y01137*
X00825Y0113*
X0083Y01127*
Y01077*
X00825Y01074*
X00821Y01067*
X0082Y01065*
X00859*
X00858Y01067*
X00854Y01074*
X00849Y01077*
Y01116*
X00853Y01118*
X00893Y01078*
X00896Y01076*
X009Y01075*
X01042*
X01045Y0107*
X01052Y01066*
X01054Y0106*
X01052Y01058*
X01049Y01058*
X01045Y01054*
X01041Y0105*
X0104Y01045*
X01041Y01039*
X01045Y01035*
X01049Y01031*
X01055Y0103*
X0106Y01031*
X01064Y01035*
X01068Y01039*
X01069Y01045*
X01068Y01045*
X01091Y01068*
X01093Y01071*
X01094Y01075*
Y01174*
X01094Y01175*
X01098Y01179*
X01099Y01185*
X01098Y0119*
X01094Y01194*
X0109Y01198*
X01085Y01199*
G37*
G36*
X0058Y01154D02*
X00574Y01153D01*
X0057Y01149*
X00566Y01145*
X00565Y0114*
X00566Y01139*
X00509Y01082*
X00504Y01079*
X005Y01083*
X00495Y01084*
X00489Y01083*
X00485Y01079*
X00481Y01075*
X0048Y0107*
X00481Y01064*
X00485Y0106*
X00489Y01056*
X00495Y01055*
X005Y01056*
X00504Y0106*
X00505Y0106*
X0051*
X00513Y01061*
X00516Y01063*
X00579Y01126*
X0058Y01125*
X00585Y01126*
X00589Y0113*
X00593Y01134*
X00594Y0114*
X00593Y01145*
X00589Y01149*
X00585Y01153*
X0058Y01154*
G37*
G36*
X01514Y0113D02*
X015D01*
Y01115*
X01502Y01116*
X01509Y0112*
X01513Y01127*
X01514Y0113*
G37*
G36*
X00635Y01084D02*
Y0107D01*
X00649*
X00648Y01072*
X00644Y01079*
X00637Y01083*
X00635Y01084*
G37*
G36*
X00625D02*
X00622Y01083D01*
X00615Y01079*
X00611Y01072*
X0061Y0107*
X00625*
Y01084*
G37*
G36*
X0149Y0113D02*
X01475D01*
X01476Y01127*
X0148Y0112*
X01487Y01116*
X0149Y01115*
Y0113*
G37*
G36*
X0019Y01104D02*
X00184Y01103D01*
X0018Y01099*
X00176Y01095*
X00175Y0109*
X00176Y01089*
X00134Y01047*
X00131Y01049*
X0013Y0105*
X00128Y01057*
X00124Y01064*
X00117Y01068*
X00115Y01069*
Y0105*
X0011*
Y01045*
X0009*
X00091Y01042*
X00095Y01035*
X00102Y01031*
X00109Y01029*
X0011Y01028*
X00112Y01025*
X00083Y00996*
X00081Y00993*
X0008Y0099*
Y00893*
X00036*
Y00786*
X00143*
Y00893*
X00099*
Y00986*
X00189Y01076*
X0019Y01075*
X00195Y01076*
X00199Y0108*
X00203Y01084*
X00204Y0109*
X00203Y01095*
X00199Y01099*
X00195Y01103*
X0019Y01104*
G37*
G36*
X02214Y01045D02*
X022D01*
Y0103*
X02202Y01031*
X02209Y01035*
X02213Y01042*
X02214Y01045*
G37*
G36*
X00409Y01D02*
X00395D01*
Y00985*
X00397Y00986*
X00404Y0099*
X00408Y00997*
X00409Y01*
G37*
G36*
X00729Y00995D02*
X00715D01*
Y0098*
X00717Y00981*
X00724Y00985*
X00728Y00992*
X00729Y00995*
G37*
G36*
X006Y01004D02*
Y0099D01*
X00614*
X00613Y00992*
X00609Y00999*
X00602Y01003*
X006Y01004*
G37*
G36*
X0059D02*
X00587Y01003D01*
X0058Y00999*
X00576Y00992*
X00575Y0099*
X0059*
Y01004*
G37*
G36*
X00705Y00995D02*
X0069D01*
X00691Y00992*
X00695Y00985*
X00702Y00981*
X00705Y0098*
Y00995*
G37*
G36*
X0149Y0099D02*
X01475D01*
X01476Y00987*
X0148Y0098*
X01487Y00976*
X0149Y00975*
Y0099*
G37*
G36*
X002Y00989D02*
X00197Y00988D01*
X0019Y00984*
X00186Y00977*
X00185Y00975*
X002*
Y00989*
G37*
G36*
X00385Y01D02*
X0037D01*
X0037Y00998*
X00351Y00979*
X00222*
X00219Y00984*
X00212Y00988*
X0021Y00989*
Y0097*
Y0095*
X00212Y00951*
X00219Y00955*
X00222Y0096*
X00355*
X00358Y00961*
X00361Y00963*
X00383Y00985*
X00385Y00985*
Y01*
G37*
G36*
X01514Y0099D02*
X015D01*
Y00975*
X01502Y00976*
X01509Y0098*
X01513Y00987*
X01514Y0099*
G37*
G36*
X00725Y0104D02*
X0071D01*
X00711Y01037*
X00715Y0103*
X00722Y01026*
X00725Y01025*
Y0104*
G37*
G36*
X00385Y01024D02*
X00382Y01023D01*
X00375Y01019*
X00371Y01012*
X0037Y0101*
X00385*
Y01024*
G37*
G36*
X0219Y01045D02*
X02175D01*
X02176Y01042*
X0218Y01035*
X02187Y01031*
X0219Y0103*
Y01045*
G37*
G36*
X00749Y0104D02*
X00735D01*
Y01025*
X00737Y01026*
X00744Y0103*
X00748Y01037*
X00749Y0104*
G37*
G36*
X00715Y01019D02*
Y01005D01*
X00729*
X00728Y01007*
X00724Y01014*
X00717Y01018*
X00715Y01019*
G37*
G36*
X0149Y01014D02*
X01487Y01013D01*
X0148Y01009*
X01476Y01002*
X01475Y01*
X0149*
Y01014*
G37*
G36*
X01798Y01058D02*
X01731D01*
Y00991*
X01798*
Y01058*
G37*
G36*
X00705Y01019D02*
X00702Y01018D01*
X00695Y01014*
X00691Y01007*
X0069Y01005*
X00705*
Y01019*
G37*
G36*
X015Y01014D02*
Y01D01*
X01514*
X01513Y01002*
X01509Y01009*
X01502Y01013*
X015Y01014*
G37*
G36*
X0216Y01329D02*
Y01315D01*
X02174*
X02173Y01317*
X02169Y01324*
X02162Y01328*
X0216Y01329*
G37*
G36*
X0215D02*
X02147Y01328D01*
X0214Y01324*
X02136Y01317*
X02135Y01315*
X0215*
Y01329*
G37*
G36*
X00619Y01385D02*
X00605D01*
Y0137*
X00607Y01371*
X00614Y01375*
X00618Y01382*
X00619Y01385*
G37*
G36*
X00595D02*
X0058D01*
X00581Y01382*
X00585Y01375*
X00592Y01371*
X00595Y0137*
Y01385*
G37*
G36*
X02174Y01305D02*
X0216D01*
Y0129*
X02162Y01291*
X02169Y01295*
X02173Y01302*
X02174Y01305*
G37*
G36*
X0141Y01234D02*
X01407Y01233D01*
X014Y01229*
X01396Y01222*
X01395Y0122*
X0141*
Y01234*
G37*
G36*
X0062Y01224D02*
Y0121D01*
X00634*
X00633Y01212*
X00629Y01219*
X00622Y01223*
X0062Y01224*
G37*
G36*
X0215Y01305D02*
X02135D01*
X02136Y01302*
X0214Y01295*
X02147Y01291*
X0215Y0129*
Y01305*
G37*
G36*
X0142Y01234D02*
Y0122D01*
X01434*
X01433Y01222*
X01429Y01229*
X01422Y01233*
X0142Y01234*
G37*
G36*
X0051Y0143D02*
X00495D01*
X00496Y01427*
X005Y0142*
X00507Y01416*
X0051Y01415*
Y0143*
G37*
G36*
X01815Y01419D02*
Y01405D01*
X01829*
X01828Y01407*
X01824Y01414*
X01817Y01418*
X01815Y01419*
G37*
G36*
X01165Y0144D02*
X0115D01*
X01151Y01437*
X01155Y0143*
X01162Y01426*
X01165Y01425*
Y0144*
G37*
G36*
X00534Y0143D02*
X0052D01*
Y01415*
X00522Y01416*
X00529Y0142*
X00533Y01427*
X00534Y0143*
G37*
G36*
X01805Y01419D02*
X01802Y01418D01*
X01795Y01414*
X01791Y01407*
X0179Y01405*
X01805*
Y01419*
G37*
G36*
X01829Y01395D02*
X01815D01*
Y0138*
X01817Y01381*
X01824Y01385*
X01828Y01392*
X01829Y01395*
G37*
G36*
X01805D02*
X0179D01*
X01791Y01392*
X01795Y01385*
X01802Y01381*
X01805Y0138*
Y01395*
G37*
G36*
X00605Y01409D02*
Y01395D01*
X00619*
X00618Y01397*
X00614Y01404*
X00607Y01408*
X00605Y01409*
G37*
G36*
X00595D02*
X00592Y01408D01*
X00585Y01404*
X00581Y01397*
X0058Y01395*
X00595*
Y01409*
G37*
G36*
X01434Y0121D02*
X0142D01*
Y01195*
X01422Y01196*
X01429Y012*
X01433Y01207*
X01434Y0121*
G37*
G36*
X00835Y01164D02*
X00832Y01163D01*
X00825Y01159*
X00821Y01152*
X0082Y0115*
X00835*
Y01164*
G37*
G36*
X0074Y01159D02*
Y01145D01*
X00754*
X00753Y01147*
X00749Y01154*
X00742Y01158*
X0074Y01159*
G37*
G36*
X01305Y01175D02*
X0129D01*
X01291Y01172*
X01295Y01165*
X01302Y01161*
X01305Y0116*
Y01175*
G37*
G36*
X00845Y01164D02*
Y0115D01*
X00859*
X00858Y01152*
X00854Y01159*
X00847Y01163*
X00845Y01164*
G37*
G36*
X0073Y01159D02*
X00727Y01158D01*
X0072Y01154*
X00716Y01147*
X00715Y01145*
X0073*
Y01159*
G37*
G36*
X015Y01154D02*
Y0114D01*
X01514*
X01513Y01142*
X01509Y01149*
X01502Y01153*
X015Y01154*
G37*
G36*
X0149D02*
X01487Y01153D01*
X0148Y01149*
X01476Y01142*
X01475Y0114*
X0149*
Y01154*
G37*
G36*
X01189Y01155D02*
X01175D01*
Y0114*
X01177Y01141*
X01184Y01145*
X01188Y01152*
X01189Y01155*
G37*
G36*
X01165D02*
X0115D01*
X01151Y01152*
X01155Y01145*
X01162Y01141*
X01165Y0114*
Y01155*
G37*
G36*
X00634Y012D02*
X0062D01*
Y01185*
X00622Y01186*
X00629Y0119*
X00633Y01197*
X00634Y012*
G37*
G36*
X0061Y01224D02*
X00607Y01223D01*
X006Y01219*
X00597Y01214*
X0059*
X00586Y01213*
X00583Y01211*
X00396Y01024*
X00395Y01024*
Y0101*
X00409*
X00409Y01011*
X00592Y01194*
X00598Y01194*
X006Y0119*
X00607Y01186*
X0061Y01185*
Y01205*
Y01224*
G37*
G36*
X0141Y0121D02*
X01395D01*
X01396Y01207*
X014Y012*
X01407Y01196*
X0141Y01195*
Y0121*
G37*
G36*
X01765Y01258D02*
X01756Y01257D01*
X01748Y01254*
X01741Y01248*
X01735Y01241*
X01732Y01233*
X01731Y01225*
X01732Y01216*
X01735Y01208*
X01741Y01201*
X01748Y01195*
X01756Y01192*
X01765Y01191*
X01773Y01192*
X01781Y01195*
X01788Y01201*
X01794Y01208*
X01797Y01216*
X01798Y01225*
X01797Y01233*
X01794Y01241*
X01788Y01248*
X01781Y01254*
X01773Y01257*
X01765Y01258*
G37*
G36*
X01315Y01199D02*
Y01185D01*
X01329*
X01328Y01187*
X01324Y01194*
X01317Y01198*
X01315Y01199*
G37*
G36*
X01165Y01179D02*
X01162Y01178D01*
X01155Y01174*
X01151Y01167*
X0115Y01165*
X01165*
Y01179*
G37*
G36*
X01329Y01175D02*
X01315D01*
Y0116*
X01317Y01161*
X01324Y01165*
X01328Y01172*
X01329Y01175*
G37*
G36*
X01305Y01199D02*
X01302Y01198D01*
X01295Y01194*
X01291Y01187*
X0129Y01185*
X01305*
Y01199*
G37*
G36*
X01175Y01179D02*
Y01165D01*
X01189*
X01188Y01167*
X01184Y01174*
X01177Y01178*
X01175Y01179*
G37*
%LNheadband-pcb-3*%
%LPD*%
G54D43*
X0117Y01445D02*
X0132D01*
X0084Y0106D02*
Y01145D01*
Y0106D02*
X00995Y00905D01*
X01455Y00575D02*
X01465Y00585D01*
X0156*
X0169Y01855D02*
X01745Y0191D01*
X016Y01855D02*
X0169D01*
X00915Y01185D02*
X00975Y01125D01*
X01065*
X01215Y0122D02*
X0129Y01295D01*
Y0137*
X00875Y01315D02*
X00895Y01335D01*
X00875Y0124D02*
Y01315D01*
Y0124D02*
X00895Y0122D01*
X01215*
X00895Y01335D02*
Y01436D01*
X0092Y01461*
Y0153D02*
Y016D01*
Y01461D02*
Y0153D01*
X0085Y0151D02*
X0087Y0153D01*
X0092*
X00825Y01445D02*
Y01545D01*
X0075Y0137D02*
X00825Y01445D01*
X0072Y0137D02*
X0075D01*
X0084Y01145D02*
X009Y01085D01*
X0106*
X00355Y0097D02*
X0039Y01005D01*
X00205Y0097D02*
X00355D01*
X0016Y02085D02*
X0021Y02035D01*
X0025*
X00305Y0209*
X0031*
X0016Y02085D02*
Y02345D01*
X0045Y021D02*
X0046Y0211D01*
X0045Y0198D02*
Y021D01*
Y0198D02*
X0052Y0191D01*
X00675*
X01875Y02005D02*
X0191Y0197D01*
X0184Y02005D02*
X01875D01*
X0194Y01905D02*
X0195D01*
X0184D02*
X0194D01*
X01665Y0208D02*
X0184Y01905D01*
X0137Y0213D02*
X014Y0216D01*
X0137Y02105D02*
Y0213D01*
X0133Y02065D02*
Y0218D01*
X0031Y0209D02*
X004D01*
X0043Y0206*
X01455Y02045D02*
X01555D01*
X01745Y0191D02*
Y01955D01*
X00535Y0194D02*
X00595D01*
X00615Y0196*
X01085Y01075D02*
Y01185D01*
X01055Y01045D02*
X01085Y01075D01*
X0016Y009D02*
X0022Y0084D01*
X0016Y009D02*
Y00975D01*
X0019Y01005*
X0025*
X0039Y0084D02*
Y0091D01*
X0049Y0101*
X0009Y0084D02*
Y0099D01*
X0019Y0109*
X0077Y01455D02*
X00805D01*
X00366Y01051D02*
Y01051D01*
X0077Y01455*
X0032Y01005D02*
X00366Y01051D01*
X0025Y01005D02*
X0032D01*
X01675Y01035D02*
X01765Y01125D01*
X01165Y01035D02*
X01675D01*
X0101Y0088D02*
X01165Y01035D01*
X00955Y0088D02*
X0101D01*
X0075Y01085D02*
X00955Y0088D01*
X0059Y01205D02*
X00615D01*
X0039Y01005D02*
X0059Y01205D01*
X0051Y0107D02*
X0058Y0114D01*
X00495Y0107D02*
X0051D01*
X0023Y02075D02*
X003Y02145D01*
X00195Y0226D02*
X00305D01*
X00295Y0215D02*
X003Y02145D01*
X00295Y0215D02*
Y02225D01*
Y02232*
X0195Y01905D02*
X0214Y02095D01*
X0211Y02231D02*
X0214Y02201D01*
Y02095D02*
Y02201D01*
X0211Y02231D02*
Y0225D01*
X01398Y02438D02*
X014Y02436D01*
X0031Y02255D02*
Y0226D01*
X00295Y02232D02*
X00303Y0224D01*
X00705D02*
X00895Y0243D01*
X00303Y0224D02*
X00705D01*
X0177Y0203D02*
X01945D01*
X02115Y022*
X0137Y0244D02*
X0144Y0251D01*
X0199*
X014Y0216D02*
Y02436D01*
X0133Y0218D02*
X01375Y02225D01*
X0137Y0223D02*
X01375Y02225D01*
X01285Y02305D02*
X01345Y02245D01*
Y02235D02*
Y02245D01*
X0137Y0223D02*
Y0244D01*
X01305Y02045D02*
Y02255D01*
Y02045D02*
X0132Y0203D01*
X01375*
X01465Y0212*
X00845Y01365D02*
Y01475D01*
X0049Y0101D02*
X00845Y01365D01*
X00305Y0226D02*
X0031Y02255D01*
X0068Y01085D02*
X0075D01*
X009Y01265D02*
X0091Y01255D01*
X009Y01265D02*
Y0131D01*
X0092Y0133*
Y0144*
X01105Y01625*
X0071Y02015D02*
X0078Y01945D01*
G54D46*
X00581Y0236D03*
X0111Y03485D03*
X01685Y0237D03*
G54D47*
X01765Y01225D03*
Y01125D03*
G54D48*
X01765Y01025D03*
G54D49*
X00675Y01735D03*
Y01485D03*
Y0161D03*
X0009Y0084D03*
X0052D03*
X0022D03*
X0039D03*
G54D50*
X0084Y0106D03*
X0117Y01445D03*
X0132D03*
X00995Y00905D03*
X01455Y00575D03*
X0156Y00585D03*
X016Y01855D03*
X00915Y01185D03*
X01065Y01125D03*
X0129Y0137D03*
X01215Y0122D03*
X0085Y0151D03*
X00895Y01335D03*
X0092Y016D03*
X0091Y01255D03*
X01105Y01625D03*
X00825Y01545D03*
X0072Y0137D03*
X0084Y01145D03*
X0106Y01085D03*
X00205Y0097D03*
X00615Y01205D03*
X0039Y01005D03*
X00845Y01475D03*
X0049Y0101D03*
X00805Y01455D03*
X0025Y01005D03*
X0016Y02345D03*
X0046Y0211D03*
X00675Y0191D03*
X0071Y02015D03*
X00895Y0243D03*
X0199Y0251D03*
X0191Y0197D03*
X0184Y02005D03*
X0194Y01905D03*
X01665Y0208D03*
X0211Y0225D03*
X0137Y02105D03*
X0177Y0203D03*
X02115Y022D03*
X0031Y0209D03*
X0043Y0206D03*
X0023Y02075D03*
X0133Y02065D03*
X01455Y02045D03*
X01555D03*
X01745Y01955D03*
X00535Y0194D03*
X00615Y0196D03*
X01085Y01185D03*
X01055Y01045D03*
X0019Y0109D03*
X0032Y00695D03*
X00645Y0093D03*
X0071Y01D03*
X0063Y01065D03*
X00925Y0078D03*
X0082Y0076D03*
X0112Y00745D03*
X01015Y0085D03*
X012Y00685D03*
X0103Y0076D03*
X0133Y0092D03*
X01445Y008D03*
X0131Y0118D03*
X0117Y0116D03*
X0073Y01045D03*
X00595Y00985D03*
X0074Y0094D03*
X0063Y0085D03*
X00595Y0062D03*
X00565Y0064D03*
X0063Y00705D03*
X0066Y0062D03*
X00485Y00605D03*
X00355Y0062D03*
X0017Y00655D03*
X01465Y0075D03*
X01105Y00615D03*
X01285Y00595D03*
X0116Y0056D03*
X0156Y0084D03*
X01615Y00865D03*
X01495Y00995D03*
Y01135D03*
X01415Y01215D03*
X01445Y00915D03*
X01735Y0085D03*
X0178Y0093D03*
X01645Y0096D03*
X01335Y01675D03*
X012Y0159D03*
X00795Y01615D03*
X00845Y0174D03*
X0098Y01755D03*
X006Y0139D03*
X00515Y01435D03*
X00735Y0114D03*
X00445Y007D03*
X0015Y00735D03*
X0011Y0105D03*
X00345Y0106D03*
X0181Y014D03*
X0177Y01665D03*
X02155Y0131D03*
X02195Y0105D03*
X0218Y00575D03*
X0219Y0081D03*
X00095Y0152D03*
X01215Y017D03*
X0142Y0173D03*
X01415Y016D03*
X0058Y0114D03*
X00495Y0107D03*
X00195Y0226D03*
X00295Y02225D03*
X01398Y02438D03*
X0031Y0226D03*
X01285Y02305D03*
X01375Y02225D03*
X01345Y02235D03*
X01305Y02255D03*
X01465Y0212D03*
X0068Y01085D03*
X009Y0131D03*
X0078Y01945D03*
G54D51*
X00816Y00269D03*
X00895Y00072D03*
X00816D03*
X00738Y00269D03*
Y00072D03*
X00659Y00269D03*
Y00072D03*
X0058Y00269D03*
Y00072D03*
X00501Y00269D03*
Y00072D03*
X00423Y00269D03*
Y00072D03*
X00344Y00269D03*
Y00072D03*
X00265Y00269D03*
X00187Y00072D03*
Y00269D03*
X00265Y00072D03*
X00974D03*
X00895Y00269D03*
M02*