%FSTAX23Y23*%
%MOIN*%
%SFA1B1*%

%IPPOS*%
%ADD10R,0.021650X0.023620*%
%ADD11R,0.037400X0.011810*%
%ADD12R,0.023620X0.021650*%
%ADD13R,0.011810X0.037400*%
%ADD14R,0.059050X0.133860*%
%ADD15R,0.043310X0.137800*%
%ADD16R,0.094490X0.031500*%
%ADD17R,0.031500X0.062990*%
%ADD18R,0.082680X0.118110*%
%ADD19R,0.031500X0.031500*%
%ADD20R,0.035430X0.035430*%
%ADD21R,0.015750X0.019680*%
%ADD22R,0.039370X0.070870*%
%ADD23R,0.043310X0.055120*%
%ADD24R,0.055120X0.047240*%
%ADD25R,0.055120X0.043310*%
%ADD26R,0.045280X0.055120*%
%ADD27O,0.011020X0.033470*%
%ADD28R,0.011020X0.033470*%
%ADD29R,0.033470X0.011020*%
%ADD30R,0.202760X0.202760*%
%ADD31R,0.137800X0.098420*%
%ADD32R,0.039370X0.078740*%
%ADD33R,0.051180X0.061020*%
%ADD34R,0.037400X0.037400*%
%ADD35R,0.037400X0.037400*%
%ADD36R,0.106300X0.074800*%
%ADD37C,0.010000*%
%ADD38C,0.020000*%
%ADD39C,0.003940*%
%ADD40C,0.023620*%
%ADD41C,0.050000*%
%LNheadband-pcb-1*%
%LPD*%
G36*
X02016Y00355D02*
X01403D01*
Y00366*
X01384*
X01327Y00423*
Y00443*
X01254*
Y00437*
X01248*
Y00444*
X01211*
Y00437*
X01205*
Y00443*
X01131*
X01128Y00446*
X0109*
Y00438*
X01084*
Y00443*
X01011*
Y00438*
X01*
Y00442*
X00963*
Y00436*
X00952*
X00943Y00445*
Y00465*
X0087*
X00866Y00466*
X00865*
X00828*
Y00459*
X00814*
X00809Y00458*
X00807Y00457*
X00801*
X00793Y00465*
Y00495*
X00798*
Y00524*
X00801Y00528*
X00838*
Y00535*
X00843Y00536*
X00847Y00539*
X00848Y0054*
X0085Y00539*
X00857Y00541*
X00864Y00545*
X00868Y00551*
X00873Y00552*
X00915Y0051*
X0092Y00507*
X00925Y00506*
X01274*
X01279Y00507*
X01283Y0051*
X01299Y00526*
X01336*
Y00613*
X01329*
Y00648*
X0129*
Y00613*
X0128*
Y00545*
X01268Y00533*
X01237*
Y00613*
X01226*
Y00648*
X01186*
Y00613*
X01182*
Y00568*
X01069*
Y00635*
X01015*
X01014Y0064*
X01014Y0064*
X01018Y00647*
X0102Y00655*
X01018Y00662*
X01014Y00669*
X01013Y00669*
Y00675*
X01024*
Y00675*
X01031*
Y00668*
X01068*
Y00675*
X01193*
Y00663*
X01246*
X0125*
X01251*
X01303*
Y0067*
X01318*
X01397Y00592*
X01402Y00588*
X0141Y00586*
X01475*
X01482Y00588*
X01488Y00592*
X01531Y00635*
X01535Y00641*
X01536Y00648*
Y00794*
X01553*
Y00838*
X01558Y0084*
X01611Y00787*
Y0062*
X01613Y00612*
X01617Y00607*
X01642Y00582*
X01647Y00578*
X01655Y00576*
X0188*
X01887Y00578*
X01892Y00582*
X01904Y00593*
X02006*
Y00684*
X01883*
Y00624*
X01872Y00613*
X01662*
X01648Y00627*
Y00794*
X01711*
Y00858*
X0164*
Y00817*
X01635Y00815*
X0156Y0089*
Y00926*
X0163*
X01637Y00928*
X01642Y00932*
X01747Y01036*
X01751Y01042*
X01752Y01049*
Y01132*
X01762*
Y01226*
X01797*
Y01132*
X01806*
Y00993*
X01748*
Y00904*
X01741Y00897*
X01737Y00891*
X01736Y00884*
Y00762*
X01731Y0076*
X01727Y00762*
X01721Y00765*
X01715Y00765*
X01708Y00765*
X01702Y00762*
X01696Y00758*
X01692Y00752*
X01689Y00746*
X01689Y0074*
X01689Y00733*
X01692Y00727*
X01696Y00721*
X01702Y00717*
X01708Y00714*
X01715Y00714*
X01721Y00714*
X01727Y00717*
X01731Y00719*
X01736Y00717*
Y00685*
X01718*
Y00621*
X01789*
Y00685*
X01772*
Y00876*
X01774Y00878*
X01901*
Y00993*
X01843*
Y01132*
X01852*
Y01226*
X02016*
Y00355*
G37*
G36*
X00975Y00891D02*
Y00852D01*
Y00812*
Y00773*
Y00734*
Y00684*
X00761*
X00756Y00684*
X00755Y00685*
X00751Y00688*
Y00714*
Y00753*
Y00793*
Y00832*
Y00871*
Y00908*
X00975*
Y00891*
G37*
G36*
X01389Y00253D02*
X01354Y00201D01*
Y00181*
X01314*
Y0011*
X0196*
Y00062*
X00953*
Y00305*
X01228*
Y00335*
X01267*
Y00305*
X01314*
Y00335*
X01354*
Y00255*
X01039*
Y00149*
X01267*
Y00181*
X01228*
Y00229*
X01351*
X01371Y00258*
Y00335*
X01389*
Y00253*
G37*
G36*
X01706Y01132D02*
X01716D01*
Y01057*
X01622Y00963*
X0156*
Y01018*
X01501*
Y00864*
X01531*
X01531Y00863*
X01529Y00858*
X01482*
Y00794*
X01499*
Y00655*
X01479Y00635*
X01474Y00637*
Y00685*
X01413*
X01385Y00712*
X01388Y00716*
X01393Y00714*
X014Y00714*
X01406Y00714*
X01413Y00717*
X01418Y00721*
X01422Y00727*
X01425Y00733*
X01425Y0074*
X01425Y00746*
X01422Y00752*
X01418Y00758*
X01413Y00762*
X01406Y00765*
X014Y00765*
X01393Y00765*
X01387Y00762*
X01381Y00758*
X01377Y00752*
X01374Y00746*
X01374Y0074*
X01374Y00733*
X01376Y00728*
X01372Y00725*
X01251Y00847*
Y00912*
X01288*
Y00959*
X01177*
Y00912*
X01214*
Y00839*
X01216Y00832*
X0122Y00826*
X01338Y00708*
X01335Y00704*
X01333Y00705*
X01326Y00706*
X01303*
Y00716*
X01269*
X01251Y00734*
X01247Y00737*
X01242Y00738*
X01194*
X01194Y00739*
X01187Y00743*
X0118Y00745*
X01172Y00743*
X01165Y00739*
X01161Y00732*
X01159Y00725*
X01161Y00717*
X01165Y0071*
X01167Y00709*
X01168Y00702*
X01167Y00701*
X01068*
Y00708*
X01031*
Y00701*
X01024*
Y00753*
Y00793*
Y00836*
X01029Y00838*
X01056Y00811*
X01054Y00805*
X01056Y00797*
X0106Y0079*
X01067Y00786*
X01075Y00784*
X01082Y00786*
X01089Y0079*
X01093Y00797*
X01093Y00797*
X01096Y00801*
X01097*
X01136*
Y00838*
X01096*
Y00833*
X0109*
X01084Y00832*
X0108Y00829*
X01078Y00827*
X01038Y00867*
X0104Y00871*
X01065*
Y00866*
X01104*
Y00903*
X01065*
Y00898*
X01033*
X01031Y00902*
X01041Y00912*
X01128*
Y00959*
Y00962*
Y00964*
Y01009*
Y01012*
Y01014*
Y01059*
Y01062*
Y01107*
Y01111*
Y01114*
Y01159*
X01017*
Y01149*
X01006*
X01Y01148*
X00996Y01145*
X00971Y01119*
X0097Y0112*
X00962Y01118*
X00955Y01114*
X00951Y01107*
X00949Y011*
X00951Y01092*
X00955Y01085*
X00962Y01081*
X0097Y01079*
X00977Y01081*
X00984Y01085*
X00988Y01092*
X0099Y011*
X00989Y01101*
X01009Y01121*
X01015*
X01017Y01119*
Y01111*
Y01107*
Y01086*
X00922Y00991*
X00919Y00987*
X00918Y00982*
Y00958*
X00841*
X00839Y00962*
X00849Y00972*
X00852Y00977*
X00853Y00982*
Y01015*
X0089*
Y01061*
X00895Y01065*
X00896Y01065*
X00911*
X00912Y01064*
X00918Y01059*
X00926Y01058*
X00934Y01059*
X0094Y01064*
X00945Y0107*
X00946Y01078*
X00945Y01086*
X0094Y01092*
X00934Y01097*
X00926Y01098*
X00918Y01097*
X00912Y01092*
X00911Y01091*
X00902*
X0089Y01103*
Y01143*
X00869*
X00868Y01148*
Y01201*
X00815*
Y01148*
X00818*
X00819Y01143*
Y01084*
X00872*
X00876Y01079*
X00875Y01074*
X00819*
Y01069*
X00818Y01064*
X00781*
X00776Y01066*
Y01076*
X00723*
Y01063*
X0072*
X00714Y01062*
X0071Y01059*
X00706Y01054*
X00705Y01055*
X00697Y01053*
X0069Y01049*
X00686Y01042*
X00684Y01035*
X00686Y01027*
X0069Y0102*
X00697Y01016*
X00705Y01014*
X00712Y01016*
X00719Y0102*
X00719Y0102*
X00723Y01023*
X0077*
Y01008*
X0073*
Y01003*
X00724*
Y01008*
X00685*
Y00971*
X00708*
X00711Y00966*
X00709Y0096*
X00711Y00952*
X00715Y00945*
X00722Y00941*
X0073Y00939*
X00736Y00941*
X00741Y00938*
Y00918*
X00701*
Y00891*
Y00847*
X00697Y00845*
X00583Y00959*
Y0099*
X00584Y0099*
X00588Y00997*
X0059Y01005*
X00588Y01012*
X00584Y01019*
X00577Y01023*
X0057Y01025*
X00562Y01023*
X00555Y01019*
X00551Y01012*
X00549Y01005*
X00551Y00997*
X00555Y0099*
X00556Y0099*
Y00954*
X00557Y00949*
X0056Y00944*
X00602Y00902*
X006Y00898*
X00589*
X00589Y00899*
X00582Y00903*
X00575Y00905*
X00567Y00903*
X0056Y00899*
X00556Y00892*
X00554Y00885*
X00556Y00877*
X0056Y0087*
X00567Y00866*
X00575Y00864*
X00582Y00866*
X00589Y0087*
X00589Y00871*
X00604*
X00661Y00814*
X00659Y00809*
X00657Y00808*
X0065Y00804*
X0065Y00803*
X00623*
Y00766*
Y00735*
X00587*
X00582Y00734*
X00577Y00731*
X00559Y00713*
X00495*
X00487Y00721*
Y0078*
X00426*
Y00709*
X00461*
X0048Y0069*
X00484Y00687*
X00489Y00686*
Y00622*
X0055*
Y00645*
X00568*
X00573Y00646*
X00577Y00649*
X00619Y0069*
X00631*
X00635Y00688*
Y00651*
X00674*
Y00655*
X00679Y00657*
X00682Y00656*
X0069Y00654*
X00697Y00656*
X00704Y0066*
X00708Y00667*
X00709Y00671*
X0071Y00671*
X00711Y00672*
X00724*
X00729Y00673*
X0073Y00675*
X00738*
X00741Y00671*
Y00664*
X00725Y00649*
X00722Y00645*
X00721Y0064*
Y00632*
X00716Y0063*
X00714Y00634*
X00707Y00638*
X007Y0064*
X00692Y00638*
X00685Y00634*
X00681Y00627*
X00679Y0062*
X00681Y00613*
X00681Y00608*
Y00571*
X00677Y00568*
X00676*
Y00528*
X00713*
Y00567*
X00717Y0057*
X00721Y00567*
Y00528*
Y00495*
X00726*
Y00445*
X00727Y00439*
X0073Y00435*
X00771Y00394*
X00776Y00391*
X00781Y0039*
X00786*
Y00383*
X00809*
X00812Y00383*
X00828*
Y00376*
X00865*
X00866*
X0087Y00377*
X00943*
Y00397*
X00955Y00409*
X00963*
Y00403*
X01*
Y00411*
X01011*
Y00406*
X01084*
Y00411*
X0109*
Y00407*
X01128*
X01131Y00406*
X01132*
X01205*
Y00411*
X01211*
Y00404*
X01248*
Y00411*
X01254*
Y00405*
X01307*
X01353Y00359*
X01352Y00355*
X00825*
Y00013*
X00596*
Y0009*
X00576*
Y00326*
X00596*
Y00379*
X00603Y00386*
X0061Y00384*
X00617Y00386*
X00624Y0039*
X00628Y00397*
X0063Y00405*
X00628Y00412*
X00624Y00419*
X00617Y00423*
X0061Y00425*
X00602Y00423*
X00595Y00419*
X00591Y00412*
X00591Y00411*
X00582Y00403*
X00529*
Y00326*
X00549*
Y0009*
X00529*
Y00013*
X00018*
X00018Y00013*
X00018Y00013*
X00021Y00018*
X00115*
Y00152*
X00018*
X00016*
X00013Y00156*
Y01226*
X01322*
Y01085*
X01397*
Y01226*
X01586*
Y01085*
X01661*
Y01226*
X01706*
Y01132*
G37*
%LNheadband-pcb-2*%
%LPC*%
G36*
X00148Y00596D02*
X00121D01*
Y00543*
X00122*
X00122Y00539*
X00125Y00536*
X00124Y00535*
X00126Y00527*
X0013Y0052*
X00137Y00516*
X00145Y00514*
X00152Y00516*
X00159Y0052*
X00163Y00527*
X00165Y00535*
X00163Y00542*
X00159Y00549*
X00152Y00553*
X00148Y00554*
Y00596*
G37*
G36*
X00513Y00152D02*
X00414D01*
Y00018*
X00513*
Y00152*
G37*
G36*
X00733Y01198D02*
X0066D01*
Y01178*
X00624Y01143*
X00579*
Y01084*
X0065*
Y01131*
X00679Y01161*
X00685*
X00688Y01156*
X00686Y01152*
X00684Y01145*
X00686Y01137*
X0069Y0113*
X00697Y01126*
X00705Y01124*
X00712Y01126*
X00719Y0113*
X00723Y01137*
X00725Y01145*
X00724Y01147*
X00725Y01149*
X00726Y01154*
Y01161*
X00733*
Y01198*
G37*
G36*
X00105Y01175D02*
X00097Y01173D01*
X0009Y01169*
X00086Y01162*
X00084Y01155*
X00086Y01147*
X0009Y0114*
X00097Y01136*
X00105Y01134*
X00107Y01135*
X00109Y0113*
X0009Y01111*
X00087Y01107*
X00086Y01102*
Y01017*
X00081Y01016*
X00079Y01019*
X00072Y01023*
X00065Y01025*
X00057Y01023*
X0005Y01019*
X00046Y01012*
X00044Y01005*
X00046Y00997*
X00048Y00993*
X00046Y00988*
Y00951*
X00052*
Y00939*
X00046*
Y009*
Y00866*
X00051*
Y00858*
X00046*
Y00804*
X00025Y00784*
X00022Y0078*
X00021Y00775*
Y00631*
X00022Y00626*
X00025Y00621*
X00044Y00602*
Y00596*
X00044*
Y00543*
X00097*
Y00596*
X00071*
Y00607*
X0007Y00613*
X00067Y00617*
X00048Y00636*
Y00698*
X00092*
X00093Y00697*
X00094Y00693*
X0009Y00688*
X00089Y0068*
X0009Y00672*
X00095Y00666*
X00101Y00661*
X00109Y0066*
X00117Y00661*
X0012Y00664*
X00124Y00665*
X00127Y00663*
X00176Y00614*
Y00459*
X00163*
Y00433*
X00125*
X00119Y00432*
X00115Y00429*
X0009Y00404*
X00087Y004*
X00086Y00395*
Y00325*
X00087Y00319*
X0009Y00315*
X00117Y00289*
X00121Y00286*
X00126Y00285*
X00156*
Y00278*
X00193*
X00196Y00274*
Y00245*
X00201*
Y00239*
X00192*
Y0016*
X0024*
X00242*
X00289*
X00291*
X00335*
X00338*
X00343*
X00387*
Y00239*
X00384*
X00381Y00244*
X00383Y00247*
X00385Y00255*
X00383Y00262*
X00379Y00269*
X00372Y00273*
X00373Y00278*
X00378*
Y00285*
X00408*
X00413Y00286*
X00417Y00289*
X00429Y003*
X00432Y00304*
X00433Y0031*
Y0038*
X00432Y00385*
X00429Y00389*
X00414Y00403*
X0041Y00406*
X00405Y00407*
X00376*
X00374Y00412*
X00388Y00426*
X00391Y0043*
X00392Y00435*
Y00626*
X00391Y00631*
X00388Y00635*
X00344Y00679*
Y00698*
X00345*
Y00752*
X00297*
X00293Y00755*
Y00761*
X00299*
X00304Y00762*
X00308Y00765*
X00349Y00806*
X00352Y0081*
X00353Y00815*
Y01107*
X00352Y01112*
X00349Y01116*
X00326Y01139*
X00326Y01139*
Y01143*
X00273*
Y01117*
X00269*
X00264Y01116*
X0026Y01113*
X0021Y01064*
X00207Y0106*
X00206Y01055*
Y00983*
X002*
Y00946*
X00206*
Y00905*
X00201*
Y00865*
Y00832*
Y00828*
Y00788*
Y00755*
X00206*
Y00642*
X00207Y00637*
X0021Y00633*
X00241Y00603*
Y00596*
X0024*
Y00543*
X00293*
Y00596*
X00267*
Y00608*
X00266Y00613*
X00263Y00617*
X00233Y00648*
Y00751*
X00234Y00752*
X00236Y00753*
X0024Y00749*
Y00698*
X00282*
X00286Y00694*
X00285Y00691*
X00286Y00683*
X00291Y00677*
X00297Y00672*
X00305Y00671*
X00313Y00672*
X00313Y00672*
X00318Y0067*
X00318Y00668*
X00321Y00664*
X00365Y0062*
Y00441*
X00358Y00433*
X00318*
Y00433*
X00272*
X0025Y00454*
X00246Y00457*
X00241Y00458*
X00216*
Y00459*
X00203*
Y0062*
X00202Y00625*
X00199Y00629*
X00148Y0068*
Y00698*
X00148*
Y00738*
X00153Y00741*
X0016Y00739*
X00167Y00741*
X00174Y00745*
X00178Y00752*
X0018Y0076*
X00178Y00767*
X00174Y00774*
X00173Y00774*
Y0104*
X00172Y01045*
X00169Y01049*
X00158Y01059*
X0016Y01064*
X00171*
Y01084*
X00176Y01087*
X00177Y01086*
X00185Y01084*
X00192Y01086*
X00199Y0109*
X00203Y01097*
X00205Y01105*
X00203Y01112*
X00199Y01119*
X00192Y01123*
X00185Y01125*
X00177Y01123*
X00175Y01122*
X00171Y01124*
Y01169*
X00118*
X00112Y01173*
X00105Y01175*
G37*
G36*
X01288Y01159D02*
X01177D01*
Y01114*
Y01111*
Y01107*
Y01062*
X01288*
Y01107*
Y01111*
Y01114*
Y01159*
G37*
G36*
X00345Y00596D02*
X00317D01*
Y00571*
X00316Y00568*
Y00549*
X00315Y00549*
X00311Y00542*
X00309Y00535*
X00311Y00527*
X00315Y0052*
X00322Y00516*
X0033Y00514*
X00337Y00516*
X00344Y0052*
X00348Y00527*
X0035Y00535*
X00348Y00542*
X00345Y00548*
Y00596*
G37*
%LNheadband-pcb-3*%
%LPD*%
G54D10*
X0022Y00775D03*
Y00808D03*
X0012Y0078D03*
Y00813D03*
X0022Y00885D03*
Y00851D03*
X00275Y00885D03*
Y00851D03*
Y00775D03*
Y00808D03*
X0012Y0086D03*
Y00893D03*
X00065Y0092D03*
Y00886D03*
Y00838D03*
Y00805D03*
X00315Y00265D03*
Y00298D03*
X0036Y00331D03*
Y00298D03*
X00215Y00265D03*
Y00298D03*
X00175Y00331D03*
Y00298D03*
X00805Y00437D03*
Y00403D03*
X00847Y00479D03*
Y00446D03*
Y00363D03*
Y00396D03*
X0123Y00424D03*
Y0039D03*
X01109Y0046D03*
Y00426D03*
X00982Y00423D03*
Y00389D03*
X0082Y00515D03*
Y00548D03*
X00695Y00515D03*
Y00548D03*
X0078Y00515D03*
Y00548D03*
X0074Y00515D03*
Y00548D03*
X008Y01078D03*
Y01045D03*
X0105Y00655D03*
Y00688D03*
G54D11*
X00144Y01078D03*
Y01103D03*
Y0113D03*
Y01155D03*
X003D03*
Y0113D03*
Y01104D03*
Y01078D03*
X0019Y00368D03*
Y00393D03*
Y0042D03*
Y00445D03*
X00345D03*
Y0042D03*
Y00394D03*
Y00368D03*
G54D12*
X0022Y00965D03*
X00253D03*
X00099Y0097D03*
X00066D03*
X00956Y00605D03*
X0099D03*
X00713Y0118D03*
X0068D03*
X00783Y0099D03*
X0075D03*
X00923Y00396D03*
X0089D03*
X01185Y00425D03*
X01151D03*
X01065D03*
X01031D03*
X0078Y0059D03*
X00813D03*
X00735D03*
X00701D03*
X01383Y00347D03*
X01416D03*
X01307Y00424D03*
X01274D03*
X00923Y00446D03*
X0089D03*
X01118Y00885D03*
X01085D03*
X0124Y0063D03*
X01206D03*
X01276D03*
X0131D03*
X00671Y0099D03*
X00705D03*
X0061Y00785D03*
X00643D03*
X0115Y0082D03*
X01116D03*
X00621Y0067D03*
X00655D03*
X0061Y0075D03*
X00643D03*
G54D13*
X00135Y0057D03*
X0011D03*
X00083D03*
X00058D03*
Y00725D03*
X00083D03*
X00109D03*
X00135D03*
X00331Y0057D03*
X00306D03*
X0028D03*
X00254D03*
Y00725D03*
X0028D03*
X00305D03*
X00331D03*
G54D14*
X01623Y0116D03*
X0136D03*
G54D15*
X01531Y00941D03*
X01452D03*
G54D16*
X01073Y01136D03*
X01233D03*
X01073Y01086D03*
X01233D03*
X01073Y01036D03*
X01233D03*
X01073Y00986D03*
X01235D03*
X01073Y00936D03*
X01233D03*
G54D17*
X00167Y002D03*
X00216D03*
X00265D03*
X00364D03*
X00315D03*
G54D18*
X00066Y00085D03*
X00464D03*
G54D19*
X01252Y00347D03*
G54D20*
X01332Y00342D03*
G54D21*
X0138Y00335D03*
G54D22*
X0121Y0057D03*
X01308D03*
G54D23*
X01108Y006D03*
X0104D03*
G54D24*
X01754Y00653D03*
X01675Y00826D03*
X01518D03*
X01439Y00653D03*
G54D25*
X00855Y01045D03*
Y01113D03*
X00615Y01045D03*
Y01113D03*
G54D26*
X00457Y00658D03*
Y00745D03*
X0052D03*
Y00658D03*
G54D27*
X00755Y0066D03*
G54D28*
X00774Y0066D03*
X00794D03*
X00814D03*
X00833D03*
X00853D03*
X00873D03*
X00892D03*
X00912D03*
X00932D03*
X00951D03*
X00971D03*
Y00933D03*
X00951D03*
X00932D03*
X00912D03*
X00892D03*
X00873D03*
X00853D03*
X00833D03*
X00814D03*
X00794D03*
X00774D03*
X00755D03*
G54D29*
X01Y00688D03*
Y00708D03*
Y00727D03*
Y00747D03*
Y00767D03*
Y00786D03*
Y00806D03*
Y00826D03*
Y00846D03*
Y00865D03*
Y00885D03*
Y00905D03*
X00726D03*
Y00885D03*
Y00865D03*
Y00846D03*
Y00826D03*
Y00806D03*
Y00786D03*
Y00767D03*
Y00747D03*
Y00727D03*
Y00708D03*
Y00688D03*
G54D30*
X00863Y00796D03*
G54D31*
X01825Y00935D03*
G54D32*
X01734Y0118D03*
X01825D03*
X01915D03*
G54D33*
X0074Y00051D03*
X00562D03*
Y00364D03*
X0074D03*
G54D34*
X0122Y0069D03*
X01277D03*
X00785Y01175D03*
X00842D03*
G54D35*
X0075Y01107D03*
Y0105D03*
G54D36*
X01945Y0082D03*
Y00638D03*
G54D37*
X01945Y0082D02*
Y0113D01*
X01331Y00322D02*
Y00342D01*
X0065Y0098D02*
X00665Y00995D01*
X00495Y00805D02*
X00515Y00785D01*
X00695Y0042D02*
X00751Y00363D01*
X01566Y00621D02*
Y00784D01*
X0156Y00615D02*
X01566Y00621D01*
X00066Y0097D02*
Y01005D01*
X0138Y00344D02*
X0138Y00344D01*
X0138Y00344D02*
Y00352D01*
X01307Y00424D02*
X0138Y00352D01*
X01245Y00354D02*
Y00376D01*
X0131Y00364D02*
X01331Y00342D01*
X01245Y00354D02*
X01251Y00347D01*
X00305Y00691D02*
Y00725D01*
X0034Y00815D02*
Y01107D01*
X003Y0113D02*
X00317D01*
X0034Y01107*
X0057Y00954D02*
X00696Y00827D01*
X0057Y00954D02*
Y01005D01*
X00725Y00827D02*
X00726Y00826D01*
X00696Y00827D02*
X00725D01*
X00688Y00806D02*
X00726D01*
X0061Y00885D02*
X00688Y00806D01*
X00575Y00885D02*
X0061D01*
X00275D02*
X0031D01*
X0016Y0076D02*
Y0104D01*
X00144Y01055D02*
X0016Y0104D01*
X00135Y00675D02*
X0019Y0062D01*
X00135Y00675D02*
Y00725D01*
X0019Y00445D02*
Y0062D01*
X00144Y01055D02*
Y01078D01*
X00109Y0068D02*
Y00725D01*
X0019Y00368D02*
X00231D01*
X00364Y002D02*
X00365Y002D01*
Y00255*
X0074Y00051D02*
Y00364D01*
X00562Y00051D02*
Y00364D01*
X00603Y00405D02*
X0061D01*
X00562Y00364D02*
X00603Y00405D01*
X00299Y00775D02*
X0034Y00815D01*
X00275Y00775D02*
X00299D01*
X00085Y00769D02*
X00095Y0078D01*
X00058Y00742D02*
X00085Y00769D01*
X00143Y01155D02*
X00144Y01155D01*
X00105Y01155D02*
X00143D01*
X00144Y01103D02*
X00145Y01105D01*
X00185*
X00065Y01005D02*
X00066D01*
X00099Y0097D02*
Y01102D01*
X00127Y0113*
X00144*
X00288Y01078D02*
X003D01*
X00253Y01043D02*
X00288Y01078D01*
X00253Y00965D02*
Y01043D01*
X00269Y01104D02*
X003D01*
X0022Y01055D02*
X00269Y01104D01*
X0022Y00965D02*
Y01055D01*
X00253Y00906D02*
X00275Y00885D01*
X00253Y00906D02*
Y00965D01*
X0022Y00885D02*
Y00965D01*
Y00851D02*
X0022Y00851D01*
X00275*
X0022Y00808D02*
Y00851D01*
X00275Y00808D02*
Y00851D01*
X00254Y00725D02*
Y00754D01*
X00275Y00775*
X00254Y00725D02*
X00255Y00726D01*
X00254Y0057D02*
Y00608D01*
X0022Y00642D02*
X00254Y00608D01*
X0022Y00642D02*
Y00775D01*
X00099Y00913D02*
X0012Y00893D01*
Y00836D02*
Y0086D01*
Y00813D02*
Y00836D01*
X00118Y00838D02*
X0012Y00836D01*
X00065Y00838D02*
X00118D01*
X00095Y0078D02*
X0012D01*
X00099Y00913D02*
Y0097D01*
X00065Y0092D02*
X00066Y00921D01*
Y0097*
X00065Y00838D02*
Y00886D01*
X00035Y00631D02*
Y00775D01*
X00065Y00805*
X00058Y00725D02*
Y00742D01*
Y0057D02*
Y00607D01*
X00035Y00631D02*
X00058Y00607D01*
X00345Y0042D02*
X00362D01*
X00378Y00435D02*
Y00626D01*
X00362Y0042D02*
X00378Y00435D01*
X00331Y00673D02*
Y00725D01*
Y00673D02*
X00378Y00626D01*
X0033Y00535D02*
Y00568D01*
X00331Y0057*
X00405Y00394D02*
X0042Y0038D01*
X00345Y00394D02*
X00405D01*
X0042Y0031D02*
Y0038D01*
X00408Y00298D02*
X0042Y0031D01*
X00135Y00545D02*
Y0057D01*
Y00545D02*
X00145Y00535D01*
X0036Y00331D02*
X00391D01*
X00265Y00421D02*
X00266Y0042D01*
X00265Y002D02*
Y00421D01*
X00241Y00445D02*
X00265Y00421D01*
X0019Y00445D02*
X00241D01*
X00125Y0042D02*
X0019D01*
X001Y00395D02*
X00125Y0042D01*
X00145Y00373D02*
Y00384D01*
Y00361D02*
Y00373D01*
Y00384D02*
X00154Y00393D01*
X00145Y00361D02*
X00175Y00331D01*
X00154Y00393D02*
X0019D01*
X00126Y00298D02*
X00175D01*
X001Y00325D02*
X00126Y00298D01*
X001Y00325D02*
Y00395D01*
X0036Y00298D02*
X00408D01*
X00266Y0042D02*
X00345D01*
X00175Y00298D02*
X00215D01*
X00315D02*
X0036D01*
X00345Y00346D02*
Y00368D01*
Y00346D02*
X0036Y00331D01*
X00215Y00201D02*
X00216Y002D01*
X00215Y00201D02*
Y00265D01*
X00315Y002D02*
Y00265D01*
X0078Y0046D02*
X00804Y00436D01*
X0078Y0046D02*
Y00515D01*
X0074Y00445D02*
Y00515D01*
X0123Y0039D02*
X01245Y00376D01*
X0131Y00364D02*
Y00372D01*
X01145Y00855D02*
Y00885D01*
X01154*
X01118D02*
X01145D01*
X01D02*
X01085D01*
X01006Y01136D02*
X01073D01*
X0097Y011D02*
X01006Y01136D01*
X01233Y01036D02*
X01235Y01034D01*
Y00986D02*
Y01034D01*
X01075Y00805D02*
X0109Y0082D01*
X01116*
X01069Y00814D02*
Y00817D01*
Y00814D02*
X01075Y00808D01*
Y00805D02*
Y00808D01*
X00713Y01154D02*
Y0118D01*
X0118Y00725D02*
X01242D01*
X01277Y0069*
X0153Y00895D02*
Y00945D01*
X00848Y01105D02*
X0087D01*
X0084Y0112D02*
X0085Y0113D01*
X0084Y01113D02*
X00848Y01105D01*
X0084Y01113D02*
Y0112D01*
X00657Y00747D02*
X00726D01*
X00669Y00684D02*
X00705D01*
X00707Y00686D02*
X00724D01*
X00705Y00684D02*
X00707Y00686D01*
X00655Y0067D02*
X00669Y00684D01*
X00699Y00704D02*
X00701D01*
X00697Y00702D02*
X00699Y00704D01*
X00662Y00702D02*
X00697D01*
X0066Y00704D02*
X00662Y00702D01*
X00614Y00704D02*
X0066D01*
X00692Y00722D02*
X00693D01*
X0069Y0072D02*
X00692Y00722D01*
X00669Y0072D02*
X0069D01*
X00667Y00722D02*
X00669Y0072D01*
X00587Y00722D02*
X00667D01*
X007Y00768D02*
X00701Y00767D01*
X00695Y00768D02*
X007D01*
X00689Y00774D02*
X00695Y00768D01*
X0068Y00774D02*
X00689D01*
X00701Y00767D02*
X00726D01*
X00665Y0079D02*
X0068Y00774D01*
X00625Y0058D02*
Y00666D01*
Y0057D02*
Y0058D01*
X0068Y00515D02*
X00695D01*
X00625Y0057D02*
X0068Y00515D01*
X0126Y0076D02*
X0128Y0074D01*
X01145Y0076D02*
X0126D01*
X01155Y00605D02*
Y00655D01*
X0105D02*
X01155D01*
X0123*
X01Y00865D02*
X01021D01*
X01069Y00817*
X01026Y01036D02*
X01073D01*
X00951Y00961D02*
X01026Y01036D01*
X00951Y00933D02*
Y00961D01*
X01036Y01086D02*
X01073D01*
X00932Y00982D02*
X01036Y01086D01*
X00932Y00933D02*
Y00982D01*
X0073Y0096D02*
Y0097D01*
X00774Y00933D02*
Y00955D01*
X0075Y0098D02*
X00774Y00955D01*
X0075Y0098D02*
Y0099D01*
X00565Y007D02*
X00587Y00722D01*
X00568Y00658D02*
X00614Y00704D01*
X00699Y00727D02*
X00726D01*
X00724Y00686D02*
X00726Y00688D01*
X00704Y00707D02*
X00712D01*
X00701Y00704D02*
X00704Y00707D01*
X00693Y00722D02*
X00699Y00727D01*
X00713Y00708D02*
X00726D01*
X00712Y00707D02*
X00713Y00708D01*
X0052Y00658D02*
X00568D01*
X0044Y00805D02*
X00495D01*
X004Y00765D02*
X0044Y00805D01*
X004Y0064D02*
Y00765D01*
X00813Y0059D02*
Y00601D01*
X00794Y0062D02*
X00813Y00601D01*
X00794Y0062D02*
Y0066D01*
X00859Y00584D02*
X0086D01*
X00838Y00606D02*
X00859Y00584D01*
X00838Y00606D02*
X00838D01*
X00925Y0052D02*
X01274D01*
X0095Y00555D02*
X0121D01*
X00834Y00636D02*
Y00659D01*
X00833Y0066D02*
X00834Y00659D01*
X00814Y0063D02*
X0083Y00613D01*
X00814Y0063D02*
Y0066D01*
X00833Y00636D02*
X00834Y00636D01*
X0083Y00613D02*
Y00613D01*
Y00613D02*
X00838Y00606D01*
X00902Y00602D02*
X0095Y00555D01*
X00867Y00602D02*
X00902D01*
X00833Y00636D02*
X00867Y00602D01*
X0086Y00584D02*
X00925Y0052D01*
X01274D02*
X01308Y00553D01*
X0121Y00555D02*
Y0057D01*
X0194Y0037D02*
Y00415D01*
X0182Y00535D02*
X0194Y00415D01*
X0153Y00375D02*
X01645D01*
X01527Y00372D02*
X0153Y00375D01*
X0135Y00815D02*
Y00915D01*
X01445Y0071D02*
Y00815D01*
X0182Y00735D02*
Y0086D01*
X01065Y00425D02*
X01151D01*
X00751Y00363D02*
X00847D01*
X00695Y0042D02*
Y00515D01*
X0074Y00445D02*
X00781Y00403D01*
X00805*
X00845Y00515D02*
X00847Y00512D01*
Y00479D02*
Y00512D01*
X01326Y00327D02*
X01331Y00322D01*
X01046Y00936D02*
X01073D01*
X01015Y00905D02*
X01046Y00936D01*
X01Y00905D02*
X01015D01*
X01041Y00986D02*
X01073D01*
X00988Y00933D02*
X01041Y00986D01*
X00971Y00933D02*
X00988D01*
X0084Y00982D02*
Y01045D01*
X0061Y0098D02*
X0065D01*
X00665Y00995D02*
X00671Y0099D01*
X00896Y01078D02*
X00926D01*
X0087Y01105D02*
X00896Y01078D01*
X0075Y01145D02*
X0078Y01175D01*
X00785*
X00842D02*
X00855Y01162D01*
Y01113D02*
Y01162D01*
X0115Y006D02*
X01155Y00605D01*
X01108Y006D02*
X0115D01*
X01035Y00605D02*
X0104Y006D01*
X0099Y00605D02*
X01035D01*
X00951Y00609D02*
X00956Y00605D01*
X00951Y00609D02*
Y0066D01*
X0082Y00515D02*
X00845D01*
X0049Y007D02*
X00565D01*
X00457Y00732D02*
X0049Y007D01*
X00457Y00732D02*
Y00745D01*
X004Y00625D02*
Y0064D01*
Y00625D02*
X0042Y00605D01*
X00556*
X004Y0064D02*
X00438D01*
X00457Y00658*
X0061Y00756D02*
Y00785D01*
X0073Y0097D02*
X0075Y0099D01*
X00735Y0064D02*
X00755Y0066D01*
X00735Y0059D02*
Y0064D01*
X00695Y00583D02*
X00701Y0059D01*
X00695Y00548D02*
Y00583D01*
X00813Y0059D02*
X0082Y00583D01*
Y00548D02*
Y00583D01*
X00774Y00595D02*
X0078Y0059D01*
X00774Y00595D02*
Y0066D01*
X00735Y00553D02*
X0074Y00548D01*
X00735Y00553D02*
Y0059D01*
X0078Y00548D02*
Y0059D01*
X00805Y00437D02*
X00814Y00446D01*
X00847*
X0089*
X00805Y00403D02*
X00812Y00396D01*
X00847*
X0089*
X00923Y00446D02*
X00946Y00423D01*
X00923Y00396D02*
X00949Y00423D01*
X00946D02*
X00949D01*
X00982*
X00983Y00425*
X01031*
X01185Y00424D02*
X0123D01*
X01274*
X00955Y00363D02*
X00982Y00389D01*
X00847Y00363D02*
X00955D01*
X0109Y00479D02*
X01109Y0046D01*
X00847Y00479D02*
X0109D01*
X00982Y00389D02*
X01228D01*
X01Y00885D02*
X01Y00885D01*
X00655Y00745D02*
X00657Y00747D01*
X00794Y00933D02*
Y00979D01*
X00783Y0099D02*
X00794Y00979D01*
X00783Y01028D02*
X008Y01045D01*
X00783Y0099D02*
Y01028D01*
X00755Y01045D02*
X008D01*
X0075Y0105D02*
X00755Y01045D01*
X00771Y01107D02*
X008Y01078D01*
X0075Y01107D02*
X00771D01*
X0075D02*
Y01145D01*
X00671Y0099D02*
Y01071D01*
X00705Y0099D02*
X0075D01*
X00814Y00933D02*
Y00956D01*
X0084Y00982*
X00556Y00605D02*
X00621Y0067D01*
X00625Y00666*
X0072Y0105D02*
X0075D01*
X00705Y01035D02*
X0072Y0105D01*
X01Y00655D02*
Y00688D01*
X01Y00655D02*
X01Y00655D01*
X0082Y00548D02*
X00838D01*
X0085Y0056*
X007Y00591D02*
Y0062D01*
Y00591D02*
X00701Y0059D01*
X01416Y00347D02*
Y00372D01*
X01Y00688D02*
X01049D01*
X0105Y00688*
X01218D02*
X0122Y0069D01*
X01277D02*
X01278Y00688D01*
X01805Y00935D02*
X01825D01*
X01915Y01159D02*
Y0118D01*
Y01159D02*
X01945Y0113D01*
X01923Y00638D02*
X01945D01*
X0124Y0063D02*
X01276D01*
X0105Y00688D02*
X01218D01*
X0124Y0063D02*
Y00645D01*
X0123Y00655D02*
X0124Y00645D01*
X01206Y00573D02*
Y0063D01*
Y00573D02*
X0121Y0057D01*
X0131Y00571D02*
Y0063D01*
X01308Y0057D02*
X0131Y00571D01*
X01308Y00553D02*
Y0057D01*
X00671Y01071D02*
X00707Y01107D01*
X0075*
X0061Y0098D02*
Y0104D01*
X00615Y01045*
X00515Y00785D02*
X0061D01*
X0052Y00745D02*
Y0078D01*
X00515Y00785D02*
X0052Y0078D01*
X00515Y00785D02*
Y00785D01*
X00495Y00805D02*
X00505D01*
X00615Y01113D02*
Y01115D01*
X0068Y0118*
G54D38*
X0153Y00945D02*
X0163D01*
X01518Y00648D02*
Y00826D01*
X01475Y00605D02*
X01518Y00648D01*
X0141Y00605D02*
X01475D01*
X01419Y00653D02*
X01439D01*
X01233Y00839D02*
X01419Y00653D01*
X01233Y00839D02*
Y00936D01*
X0163Y0062D02*
Y00795D01*
X0153Y00895D02*
X0163Y00795D01*
X01825Y00935D02*
Y0118D01*
X01278Y00688D02*
X01326D01*
X01754Y00653D02*
Y00884D01*
X01805Y00935*
X0163Y00945D02*
X01734Y01049D01*
Y0118*
X0163Y0062D02*
X01655Y00595D01*
X0188*
X01923Y00638*
X01326Y00688D02*
X0141Y00605D01*
G54D39*
X01715Y0074D03*
X014D03*
G54D40*
X01566Y00784D03*
X0196Y00908D03*
X01692D03*
X00455Y00946D03*
X0041Y01055D03*
X00505Y01171D03*
X0038Y01175D03*
X00055Y00475D03*
X0006Y0025D03*
X00525Y00505D03*
X00663Y00195D03*
X00305Y00691D03*
X0057Y01005D03*
X00575Y00885D03*
X0031D03*
X0016Y0076D03*
X00109Y0068D03*
X00231Y00368D03*
X00365Y00255D03*
X0061Y00405D03*
X00105Y01155D03*
X00085Y00769D03*
X00185Y01105D03*
X00065Y01005D03*
X0033Y00535D03*
X00145D03*
X00391Y00331D03*
X00145Y00373D03*
X0131Y00372D03*
X01145Y00855D03*
X0097Y011D03*
X01075Y00805D03*
X0118Y00725D03*
X0068Y00745D03*
X01155Y00655D03*
X0073Y0096D03*
X0069Y00675D03*
X0128Y0074D03*
X0194Y0037D03*
X01645Y00375D03*
X01145Y0076D03*
X0135Y00915D03*
Y00815D03*
X01445D03*
Y0071D03*
X0156Y00615D03*
X0182Y0086D03*
Y00735D03*
Y00535D03*
X01527Y00372D03*
X0061Y0098D03*
X00665Y0079D03*
X00926Y01078D03*
X01155Y00605D03*
X0079Y00761D03*
Y00797D03*
Y00833D03*
X00827Y0087D03*
Y00833D03*
Y00797D03*
Y00761D03*
Y00725D03*
X00865Y0087D03*
Y00833D03*
Y00797D03*
Y00761D03*
Y00725D03*
X00902Y0087D03*
Y00833D03*
Y00797D03*
Y00761D03*
Y00725D03*
X0094Y0087D03*
Y00833D03*
Y00797D03*
Y00761D03*
X0079Y00725D03*
X0094D03*
X0079Y0087D03*
X00845Y00515D03*
X004Y0064D03*
X00625Y0058D03*
X00505Y00805D03*
X00705Y01035D03*
X01Y00655D03*
X0085Y0056D03*
X007Y0062D03*
X01416Y00372D03*
X00705Y01145D03*
G54D41*
X01622Y00545D03*
X01415Y0054D03*
M02*