%FSTAX23Y23*%
%MOIN*%
%SFA1B1*%

%IPPOS*%
%ADD10C,0.010000*%
%ADD18R,0.059060X0.133860*%
%ADD19R,0.043310X0.137800*%
%ADD20R,0.094490X0.031500*%
%ADD21R,0.031500X0.062990*%
%ADD22R,0.082680X0.118110*%
%ADD23R,0.031500X0.031500*%
%ADD24R,0.035430X0.035430*%
%ADD25R,0.015750X0.019680*%
%ADD26R,0.021650X0.023620*%
%ADD27R,0.023620X0.021650*%
%ADD28R,0.039370X0.070870*%
%ADD29R,0.043310X0.055120*%
%ADD30R,0.037400X0.011810*%
%ADD31R,0.055120X0.047240*%
%ADD32R,0.055120X0.043310*%
%ADD33R,0.045280X0.055120*%
%ADD34O,0.011020X0.033470*%
%ADD35R,0.011020X0.033470*%
%ADD36R,0.033470X0.011020*%
%ADD37R,0.202760X0.202760*%
%ADD38R,0.137800X0.098430*%
%ADD39R,0.039370X0.078740*%
%ADD40R,0.061020X0.051180*%
%ADD41R,0.037400X0.037400*%
%ADD42R,0.037400X0.037400*%
%ADD43R,0.106300X0.074800*%
%ADD74C,0.023620*%
%ADD75C,0.020000*%
%ADD76C,0.003940*%
%ADD77C,0.020000*%
%ADD78C,0.118110*%
%LNheadband-pcb-1*%
%LPD*%
G36*
X01706Y01132D02*
X01716D01*
Y01057*
X01622Y00963*
X0156*
Y01018*
X01501*
Y00864*
X01531*
X01531Y00863*
X01529Y00858*
X01482*
Y00794*
X01499*
Y00655*
X01479Y00635*
X01474Y00637*
Y00685*
X01413*
X01385Y00712*
X01388Y00716*
X01393Y00714*
X014Y00714*
X01406Y00714*
X01413Y00717*
X01418Y00721*
X01422Y00727*
X01425Y00733*
X01425Y0074*
X01425Y00746*
X01422Y00752*
X01418Y00758*
X01413Y00762*
X01406Y00765*
X014Y00765*
X01393Y00765*
X01387Y00762*
X01381Y00758*
X01377Y00752*
X01374Y00746*
X01374Y0074*
X01374Y00733*
X01376Y00728*
X01372Y00725*
X01251Y00847*
Y00912*
X01288*
Y00959*
X01177*
Y00912*
X01214*
Y00839*
X01216Y00832*
X0122Y00826*
X01338Y00708*
X01335Y00704*
X01333Y00705*
X01326Y00706*
X01303*
Y00716*
X01269*
X01251Y00734*
X01247Y00737*
X01242Y00738*
X01194*
X01194Y00739*
X01187Y00743*
X0118Y00745*
X01172Y00743*
X01165Y00739*
X01161Y00732*
X01159Y00725*
X01161Y00717*
X01165Y0071*
X01167Y00709*
X01168Y00702*
X01167Y00701*
X01068*
Y00708*
X01031*
Y00701*
X01024*
Y00753*
Y00793*
Y00836*
X01029Y00838*
X01056Y00811*
X01054Y00805*
X01056Y00797*
X0106Y0079*
X01067Y00786*
X01075Y00784*
X01082Y00786*
X01089Y0079*
X01093Y00797*
X01093Y00797*
X01096Y00801*
X01097*
X01136*
Y00838*
X01096*
Y00833*
X0109*
X01084Y00832*
X0108Y00829*
X01078Y00827*
X01038Y00867*
X0104Y00871*
X01065*
Y00866*
X01104*
Y00903*
X01065*
Y00898*
X01033*
X01031Y00902*
X01041Y00912*
X01128*
Y00959*
Y00962*
Y00964*
Y01009*
Y01012*
Y01014*
Y01059*
Y01062*
Y01107*
Y01111*
Y01114*
Y01159*
X01017*
Y01149*
X01006*
X01Y01148*
X00996Y01145*
X00971Y01119*
X0097Y0112*
X00962Y01118*
X00955Y01114*
X00951Y01107*
X00949Y011*
X00951Y01092*
X00955Y01085*
X00962Y01081*
X0097Y01079*
X00977Y01081*
X00984Y01085*
X00988Y01092*
X0099Y011*
X00989Y01101*
X01009Y01121*
X01015*
X01017Y01119*
Y01111*
Y01107*
Y01086*
X00922Y00991*
X00919Y00987*
X00918Y00982*
Y00958*
X00841*
X00839Y00962*
X00849Y00972*
X00852Y00977*
X00853Y00982*
Y01015*
X0089*
Y01061*
X00895Y01065*
X00896Y01065*
X00911*
X00912Y01064*
X00918Y01059*
X00926Y01058*
X00934Y01059*
X0094Y01064*
X00945Y0107*
X00946Y01078*
X00945Y01086*
X0094Y01092*
X00934Y01097*
X00926Y01098*
X00918Y01097*
X00912Y01092*
X00911Y01091*
X00902*
X0089Y01103*
Y01143*
X00869*
X00868Y01148*
Y01201*
X00815*
Y01148*
X00818*
X00819Y01143*
Y01084*
X00872*
X00876Y01079*
X00875Y01074*
X00819*
Y01069*
X00818Y01064*
X00781*
X00776Y01066*
Y01076*
X00723*
Y01063*
X0072*
X00714Y01062*
X0071Y01059*
X00706Y01054*
X00705Y01055*
X00697Y01053*
X0069Y01049*
X00686Y01042*
X00684Y01035*
X00686Y01027*
X0069Y0102*
X00697Y01016*
X00705Y01014*
X00712Y01016*
X00719Y0102*
X00719Y0102*
X00723Y01023*
X0077*
Y01008*
X0073*
Y01003*
X00724*
Y01008*
X00685*
Y00971*
X00708*
X00711Y00966*
X00709Y0096*
X00711Y00952*
X00715Y00945*
X00722Y00941*
X0073Y00939*
X00736Y00941*
X00741Y00938*
Y00918*
X00701*
Y00891*
Y00854*
X00696Y00851*
X00694Y00854*
X0069Y00857*
X00685Y00858*
X00667*
X00662Y00861*
X00655Y00863*
X00647Y00861*
X00642Y00857*
X00638Y00852*
X00636Y00845*
X00637Y00838*
X00638Y00837*
X00635Y00833*
X00575*
X00558Y0085*
X00556Y00857*
X00552Y00862*
X00547Y00866*
X0054Y00868*
X00532Y00866*
X00527Y00862*
X00523Y00857*
X00521Y0085*
X00523Y00842*
X00527Y00837*
X00532Y00833*
X00539Y00831*
X0056Y0081*
X00564Y00807*
X0057Y00806*
X00619*
X00623Y00803*
Y00766*
Y00735*
X00587*
X00582Y00734*
X00577Y00731*
X00559Y00713*
X00495*
X00487Y00721*
Y0078*
X00426*
Y00709*
X00461*
X0048Y0069*
X00484Y00687*
X00489Y00686*
Y00622*
X0055*
Y00645*
X00568*
X00573Y00646*
X00577Y00649*
X00619Y0069*
X00631*
X00635Y00688*
Y00651*
X00674*
Y00655*
X00679Y00657*
X00682Y00656*
X0069Y00654*
X00697Y00656*
X00704Y0066*
X00708Y00667*
X00709Y00671*
X0071Y00671*
X00711Y00672*
X00724*
X00729Y00673*
X0073Y00675*
X00738*
X00741Y00671*
Y00664*
X00725Y00649*
X00722Y00645*
X00721Y0064*
Y00632*
X00716Y0063*
X00714Y00634*
X00707Y00638*
X007Y0064*
X00692Y00638*
X00685Y00634*
X00681Y00627*
X00679Y0062*
X00681Y00613*
X00681Y00608*
Y00571*
X00677Y00568*
X00676*
Y00528*
X00713*
Y00567*
X00717Y0057*
X00721Y00567*
Y00528*
Y00495*
X00726*
Y00445*
X00727Y00439*
X0073Y00435*
X00771Y00394*
X00776Y00391*
X00781Y0039*
X00786*
Y00383*
X00809*
X00812Y00383*
X00828*
Y00376*
X00865*
X00866*
X0087Y00377*
X00943*
Y00397*
X00955Y00409*
X00963*
Y00403*
X01*
Y00411*
X01011*
Y00406*
X01084*
Y00411*
X0109*
Y00407*
X01128*
X01131Y00406*
X01132*
X01205*
Y00411*
X01211*
Y00404*
X01248*
Y00411*
X01254*
Y00405*
X01307*
X01353Y00359*
X01352Y00355*
X00825*
Y00013*
X00117*
X00115Y00018*
X00117Y00018*
X00127Y00027*
X00136Y00037*
X00142Y00049*
X00146Y00061*
X00147Y00075*
X00146Y00088*
X00142Y001*
X00136Y00112*
X00127Y00122*
X00117Y00131*
X00105Y00137*
X00093Y00141*
X0008Y00142*
X00066Y00141*
X00054Y00137*
X00042Y00131*
X00032Y00122*
X00023Y00112*
X00018Y00101*
X00014Y00102*
X00013Y00102*
Y00711*
X00017Y00713*
X0003Y007*
X00034Y00697*
X0004Y00696*
X00078*
Y00696*
X00131*
Y00722*
X0014*
X00145Y00723*
X00149Y00726*
X00185Y00761*
X0019Y00759*
X00191Y00753*
X00195Y00746*
X00202Y00742*
X0021Y0074*
X00217Y00742*
X00224Y00746*
X00224Y00747*
X00233*
Y00722*
Y00696*
Y00672*
X00233Y00671*
X00226Y0067*
X0022Y00666*
X00216Y0066*
X00215Y00653*
X00216Y00646*
X0022Y0064*
X00226Y00636*
X00233Y00635*
X00236Y00635*
X00237Y00634*
X00241Y00631*
Y006*
X00278*
Y00606*
X00285*
Y00561*
X00326*
Y00552*
X00323Y00547*
X00321Y0054*
X00323Y00532*
X00327Y00527*
X00332Y00523*
X0034Y00521*
X00347Y00523*
X00352Y00527*
X00356Y00532*
X00358Y0054*
X00356Y00547*
X00353Y00552*
Y00561*
X00358*
Y00596*
Y00619*
X00379Y0064*
X00382Y00644*
X00383Y0065*
Y00855*
X00382Y0086*
X00379Y00864*
X00363Y00879*
Y00933*
Y00935*
Y00968*
Y01008*
X00348*
X00339Y01017*
Y01084*
X00292*
X0029*
X00242*
X00241*
X00196*
X00193*
X00191*
X00144*
Y01023*
X00135Y01014*
X00132Y0101*
X00131Y01005*
Y00992*
X00128Y00987*
X00126Y0098*
X00128Y00972*
X00132Y00967*
X00137Y00963*
X00145Y00961*
X00152Y00963*
X00157Y00967*
X00161Y00971*
X00166Y0097*
Y00931*
Y00898*
X00137*
X00133Y00901*
Y00938*
X00132Y00943*
X00133Y0095*
X00131Y00957*
X00127Y00962*
X00122Y00966*
X00115Y00968*
X00107Y00966*
X00102Y00962*
X00098Y00957*
X00096Y0095*
X00097Y00943*
X00095Y00938*
X0006*
Y00903*
X00056*
Y00889*
X00053Y00887*
X00052Y00887*
X00047Y00884*
X00017Y00854*
X00013Y00856*
Y01221*
X00013Y01222*
X00015Y01222*
X00018Y0122*
Y01092*
X00117*
Y01221*
Y01226*
X00122Y01226*
X00412*
X00416Y01226*
Y01221*
Y01092*
X00515*
Y01221*
Y01226*
X0052Y01226*
X01322*
Y01085*
X01397*
Y01226*
X01586*
Y01085*
X01661*
Y01226*
X01706*
Y01132*
G37*
G36*
X02016Y00355D02*
X01403D01*
Y00366*
X01384*
X01327Y00423*
Y00443*
X01254*
Y00437*
X01248*
Y00444*
X01211*
Y00437*
X01205*
Y00443*
X01131*
X01128Y00446*
X0109*
Y00438*
X01084*
Y00443*
X01011*
Y00438*
X01*
Y00442*
X00963*
Y00436*
X00952*
X00943Y00445*
Y00465*
X0087*
X00866Y00466*
X00865*
X00828*
Y00459*
X00818*
Y00479*
X00817Y00484*
X00814Y00489*
X00798Y00504*
Y00524*
X00801Y00528*
X00838*
Y00535*
X00843Y00536*
X00847Y00539*
X00848Y0054*
X0085Y00539*
X00857Y00541*
X00864Y00545*
X00868Y00551*
X00873Y00552*
X00915Y0051*
X0092Y00507*
X00925Y00506*
X01274*
X01279Y00507*
X01283Y0051*
X01299Y00526*
X01336*
Y00613*
X01329*
Y00648*
X0129*
Y00613*
X0128*
Y00545*
X01268Y00533*
X01237*
Y00613*
X01226*
Y00648*
X01186*
Y00613*
X01182*
Y00568*
X01069*
Y00635*
X01015*
X01014Y0064*
X01014Y0064*
X01018Y00647*
X0102Y00655*
X01018Y00662*
X01014Y00669*
X01013Y00669*
Y00675*
X01024*
Y00675*
X01031*
Y00668*
X01068*
Y00675*
X01193*
Y00663*
X01246*
X0125*
X01251*
X01303*
Y0067*
X01318*
X01397Y00592*
X01402Y00588*
X0141Y00586*
X01475*
X01482Y00588*
X01488Y00592*
X01531Y00635*
X01535Y00641*
X01536Y00648*
Y00794*
X01553*
Y00838*
X01558Y0084*
X01611Y00787*
Y0062*
X01613Y00612*
X01617Y00607*
X01642Y00582*
X01647Y00578*
X01655Y00576*
X0188*
X01887Y00578*
X01892Y00582*
X01904Y00593*
X02006*
Y00684*
X01883*
Y00624*
X01872Y00613*
X01662*
X01648Y00627*
Y00794*
X01711*
Y00858*
X0164*
Y00817*
X01635Y00815*
X0156Y0089*
Y00926*
X0163*
X01637Y00928*
X01642Y00932*
X01747Y01036*
X01751Y01042*
X01752Y01049*
Y01132*
X01762*
Y01226*
X01797*
Y01132*
X01806*
Y00993*
X01748*
Y00904*
X01741Y00897*
X01737Y00891*
X01736Y00884*
Y00762*
X01731Y0076*
X01727Y00762*
X01721Y00765*
X01715Y00765*
X01708Y00765*
X01702Y00762*
X01696Y00758*
X01692Y00752*
X01689Y00746*
X01689Y0074*
X01689Y00733*
X01692Y00727*
X01696Y00721*
X01702Y00717*
X01708Y00714*
X01715Y00714*
X01721Y00714*
X01727Y00717*
X01731Y00719*
X01736Y00717*
Y00685*
X01718*
Y00621*
X01789*
Y00685*
X01772*
Y00876*
X01774Y00878*
X01901*
Y00993*
X01843*
Y01132*
X01852*
Y01226*
X02016*
Y00355*
G37*
G36*
X00037Y00813D02*
X00045Y00811D01*
X00048Y00812*
X00053Y00808*
Y00791*
X00091*
Y00775*
X00078*
Y00756*
X00041*
Y00734*
X00036Y00732*
X00031Y00737*
Y00811*
X00036Y00814*
X00037Y00813*
G37*
G36*
X00356Y00699D02*
Y00655D01*
X00335Y00633*
X00285*
Y00633*
X00278*
Y0067*
X00286*
Y00656*
X00326*
Y00693*
X00323*
Y00698*
X00328Y007*
X00332Y00698*
X0034Y00696*
X00347Y00698*
X00351Y00701*
X00356Y00699*
G37*
G36*
X00975Y00891D02*
Y00852D01*
Y00812*
Y00773*
Y00734*
Y00684*
X00761*
X00756Y00684*
X00755Y00685*
X00751Y00688*
Y00714*
Y00753*
Y00793*
Y00832*
Y00871*
Y00908*
X00975*
Y00891*
G37*
G36*
X01392Y00236D02*
X01357Y00184D01*
Y00164*
X01317*
Y00093*
X01963*
Y00045*
X00956*
Y00288*
X01231*
Y00318*
X0127*
Y00288*
X01317*
Y00318*
X01357*
Y00238*
X01042*
Y00132*
X0127*
Y00164*
X01231*
Y00212*
X01354*
X01374Y00241*
Y00318*
X01392*
Y00236*
G37*
%LNheadband-pcb-2*%
%LPC*%
G36*
X00733Y01198D02*
X0066D01*
Y01178*
X00624Y01143*
X00579*
Y01084*
X0065*
Y01131*
X00679Y01161*
X00685*
X00688Y01156*
X00686Y01152*
X00684Y01145*
X00686Y01137*
X0069Y0113*
X00697Y01126*
X00705Y01124*
X00712Y01126*
X00719Y0113*
X00723Y01137*
X00725Y01145*
X00724Y01147*
X00725Y01149*
X00726Y01154*
Y01161*
X00733*
Y01198*
G37*
G36*
X01288Y01159D02*
X01177D01*
Y01114*
Y01111*
Y01107*
Y01062*
X01288*
Y01107*
Y01111*
Y01114*
Y01159*
G37*
G36*
X00623Y0048D02*
X00546D01*
Y0046*
X0031*
Y0048*
X00233*
Y00413*
X0031*
Y00433*
X00546*
Y00413*
X00563*
X00567Y00408*
X00566Y00405*
X00568Y00397*
X00572Y00392*
X00577Y00388*
X00585Y00386*
X00592Y00388*
X00597Y00392*
X00601Y00397*
X00603Y00405*
X00602Y00408*
X00606Y00413*
X00623*
Y0048*
G37*
%LNheadband-pcb-3*%
%LPD*%
G54D10*
X00185Y00913D02*
Y00951D01*
X00198*
X0131Y00364D02*
Y00372D01*
Y00364D02*
X01331Y00342D01*
X01145Y00855D02*
Y00885D01*
X01154*
X01118D02*
X01145D01*
X01D02*
X01085D01*
X01006Y01136D02*
X01073D01*
X0097Y011D02*
X01006Y01136D01*
X01233Y01036D02*
X01235Y01034D01*
Y00986D02*
Y01034D01*
X01075Y00805D02*
X0109Y0082D01*
X01116*
X01069Y00814D02*
Y00817D01*
Y00814D02*
X01075Y00808D01*
Y00805D02*
Y00808D01*
X00713Y01154D02*
Y0118D01*
X0138Y00344D02*
X0138Y00344D01*
X0138Y00344D02*
Y00352D01*
X0138Y0032D02*
Y00344D01*
Y0032D02*
X01383Y00318D01*
X0118Y00725D02*
X01242D01*
X01247Y0072*
X01277Y0069*
X01331Y00322D02*
Y00342D01*
X0065Y0098D02*
X00665Y00995D01*
X00495Y00805D02*
X00515Y00785D01*
X00041Y00799D02*
X00065Y00775D01*
X0153Y00895D02*
Y00945D01*
X00018Y00835D02*
X00057Y00874D01*
X00018Y00732D02*
X0004Y0071D01*
X00018Y00732D02*
Y00835D01*
X00041Y00799D02*
Y008D01*
X00848Y01105D02*
X0087D01*
X0084Y0112D02*
X0085Y0113D01*
X0084Y01113D02*
X00848Y01105D01*
X0084Y01113D02*
Y0112D01*
X00657Y00747D02*
X00726D01*
X00669Y00684D02*
X00705D01*
X00707Y00686D02*
X00724D01*
X00705Y00684D02*
X00707Y00686D01*
X00655Y0067D02*
X00669Y00684D01*
X00699Y00704D02*
X00701D01*
X00697Y00702D02*
X00699Y00704D01*
X00662Y00702D02*
X00697D01*
X0066Y00704D02*
X00662Y00702D01*
X00614Y00704D02*
X0066D01*
X00692Y00722D02*
X00693D01*
X0069Y0072D02*
X00692Y00722D01*
X00669Y0072D02*
X0069D01*
X00667Y00722D02*
X00669Y0072D01*
X00587Y00722D02*
X00667D01*
X007Y00768D02*
X00701Y00767D01*
X00695Y00768D02*
X007D01*
X00689Y00774D02*
X00695Y00768D01*
X0068Y00774D02*
X00689D01*
X00701Y00767D02*
X00726D01*
X00665Y0079D02*
X0068Y00774D01*
X00305Y00645D02*
X00325D01*
X00305Y00615D02*
Y0062D01*
Y0058D02*
Y00615D01*
X0026Y0062D02*
X00305D01*
X00338D02*
X0034D01*
X00325Y00645D02*
X0034Y0066D01*
Y00675*
X00625Y0058D02*
Y00666D01*
Y0057D02*
Y0058D01*
X0068Y00515D02*
X00695D01*
X00625Y0057D02*
X0068Y00515D01*
X00805Y00437D02*
Y00479D01*
X0078Y00505D02*
X00805Y00479D01*
X0078Y00505D02*
Y00515D01*
X0126Y0076D02*
X0128Y0074D01*
X01145Y0076D02*
X0126D01*
X01155Y00605D02*
Y00655D01*
X0105D02*
X01155D01*
X0123*
X01Y00865D02*
X01021D01*
X01069Y00817*
X01026Y01036D02*
X01073D01*
X00951Y00961D02*
X01026Y01036D01*
X00951Y00933D02*
Y00961D01*
X01036Y01086D02*
X01073D01*
X00932Y00982D02*
X01036Y01086D01*
X00932Y00933D02*
Y00982D01*
X0073Y0096D02*
Y0097D01*
X00774Y00933D02*
Y00955D01*
X0075Y0098D02*
X00774Y00955D01*
X0075Y0098D02*
Y0099D01*
X00693Y00806D02*
X00726D01*
X0068Y0082D02*
X00693Y00806D01*
X0057Y0082D02*
X0068D01*
X00703Y00826D02*
X00726D01*
X00685Y00845D02*
X00703Y00826D01*
X00655Y00845D02*
X00685D01*
X00565Y007D02*
X00587Y00722D01*
X00568Y00658D02*
X00614Y00704D01*
X00699Y00727D02*
X00726D01*
X00724Y00686D02*
X00726Y00688D01*
X00704Y00707D02*
X00712D01*
X00701Y00704D02*
X00704Y00707D01*
X00693Y00722D02*
X00699Y00727D01*
X00713Y00708D02*
X00726D01*
X00712Y00707D02*
X00713Y00708D01*
X0052Y00658D02*
X00568D01*
X0021Y00761D02*
X0026D01*
X00195Y00781D02*
X00199Y00785D01*
X00186Y00781D02*
X00195D01*
X0014Y00735D02*
X00186Y00781D01*
X00199Y00785D02*
X0022D01*
X00055Y00735D02*
X00105D01*
X00224Y00781D02*
X00303D01*
X0022Y00785D02*
X00224Y00781D01*
X0006Y0077D02*
X00065Y00775D01*
X00115Y00923D02*
X0012Y00918D01*
X00057Y00874D02*
X00059D01*
X00045Y0083D02*
X00053D01*
X00073Y0081*
X00059Y00874D02*
X00068Y00883D01*
X0004Y0071D02*
X00105D01*
X0044Y00805D02*
X00495D01*
X004Y00765D02*
X0044Y00805D01*
X004Y0064D02*
Y00765D01*
X00813Y0059D02*
Y00601D01*
X00794Y0062D02*
X00813Y00601D01*
X00794Y0062D02*
Y0066D01*
X00859Y00584D02*
X0086D01*
X00838Y00606D02*
X00859Y00584D01*
X00838Y00606D02*
X00838D01*
X00925Y0052D02*
X01274D01*
X0095Y00555D02*
X0121D01*
X00834Y00636D02*
Y00659D01*
X00833Y0066D02*
X00834Y00659D01*
X00814Y0063D02*
X0083Y00613D01*
X00814Y0063D02*
Y0066D01*
X00833Y00636D02*
X00834Y00636D01*
X0083Y00613D02*
Y00613D01*
Y00613D02*
X00838Y00606D01*
X00902Y00602D02*
X0095Y00555D01*
X00867Y00602D02*
X00902D01*
X00833Y00636D02*
X00867Y00602D01*
X0086Y00584D02*
X00925Y0052D01*
X01274D02*
X01308Y00553D01*
X0121Y00555D02*
Y0057D01*
X00105Y00735D02*
X0014D01*
X00105Y00761D02*
Y00808D01*
X0194Y0037D02*
Y00415D01*
X0182Y00535D02*
X0194Y00415D01*
X0153Y00375D02*
X01645D01*
X01527Y00372D02*
X0153Y00375D01*
X003Y0035D02*
X0039D01*
X00485D02*
X00585D01*
X0065Y00295D02*
X00765D01*
Y00045D02*
Y0018D01*
X0064Y00045D02*
Y00175D01*
X00535Y0005D02*
Y00175D01*
X0044Y0005D02*
Y00175D01*
X00325Y0005D02*
Y00175D01*
X00105Y0017D02*
X00215D01*
X00105Y00285D02*
X00215D01*
X00105Y00395D02*
X00215D01*
X00105Y0052D02*
X00215D01*
X00105Y0063D02*
Y00684D01*
X00415Y00895D02*
X0051D01*
X00415Y0098D02*
X0051D01*
X0135Y00815D02*
Y00915D01*
X01445Y0071D02*
Y00815D01*
X0156Y00615D02*
Y0079D01*
X0182Y00735D02*
Y0086D01*
X01065Y00425D02*
X01151D01*
X00272Y0027D02*
X00585D01*
Y00405D02*
Y00447D01*
X00272D02*
X00585D01*
X0138Y00315D02*
X01383Y00318D01*
X0138Y00315D02*
X0138Y00315D01*
X01307Y00424D02*
X0138Y00352D01*
X0123Y00349D02*
X01251Y00327D01*
X0123Y00349D02*
Y0039D01*
X01257Y00327D02*
X01326D01*
X00751Y00363D02*
X00847D01*
X00695Y0042D02*
Y00515D01*
Y0042D02*
X00751Y00363D01*
X0074Y00445D02*
Y00515D01*
Y00445D02*
X00781Y00403D01*
X00805*
X00845Y00515D02*
X00847Y00512D01*
Y00479D02*
Y00512D01*
X01326Y00327D02*
X01331Y00322D01*
X00305Y00813D02*
X00338D01*
X0054Y0085D02*
X0057Y0082D01*
X0034Y00715D02*
Y0072D01*
X0032Y0074D02*
X0034Y0072D01*
X00305Y0074D02*
X0032D01*
X00338Y0058D02*
X0034Y00578D01*
Y0054D02*
Y00578D01*
X00168Y01028D02*
Y01045D01*
X00145Y01005D02*
X00168Y01028D01*
X00145Y0098D02*
Y01005D01*
X00205Y01032D02*
X00217Y01045D01*
X00205Y01005D02*
Y01032D01*
X00185Y00985D02*
X00205Y01005D01*
X00198Y00951D02*
X00231Y00985D01*
X00265Y00985D02*
X00266Y00984D01*
X00265Y01043D02*
X00266Y01045D01*
X00265Y00985D02*
Y01043D01*
X00345Y0088D02*
X0037Y00855D01*
Y0065D02*
Y00855D01*
X0034Y0062D02*
X0037Y0065D01*
X00303Y00781D02*
X00305Y0078D01*
X00301Y0081D02*
X00305Y00813D01*
X00106Y0081D02*
X00301D01*
X00113Y00881D02*
Y0092D01*
X00115Y00923D02*
Y0095D01*
X00105Y00808D02*
X00106Y0081D01*
X003Y00845D02*
X0034D01*
X00233Y00653D02*
X0026D01*
Y00683D02*
X0026Y00684D01*
X0026Y00653D02*
Y00683D01*
X00305Y00706D02*
X00306Y00705D01*
Y00675D02*
Y00705D01*
X00301Y0071D02*
X00305Y00706D01*
X0026Y0071D02*
X00301D01*
X0026Y00736D02*
X00301D01*
X00305Y0074*
X00068Y00883D02*
X00075D01*
X003Y0088D02*
X00345D01*
Y00913D02*
Y00955D01*
X0034Y0095D02*
X00345Y00955D01*
X003Y0095D02*
X0034D01*
X00196Y0088D02*
X00231Y00915D01*
X00185Y0088D02*
X00196D01*
X00148D02*
X00185D01*
X00113Y00881D02*
X00115Y0088D01*
X00075Y00915D02*
X0008Y0092D01*
X00075Y00883D02*
Y00915D01*
Y0085D02*
X00081Y00843D01*
X00265*
X00266Y00845*
Y0088*
X00265Y00881D02*
X00266Y0088D01*
X00265Y00881D02*
Y00915D01*
X00266Y00916*
Y0095*
Y00984*
X00055Y00736D02*
X00055Y00735D01*
X01046Y00936D02*
X01073D01*
X01015Y00905D02*
X01046Y00936D01*
X01Y00905D02*
X01015D01*
X01041Y00986D02*
X01073D01*
X00988Y00933D02*
X01041Y00986D01*
X00971Y00933D02*
X00988D01*
X0084Y00982D02*
Y01045D01*
X0061Y0098D02*
X0065D01*
X00665Y00995D02*
X00671Y0099D01*
X00896Y01078D02*
X00926D01*
X0087Y01105D02*
X00896Y01078D01*
X0075Y01145D02*
X0078Y01175D01*
X00785*
X00842D02*
X00855Y01162D01*
Y01113D02*
Y01162D01*
X0115Y006D02*
X01155Y00605D01*
X01108Y006D02*
X0115D01*
X01035Y00605D02*
X0104Y006D01*
X0099Y00605D02*
X01035D01*
X00951Y00609D02*
X00956Y00605D01*
X00951Y00609D02*
Y0066D01*
X0082Y00515D02*
X00845D01*
X0049Y007D02*
X00565D01*
X00457Y00732D02*
X0049Y007D01*
X00457Y00732D02*
Y00745D01*
X004Y00625D02*
Y0064D01*
Y00625D02*
X0042Y00605D01*
X00556*
X004Y0064D02*
X00438D01*
X00457Y00658*
X0061Y00756D02*
Y00785D01*
X0073Y0097D02*
X0075Y0099D01*
X00735Y0064D02*
X00755Y0066D01*
X00735Y0059D02*
Y0064D01*
X00695Y00583D02*
X00701Y0059D01*
X00695Y00548D02*
Y00583D01*
X00813Y0059D02*
X0082Y00583D01*
Y00548D02*
Y00583D01*
X00774Y00595D02*
X0078Y0059D01*
X00774Y00595D02*
Y0066D01*
X00735Y00553D02*
X0074Y00548D01*
X00735Y00553D02*
Y0059D01*
X0078Y00548D02*
Y0059D01*
X00805Y00437D02*
X00814Y00446D01*
X00847*
X0089*
X00805Y00403D02*
X00812Y00396D01*
X00847*
X0089*
X00923Y00446D02*
X00946Y00423D01*
X00923Y00396D02*
X00949Y00423D01*
X00946D02*
X00949D01*
X00982*
X00983Y00425*
X01031*
X01185Y00424D02*
X0123D01*
X01274*
X00955Y00363D02*
X00982Y00389D01*
X00847Y00363D02*
X00955D01*
X0109Y00479D02*
X01109Y0046D01*
X00847Y00479D02*
X0109D01*
X00982Y00389D02*
X01228D01*
X01Y00885D02*
X01Y00885D01*
X00655Y00745D02*
X00657Y00747D01*
X00794Y00933D02*
Y00979D01*
X00783Y0099D02*
X00794Y00979D01*
X00783Y01028D02*
X008Y01045D01*
X00783Y0099D02*
Y01028D01*
X00755Y01045D02*
X008D01*
X0075Y0105D02*
X00755Y01045D01*
X00771Y01107D02*
X008Y01078D01*
X0075Y01107D02*
X00771D01*
X0075D02*
Y01145D01*
X00671Y0099D02*
Y01071D01*
X00705Y0099D02*
X0075D01*
X00814Y00933D02*
Y00956D01*
X0084Y00982*
X00556Y00605D02*
X00621Y0067D01*
X00625Y00666*
X0072Y0105D02*
X0075D01*
X00705Y01035D02*
X0072Y0105D01*
X01Y00655D02*
Y00688D01*
X01Y00655D02*
X01Y00655D01*
X0082Y00548D02*
X00838D01*
X0085Y0056*
X007Y00591D02*
Y0062D01*
Y00591D02*
X00701Y0059D01*
X01416Y00347D02*
Y00372D01*
X01Y00688D02*
X01049D01*
X0105Y00688*
X01218D02*
X0122Y0069D01*
X01277D02*
X01278Y00688D01*
X01805Y00935D02*
X01825D01*
X01915Y01159D02*
Y0118D01*
Y01159D02*
X01945Y0113D01*
Y0082D02*
Y0113D01*
X01923Y00638D02*
X01945D01*
X0124Y0063D02*
X01276D01*
X0105Y00688D02*
X01218D01*
X0124Y0063D02*
Y00645D01*
X0123Y00655D02*
X0124Y00645D01*
X01206Y00573D02*
Y0063D01*
Y00573D02*
X0121Y0057D01*
X0131Y00571D02*
Y0063D01*
X01308Y0057D02*
X0131Y00571D01*
X01308Y00553D02*
Y0057D01*
X00671Y01071D02*
X00707Y01107D01*
X0075*
X0061Y0098D02*
Y0104D01*
X00615Y01045*
X00515Y00785D02*
X0061D01*
X0052Y00745D02*
Y0078D01*
X00515Y00785D02*
X0052Y0078D01*
X00515Y00785D02*
Y00785D01*
X00495Y00805D02*
X00505D01*
X00615Y01113D02*
Y01115D01*
X0068Y0118*
X00314Y01023D02*
X00345Y00993D01*
G54D18*
X01623Y0116D03*
X0136D03*
G54D19*
X01531Y00941D03*
X01452D03*
G54D20*
X01073Y01136D03*
X01233D03*
X01073Y01086D03*
X01233D03*
X01073Y01036D03*
X01233D03*
X01073Y00986D03*
X01235D03*
X01073Y00936D03*
X01233D03*
G54D21*
X00365Y01045D03*
X00315D03*
X00266D03*
X00168D03*
X00217D03*
G54D22*
X00466Y01159D03*
X00068D03*
G54D23*
X01255Y0033D03*
G54D24*
X01335Y00325D03*
G54D25*
X01383Y00318D03*
G54D26*
X00305Y00813D03*
Y0078D03*
X0026Y00653D03*
Y0062D03*
X00305Y0074D03*
Y00706D03*
X00185Y00913D03*
Y0088D03*
Y00985D03*
Y00951D03*
X0006Y0077D03*
Y00736D03*
X00345Y0088D03*
Y00913D03*
Y00955D03*
Y00988D03*
X00805Y00437D03*
Y00403D03*
X00847Y00479D03*
Y00446D03*
X00075Y0085D03*
Y00883D03*
X00847Y00363D03*
Y00396D03*
X0123Y00424D03*
Y0039D03*
X01109Y0046D03*
Y00426D03*
X00982Y00423D03*
Y00389D03*
X0082Y00515D03*
Y00548D03*
X00695Y00515D03*
Y00548D03*
X0078Y00515D03*
Y00548D03*
X0074Y00515D03*
Y00548D03*
X008Y01078D03*
Y01045D03*
X0105Y00655D03*
Y00688D03*
G54D27*
X0034Y00675D03*
X00306D03*
X0008Y0092D03*
X00113D03*
X00106Y0081D03*
X00073D03*
X00266Y00845D03*
X003D03*
X00305Y00615D03*
X00338D03*
X00115Y0088D03*
X00148D03*
X00956Y00605D03*
X0099D03*
X00713Y0118D03*
X0068D03*
X00783Y0099D03*
X0075D03*
X00923Y00396D03*
X0089D03*
X01185Y00425D03*
X01151D03*
X01065D03*
X01031D03*
X0078Y0059D03*
X00813D03*
X00735D03*
X00701D03*
X00231Y00985D03*
X00265D03*
X00305Y0058D03*
X00338D03*
X01383Y00347D03*
X01416D03*
X01307Y00424D03*
X01274D03*
X00923Y00446D03*
X0089D03*
X01118Y00885D03*
X01085D03*
X0124Y0063D03*
X01206D03*
X01276D03*
X0131D03*
X00671Y0099D03*
X00705D03*
X0061Y00785D03*
X00643D03*
X0115Y0082D03*
X01116D03*
X00621Y0067D03*
X00655D03*
X0061Y0075D03*
X00643D03*
X00266Y0095D03*
X003D03*
X00266Y0088D03*
X003D03*
X00265Y00915D03*
X00231D03*
G54D28*
X0121Y0057D03*
X01308D03*
G54D29*
X01108Y006D03*
X0104D03*
G54D30*
X00105Y00761D03*
Y00735D03*
Y0071D03*
Y00684D03*
X0026D03*
Y0071D03*
Y00736D03*
Y00761D03*
G54D31*
X01754Y00653D03*
X01675Y00826D03*
X01518D03*
X01439Y00653D03*
G54D32*
X00855Y01045D03*
Y01113D03*
X00615Y01045D03*
Y01113D03*
G54D33*
X00457Y00658D03*
Y00745D03*
X0052D03*
Y00658D03*
G54D34*
X00755Y0066D03*
G54D35*
X00774Y0066D03*
X00794D03*
X00814D03*
X00833D03*
X00853D03*
X00873D03*
X00892D03*
X00912D03*
X00932D03*
X00951D03*
X00971D03*
Y00933D03*
X00951D03*
X00932D03*
X00912D03*
X00892D03*
X00873D03*
X00853D03*
X00833D03*
X00814D03*
X00794D03*
X00774D03*
X00755D03*
G54D36*
X01Y00688D03*
Y00708D03*
Y00727D03*
Y00747D03*
Y00767D03*
Y00786D03*
Y00806D03*
Y00826D03*
Y00846D03*
Y00865D03*
Y00885D03*
Y00905D03*
X00726D03*
Y00885D03*
Y00865D03*
Y00846D03*
Y00826D03*
Y00806D03*
Y00786D03*
Y00767D03*
Y00747D03*
Y00727D03*
Y00708D03*
Y00688D03*
G54D37*
X00863Y00796D03*
G54D38*
X01825Y00935D03*
G54D39*
X01734Y0118D03*
X01825D03*
X01915D03*
G54D40*
X00272Y0027D03*
Y00447D03*
X00585D03*
Y0027D03*
G54D41*
X0122Y0069D03*
X01277D03*
X00785Y01175D03*
X00842D03*
G54D42*
X0075Y01107D03*
Y0105D03*
G54D43*
X01945Y0082D03*
Y00638D03*
G54D74*
X0131Y00372D03*
X0097Y011D03*
X01075Y00805D03*
X0118Y00725D03*
X0068Y00745D03*
X01155Y00655D03*
X0073Y0096D03*
X0069Y00675D03*
X0021Y00761D03*
X0061Y0098D03*
X00665Y0079D03*
X00926Y01078D03*
X01155Y00605D03*
X0079Y00761D03*
Y00797D03*
Y00833D03*
X00827Y0087D03*
Y00833D03*
Y00797D03*
Y00761D03*
Y00725D03*
X00865Y0087D03*
Y00833D03*
Y00797D03*
Y00761D03*
Y00725D03*
X00902Y0087D03*
Y00833D03*
Y00797D03*
Y00761D03*
Y00725D03*
X0094Y0087D03*
Y00833D03*
Y00797D03*
Y00761D03*
X0079Y00725D03*
X0094D03*
X0079Y0087D03*
X00845Y00515D03*
X004Y0064D03*
X00625Y0058D03*
X00505Y00805D03*
X00705Y01035D03*
X01Y00655D03*
X0085Y0056D03*
X007Y0062D03*
X01416Y00372D03*
X00705Y01145D03*
G54D75*
X0153Y00945D02*
X0163D01*
X01518Y00648D02*
Y00826D01*
X01475Y00605D02*
X01518Y00648D01*
X0141Y00605D02*
X01475D01*
X01419Y00653D02*
X01439D01*
X01233Y00839D02*
X01419Y00653D01*
X01233Y00839D02*
Y00936D01*
X0163Y0062D02*
Y00795D01*
X0153Y00895D02*
X0163Y00795D01*
X01825Y00935D02*
Y0118D01*
X01278Y00688D02*
X01326D01*
X01754Y00653D02*
Y00884D01*
X01805Y00935*
X0163Y00945D02*
X01734Y01049D01*
Y0118*
X0163Y0062D02*
X01655Y00595D01*
X0188*
X01923Y00638*
X01326Y00688D02*
X0141Y00605D01*
G54D76*
X01715Y0074D03*
X014D03*
G54D77*
X01145Y00855D03*
X00041Y008D03*
X00305Y00645D03*
X00233Y00653D03*
X00045Y0083D03*
X0128Y0074D03*
X00105Y0063D03*
X0194Y0037D03*
X01645Y00375D03*
X00215Y0035D03*
X003D03*
X0039D03*
X00485D03*
X00585D03*
X0065Y00295D03*
X00765D03*
Y0018D03*
Y00045D03*
X0064D03*
Y00175D03*
X00535D03*
Y0005D03*
X0044D03*
Y00175D03*
X00325D03*
Y0005D03*
X00215D03*
X00105Y0017D03*
X00215D03*
Y00285D03*
X00105D03*
Y00395D03*
X00215D03*
Y0052D03*
X00105D03*
X0051Y00895D03*
X00415Y0098D03*
Y00895D03*
X0051Y0098D03*
X01145Y0076D03*
X0135Y00915D03*
Y00815D03*
X01445D03*
Y0071D03*
X0156Y00615D03*
Y0079D03*
X0182Y0086D03*
Y00735D03*
Y00535D03*
X01527Y00372D03*
X00585Y00405D03*
X0054Y0085D03*
X00338Y00813D03*
X0034Y00715D03*
Y0054D03*
X00655Y00845D03*
X00115Y0095D03*
X0034Y00845D03*
X00145Y0098D03*
G54D78*
X0008Y00075D03*
M02*